<?xml version="1.0" encoding="UTF-8" standalone="no"?><svg xmlns="http://www.w3.org/2000/svg" xmlns:xlink="http://www.w3.org/1999/xlink" contentScriptType="application/ecmascript" contentStyleType="text/css" height="819px" preserveAspectRatio="none" style="width:823px;height:819px;background:#FFFFFF;" version="1.1" viewBox="0 0 823 819" width="823px" zoomAndPan="magnify"><defs><filter height="300%" id="fxehmax41ux1n" width="300%" x="-1" y="-1"><feGaussianBlur result="blurOut" stdDeviation="2.0"/><feColorMatrix in="blurOut" result="blurOut2" type="matrix" values="0 0 0 0 0 0 0 0 0 0 0 0 0 0 0 0 0 0 .4 0"/><feOffset dx="4.0" dy="4.0" in="blurOut2" result="blurOut3"/><feBlend in="SourceGraphic" in2="blurOut3" mode="normal"/></filter></defs><g><!--MD5=[09fd8552ab48c65ddc70dbeb1978b198]
cluster network--><polygon fill="#D3D3D3" filter="url(#fxehmax41ux1n)" points="16,359,88,359,95,381.2969,419,381.2969,419,456,16,456,16,359" style="stroke:#000000;stroke-width:1.5;"/><line style="stroke:#000000;stroke-width:1.5;" x1="16" x2="95" y1="381.2969" y2="381.2969"/><text fill="#000000" font-family="sans-serif" font-size="14" font-weight="bold" lengthAdjust="spacing" textLength="66" x="20" y="373.9951">network</text><!--MD5=[72fae8e1779ba7dedab19f6352fd74e8]
cluster parser--><polygon fill="#D3D3D3" filter="url(#fxehmax41ux1n)" points="280,608,337,608,344,630.2969,386,630.2969,386,705,280,705,280,608" style="stroke:#000000;stroke-width:1.5;"/><line style="stroke:#000000;stroke-width:1.5;" x1="280" x2="344" y1="630.2969" y2="630.2969"/><text fill="#000000" font-family="sans-serif" font-size="14" font-weight="bold" lengthAdjust="spacing" textLength="51" x="284" y="622.9951">parser</text><!--MD5=[42603eecb267091c13893a16d8c379fb]
cluster player--><polygon fill="#D3D3D3" filter="url(#fxehmax41ux1n)" points="515,90,571,90,578,112.2969,806,112.2969,806,705,515,705,515,90" style="stroke:#000000;stroke-width:1.5;"/><line style="stroke:#000000;stroke-width:1.5;" x1="515" x2="578" y1="112.2969" y2="112.2969"/><text fill="#000000" font-family="sans-serif" font-size="14" font-weight="bold" lengthAdjust="spacing" textLength="50" x="519" y="104.9951">player</text><!--MD5=[ba38d564a2fd195e0495449e7e39a4e4]
entity NetworkUtils--><rect fill="#FEFECE" filter="url(#fxehmax41ux1n)" height="46.2969" style="stroke:#A80036;stroke-width:1.5;" width="128" x="32" y="394"/><rect fill="#FEFECE" height="10" style="stroke:#A80036;stroke-width:1.5;" width="15" x="140" y="399"/><rect fill="#FEFECE" height="2" style="stroke:#A80036;stroke-width:1.5;" width="4" x="138" y="401"/><rect fill="#FEFECE" height="2" style="stroke:#A80036;stroke-width:1.5;" width="4" x="138" y="405"/><text fill="#000000" font-family="sans-serif" font-size="14" lengthAdjust="spacing" textLength="88" x="47" y="426.9951">NetworkUtils</text><!--MD5=[073a9e5508879681648fac7d34324bbc]
entity RadioBrowser--><rect fill="#FEFECE" filter="url(#fxehmax41ux1n)" height="46.2969" style="stroke:#A80036;stroke-width:1.5;" width="139" x="263.5" y="394"/><rect fill="#FEFECE" height="10" style="stroke:#A80036;stroke-width:1.5;" width="15" x="382.5" y="399"/><rect fill="#FEFECE" height="2" style="stroke:#A80036;stroke-width:1.5;" width="4" x="380.5" y="401"/><rect fill="#FEFECE" height="2" style="stroke:#A80036;stroke-width:1.5;" width="4" x="380.5" y="405"/><text fill="#000000" font-family="sans-serif" font-size="14" lengthAdjust="spacing" textLength="99" x="278.5" y="426.9951">RadioBrowser</text><!--MD5=[c470d76c68afda2f5e9525cd4f85a320]
entity JSON--><rect fill="#FEFECE" filter="url(#fxehmax41ux1n)" height="46.2969" style="stroke:#A80036;stroke-width:1.5;" width="74" x="296" y="643"/><rect fill="#FEFECE" height="10" style="stroke:#A80036;stroke-width:1.5;" width="15" x="350" y="648"/><rect fill="#FEFECE" height="2" style="stroke:#A80036;stroke-width:1.5;" width="4" x="348" y="650"/><rect fill="#FEFECE" height="2" style="stroke:#A80036;stroke-width:1.5;" width="4" x="348" y="654"/><text fill="#000000" font-family="sans-serif" font-size="14" lengthAdjust="spacing" textLength="34" x="311" y="675.9951">JSON</text><!--MD5=[e8907a2785b2ea9784e1231cc1aa4a14]
entity RadioPlayer--><rect fill="#FEFECE" filter="url(#fxehmax41ux1n)" height="46.2969" style="stroke:#A80036;stroke-width:1.5;" width="125" x="531.5" y="394"/><rect fill="#FEFECE" height="10" style="stroke:#A80036;stroke-width:1.5;" width="15" x="636.5" y="399"/><rect fill="#FEFECE" height="2" style="stroke:#A80036;stroke-width:1.5;" width="4" x="634.5" y="401"/><rect fill="#FEFECE" height="2" style="stroke:#A80036;stroke-width:1.5;" width="4" x="634.5" y="405"/><text fill="#000000" font-family="sans-serif" font-size="14" lengthAdjust="spacing" textLength="85" x="546.5" y="426.9951">RadioPlayer</text><!--MD5=[de2effd8dc5bf946a609466312d0f75f]
entity Player--><rect fill="#FEFECE" filter="url(#fxehmax41ux1n)" height="46.2969" style="stroke:#A80036;stroke-width:1.5;" width="84" x="654" y="125"/><rect fill="#FEFECE" height="10" style="stroke:#A80036;stroke-width:1.5;" width="15" x="718" y="130"/><rect fill="#FEFECE" height="2" style="stroke:#A80036;stroke-width:1.5;" width="4" x="716" y="132"/><rect fill="#FEFECE" height="2" style="stroke:#A80036;stroke-width:1.5;" width="4" x="716" y="136"/><text fill="#000000" font-family="sans-serif" font-size="14" lengthAdjust="spacing" textLength="44" x="669" y="157.9951">Player</text><!--MD5=[031e947446d0acf39314cbfc4096f809]
entity AudioOutput--><rect fill="#FEFECE" filter="url(#fxehmax41ux1n)" height="46.2969" style="stroke:#A80036;stroke-width:1.5;" width="129" x="603.5" y="643"/><rect fill="#FEFECE" height="10" style="stroke:#A80036;stroke-width:1.5;" width="15" x="712.5" y="648"/><rect fill="#FEFECE" height="2" style="stroke:#A80036;stroke-width:1.5;" width="4" x="710.5" y="650"/><rect fill="#FEFECE" height="2" style="stroke:#A80036;stroke-width:1.5;" width="4" x="710.5" y="654"/><text fill="#000000" font-family="sans-serif" font-size="14" lengthAdjust="spacing" textLength="89" x="618.5" y="675.9951">AudioOutput</text><!--MD5=[b1eafec5714c1c2e1739ec2f4e32653b]
entity iPlayer--><ellipse cx="611" cy="267" fill="#FEFECE" filter="url(#fxehmax41ux1n)" rx="8" ry="8" style="stroke:#A80036;stroke-width:1.5;"/><text fill="#000000" font-family="sans-serif" font-size="14" lengthAdjust="spacing" textLength="112" x="555" y="296.9951">Player interface</text><!--MD5=[0015618b095ddb59eb88a6c6643322a2]
entity iAudioOut--><ellipse cx="611" cy="532" fill="#FEFECE" filter="url(#fxehmax41ux1n)" rx="8" ry="8" style="stroke:#A80036;stroke-width:1.5;"/><text fill="#000000" font-family="sans-serif" font-size="14" lengthAdjust="spacing" textLength="134" x="544" y="561.9951">AudioOut interface</text><!--MD5=[8f1922df71fbb09ba3d52e2bfb881e20]
entity RadioBrowserAPI--><ellipse cx="96" cy="267" fill="#FEFECE" filter="url(#fxehmax41ux1n)" rx="8" ry="8" style="stroke:#A80036;stroke-width:1.5;"/><text fill="#000000" font-family="sans-serif" font-size="14" lengthAdjust="spacing" textLength="129" x="31.5" y="296.9951">Radio Browser API</text><!--MD5=[18ed41bc3c380f16b51f00d3688aa4e9]
entity RadioStream--><ellipse cx="696" cy="14" fill="#000000" filter="url(#fxehmax41ux1n)" rx="8" ry="8" style="stroke:#000000;stroke-width:1.5;"/><text fill="#000000" font-family="sans-serif" font-size="14" lengthAdjust="spacing" textLength="97" x="647.5" y="43.9951">Radio Stream</text><!--MD5=[55ead11f279d43a49df83e73bfcb0783]
entity out--><ellipse cx="668" cy="781" fill="#000000" filter="url(#fxehmax41ux1n)" rx="8" ry="8" style="stroke:#000000;stroke-width:1.5;"/><text fill="#000000" font-family="sans-serif" font-size="14" lengthAdjust="spacing" textLength="72" x="632" y="810.9951">Sound out</text><!--MD5=[4b32b9e856efd772b691494dcd3e9bd9]
entity opin--><ellipse cx="386" cy="148" fill="#000000" filter="url(#fxehmax41ux1n)" rx="8" ry="8" style="stroke:#000000;stroke-width:1.5;"/><text fill="#000000" font-family="sans-serif" font-size="14" lengthAdjust="spacing" textLength="104" x="334" y="177.9951">Operator input</text><!--MD5=[f855680bc6c989572ebb25245d27968d]
entity Controller--><rect fill="#FFD700" filter="url(#fxehmax41ux1n)" height="46.2969" style="stroke:#000000;stroke-width:1.5;" width="111" x="330.5" y="244"/><rect fill="#FFD700" height="10" style="stroke:#000000;stroke-width:1.5;" width="15" x="421.5" y="249"/><rect fill="#FFD700" height="2" style="stroke:#000000;stroke-width:1.5;" width="4" x="419.5" y="251"/><rect fill="#FFD700" height="2" style="stroke:#000000;stroke-width:1.5;" width="4" x="419.5" y="255"/><text fill="#000000" font-family="sans-serif" font-size="14" lengthAdjust="spacing" textLength="71" x="345.5" y="276.9951">Controller</text><!--MD5=[ad389495de935a78c223c443c6802e65]
reverse link NetworkUtils to RadioBrowser--><path d="M145.19,392.05 C155.53,387.89 166.55,384.21 177.25,382 C207.28,375.81 216.15,376.16 246.25,382 C259.32,384.54 272.92,389.04 285.37,393.99 " fill="none" id="NetworkUtils-backto-RadioBrowser" style="stroke:#A80036;stroke-width:1.0;"/><polygon fill="#A80036" points="140.49,394,150.3358,394.2459,145.1083,392.084,147.2702,386.8566,140.49,394" style="stroke:#A80036;stroke-width:1.0;"/><!--MD5=[ad389495de935a78c223c443c6802e65]
reverse link NetworkUtils to RadioBrowser--><path d="M165.19,433.14 C174.25,434.73 183.44,436.09 192.25,437 C215.45,439.39 240.7,437.28 263.33,433.68 " fill="none" id="NetworkUtils-backto-RadioBrowser-1" style="stroke:#000000;stroke-width:1.0;stroke-dasharray:7.0,7.0;"/><polygon fill="#000000" points="160.17,432.23,168.3206,437.7588,165.0912,433.1144,169.7356,429.885,160.17,432.23" style="stroke:#000000;stroke-width:1.0;"/><text fill="#000000" font-family="sans-serif" font-size="13" lengthAdjust="spacing" textLength="37" x="193.25" y="433.0669">query</text><!--MD5=[3886d9932d035bec6863d22b9ee6cdc9]
link NetworkUtils to RadioBrowser--><path d="M160.14,417 C190.45,417 226.84,417 258.38,417 " fill="none" id="NetworkUtils-to-RadioBrowser" style="stroke:#000000;stroke-width:1.0;stroke-dasharray:7.0,7.0;"/><polygon fill="#000000" points="263.4,417,254.4115,412.9743,258.4,416.9857,254.3886,420.9743,263.4,417" style="stroke:#000000;stroke-width:1.0;"/><text fill="#000000" font-family="sans-serif" font-size="13" lengthAdjust="spacing" textLength="37" x="193.25" y="395.0669">string</text><text fill="#000000" font-family="sans-serif" font-size="13" lengthAdjust="spacing" textLength="67" x="178.25" y="410.1997">(raw data)</text><!--MD5=[75853dcaa19bcede90c5136d4b8404d2]
reverse link RadioBrowserAPI to NetworkUtils--><path d="M96,286.49 C96,313.75 96,364.66 96,393.88 " fill="none" id="RadioBrowserAPI-backto-NetworkUtils" style="stroke:#A80036;stroke-width:1.0;"/><path d="M87.5428,279.4582 A9,9 0 0 0 104.4572 279.4582" style="stroke:#A80036;stroke-width:1.5;fill:none;"/><text fill="#000000" font-family="sans-serif" font-size="13" lengthAdjust="spacing" textLength="37" x="97" y="339.0669">http/s</text><!--MD5=[c913f57a5a23e448c1f57e842e97dd3f]
link RadioBrowser to JSON--><path d="M333,440.36 C333,485.73 333,588.48 333,637.71 " fill="none" id="RadioBrowser-to-JSON" style="stroke:#A80036;stroke-width:1.0;"/><polygon fill="#A80036" points="333,642.87,337,633.87,333,637.87,329,633.87,333,642.87" style="stroke:#A80036;stroke-width:1.0;"/><!--MD5=[c913f57a5a23e448c1f57e842e97dd3f]
link RadioBrowser to JSON--><path d="M346.38,440.03 C351.39,449.51 356.48,460.94 359,472 C370.87,524 368.08,539.45 359,592 C356.29,607.7 350.52,624.5 345.1,638.02 " fill="none" id="RadioBrowser-to-JSON-1" style="stroke:#000000;stroke-width:1.0;stroke-dasharray:7.0,7.0;"/><polygon fill="#000000" points="343.13,642.85,350.23,636.0244,345.0165,638.2195,342.8213,633.006,343.13,642.85" style="stroke:#000000;stroke-width:1.0;"/><text fill="#000000" font-family="sans-serif" font-size="13" lengthAdjust="spacing" textLength="37" x="382" y="529.0669">string</text><text fill="#000000" font-family="sans-serif" font-size="13" lengthAdjust="spacing" textLength="67" x="367" y="544.1997">(raw data)</text><!--MD5=[dd01fb20286066b80ec0793f65297027]
reverse link RadioBrowser to JSON--><path d="M310.27,444.33 C298.12,460.18 284.37,481.43 278,503 C263.07,553.56 295.28,611.89 316.44,642.91 " fill="none" id="RadioBrowser-backto-JSON" style="stroke:#000000;stroke-width:1.0;stroke-dasharray:7.0,7.0;"/><polygon fill="#000000" points="313.65,440,304.9636,444.6419,310.5773,443.9445,311.2748,449.5581,313.65,440" style="stroke:#000000;stroke-width:1.0;"/><text fill="#000000" font-family="sans-serif" font-size="13" lengthAdjust="spacing" textLength="45" x="279" y="536.5669">DTO(s)</text><!--MD5=[216b19d90ee83b8ef5fbaade85ea9f9e]
link Player to iPlayer--><path d="M680.01,171.01 C660.87,197.35 629.79,240.14 616.89,257.89 " fill="none" id="Player-iPlayer" style="stroke:#A80036;stroke-width:1.0;"/><!--MD5=[f2c1c06938b4b6c52a5c0d1976602da9]
link iAudioOut to AudioOutput--><path d="M614.57,541.26 C623.22,561.29 645.56,613.03 658.45,642.88 " fill="none" id="iAudioOut-AudioOutput" style="stroke:#A80036;stroke-width:1.0;"/><!--MD5=[4b586655d3c2236af803d0a282961c90]
reverse link iPlayer to RadioPlayer--><path d="M608.88,286.49 C605.74,313.75 599.9,364.66 596.54,393.88 " fill="none" id="iPlayer-backto-RadioPlayer" style="stroke:#A80036;stroke-width:1.0;"/><path d="M601.2862,278.4709 A9,9 0 0 0 618.0898 280.4051" style="stroke:#A80036;stroke-width:1.5;fill:none;"/><!--MD5=[d824fa6e977ef5b8837aacf1ad844209]
link RadioPlayer to iAudioOut--><path d="M597.32,440.06 C600.5,461.21 605.25,492.78 608.23,512.61 " fill="none" id="RadioPlayer-to-iAudioOut" style="stroke:#A80036;stroke-width:1.0;"/><path d="M617.6658,518.4691 A9,9 0 0 0 600.9392 520.9829" style="stroke:#A80036;stroke-width:1.5;fill:none;"/><!--MD5=[4349184ed20cdfad083284185e7e21c1]
link Player to AudioOutput--><path d="M705.64,171.4 C714.74,194.61 727,232.17 727,266 C727,266 727,266 727,533 C727,572.39 704.83,613.09 687.67,638.69 " fill="none" id="Player-to-AudioOutput" style="stroke:#000000;stroke-width:1.0;stroke-dasharray:7.0,7.0;"/><polygon fill="#000000" points="684.75,642.98,693.1244,637.7964,687.5662,638.8486,686.5141,633.2904,684.75,642.98" style="stroke:#000000;stroke-width:1.0;"/><text fill="#000000" font-family="sans-serif" font-size="13" lengthAdjust="spacing" textLength="61" x="728" y="421.5669">PCM data</text><!--MD5=[7c9c476f7c628d98a907522955d2713a]
link opin to Controller--><path d="M386,157.04 C386,173.6 386,212.14 386,238.65 " fill="none" id="opin-to-Controller" style="stroke:#000000;stroke-width:1.0;stroke-dasharray:7.0,7.0;"/><polygon fill="#000000" points="386,243.78,390,234.78,386,238.78,382,234.78,386,243.78" style="stroke:#000000;stroke-width:1.0;"/><!--MD5=[cfb6983f70c483fc84e54921e9c5304d]
link Controller to RadioBrowser--><path d="M378.07,290.16 C368.62,316.53 352.85,360.57 342.69,388.93 " fill="none" id="Controller-to-RadioBrowser" style="stroke:#A80036;stroke-width:1.0;"/><polygon fill="#A80036" points="340.99,393.69,347.7936,386.5688,342.678,388.9836,340.2633,383.868,340.99,393.69" style="stroke:#A80036;stroke-width:1.0;"/><!--MD5=[30e46fa21d3c4462bba3a0b10c513127]
link Controller to RadioPlayer--><path d="M417.14,290.16 C455.08,317.16 519.03,362.65 558.74,390.91 " fill="none" id="Controller-to-RadioPlayer" style="stroke:#A80036;stroke-width:1.0;"/><polygon fill="#A80036" points="562.99,393.93,557.9801,385.4506,558.9175,391.0292,553.3388,391.9666,562.99,393.93" style="stroke:#A80036;stroke-width:1.0;"/><!--MD5=[4c48c7a80f4ee758b61d0de0572adb5e]
link RadioBrowser to RadioPlayer--><path d="M402.6,417 C440.9,417 488.22,417 526.22,417 " fill="none" id="RadioBrowser-to-RadioPlayer" style="stroke:#000000;stroke-width:1.0;stroke-dasharray:7.0,7.0;"/><polygon fill="#000000" points="531.28,417,522.28,413,526.28,417,522.28,421,531.28,417" style="stroke:#000000;stroke-width:1.0;"/><text fill="#000000" font-family="sans-serif" font-size="13" lengthAdjust="spacing" textLength="45" x="444.5" y="433.0669">DTO(s)</text><text fill="#000000" font-family="sans-serif" font-size="13" lengthAdjust="spacing" textLength="92" x="421" y="448.1997">(radio station)</text><!--MD5=[0c4ffd130ebb0b0be54f9e60cff2d881]
link RadioStream to Player--><path d="M696,23.26 C696,42.2 696,89.47 696,119.8 " fill="none" id="RadioStream-to-Player" style="stroke:#000000;stroke-width:1.0;stroke-dasharray:7.0,7.0;"/><polygon fill="#000000" points="696,124.88,700,115.88,696,119.88,692,115.88,696,124.88" style="stroke:#000000;stroke-width:1.0;"/><!--MD5=[f8f469331892070b93c03218390adb7d]
link AudioOutput to out--><path d="M668,689.06 C668,711.99 668,747.17 668,766.36 " fill="none" id="AudioOutput-to-out" style="stroke:#000000;stroke-width:1.0;stroke-dasharray:7.0,7.0;"/><polygon fill="#000000" points="668,771.77,672,762.77,668,766.77,664,762.77,668,771.77" style="stroke:#000000;stroke-width:1.0;"/><!--MD5=[9cac2484b736d926ab66444d9bfa5f49]
@startuml

interface "Radio Browser API" as RadioBrowserAPI
interface "Radio Stream" as RadioStream #back:black;line:black
interface "Sound out" as out #back:black;line:black
interface "Operator input" as opin #back:black;line:black

component Controller #back:gold;line:black

package network #lightgrey {
    component NetworkUtils
    component RadioBrowser

    RadioBrowser -left-> NetworkUtils
    NetworkUtils <.[#black]right. RadioBrowser : query
    NetworkUtils .[#black]right.> RadioBrowser : string\n(raw data)
}

RadioBrowserAPI )- - NetworkUtils : http/s

package parser #lightgrey {
    component JSON
}

RadioBrowser - ->              JSON
RadioBrowser .[#black]down.>  JSON : string\n(raw data)
JSON         .[#black]up..>    RadioBrowser : DTO(s)

package player #lightgrey {
    component RadioPlayer
    component Player
    component AudioOutput
    interface "Player interface" as iPlayer
    interface "AudioOut interface" as iAudioOut

    iPlayer     -up-    Player
    iAudioOut   - -      AudioOutput
    RadioPlayer -up-(   iPlayer
    RadioPlayer -down-( iAudioOut
    Player .[#black].> AudioOutput : PCM data
}

opin .[#black]down.> Controller
Controller -down-> RadioBrowser
Controller -down-> RadioPlayer


[RadioBrowser] .[#black]right.> [RadioPlayer] : DTO(s)\n(radio station)


RadioStream .[#black].> Player
AudioOutput .[#black].> out



'note top of RadioBrowser : Gets a radio station's info
'note top of NetworkUtils : Network related\nfunctionality
'note bottom of JSON : Parses JSON data from\nraw string and packs into\nthe appropriate DTO(s)

@enduml

@startuml

interface "Radio Browser API" as RadioBrowserAPI
interface "Radio Stream" as RadioStream #back:black;line:black
interface "Sound out" as out #back:black;line:black
interface "Operator input" as opin #back:black;line:black

component Controller #back:gold;line:black

package network #lightgrey {
    component NetworkUtils
    component RadioBrowser

    RadioBrowser -left-> NetworkUtils
    NetworkUtils <.[#black]right. RadioBrowser : query
    NetworkUtils .[#black]right.> RadioBrowser : string\n(raw data)
}

RadioBrowserAPI )- - NetworkUtils : http/s

package parser #lightgrey {
    component JSON
}

RadioBrowser - ->              JSON
RadioBrowser .[#black]down.>  JSON : string\n(raw data)
JSON         .[#black]up..>    RadioBrowser : DTO(s)

package player #lightgrey {
    component RadioPlayer
    component Player
    component AudioOutput
    interface "Player interface" as iPlayer
    interface "AudioOut interface" as iAudioOut

    iPlayer     -up-    Player
    iAudioOut   - -      AudioOutput
    RadioPlayer -up-(   iPlayer
    RadioPlayer -down-( iAudioOut
    Player .[#black].> AudioOutput : PCM data
}

opin .[#black]down.> Controller
Controller -down-> RadioBrowser
Controller -down-> RadioPlayer


[RadioBrowser] .[#black]right.> [RadioPlayer] : DTO(s)\n(radio station)


RadioStream .[#black].> Player
AudioOutput .[#black].> out




@enduml

PlantUML version 1.2021.7(Sun May 23 14:40:07 CEST 2021)
(GPL source distribution)
Java Runtime: OpenJDK Runtime Environment
JVM: Dynamic Code Evolution 64-Bit Server VM
Default Encoding: UTF-8
Language: en
Country: GB
--></g></svg>