<?xml version="1.0" encoding="UTF-8" standalone="no"?><svg xmlns="http://www.w3.org/2000/svg" xmlns:xlink="http://www.w3.org/1999/xlink" contentScriptType="application/ecmascript" contentStyleType="text/css" height="260px" preserveAspectRatio="none" style="width:882px;height:260px;background:#FFFFFF;" version="1.1" viewBox="0 0 882 260" width="882px" zoomAndPan="magnify"><defs><filter height="300%" id="fvivu5mkdrx3w" width="300%" x="-1" y="-1"><feGaussianBlur result="blurOut" stdDeviation="2.0"/><feColorMatrix in="blurOut" result="blurOut2" type="matrix" values="0 0 0 0 0 0 0 0 0 0 0 0 0 0 0 0 0 0 .4 0"/><feOffset dx="4.0" dy="4.0" in="blurOut2" result="blurOut3"/><feBlend in="SourceGraphic" in2="blurOut3" mode="normal"/></filter></defs><g><!--MD5=[8f1922df71fbb09ba3d52e2bfb881e20]
entity RadioBrowserAPI--><ellipse cx="70.5" cy="127" fill="#FEFECE" filter="url(#fvivu5mkdrx3w)" rx="8" ry="8" style="stroke:#A80036;stroke-width:1.5;"/><text fill="#000000" font-family="sans-serif" font-size="14" lengthAdjust="spacing" textLength="129" x="6" y="156.9951">Radio Browser API</text><!--MD5=[18ed41bc3c380f16b51f00d3688aa4e9]
entity RadioStream--><ellipse cx="732.5" cy="14" fill="#000000" filter="url(#fvivu5mkdrx3w)" rx="8" ry="8" style="stroke:#000000;stroke-width:1.5;"/><text fill="#000000" font-family="sans-serif" font-size="14" lengthAdjust="spacing" textLength="97" x="684" y="43.9951">Radio Stream</text><!--MD5=[55ead11f279d43a49df83e73bfcb0783]
entity out--><ellipse cx="839.5" cy="127" fill="#000000" filter="url(#fvivu5mkdrx3w)" rx="8" ry="8" style="stroke:#000000;stroke-width:1.5;"/><text fill="#000000" font-family="sans-serif" font-size="14" lengthAdjust="spacing" textLength="72" x="803.5" y="156.9951">Sound out</text><!--MD5=[ba38d564a2fd195e0495449e7e39a4e4]
entity NetworkUtils--><rect fill="#FEFECE" filter="url(#fvivu5mkdrx3w)" height="46.2969" style="stroke:#A80036;stroke-width:1.5;" width="128" x="153.5" y="104"/><rect fill="#FEFECE" height="10" style="stroke:#A80036;stroke-width:1.5;" width="15" x="261.5" y="109"/><rect fill="#FEFECE" height="2" style="stroke:#A80036;stroke-width:1.5;" width="4" x="259.5" y="111"/><rect fill="#FEFECE" height="2" style="stroke:#A80036;stroke-width:1.5;" width="4" x="259.5" y="115"/><text fill="#000000" font-family="sans-serif" font-size="14" lengthAdjust="spacing" textLength="88" x="168.5" y="136.9951">NetworkUtils</text><!--MD5=[e8907a2785b2ea9784e1231cc1aa4a14]
entity RadioPlayer--><rect fill="#FEFECE" filter="url(#fvivu5mkdrx3w)" height="46.2969" style="stroke:#A80036;stroke-width:1.5;" width="125" x="670" y="104"/><rect fill="#FEFECE" height="10" style="stroke:#A80036;stroke-width:1.5;" width="15" x="775" y="109"/><rect fill="#FEFECE" height="2" style="stroke:#A80036;stroke-width:1.5;" width="4" x="773" y="111"/><rect fill="#FEFECE" height="2" style="stroke:#A80036;stroke-width:1.5;" width="4" x="773" y="115"/><text fill="#000000" font-family="sans-serif" font-size="14" lengthAdjust="spacing" textLength="85" x="685" y="136.9951">RadioPlayer</text><!--MD5=[073a9e5508879681648fac7d34324bbc]
entity RadioBrowser--><rect fill="#FEFECE" filter="url(#fvivu5mkdrx3w)" height="46.2969" style="stroke:#A80036;stroke-width:1.5;" width="139" x="375" y="104"/><rect fill="#FEFECE" height="10" style="stroke:#A80036;stroke-width:1.5;" width="15" x="494" y="109"/><rect fill="#FEFECE" height="2" style="stroke:#A80036;stroke-width:1.5;" width="4" x="492" y="111"/><rect fill="#FEFECE" height="2" style="stroke:#A80036;stroke-width:1.5;" width="4" x="492" y="115"/><text fill="#000000" font-family="sans-serif" font-size="14" lengthAdjust="spacing" textLength="99" x="390" y="136.9951">RadioBrowser</text><path d="M332.5,211 L332.5,251.2656 A0,0 0 0 0 332.5,251.2656 L556.5,251.2656 A0,0 0 0 0 556.5,251.2656 L556.5,221 L546.5,211 L448.5,211 L444.5,150.13 L440.5,211 L332.5,211 A0,0 0 0 0 332.5,211 " fill="#FBFB77" filter="url(#fvivu5mkdrx3w)" style="stroke:#A80036;stroke-width:1.0;"/><path d="M546.5,211 L546.5,221 L556.5,221 L546.5,211 " fill="#FBFB77" style="stroke:#A80036;stroke-width:1.0;"/><text fill="#000000" font-family="sans-serif" font-size="13" lengthAdjust="spacing" textLength="203" x="338.5" y="228.0669">Gets a radio station's info from</text><text fill="#000000" font-family="sans-serif" font-size="13" lengthAdjust="spacing" textLength="175" x="342.5" y="243.1997">the Radio Browser web API</text><path d="M661,218.5 L661,243.6328 A0,0 0 0 0 661,243.6328 L804,243.6328 A0,0 0 0 0 804,243.6328 L804,228.5 L794,218.5 L736.5,218.5 L732.5,150.13 L728.5,218.5 L661,218.5 A0,0 0 0 0 661,218.5 " fill="#FBFB77" filter="url(#fvivu5mkdrx3w)" style="stroke:#A80036;stroke-width:1.0;"/><path d="M794,218.5 L794,228.5 L804,228.5 L794,218.5 " fill="#FBFB77" style="stroke:#A80036;stroke-width:1.0;"/><text fill="#000000" font-family="sans-serif" font-size="13" lengthAdjust="spacing" textLength="122" x="667" y="235.5669">Plays radio stream</text><path d="M154.5,211 L154.5,251.2656 A0,0 0 0 0 154.5,251.2656 L280.5,251.2656 A0,0 0 0 0 280.5,251.2656 L280.5,221 L270.5,211 L221.5,211 L217.5,150.13 L213.5,211 L154.5,211 A0,0 0 0 0 154.5,211 " fill="#FBFB77" filter="url(#fvivu5mkdrx3w)" style="stroke:#A80036;stroke-width:1.0;"/><path d="M270.5,211 L270.5,221 L280.5,221 L270.5,211 " fill="#FBFB77" style="stroke:#A80036;stroke-width:1.0;"/><text fill="#000000" font-family="sans-serif" font-size="13" lengthAdjust="spacing" textLength="105" x="160.5" y="228.0669">Network related</text><text fill="#000000" font-family="sans-serif" font-size="13" lengthAdjust="spacing" textLength="82" x="160.5" y="243.1997">functionality</text><!--MD5=[75853dcaa19bcede90c5136d4b8404d2]
reverse link RadioBrowserAPI to NetworkUtils--><path d="M90.04,127 C106.35,127 130.53,127 153.47,127 " fill="none" id="RadioBrowserAPI-backto-NetworkUtils" style="stroke:#A80036;stroke-width:1.0;"/><path d="M82.7782,135.4572 A9,9 0 0 0 82.7782 118.5428" style="stroke:#A80036;stroke-width:1.5;fill:none;"/><text fill="#000000" font-family="sans-serif" font-size="13" lengthAdjust="spacing" textLength="37" x="98" y="120.0669">http/s</text><!--MD5=[a36c77bd0f52f26392d247897d4ec3c6]
link RadioStream to RadioPlayer--><path d="M732.5,23.34 C732.5,39.16 732.5,74.13 732.5,98.85 " fill="none" id="RadioStream-to-RadioPlayer" style="stroke:#000000;stroke-width:1.0;stroke-dasharray:7.0,7.0;"/><polygon fill="#000000" points="732.5,103.95,736.5,94.95,732.5,98.95,728.5,94.95,732.5,103.95" style="stroke:#000000;stroke-width:1.0;"/><!--MD5=[3886d9932d035bec6863d22b9ee6cdc9]
link NetworkUtils to RadioBrowser--><path d="M281.64,127 C309.04,127 341.21,127 369.68,127 " fill="none" id="NetworkUtils-to-RadioBrowser" style="stroke:#000000;stroke-width:1.0;stroke-dasharray:7.0,7.0;"/><polygon fill="#000000" points="374.95,127,365.9615,122.9743,369.95,126.9857,365.9386,130.9743,374.95,127" style="stroke:#000000;stroke-width:1.0;"/><text fill="#000000" font-family="sans-serif" font-size="13" lengthAdjust="spacing" textLength="57" x="299.75" y="120.0669">raw data</text><!--MD5=[ad389495de935a78c223c443c6802e65]
reverse link NetworkUtils to RadioBrowser--><path d="M286.65,143.79 C294.07,145.1 301.54,146.22 308.75,147 C330.3,149.33 353.69,147.48 374.87,144.12 " fill="none" id="NetworkUtils-backto-RadioBrowser" style="stroke:#000000;stroke-width:1.0;stroke-dasharray:7.0,7.0;"/><polygon fill="#000000" points="281.52,142.85,289.6522,148.4059,286.4382,143.7507,291.0933,140.5367,281.52,142.85" style="stroke:#000000;stroke-width:1.0;"/><text fill="#000000" font-family="sans-serif" font-size="13" lengthAdjust="spacing" textLength="37" x="309.75" y="143.0669">query</text><!--MD5=[4c48c7a80f4ee758b61d0de0572adb5e]
link RadioBrowser to RadioPlayer--><path d="M514.22,127 C559.9,127 619.32,127 664.63,127 " fill="none" id="RadioBrowser-to-RadioPlayer" style="stroke:#000000;stroke-width:1.0;stroke-dasharray:7.0,7.0;"/><polygon fill="#000000" points="669.8,127,660.8,123,664.8,127,660.8,131,669.8,127" style="stroke:#000000;stroke-width:1.0;"/><text fill="#000000" font-family="sans-serif" font-size="13" lengthAdjust="spacing" textLength="119" x="532.5" y="120.0669">radio station / info</text><!--MD5=[1f15036bb55e85a0167cd1fe15efa23b]
link RadioPlayer to out--><path d="M795.2,127 C805.12,127 815.04,127 824.97,127 " fill="none" id="RadioPlayer-to-out" style="stroke:#000000;stroke-width:1.0;stroke-dasharray:7.0,7.0;"/><polygon fill="#000000" points="830.15,127,821.15,123,825.15,127,821.15,131,830.15,127" style="stroke:#000000;stroke-width:1.0;"/><!--MD5=[cd9b6e935e4ed6b450a21214bb8f5b91]
@startuml

interface "Radio Browser API" as RadioBrowserAPI
interface "Radio Stream" as RadioStream #back:black;line:black
interface "Sound out" as out #back:black;line:black
RadioBrowserAPI )-right- [NetworkUtils] : http/s
RadioStream .[#black].> [RadioPlayer]
[NetworkUtils].[#black]right.>[RadioBrowser] : raw data
[RadioBrowser].[#black]left.>[NetworkUtils] : query
[RadioBrowser].[#black]right.> [RadioPlayer] : radio station / info
[RadioPlayer] .[#black]right.> out

note bottom of RadioBrowser : Gets a radio station's info from\n the Radio Browser web API
note bottom of RadioPlayer : Plays radio stream
note bottom of NetworkUtils : Network related\nfunctionality

@enduml

PlantUML version 1.2021.7(Sun May 23 14:40:07 CEST 2021)
(GPL source distribution)
Java Runtime: OpenJDK Runtime Environment
JVM: Dynamic Code Evolution 64-Bit Server VM
Default Encoding: UTF-8
Language: en
Country: GB
--></g></svg>