<?xml version="1.0" encoding="UTF-8" standalone="no"?><svg xmlns="http://www.w3.org/2000/svg" xmlns:xlink="http://www.w3.org/1999/xlink" contentScriptType="application/ecmascript" contentStyleType="text/css" height="822px" preserveAspectRatio="none" style="width:768px;height:822px;background:#FFFFFF;" version="1.1" viewBox="0 0 768 822" width="768px" zoomAndPan="magnify"><defs><filter height="300%" id="f1m4vyjqwwrwge" width="300%" x="-1" y="-1"><feGaussianBlur result="blurOut" stdDeviation="2.0"/><feColorMatrix in="blurOut" result="blurOut2" type="matrix" values="0 0 0 0 0 0 0 0 0 0 0 0 0 0 0 0 0 0 .4 0"/><feOffset dx="4.0" dy="4.0" in="blurOut2" result="blurOut3"/><feBlend in="SourceGraphic" in2="blurOut3" mode="normal"/></filter></defs><g><!--MD5=[72fae8e1779ba7dedab19f6352fd74e8]
cluster parser--><polygon fill="#D3D3D3" filter="url(#f1m4vyjqwwrwge)" points="134,491,191,491,198,513.2969,240,513.2969,240,588,134,588,134,491" style="stroke:#000000;stroke-width:1.5;"/><line style="stroke:#000000;stroke-width:1.5;" x1="134" x2="198" y1="513.2969" y2="513.2969"/><text fill="#000000" font-family="sans-serif" font-size="14" font-weight="bold" lengthAdjust="spacing" textLength="51" x="138" y="505.9951">parser</text><!--MD5=[42603eecb267091c13893a16d8c379fb]
cluster player--><polygon fill="#D3D3D3" filter="url(#f1m4vyjqwwrwge)" points="460,90,516,90,523,112.2969,751,112.2969,751,705.5,460,705.5,460,90" style="stroke:#000000;stroke-width:1.5;"/><line style="stroke:#000000;stroke-width:1.5;" x1="460" x2="523" y1="112.2969" y2="112.2969"/><text fill="#000000" font-family="sans-serif" font-size="14" font-weight="bold" lengthAdjust="spacing" textLength="50" x="464" y="104.9951">player</text><!--MD5=[c470d76c68afda2f5e9525cd4f85a320]
entity JSON--><rect fill="#FEFECE" filter="url(#f1m4vyjqwwrwge)" height="46.2969" style="stroke:#A80036;stroke-width:1.5;" width="74" x="150" y="526"/><rect fill="#FEFECE" height="10" style="stroke:#A80036;stroke-width:1.5;" width="15" x="204" y="531"/><rect fill="#FEFECE" height="2" style="stroke:#A80036;stroke-width:1.5;" width="4" x="202" y="533"/><rect fill="#FEFECE" height="2" style="stroke:#A80036;stroke-width:1.5;" width="4" x="202" y="537"/><text fill="#000000" font-family="sans-serif" font-size="14" lengthAdjust="spacing" textLength="34" x="165" y="558.9951">JSON</text><!--MD5=[e8907a2785b2ea9784e1231cc1aa4a14]
entity RadioPlayer--><rect fill="#FEFECE" filter="url(#f1m4vyjqwwrwge)" height="46.2969" style="stroke:#A80036;stroke-width:1.5;" width="125" x="476.5" y="367"/><rect fill="#FEFECE" height="10" style="stroke:#A80036;stroke-width:1.5;" width="15" x="581.5" y="372"/><rect fill="#FEFECE" height="2" style="stroke:#A80036;stroke-width:1.5;" width="4" x="579.5" y="374"/><rect fill="#FEFECE" height="2" style="stroke:#A80036;stroke-width:1.5;" width="4" x="579.5" y="378"/><text fill="#000000" font-family="sans-serif" font-size="14" lengthAdjust="spacing" textLength="85" x="491.5" y="399.9951">RadioPlayer</text><!--MD5=[de2effd8dc5bf946a609466312d0f75f]
entity Player--><rect fill="#FEFECE" filter="url(#f1m4vyjqwwrwge)" height="46.2969" style="stroke:#A80036;stroke-width:1.5;" width="84" x="599" y="125"/><rect fill="#FEFECE" height="10" style="stroke:#A80036;stroke-width:1.5;" width="15" x="663" y="130"/><rect fill="#FEFECE" height="2" style="stroke:#A80036;stroke-width:1.5;" width="4" x="661" y="132"/><rect fill="#FEFECE" height="2" style="stroke:#A80036;stroke-width:1.5;" width="4" x="661" y="136"/><text fill="#000000" font-family="sans-serif" font-size="14" lengthAdjust="spacing" textLength="44" x="614" y="157.9951">Player</text><!--MD5=[031e947446d0acf39314cbfc4096f809]
entity AudioOutput--><rect fill="#FEFECE" filter="url(#f1m4vyjqwwrwge)" height="46.2969" style="stroke:#A80036;stroke-width:1.5;" width="129" x="548.5" y="643.5"/><rect fill="#FEFECE" height="10" style="stroke:#A80036;stroke-width:1.5;" width="15" x="657.5" y="648.5"/><rect fill="#FEFECE" height="2" style="stroke:#A80036;stroke-width:1.5;" width="4" x="655.5" y="650.5"/><rect fill="#FEFECE" height="2" style="stroke:#A80036;stroke-width:1.5;" width="4" x="655.5" y="654.5"/><text fill="#000000" font-family="sans-serif" font-size="14" lengthAdjust="spacing" textLength="89" x="563.5" y="676.4951">AudioOutput</text><!--MD5=[b1eafec5714c1c2e1739ec2f4e32653b]
entity iPlayer--><ellipse cx="556" cy="261" fill="#FEFECE" filter="url(#f1m4vyjqwwrwge)" rx="8" ry="8" style="stroke:#A80036;stroke-width:1.5;"/><text fill="#000000" font-family="sans-serif" font-size="14" lengthAdjust="spacing" textLength="112" x="500" y="290.9951">Player interface</text><!--MD5=[0015618b095ddb59eb88a6c6643322a2]
entity iAudioOut--><ellipse cx="556" cy="549" fill="#FEFECE" filter="url(#f1m4vyjqwwrwge)" rx="8" ry="8" style="stroke:#A80036;stroke-width:1.5;"/><text fill="#000000" font-family="sans-serif" font-size="14" lengthAdjust="spacing" textLength="134" x="489" y="578.9951">AudioOut interface</text><!--MD5=[8f1922df71fbb09ba3d52e2bfb881e20]
entity RadioBrowserAPI--><ellipse cx="71" cy="261" fill="#FEFECE" filter="url(#f1m4vyjqwwrwge)" rx="8" ry="8" style="stroke:#A80036;stroke-width:1.5;"/><text fill="#000000" font-family="sans-serif" font-size="14" lengthAdjust="spacing" textLength="129" x="6.5" y="290.9951">Radio Browser API</text><!--MD5=[18ed41bc3c380f16b51f00d3688aa4e9]
entity RadioStream--><ellipse cx="641" cy="14" fill="#000000" filter="url(#f1m4vyjqwwrwge)" rx="8" ry="8" style="stroke:#000000;stroke-width:1.5;"/><text fill="#000000" font-family="sans-serif" font-size="14" lengthAdjust="spacing" textLength="97" x="592.5" y="43.9951">Radio Stream</text><!--MD5=[55ead11f279d43a49df83e73bfcb0783]
entity out--><ellipse cx="613" cy="784" fill="#000000" filter="url(#f1m4vyjqwwrwge)" rx="8" ry="8" style="stroke:#000000;stroke-width:1.5;"/><text fill="#000000" font-family="sans-serif" font-size="14" lengthAdjust="spacing" textLength="72" x="577" y="813.9951">Sound out</text><!--MD5=[ba38d564a2fd195e0495449e7e39a4e4]
entity NetworkUtils--><rect fill="#FEFECE" filter="url(#f1m4vyjqwwrwge)" height="46.2969" style="stroke:#A80036;stroke-width:1.5;" width="128" x="7" y="367"/><rect fill="#FEFECE" height="10" style="stroke:#A80036;stroke-width:1.5;" width="15" x="115" y="372"/><rect fill="#FEFECE" height="2" style="stroke:#A80036;stroke-width:1.5;" width="4" x="113" y="374"/><rect fill="#FEFECE" height="2" style="stroke:#A80036;stroke-width:1.5;" width="4" x="113" y="378"/><text fill="#000000" font-family="sans-serif" font-size="14" lengthAdjust="spacing" textLength="88" x="22" y="399.9951">NetworkUtils</text><!--MD5=[073a9e5508879681648fac7d34324bbc]
entity RadioBrowser--><rect fill="#FEFECE" filter="url(#f1m4vyjqwwrwge)" height="46.2969" style="stroke:#A80036;stroke-width:1.5;" width="139" x="208.5" y="367"/><rect fill="#FEFECE" height="10" style="stroke:#A80036;stroke-width:1.5;" width="15" x="327.5" y="372"/><rect fill="#FEFECE" height="2" style="stroke:#A80036;stroke-width:1.5;" width="4" x="325.5" y="374"/><rect fill="#FEFECE" height="2" style="stroke:#A80036;stroke-width:1.5;" width="4" x="325.5" y="378"/><text fill="#000000" font-family="sans-serif" font-size="14" lengthAdjust="spacing" textLength="99" x="223.5" y="399.9951">RadioBrowser</text><path d="M94.5,639 L94.5,694.3984 A0,0 0 0 0 94.5,694.3984 L279.5,694.3984 A0,0 0 0 0 279.5,694.3984 L279.5,649 L269.5,639 L191,639 L187,572.27 L183,639 L94.5,639 A0,0 0 0 0 94.5,639 " fill="#FBFB77" filter="url(#f1m4vyjqwwrwge)" style="stroke:#A80036;stroke-width:1.0;"/><path d="M269.5,639 L269.5,649 L279.5,649 L269.5,639 " fill="#FBFB77" style="stroke:#A80036;stroke-width:1.0;"/><text fill="#000000" font-family="sans-serif" font-size="13" lengthAdjust="spacing" textLength="147" x="100.5" y="656.0669">Parses JSON data from</text><text fill="#000000" font-family="sans-serif" font-size="13" lengthAdjust="spacing" textLength="164" x="100.5" y="671.1997">raw string and packs into</text><text fill="#000000" font-family="sans-serif" font-size="13" lengthAdjust="spacing" textLength="149" x="100.5" y="686.3325">the appropriate DTO(s)</text><!--MD5=[216b19d90ee83b8ef5fbaade85ea9f9e]
link Player to iPlayer--><path d="M624,171.2 C604.91,196.12 574.93,235.27 562.13,252 " fill="none" id="Player-iPlayer" style="stroke:#A80036;stroke-width:1.0;"/><!--MD5=[f2c1c06938b4b6c52a5c0d1976602da9]
link iAudioOut to AudioOutput--><path d="M560.1,558.31 C568.78,575.89 589.26,617.39 602.04,643.29 " fill="none" id="iAudioOut-AudioOutput" style="stroke:#A80036;stroke-width:1.0;"/><!--MD5=[4b586655d3c2236af803d0a282961c90]
reverse link iPlayer to RadioPlayer--><path d="M553.54,280.38 C550.48,303.22 545.27,342.15 541.99,366.68 " fill="none" id="iPlayer-backto-RadioPlayer" style="stroke:#A80036;stroke-width:1.0;"/><path d="M546.0889,272.2576 A9,9 0 0 0 562.8535 274.5042" style="stroke:#A80036;stroke-width:1.5;fill:none;"/><!--MD5=[d824fa6e977ef5b8837aacf1ad844209]
link RadioPlayer to iAudioOut--><path d="M541.4,413.16 C544.78,444.36 550.87,500.66 554.01,529.65 " fill="none" id="RadioPlayer-to-iAudioOut" style="stroke:#A80036;stroke-width:1.0;"/><path d="M563.2031,535.962 A9,9 0 0 0 546.3886 537.798" style="stroke:#A80036;stroke-width:1.5;fill:none;"/><!--MD5=[4349184ed20cdfad083284185e7e21c1]
link Player to AudioOutput--><path d="M650.98,171.03 C660.04,193.07 672,228.19 672,260 C672,260 672,260 672,550 C672,583.49 652.08,617.06 635.39,639.3 " fill="none" id="Player-to-AudioOutput" style="stroke:#000000;stroke-width:1.0;stroke-dasharray:7.0,7.0;"/><polygon fill="#000000" points="632.32,643.32,640.9582,638.589,635.3519,639.3442,634.5968,633.7379,632.32,643.32" style="stroke:#000000;stroke-width:1.0;"/><text fill="#000000" font-family="sans-serif" font-size="13" lengthAdjust="spacing" textLength="61" x="673" y="394.5669">PCM data</text><!--MD5=[b93808ebaa816fc95672e1da57ebf9a0]
link NetworkUtils to JSON--><path d="M87.37,413.16 C108.45,441.68 145.01,491.17 167.5,521.6 " fill="none" id="NetworkUtils-to-JSON" style="stroke:#000000;stroke-width:1.0;stroke-dasharray:7.0,7.0;"/><polygon fill="#000000" points="170.71,525.95,168.5868,516.3327,167.7421,521.9262,162.1486,521.0814,170.71,525.95" style="stroke:#000000;stroke-width:1.0;"/><text fill="#000000" font-family="sans-serif" font-size="13" lengthAdjust="spacing" textLength="37" x="148" y="456.0669">string</text><text fill="#000000" font-family="sans-serif" font-size="13" lengthAdjust="spacing" textLength="67" x="133" y="471.1997">(raw data)</text><!--MD5=[ad389495de935a78c223c443c6802e65]
reverse link NetworkUtils to RadioBrowser--><path d="M140.31,390 C162.25,390 186.51,390 208.47,390 " fill="none" id="NetworkUtils-backto-RadioBrowser" style="stroke:#000000;stroke-width:1.0;stroke-dasharray:7.0,7.0;"/><polygon fill="#000000" points="135.08,390,144.08,394,140.08,390,144.08,386,135.08,390" style="stroke:#000000;stroke-width:1.0;"/><text fill="#000000" font-family="sans-serif" font-size="13" lengthAdjust="spacing" textLength="37" x="153.25" y="383.0669">query</text><!--MD5=[4c48c7a80f4ee758b61d0de0572adb5e]
link RadioBrowser to RadioPlayer--><path d="M347.6,390 C385.9,390 433.22,390 471.22,390 " fill="none" id="RadioBrowser-to-RadioPlayer" style="stroke:#000000;stroke-width:1.0;stroke-dasharray:7.0,7.0;"/><polygon fill="#000000" points="476.28,390,467.28,386,471.28,390,467.28,394,476.28,390" style="stroke:#000000;stroke-width:1.0;"/><text fill="#000000" font-family="sans-serif" font-size="13" lengthAdjust="spacing" textLength="45" x="389.5" y="368.0669">DTO(s)</text><text fill="#000000" font-family="sans-serif" font-size="13" lengthAdjust="spacing" textLength="92" x="366" y="383.1997">(radio station)</text><!--MD5=[dd01fb20286066b80ec0793f65297027]
reverse link RadioBrowser to JSON--><path d="M262.63,417.52 C244.96,448 216.28,497.49 199.78,525.95 " fill="none" id="RadioBrowser-backto-JSON" style="stroke:#000000;stroke-width:1.0;stroke-dasharray:7.0,7.0;"/><polygon fill="#000000" points="265.15,413.16,257.185,418.953,262.6493,417.4897,264.1126,422.9541,265.15,413.16" style="stroke:#000000;stroke-width:1.0;"/><text fill="#000000" font-family="sans-serif" font-size="13" lengthAdjust="spacing" textLength="45" x="246" y="463.5669">DTO(s)</text><!--MD5=[75853dcaa19bcede90c5136d4b8404d2]
reverse link RadioBrowserAPI to NetworkUtils--><path d="M71,280.38 C71,303.22 71,342.15 71,366.68 " fill="none" id="RadioBrowserAPI-backto-NetworkUtils" style="stroke:#A80036;stroke-width:1.0;"/><path d="M62.5428,273.4082 A9,9 0 0 0 79.4572 273.4082" style="stroke:#A80036;stroke-width:1.5;fill:none;"/><text fill="#000000" font-family="sans-serif" font-size="13" lengthAdjust="spacing" textLength="37" x="72" y="333.0669">http/s</text><!--MD5=[0c4ffd130ebb0b0be54f9e60cff2d881]
link RadioStream to Player--><path d="M641,23.26 C641,42.2 641,89.47 641,119.8 " fill="none" id="RadioStream-to-Player" style="stroke:#000000;stroke-width:1.0;stroke-dasharray:7.0,7.0;"/><polygon fill="#000000" points="641,124.88,645,115.88,641,119.88,637,115.88,641,124.88" style="stroke:#000000;stroke-width:1.0;"/><!--MD5=[f8f469331892070b93c03218390adb7d]
link AudioOutput to out--><path d="M613,689.77 C613,713.5 613,750.27 613,769.79 " fill="none" id="AudioOutput-to-out" style="stroke:#000000;stroke-width:1.0;stroke-dasharray:7.0,7.0;"/><polygon fill="#000000" points="613,774.81,617,765.81,613,769.81,609,765.81,613,774.81" style="stroke:#000000;stroke-width:1.0;"/><!--MD5=[01ea9d6861e1309601446f4588bd0e99]
@startuml

interface "Radio Browser API" as RadioBrowserAPI
interface "Radio Stream" as RadioStream #back:black;line:black
interface "Sound out" as out #back:black;line:black

package parser #lightgrey {
    component JSON
}

package player #lightgrey {
    component RadioPlayer
    component Player
    component AudioOutput
    interface "Player interface" as iPlayer
    interface "AudioOut interface" as iAudioOut

    iPlayer -up- Player
    iAudioOut - -AudioOutput
    RadioPlayer -up-( iPlayer
    RadioPlayer -down-( iAudioOut
    Player .[#black].> AudioOutput : PCM data
}

[NetworkUtils] .[#black]right.> [JSON] : string\n(raw data)
[RadioBrowser] .[#black]left.>  [NetworkUtils] : query
[RadioBrowser] .[#black]right.> [RadioPlayer] : DTO(s)\n(radio station)
[JSON]         .[#black]up.>    [RadioBrowser] : DTO(s)

RadioBrowserAPI )-down- [NetworkUtils] : http/s
RadioStream .[#black].> Player
AudioOutput .[#black].> out

note bottom of JSON : Parses JSON data from\nraw string and packs into\nthe appropriate DTO(s)

@enduml

PlantUML version 1.2021.7(Sun May 23 14:40:07 CEST 2021)
(GPL source distribution)
Java Runtime: OpenJDK Runtime Environment
JVM: Dynamic Code Evolution 64-Bit Server VM
Default Encoding: UTF-8
Language: en
Country: GB
--></g></svg>