<?xml version="1.0" encoding="UTF-8" standalone="no"?><svg xmlns="http://www.w3.org/2000/svg" xmlns:xlink="http://www.w3.org/1999/xlink" contentScriptType="application/ecmascript" contentStyleType="text/css" height="549px" preserveAspectRatio="none" style="width:375px;height:549px;background:#FFFFFF;" version="1.1" viewBox="0 0 375 549" width="375px" zoomAndPan="magnify"><defs><filter height="300%" id="f5x80sp21fa3m" width="300%" x="-1" y="-1"><feGaussianBlur result="blurOut" stdDeviation="2.0"/><feColorMatrix in="blurOut" result="blurOut2" type="matrix" values="0 0 0 0 0 0 0 0 0 0 0 0 0 0 0 0 0 0 .4 0"/><feOffset dx="4.0" dy="4.0" in="blurOut2" result="blurOut3"/><feBlend in="SourceGraphic" in2="blurOut3" mode="normal"/></filter></defs><g><!--MD5=[d64883541e3d62e3241c4d12decf100d]
cluster Application--><polygon fill="#D3D3D3" filter="url(#f5x80sp21fa3m)" points="16,6,112,6,119,28.2969,358,28.2969,358,327,16,327,16,6" style="stroke:#000000;stroke-width:1.5;"/><line style="stroke:#000000;stroke-width:1.5;" x1="16" x2="119" y1="28.2969" y2="28.2969"/><text fill="#000000" font-family="sans-serif" font-size="14" font-weight="bold" lengthAdjust="spacing" textLength="90" x="20" y="20.9951">Application</text><!--MD5=[770389ab9df153645bc6ef28055eb2b5]
entity A--><rect fill="#FEFECE" filter="url(#f5x80sp21fa3m)" height="46.2969" style="stroke:#A80036;stroke-width:1.5;" width="137" x="204.5" y="41"/><rect fill="#FEFECE" height="10" style="stroke:#A80036;stroke-width:1.5;" width="15" x="321.5" y="46"/><rect fill="#FEFECE" height="2" style="stroke:#A80036;stroke-width:1.5;" width="4" x="319.5" y="48"/><rect fill="#FEFECE" height="2" style="stroke:#A80036;stroke-width:1.5;" width="4" x="319.5" y="52"/><text fill="#000000" font-family="sans-serif" font-size="14" lengthAdjust="spacing" textLength="97" x="219.5" y="73.9951">Component A</text><!--MD5=[b2d39259b6aeabc16b394deeb0238426]
entity B--><rect fill="#FEFECE" filter="url(#f5x80sp21fa3m)" height="46.2969" style="stroke:#A80036;stroke-width:1.5;" width="137" x="32.5" y="41"/><rect fill="#FEFECE" height="10" style="stroke:#A80036;stroke-width:1.5;" width="15" x="149.5" y="46"/><rect fill="#FEFECE" height="2" style="stroke:#A80036;stroke-width:1.5;" width="4" x="147.5" y="48"/><rect fill="#FEFECE" height="2" style="stroke:#A80036;stroke-width:1.5;" width="4" x="147.5" y="52"/><text fill="#000000" font-family="sans-serif" font-size="14" lengthAdjust="spacing" textLength="97" x="47.5" y="73.9951">Component B</text><!--MD5=[deda3591bea7fac674044c7229610a9a]
entity iLibWrapper--><ellipse cx="187" cy="176" fill="#FEFECE" filter="url(#f5x80sp21fa3m)" rx="8" ry="8" style="stroke:#A80036;stroke-width:1.5;"/><text fill="#000000" font-family="sans-serif" font-size="14" lengthAdjust="spacing" textLength="88" x="143" y="205.9951">Wrapper API</text><!--MD5=[add7c67bcce638c53e59c9e4ba7dcaf7]
entity LibWrapper--><rect fill="#FEFECE" filter="url(#f5x80sp21fa3m)" height="46.2969" style="stroke:#A80036;stroke-width:1.5;" width="153" x="110.5" y="265"/><rect fill="#FEFECE" height="10" style="stroke:#A80036;stroke-width:1.5;" width="15" x="243.5" y="270"/><rect fill="#FEFECE" height="2" style="stroke:#A80036;stroke-width:1.5;" width="4" x="241.5" y="272"/><rect fill="#FEFECE" height="2" style="stroke:#A80036;stroke-width:1.5;" width="4" x="241.5" y="276"/><text fill="#000000" font-family="sans-serif" font-size="14" lengthAdjust="spacing" textLength="113" x="125.5" y="297.9951">Library wrapper</text><!--MD5=[592fe37c5d7cff128ea85122f51666e8]
entity iExternalLib--><ellipse cx="187" cy="400" fill="#FEFECE" filter="url(#f5x80sp21fa3m)" rx="8" ry="8" style="stroke:#A80036;stroke-width:1.5;"/><text fill="#000000" font-family="sans-serif" font-size="14" lengthAdjust="spacing" textLength="76" x="149" y="429.9951">Library API</text><!--MD5=[96d24da12479d3f9f59596d21252d717]
entity ExternalLib--><rect fill="#FEFECE" filter="url(#f5x80sp21fa3m)" height="46.2969" style="stroke:#A80036;stroke-width:1.5;" width="149" x="112.5" y="489"/><rect fill="#FEFECE" height="10" style="stroke:#A80036;stroke-width:1.5;" width="15" x="241.5" y="494"/><rect fill="#FEFECE" height="2" style="stroke:#A80036;stroke-width:1.5;" width="4" x="239.5" y="496"/><rect fill="#FEFECE" height="2" style="stroke:#A80036;stroke-width:1.5;" width="4" x="239.5" y="500"/><text fill="#000000" font-family="sans-serif" font-size="14" lengthAdjust="spacing" textLength="109" x="127.5" y="521.9951">External library</text><!--MD5=[e0a92a6278ac6a7c178dbbf8b1794bd8]
link iExternalLib to ExternalLib--><path d="M187,409.27 C187,425.96 187,464.16 187,488.71 " fill="none" id="iExternalLib-ExternalLib" style="stroke:#A80036;stroke-width:1.0;"/><!--MD5=[34164520e3e1bf112c5ffaae59287c71]
link LibWrapper to iExternalLib--><path d="M187,311.26 C187,331.74 187,361.73 187,380.81 " fill="none" id="LibWrapper-to-iExternalLib" style="stroke:#A80036;stroke-width:1.0;"/><path d="M195.4572,387.7818 A9,9 0 0 0 178.5428 387.7818" style="stroke:#A80036;stroke-width:1.5;fill:none;"/><!--MD5=[8e6b557c0e1197359775ea78d2f185e1]
link iLibWrapper to LibWrapper--><path d="M187,185.27 C187,201.96 187,240.16 187,264.71 " fill="none" id="iLibWrapper-LibWrapper" style="stroke:#A80036;stroke-width:1.0;"/><!--MD5=[dd41aff96ff3a0d53ddf5ce2a5003320]
link A to iLibWrapper--><path d="M255.6,87.26 C238.99,108.5 214.37,140 199.58,158.91 " fill="none" id="A-to-iLibWrapper" style="stroke:#A80036;stroke-width:1.0;"/><path d="M201.9279,169.6461 A9,9 0 0 0 188.6051 159.2248" style="stroke:#A80036;stroke-width:1.5;fill:none;"/><!--MD5=[029cebe1c72c43a51e25bd79162a2d73]
link B to iLibWrapper--><path d="M118.4,87.26 C135.01,108.5 159.63,140 174.42,158.91 " fill="none" id="B-to-iLibWrapper" style="stroke:#A80036;stroke-width:1.0;"/><path d="M185.3949,159.2248 A9,9 0 0 0 172.0721 169.6461" style="stroke:#A80036;stroke-width:1.5;fill:none;"/><!--MD5=[dbc2eb676f11195baeb08c4598ceaa9b]
@startuml
'https://plantuml.com/component-diagram

interface "Library API" as iExternalLib
component "External library" as ExternalLib

iExternalLib - - ExternalLib

package Application #lightgray {
    component "Component A" as A
    component "Component B" as B
    interface "Wrapper API" as iLibWrapper
    component "Library wrapper" as LibWrapper
}

LibWrapper - -( iExternalLib
iLibWrapper - - LibWrapper
A - -( iLibWrapper
B - -( iLibWrapper

@enduml

@startuml

interface "Library API" as iExternalLib
component "External library" as ExternalLib

iExternalLib - - ExternalLib

package Application #lightgray {
    component "Component A" as A
    component "Component B" as B
    interface "Wrapper API" as iLibWrapper
    component "Library wrapper" as LibWrapper
}

LibWrapper - -( iExternalLib
iLibWrapper - - LibWrapper
A - -( iLibWrapper
B - -( iLibWrapper

@enduml

PlantUML version 1.2021.7(Sun May 23 14:40:07 CEST 2021)
(GPL source distribution)
Java Runtime: OpenJDK Runtime Environment
JVM: Dynamic Code Evolution 64-Bit Server VM
Default Encoding: UTF-8
Language: en
Country: GB
--></g></svg>