<?xml version="1.0" encoding="UTF-8" standalone="no"?>
<!-- Generator: Adobe Illustrator 16.0.0, SVG Export Plug-In . SVG Version: 6.00 Build 0)  -->

<svg
   xmlns:dc="http://purl.org/dc/elements/1.1/"
   xmlns:cc="http://creativecommons.org/ns#"
   xmlns:rdf="http://www.w3.org/1999/02/22-rdf-syntax-ns#"
   xmlns:svg="http://www.w3.org/2000/svg"
   xmlns="http://www.w3.org/2000/svg"
   xmlns:sodipodi="http://sodipodi.sourceforge.net/DTD/sodipodi-0.dtd"
   xmlns:inkscape="http://www.inkscape.org/namespaces/inkscape"
   version="1.1"
   id="Capa_1"
   x="0px"
   y="0px"
   width="496.304px"
   height="496.303px"
   viewBox="0 0 496.304 496.303"
   style="enable-background:new 0 0 496.304 496.303;"
   xml:space="preserve"
   sodipodi:docname="information-box.svg"
   inkscape:version="0.92.5 (2060ec1f9f, 2020-04-08)"><metadata
   id="metadata41"><rdf:RDF><cc:Work
       rdf:about=""><dc:format>image/svg+xml</dc:format><dc:type
         rdf:resource="http://purl.org/dc/dcmitype/StillImage" /></cc:Work></rdf:RDF></metadata><defs
   id="defs39" /><sodipodi:namedview
   pagecolor="#ffffff"
   bordercolor="#666666"
   borderopacity="1"
   objecttolerance="10"
   gridtolerance="10"
   guidetolerance="10"
   inkscape:pageopacity="0"
   inkscape:pageshadow="2"
   inkscape:window-width="1920"
   inkscape:window-height="1141"
   id="namedview37"
   showgrid="false"
   inkscape:zoom="0.64792595"
   inkscape:cx="-231.4777"
   inkscape:cy="4.3693611"
   inkscape:window-x="0"
   inkscape:window-y="30"
   inkscape:window-maximized="1"
   inkscape:current-layer="Capa_1" />
<g
   id="g4"
   style="fill:#4e74ff;fill-opacity:1">
	<path
   d="M248.146,0C111.314,0,0,111.321,0,248.152c0,136.829,111.314,248.151,248.146,248.151   c136.835,0,248.158-111.322,248.158-248.151C496.304,111.321,384.98,0,248.146,0z M248.146,472.093   c-123.473,0-223.935-100.459-223.935-223.941c0-123.479,100.462-223.941,223.935-223.941   c123.488,0,223.947,100.462,223.947,223.941C472.093,371.634,371.634,472.093,248.146,472.093z M319.536,383.42v32.852   c0,1.383-1.123,2.494-2.482,2.494H196.45c-1.374,0-2.482-1.117-2.482-2.494V383.42c0-1.372,1.114-2.482,2.482-2.482h34.744V205.831   h-35.101c-1.375,0-2.468-1.111-2.468-2.474v-33.6c0-1.38,1.1-2.479,2.468-2.479h82.293c1.371,0,2.482,1.105,2.482,2.479v211.181   h36.186C318.413,380.938,319.536,382.048,319.536,383.42z M209.93,105.927c0-20.895,16.929-37.829,37.829-37.829   c20.886,0,37.826,16.935,37.826,37.829s-16.94,37.829-37.826,37.829C226.853,143.756,209.93,126.822,209.93,105.927z"
   id="path2"
   style="fill:#4e74ff;fill-opacity:1" />
</g>
<g
   id="g6">
</g>
<g
   id="g8">
</g>
<g
   id="g10">
</g>
<g
   id="g12">
</g>
<g
   id="g14">
</g>
<g
   id="g16">
</g>
<g
   id="g18">
</g>
<g
   id="g20">
</g>
<g
   id="g22">
</g>
<g
   id="g24">
</g>
<g
   id="g26">
</g>
<g
   id="g28">
</g>
<g
   id="g30">
</g>
<g
   id="g32">
</g>
<g
   id="g34">
</g>
</svg>