<?xml version="1.0" encoding="UTF-8" standalone="no"?>
<svg
   xmlns:dc="http://purl.org/dc/elements/1.1/"
   xmlns:cc="http://creativecommons.org/ns#"
   xmlns:rdf="http://www.w3.org/1999/02/22-rdf-syntax-ns#"
   xmlns:svg="http://www.w3.org/2000/svg"
   xmlns="http://www.w3.org/2000/svg"
   version="1.1"
   viewBox="0 0 114.60312 114.65801"
   enable-background="new 0 0 512 512"
   id="svg10"
   width="114.60312"
   height="114.65801">
  <metadata
     id="metadata16">
    <rdf:RDF>
      <cc:Work
         rdf:about="">
        <dc:format>image/svg+xml</dc:format>
        <dc:type
           rdf:resource="http://purl.org/dc/dcmitype/StillImage" />
        <dc:title></dc:title>
      </cc:Work>
    </rdf:RDF>
  </metadata>
  <defs
     id="defs14" />
  <path
     d="M 57.327931,1.0442483e-5 C 42.664301,0.00881044 27.992599,5.6302564 16.784958,16.837896 c -22.415285,22.41529 -22.344575,58.69058 0,81.03516 22.415283,22.415284 58.688633,22.344574 81.033203,0 22.415289,-22.41529 22.344579,-58.69059 0,-81.03516 C 86.645881,5.5948964 71.991551,-0.00882956 57.327931,1.0442483e-5 Z M 57.321931,12.968756 c 2.8366,-0.002 5.67304,0.26907 8.46679,0.81055 2.79376,0.54148 5.54403,1.35414 8.21094,2.43945 2.66691,1.08532 5.25097,2.44248 7.70703,4.07227 2.45607,1.62979 4.78409,3.53213 6.94531,5.70703 2.16123,2.16123 4.05348,4.4912 5.67579,6.94727 1.6223,2.45606 2.97584,5.03817 4.05859,7.70507 1.08275,2.66691 1.894949,5.41914 2.437499,8.21289 0.54255,2.79376 0.8147,5.63019 0.81641,8.4668 0.002,2.83661 -0.26687,5.67329 -0.80664,8.46875 -0.53978,2.79547 -1.349749,5.54842 -2.431649,8.21875 -1.08189,2.67033 -2.43588,5.25756 -4.06054,7.71875 -1.62466,2.46119 -3.52139,4.79678 -5.68946,6.96485 -2.16122,2.16122 -4.48924,4.05347 -6.94531,5.67578 -2.45606,1.62231 -5.04012,2.97584 -7.70703,4.05859 -2.66691,1.08275 -5.41718,1.894954 -8.21094,2.437504 -2.79375,0.54255 -5.63019,0.8147 -8.46679,0.81641 -2.83661,0.002 -5.67329,-0.26687 -8.46875,-0.80664 -2.79547,-0.53978 -5.55038,-1.351704 -8.22071,-2.433604 -2.67032,-1.08189 -5.255599,-2.43393 -7.716794,-4.05859 -2.461194,-1.62466 -4.798731,-3.52139 -6.966797,-5.68945 -2.161225,-2.16123 -4.051519,-4.49121 -5.673828,-6.94727 -1.622308,-2.45606 -2.975843,-5.03817 -4.058593,-7.70508 -1.082751,-2.66691 -1.89495,-5.41718 -2.4375,-8.21094 -0.542551,-2.79375 -0.814697,-5.63018 -0.816407,-8.46679 -0.0017,-2.83661 0.266869,-5.67329 0.806641,-8.46875 0.539772,-2.79547 1.349745,-5.55038 2.43164,-8.22071 1.081896,-2.67032 2.435888,-5.25755 4.060547,-7.71875 1.62466,-2.46119 3.519435,-4.79677 5.6875,-6.96484 2.168066,-2.16806 4.505603,-4.06592 6.966797,-5.69336 2.461194,-1.62744 5.046474,-2.98414 7.716794,-4.07031 2.67033,-1.08617 5.42524,-1.90105 8.22071,-2.44531 2.79546,-0.54426 5.63214,-0.81861 8.46875,-0.82032 z"
     style="fill:#31363b;fill-opacity:1"
     id="path847" />
</svg>
