<?xml version="1.0" encoding="UTF-8" standalone="no"?>
<!-- Generator: Adobe Illustrator 19.0.0, SVG Export Plug-In . SVG Version: 6.00 Build 0)  -->

<svg
   xmlns:dc="http://purl.org/dc/elements/1.1/"
   xmlns:cc="http://creativecommons.org/ns#"
   xmlns:rdf="http://www.w3.org/1999/02/22-rdf-syntax-ns#"
   xmlns:svg="http://www.w3.org/2000/svg"
   xmlns="http://www.w3.org/2000/svg"
   xmlns:sodipodi="http://sodipodi.sourceforge.net/DTD/sodipodi-0.dtd"
   xmlns:inkscape="http://www.inkscape.org/namespaces/inkscape"
   version="1.1"
   id="Capa_1"
   x="0px"
   y="0px"
   viewBox="0 0 485.811 485.811"
   style="enable-background:new 0 0 485.811 485.811;"
   xml:space="preserve"
   sodipodi:docname="warning-box.svg"
   inkscape:version="0.92.5 (2060ec1f9f, 2020-04-08)"><metadata
   id="metadata41"><rdf:RDF><cc:Work
       rdf:about=""><dc:format>image/svg+xml</dc:format><dc:type
         rdf:resource="http://purl.org/dc/dcmitype/StillImage" /></cc:Work></rdf:RDF></metadata><defs
   id="defs39" /><sodipodi:namedview
   pagecolor="#ffffff"
   bordercolor="#666666"
   borderopacity="1"
   objecttolerance="10"
   gridtolerance="10"
   guidetolerance="10"
   inkscape:pageopacity="0"
   inkscape:pageshadow="2"
   inkscape:window-width="1920"
   inkscape:window-height="1141"
   id="namedview37"
   showgrid="false"
   inkscape:zoom="0.60244983"
   inkscape:cx="-600.50507"
   inkscape:cy="39.494589"
   inkscape:window-x="0"
   inkscape:window-y="30"
   inkscape:window-maximized="1"
   inkscape:current-layer="Capa_1" />
<g
   id="g4"
   style="fill:#e2cf6f;fill-opacity:1">
	<path
   d="M476.099,353.968l-170.2-294.8c-27.8-48.7-98.1-48.7-125.8,0l-170.3,294.8c-27.8,48.7,6.8,109.2,62.9,109.2h339.9   C468.699,463.168,503.899,402.068,476.099,353.968z M242.899,397.768c-14.8,0-27.1-12.3-27.1-27.1s12.3-27.1,27.1-27.1   c14.8,0,27.1,12.3,26.5,27.8C270.099,385.468,257.099,397.768,242.899,397.768z M267.599,222.568c-1.2,21-2.5,41.9-3.7,62.9   c-0.6,6.8-0.6,13-0.6,19.7c-0.6,11.1-9.3,19.7-20.4,19.7s-19.7-8-20.4-19.1c-1.8-32.7-3.7-64.8-5.5-97.5   c-0.6-8.6-1.2-17.3-1.9-25.9c0-14.2,8-25.9,21-29.6c13-3.1,25.9,3.1,31.5,15.4c1.9,4.3,2.5,8.6,2.5,13.6   C269.499,195.468,268.199,209.068,267.599,222.568z"
   id="path2"
   style="fill:#e2cf6f;fill-opacity:1" />
</g>
<g
   id="g6">
</g>
<g
   id="g8">
</g>
<g
   id="g10">
</g>
<g
   id="g12">
</g>
<g
   id="g14">
</g>
<g
   id="g16">
</g>
<g
   id="g18">
</g>
<g
   id="g20">
</g>
<g
   id="g22">
</g>
<g
   id="g24">
</g>
<g
   id="g26">
</g>
<g
   id="g28">
</g>
<g
   id="g30">
</g>
<g
   id="g32">
</g>
<g
   id="g34">
</g>
</svg>