<?xml version="1.0" encoding="UTF-8" standalone="no"?>
<!-- Generator: Adobe Illustrator 18.1.1, SVG Export Plug-In . SVG Version: 6.00 Build 0)  -->

<svg
   xmlns:dc="http://purl.org/dc/elements/1.1/"
   xmlns:cc="http://creativecommons.org/ns#"
   xmlns:rdf="http://www.w3.org/1999/02/22-rdf-syntax-ns#"
   xmlns:svg="http://www.w3.org/2000/svg"
   xmlns="http://www.w3.org/2000/svg"
   xmlns:sodipodi="http://sodipodi.sourceforge.net/DTD/sodipodi-0.dtd"
   xmlns:inkscape="http://www.inkscape.org/namespaces/inkscape"
   version="1.1"
   id="Capa_1"
   x="0px"
   y="0px"
   viewBox="0 0 27.02 27.02"
   style="enable-background:new 0 0 27.02 27.02;"
   xml:space="preserve"
   sodipodi:docname="home.svg"
   inkscape:version="0.92.4 5da689c313, 2019-01-14"><metadata
   id="metadata45"><rdf:RDF><cc:Work
       rdf:about=""><dc:format>image/svg+xml</dc:format><dc:type
         rdf:resource="http://purl.org/dc/dcmitype/StillImage" /></cc:Work></rdf:RDF></metadata><defs
   id="defs43">
	
	
	
</defs><sodipodi:namedview
   pagecolor="#ffffff"
   bordercolor="#666666"
   borderopacity="1"
   objecttolerance="10"
   gridtolerance="10"
   guidetolerance="10"
   inkscape:pageopacity="0"
   inkscape:pageshadow="2"
   inkscape:window-width="1920"
   inkscape:window-height="1143"
   id="namedview41"
   showgrid="false"
   inkscape:zoom="8.7342708"
   inkscape:cx="13.51"
   inkscape:cy="13.51"
   inkscape:window-x="0"
   inkscape:window-y="28"
   inkscape:window-maximized="1"
   inkscape:current-layer="Capa_1" />
<path
   inkscape:connector-curvature="0"
   id="path2"
   d="m 3.674,24.876 c 0,0 -0.024,0.604 0.566,0.604 0.734,0 6.811,-0.008 6.811,-0.008 l 0.01,-5.581 c 0,0 -0.096,-0.92 0.797,-0.92 h 2.826 c 1.056,0 0.991,0.92 0.991,0.92 l -0.012,5.563 c 0,0 5.762,0 6.667,0 0.749,0 0.715,-0.752 0.715,-0.752 V 14.413 L 13.649,6.055 3.674,14.413 c 0,0 0,10.463 0,10.463 z"
   style="fill:#e3e2db" /><path
   inkscape:connector-curvature="0"
   id="path4"
   d="m 0,13.635 c 0,0 0.847,1.561 2.694,0 l 11.038,-9.338 10.349,9.28 c 2.138,1.542 2.939,0 2.939,0 L 13.732,1.54 Z"
   style="fill:#c87137" /><polygon
   id="polygon6"
   points="21.179,7.503 23.83,9.752 23.83,4.275 21.168,4.275 "
   style="fill:#c87137" />
<g
   id="g10">
</g>
<g
   id="g12">
</g>
<g
   id="g14">
</g>
<g
   id="g16">
</g>
<g
   id="g18">
</g>
<g
   id="g20">
</g>
<g
   id="g22">
</g>
<g
   id="g24">
</g>
<g
   id="g26">
</g>
<g
   id="g28">
</g>
<g
   id="g30">
</g>
<g
   id="g32">
</g>
<g
   id="g34">
</g>
<g
   id="g36">
</g>
<g
   id="g38">
</g>
</svg>