<?xml version="1.0" encoding="utf-8"?>
<!-- Generator: Adobe Illustrator 16.0.0, SVG Export Plug-In . SVG Version: 6.00 Build 0)  -->
<!DOCTYPE svg PUBLIC "-//W3C//DTD SVG 1.1//EN" "http://www.w3.org/Graphics/SVG/1.1/DTD/svg11.dtd">
<svg version="1.1" id="Layer_1" xmlns="http://www.w3.org/2000/svg" xmlns:xlink="http://www.w3.org/1999/xlink" x="0px" y="0px"
	 width="24px" height="24px" viewBox="0 0 24 24" enable-background="new 0 0 24 24" xml:space="preserve">
<path d="M7.805,8.233c0,0.2-0.163,0.361-0.362,0.361c-0.199,0-0.361-0.163-0.361-0.361c0-0.2,0.163-0.361,0.361-0.361
	C7.642,7.872,7.805,8.034,7.805,8.233z M7.974,6.511c-1.175,0-2.127,0.952-2.127,2.127s0.953,2.127,2.127,2.127
	c1.174,0,2.127-0.952,2.127-2.127S9.148,6.511,7.974,6.511z M8.027,9.978c-0.71,0-1.287-0.577-1.287-1.287
	c0-0.71,0.577-1.287,1.287-1.287c0.71,0,1.287,0.576,1.287,1.287C9.313,9.401,8.737,9.978,8.027,9.978z M17.185,8.595
	c0.2,0,0.361-0.161,0.361-0.361c0-0.2-0.162-0.361-0.361-0.361c-0.2,0-0.361,0.162-0.361,0.361
	C16.823,8.433,16.985,8.595,17.185,8.595z M17.844,10.85c1.174,0,2.127-0.953,2.127-2.127c0-1.175-0.952-2.127-2.127-2.127
	c-1.175,0-2.128,0.952-2.128,2.127C15.716,9.898,16.669,10.85,17.844,10.85z M17.77,7.426c0.71,0,1.287,0.576,1.287,1.287
	C19.057,9.423,18.48,10,17.77,10s-1.287-0.576-1.287-1.287C16.482,8.002,17.059,7.426,17.77,7.426z M22.688,11.517
	c0-2.917-1.17-5.559-3.063-7.487c-0.352-1.074-0.312-2.558,0.135-3.233c0.155-0.236,0.321-0.464,0.5-0.721
	c-1.583-0.27-2.932,0.184-3.834,1.314c-0.109,0.138-0.211,0.219-0.317,0.258c-1.266-0.527-2.653-0.82-4.109-0.82
	c-1.461,0-2.854,0.294-4.123,0.826C7.765,1.616,7.658,1.534,7.543,1.39C6.641,0.261,5.294-0.194,3.709,0.076
	c0.178,0.257,0.345,0.485,0.5,0.721C4.662,1.482,4.697,3,4.329,4.077c-1.867,1.924-3.018,4.547-3.018,7.44
	c0,1.361,0.255,2.663,0.72,3.861c0.116,0.328,0.223,0.66,0.332,0.991c0.099,0.302,0.194,0.603,0.282,0.904
	c0.258,0.887,0.417,1.803,0.442,2.726c0.008,0.253,0.003,0.506-0.004,0.757c-0.003,0.087-0.005,0.174-0.008,0.261l2.165-1.981
	c0.393,0.362,0.926,0.688,1.57,0.966C6.157,20.458,5.73,21.214,5.73,22.07c0,0.73,0.312,1.386,0.808,1.846
	c-0.048-0.16-0.075-0.33-0.075-0.506c0-0.969,0.786-1.754,1.755-1.754c0.969,0,1.754,0.785,1.754,1.754
	c0,0.208-0.038,0.405-0.104,0.59c0.551-0.461,0.902-1.156,0.902-1.931c0-0.425-0.106-0.824-0.291-1.175
	c0.579,0.061,1.182,0.092,1.802,0.092c0.423,0,0.836-0.015,1.242-0.042c-0.17,0.338-0.266,0.72-0.266,1.125
	c0,0.73,0.313,1.385,0.809,1.846c-0.048-0.161-0.075-0.331-0.075-0.507c0-0.97,0.786-1.755,1.755-1.755
	c0.968,0,1.754,0.787,1.754,1.755c0,0.207-0.038,0.406-0.104,0.59c0.551-0.462,0.901-1.155,0.901-1.931
	c0-0.772-0.347-1.462-0.894-1.925c0.666-0.255,1.233-0.558,1.67-0.898l1.871,1.711c-0.003-0.086-0.005-0.173-0.007-0.26
	c-0.007-0.252-0.012-0.505-0.003-0.757c0.025-0.923,0.184-1.84,0.442-2.727c0.087-0.3,0.183-0.602,0.282-0.904
	c0.114-0.349,0.225-0.699,0.348-1.044l0,0c0.438-1.167,0.679-2.431,0.679-3.75L22.688,11.517z M2.553,14.706l-0.401-1.201
	l0.532,0.489l0.825-0.291L2.553,14.706z M2.759,15.564l0.532,0.489l0.826-0.292L3.16,16.764L2.759,15.564z M4.066,13.777
	l0.495,0.529l0.844-0.23l-1.029,0.928L4.066,13.777z M3.67,18.853l-0.401-1.2l0.532,0.489l0.825-0.292L3.67,18.853z M4.995,17.146
	l-0.401-1.2l0.532,0.489l0.825-0.291L4.995,17.146z M5.901,14.144l0.495,0.529l0.844-0.229l-1.029,0.928L5.901,14.144z
	 M12.032,15.899c-0.212-0.316-0.39-0.672-0.555-0.992c-0.189-0.368-0.38-0.734-0.571-1.1c-0.366-0.7-0.91-1.413-1.091-2.203
	c-0.729,0.592-1.657,0.947-2.669,0.947c-2.338,0-4.233-1.896-4.233-4.233c0-2.338,1.895-4.233,4.233-4.233
	c0.622,0,1.211,0.135,1.743,0.375C9.129,4.563,9.359,4.687,9.577,4.83c1.098,0.761,1.817,2.028,1.817,3.464
	c0,0.207-0.017,0.408-0.045,0.606c0.216-0.068,0.445-0.104,0.683-0.104c0.274,0,0.537,0.051,0.78,0.141
	c-0.036-0.224-0.057-0.452-0.057-0.685c0-0.366,0.05-0.721,0.136-1.06c0.006-0.017,0.01-0.033,0.015-0.05
	c0.024-0.084,0.05-0.169,0.077-0.252c0.021-0.059,0.041-0.116,0.063-0.173c0.009-0.023,0.018-0.047,0.028-0.07
	c0.63-1.546,2.147-2.636,3.919-2.636c2.338,0,4.232,1.896,4.232,4.233c0,2.337-1.894,4.232-4.232,4.232
	c-0.879,0-1.696-0.268-2.373-0.727c-0.122-0.082-0.238-0.172-0.35-0.266c-0.088,0.422-0.303,0.78-0.516,1.182
	c-0.291,0.547-0.578,1.098-0.866,1.647L12.032,15.899L12.032,15.899z M19.987,13.92l-0.31,1.226l-1.029-0.928l0.845,0.229
	l0.494-0.529V13.92z M16.814,14.585l0.844,0.23l0.494-0.529l-0.31,1.226L16.814,14.585z M19.06,17.291l-0.956-1.002l0.825,0.291
	l0.532-0.489L19.06,17.291z M20.383,18.997l-0.957-1.002l0.826,0.292l0.532-0.489L20.383,18.997z M20.894,16.907l-0.956-1.002
	l0.825,0.291l0.533-0.489L20.894,16.907z M21.5,14.849l-0.956-1.001l0.826,0.291l0.532-0.489L21.5,14.849z M12.026,9.219
	c-1.095,0-1.983,0.888-1.983,1.984c0,0.875,0.617,1.631,1.004,2.372c0.166,0.319,0.332,0.638,0.497,0.957
	c0.143,0.279,0.298,0.588,0.483,0.862l0.745-1.378c0.25-0.478,0.5-0.956,0.752-1.433c0.241-0.455,0.486-0.847,0.486-1.38
	C14.01,10.107,13.122,9.218,12.026,9.219L12.026,9.219z"/>
</svg>
