<?xml version="1.0" encoding="UTF-8" standalone="no"?>
<!-- Created with Inkscape (http://www.inkscape.org/) -->

<svg
   xmlns:dc="http://purl.org/dc/elements/1.1/"
   xmlns:cc="http://creativecommons.org/ns#"
   xmlns:rdf="http://www.w3.org/1999/02/22-rdf-syntax-ns#"
   xmlns:svg="http://www.w3.org/2000/svg"
   xmlns="http://www.w3.org/2000/svg"
   xmlns:sodipodi="http://sodipodi.sourceforge.net/DTD/sodipodi-0.dtd"
   xmlns:inkscape="http://www.inkscape.org/namespaces/inkscape"
   width="330.10452mm"
   height="65.891335mm"
   viewBox="0 0 330.10452 65.891335"
   version="1.1"
   id="svg8"
   inkscape:version="0.92.4 5da689c313, 2019-01-14"
   sodipodi:docname="cfg_parsing.svg">
  <defs
     id="defs2" />
  <sodipodi:namedview
     id="base"
     pagecolor="#ffffff"
     bordercolor="#666666"
     borderopacity="1.0"
     inkscape:pageopacity="0.0"
     inkscape:pageshadow="2"
     inkscape:zoom="0.7"
     inkscape:cx="814.78346"
     inkscape:cy="-157.60001"
     inkscape:document-units="mm"
     inkscape:current-layer="layer1"
     showgrid="false"
     fit-margin-top="5"
     fit-margin-left="5"
     fit-margin-right="5"
     fit-margin-bottom="5"
     inkscape:window-width="1920"
     inkscape:window-height="1143"
     inkscape:window-x="0"
     inkscape:window-y="28"
     inkscape:window-maximized="1" />
  <metadata
     id="metadata5">
    <rdf:RDF>
      <cc:Work
         rdf:about="">
        <dc:format>image/svg+xml</dc:format>
        <dc:type
           rdf:resource="http://purl.org/dc/dcmitype/StillImage" />
        <dc:title></dc:title>
      </cc:Work>
    </rdf:RDF>
  </metadata>
  <g
     inkscape:label="Layer 1"
     inkscape:groupmode="layer"
     id="layer1"
     transform="translate(68.269513,-56.492526)">
    <g
       id="g970">
      <path
         style="fill:#ffffff;fill-rule:evenodd;stroke:#000000;stroke-width:0.1;stroke-miterlimit:4;stroke-dasharray:none;stroke-opacity:1"
         d="m 31.888391,79.175331 h 15.952856 v 17.10525 H 31.888391 Z"
         id="rect922"
         inkscape:connector-curvature="0" />
      <path
         style="fill:#ffffff;fill-rule:evenodd;stroke:#000000;stroke-width:0.1;stroke-miterlimit:4;stroke-dasharray:none;stroke-opacity:1"
         d="M -63.219513,79.612167 H 20.723663 V 96.378283 H -63.219513 Z"
         id="rect922-6"
         inkscape:connector-curvature="0" />
      <g
         aria-label="items-per-page = 10;"
         style="font-style:normal;font-weight:normal;font-size:10.58333302px;line-height:6.61458302px;font-family:sans-serif;letter-spacing:0px;word-spacing:0px;fill:#000000;fill-opacity:1;stroke:none;stroke-width:0.26458332"
         id="text817">
        <path
           d="m -61.543714,85.147436 h 0.950846 v 5.78776 h -0.950846 z m 0,-2.253093 h 0.950846 v 1.204061 h -0.950846 z"
           style="fill:#88aa00"
           id="path974"
           inkscape:connector-curvature="0" />
        <path
           d="m -57.662814,83.504125 v 1.643311 h 1.958537 v 0.738973 h -1.958537 v 3.141927 q 0,0.707967 0.191203,0.909505 0.19637,0.201538 0.790649,0.201538 h 0.976685 v 0.795817 h -0.976685 q -1.100708,0 -1.519287,-0.408244 -0.418579,-0.413411 -0.418579,-1.498616 v -3.141927 h -0.697632 v -0.738973 h 0.697632 v -1.643311 z"
           style="fill:#88aa00"
           id="path976"
           inkscape:connector-curvature="0" />
        <path
           d="m -49.503106,87.803604 v 0.465088 h -4.371826 q 0.06201,0.981852 0.589111,1.498617 0.532268,0.511596 1.477946,0.511596 0.54777,0 1.059367,-0.134358 0.516764,-0.134359 1.023193,-0.403077 v 0.89917 q -0.511596,0.217041 -1.049031,0.330729 -0.537435,0.113689 -1.090373,0.113689 -1.384928,0 -2.196248,-0.806153 -0.806152,-0.806152 -0.806152,-2.180745 0,-1.421102 0.764811,-2.253093 0.769979,-0.837158 2.072225,-0.837158 1.167887,0 1.844848,0.754476 0.682129,0.749308 0.682129,2.041219 z m -0.950846,-0.279053 q -0.01034,-0.780314 -0.43925,-1.245401 -0.423747,-0.465088 -1.126546,-0.465088 -0.795817,0 -1.276408,0.449585 -0.475423,0.449585 -0.54777,1.266072 z"
           style="fill:#88aa00"
           id="path978"
           inkscape:connector-curvature="0" />
        <path
           d="m -43.436293,86.258479 q 0.356568,-0.640788 0.852661,-0.945679 0.496094,-0.304891 1.167888,-0.304891 0.904337,0 1.395263,0.63562 0.490926,0.630453 0.490926,1.79834 v 3.493327 h -0.956014 v -3.462321 q 0,-0.83199 -0.294555,-1.235067 -0.294556,-0.403076 -0.89917,-0.403076 -0.738973,0 -1.167888,0.490926 -0.428914,0.490926 -0.428914,1.33842 v 3.271118 h -0.956014 v -3.462321 q 0,-0.837158 -0.294556,-1.235067 -0.294555,-0.403076 -0.909505,-0.403076 -0.728637,0 -1.157552,0.496094 -0.428914,0.490926 -0.428914,1.333252 v 3.271118 h -0.956014 v -5.78776 h 0.956014 v 0.89917 q 0.325561,-0.532268 0.780314,-0.785482 0.454753,-0.253215 1.080037,-0.253215 0.630453,0 1.069703,0.320394 0.444417,0.320394 0.65629,0.930176 z"
           style="fill:#88aa00"
           id="path980"
           inkscape:connector-curvature="0" />
        <path
           d="m -33.943332,85.317968 v 0.89917 q -0.403076,-0.206706 -0.837158,-0.310059 -0.434082,-0.103353 -0.89917,-0.103353 -0.707967,0 -1.064535,0.217041 -0.351399,0.217041 -0.351399,0.651123 0,0.33073 0.253214,0.521932 0.253215,0.186035 1.018026,0.356568 l 0.325561,0.07235 q 1.012858,0.217041 1.436605,0.614949 0.428914,0.392741 0.428914,1.100708 0,0.806153 -0.640787,1.276408 -0.63562,0.470256 -1.751831,0.470256 -0.465088,0 -0.971517,-0.09302 -0.501262,-0.08785 -1.059367,-0.268717 V 89.74147 q 0.5271,0.273885 1.038696,0.413412 0.511597,0.134359 1.012858,0.134359 0.671794,0 1.033529,-0.227377 0.361735,-0.232544 0.361735,-0.651123 0,-0.387573 -0.26355,-0.594279 -0.258382,-0.206705 -1.142049,-0.397908 l -0.330729,-0.07752 q -0.883667,-0.186035 -1.276408,-0.568441 -0.392741,-0.387573 -0.392741,-1.059366 0,-0.816488 0.578776,-1.260905 0.578776,-0.444418 1.643311,-0.444418 0.527099,0 0.992187,0.07752 0.465088,0.07751 0.857829,0.232544 z"
           style="fill:#88aa00"
           id="path982"
           inkscape:connector-curvature="0" />
        <path
           d="m -32.599744,87.612401 h 2.785359 v 0.847494 h -2.785359 z"
           style="fill:#88aa00"
           id="path984"
           inkscape:connector-curvature="0" />
        <path
           d="m -27.380427,90.067032 v 3.06958 h -0.956014 v -7.989176 h 0.956014 v 0.878499 q 0.299723,-0.516764 0.754476,-0.764811 0.45992,-0.253215 1.09554,-0.253215 1.054199,0 1.71049,0.837158 0.661458,0.837159 0.661458,2.201416 0,1.364258 -0.661458,2.201416 -0.656291,0.837159 -1.71049,0.837159 -0.63562,0 -1.09554,-0.248047 -0.454753,-0.253215 -0.754476,-0.769979 z m 3.234944,-2.020549 q 0,-1.049031 -0.434082,-1.64331 -0.428914,-0.599447 -1.18339,-0.599447 -0.754476,0 -1.188558,0.599447 -0.428914,0.594279 -0.428914,1.64331 0,1.049032 0.428914,1.648479 0.434082,0.594279 1.188558,0.594279 0.754476,0 1.18339,-0.594279 0.434082,-0.599447 0.434082,-1.648479 z"
           style="fill:#88aa00"
           id="path986"
           inkscape:connector-curvature="0" />
        <path
           d="m -16.631728,87.803604 v 0.465088 h -4.371826 q 0.06201,0.981852 0.589111,1.498617 0.532267,0.511596 1.477946,0.511596 0.54777,0 1.059367,-0.134358 0.516764,-0.134359 1.023193,-0.403077 v 0.89917 q -0.511596,0.217041 -1.049031,0.330729 -0.537435,0.113689 -1.090373,0.113689 -1.384928,0 -2.196248,-0.806153 -0.806153,-0.806152 -0.806153,-2.180745 0,-1.421102 0.764812,-2.253093 0.769978,-0.837158 2.072225,-0.837158 1.167887,0 1.844848,0.754476 0.682129,0.749308 0.682129,2.041219 z m -0.950846,-0.279053 q -0.01034,-0.780314 -0.43925,-1.245401 -0.423747,-0.465088 -1.126546,-0.465088 -0.795817,0 -1.276408,0.449585 -0.475423,0.449585 -0.54777,1.266072 z"
           style="fill:#88aa00"
           id="path988"
           inkscape:connector-curvature="0" />
        <path
           d="m -11.717299,86.03627 q -0.160197,-0.09302 -0.3514,-0.134358 -0.186035,-0.04651 -0.413411,-0.04651 -0.806153,0 -1.240235,0.527099 -0.428914,0.521932 -0.428914,1.503785 v 3.048909 h -0.956014 v -5.78776 h 0.956014 v 0.89917 q 0.299723,-0.5271 0.780314,-0.780315 0.480591,-0.258382 1.167887,-0.258382 0.09819,0 0.217041,0.0155 0.118856,0.01034 0.26355,0.03617 z"
           style="fill:#88aa00"
           id="path990"
           inkscape:connector-curvature="0" />
        <path
           d="m -11.20318,87.612401 h 2.7853599 v 0.847494 H -11.20318 Z"
           style="fill:#88aa00"
           id="path992"
           inkscape:connector-curvature="0" />
        <path
           d="m -5.9838588,90.067032 v 3.06958 h -0.956014 v -7.989176 h 0.956014 v 0.878499 q 0.2997233,-0.516764 0.7544759,-0.764811 0.4599202,-0.253215 1.0955403,-0.253215 1.0541992,0 1.7104899,0.837158 0.6614583,0.837159 0.6614583,2.201416 0,1.364258 -0.6614583,2.201416 -0.6562907,0.837159 -1.7104899,0.837159 -0.6356201,0 -1.0955403,-0.248047 -0.4547526,-0.253215 -0.7544759,-0.769979 z m 3.2349446,-2.020549 q 0,-1.049031 -0.4340821,-1.64331 -0.4289143,-0.599447 -1.1833902,-0.599447 -0.7544759,0 -1.1885579,0.599447 -0.4289144,0.594279 -0.4289144,1.64331 0,1.049032 0.4289144,1.648479 0.434082,0.594279 1.1885579,0.594279 0.7544759,0 1.1833902,-0.594279 0.4340821,-0.599447 0.4340821,-1.648479 z"
           style="fill:#88aa00"
           id="path994"
           inkscape:connector-curvature="0" />
        <path
           d="m 2.4445647,88.025813 q -1.1523844,0 -1.5968017,0.26355 -0.4444173,0.263549 -0.4444173,0.89917 0,0.506429 0.33072915,0.806152 0.33589685,0.294556 0.90950515,0.294556 0.7906494,0 1.2660726,-0.558106 0.4805908,-0.563273 0.4805908,-1.493449 v -0.211873 z m 1.896525,-0.392741 v 3.302124 H 3.3902434 v -0.878499 q -0.3255615,0.527099 -0.81132,0.780314 -0.4857584,0.248047 -1.1885579,0.248047 -0.88883459,0 -1.41593418,-0.496094 -0.52193195,-0.501262 -0.52193195,-1.33842 0,-0.976684 0.65112303,-1.472778 0.65629067,-0.496094 1.9533691,-0.496094 h 1.3332519 v -0.09302 q 0,-0.656291 -0.434082,-1.012858 -0.4289144,-0.361735 -1.2092285,-0.361735 -0.4960937,0 -0.96634926,0.118855 -0.47025552,0.118856 -0.90433754,0.356568 v -0.8785 q 0.52193195,-0.201538 1.01285805,-0.299723 0.49092605,-0.103353 0.95601395,-0.103353 1.2557373,0 1.8758544,0.651123 0.6201172,0.651123 0.6201172,1.97404 z"
           style="fill:#88aa00"
           id="path996"
           inkscape:connector-curvature="0" />
        <path
           d="m 10.108185,87.974136 q 0,-1.033528 -0.4289147,-1.601969 -0.4237467,-0.568441 -1.1937256,-0.568441 -0.7648111,0 -1.1937255,0.568441 -0.4237467,0.568441 -0.4237467,1.601969 0,1.028361 0.4237467,1.596802 0.4289144,0.568441 1.1937255,0.568441 0.7699789,0 1.1937256,-0.568441 0.4289147,-0.568441 0.4289147,-1.596802 z m 0.950846,2.242758 q 0,1.477945 -0.656291,2.196248 -0.6562903,0.72347 -2.0102128,0.72347 -0.5012614,0 -0.9456787,-0.07752 -0.4444173,-0.07235 -0.8629964,-0.227376 v -0.925008 q 0.4185791,0.227376 0.8268229,0.335897 0.4082438,0.10852 0.8319905,0.10852 0.9353434,0 1.4004313,-0.490926 0.4650882,-0.485758 0.4650882,-1.472778 V 89.91717 q -0.294556,0.511597 -0.7544762,0.764811 -0.4599203,0.253215 -1.100708,0.253215 -1.0645345,0 -1.7156575,-0.81132 -0.651123,-0.81132 -0.651123,-2.14974 0,-1.343587 0.651123,-2.154907 0.651123,-0.81132 1.7156575,-0.81132 0.6407877,0 1.100708,0.253215 0.4599202,0.253214 0.7544762,0.764811 v -0.878499 h 0.950846 z"
           style="fill:#88aa00"
           id="path998"
           inkscape:connector-curvature="0" />
        <path
           d="m 17.968167,87.803604 v 0.465088 h -4.371826 q 0.06201,0.981852 0.589112,1.498617 0.532267,0.511596 1.477946,0.511596 0.54777,0 1.059366,-0.134358 0.516765,-0.134359 1.023194,-0.403077 v 0.89917 q -0.511597,0.217041 -1.049032,0.330729 -0.537435,0.113689 -1.090372,0.113689 -1.384929,0 -2.196249,-0.806153 -0.806152,-0.806152 -0.806152,-2.180745 0,-1.421102 0.764811,-2.253093 0.769979,-0.837158 2.072225,-0.837158 1.167887,0 1.844849,0.754476 0.682128,0.749308 0.682128,2.041219 z m -0.950846,-0.279053 q -0.01033,-0.780314 -0.43925,-1.245401 -0.423746,-0.465088 -1.126546,-0.465088 -0.795817,0 -1.276408,0.449585 -0.475423,0.449585 -0.54777,1.266072 z"
           style="fill:#88aa00"
           id="path1000"
           inkscape:connector-curvature="0" />
        <path
           d="m 23.016955,86.129288 h 6.624918 v 0.868164 h -6.624918 z m 0,2.108398 h 6.624918 v 0.8785 h -6.624918 z"
           style="stroke-width:0.26458332"
           id="path1002"
           inkscape:connector-curvature="0" />
        <path
           d="m 35.439969,90.056697 h 1.705323 v -5.885946 l -1.855184,0.37207 v -0.950846 l 1.844848,-0.37207 h 1.043864 v 6.836792 h 1.705322 v 0.878499 h -4.444173 z"
           style="fill:#800000"
           id="path1004"
           inkscape:connector-curvature="0" />
        <path
           d="m 44.22496,83.907201 q -0.806152,0 -1.214396,0.795817 -0.403076,0.79065 -0.403076,2.382284 0,1.586466 0.403076,2.382283 0.408244,0.79065 1.214396,0.79065 0.81132,0 1.214396,-0.79065 0.408244,-0.795817 0.408244,-2.382283 0,-1.591634 -0.408244,-2.382284 -0.403076,-0.795817 -1.214396,-0.795817 z m 0,-0.826823 q 1.297079,0 1.979208,1.028361 0.687296,1.023194 0.687296,2.976563 0,1.948201 -0.687296,2.976562 -0.682129,1.023194 -1.979208,1.023194 -1.297078,0 -1.984375,-1.023194 -0.682129,-1.028361 -0.682129,-2.976562 0,-1.953369 0.682129,-2.976563 0.687297,-1.028361 1.984375,-1.028361 z"
           style="fill:#800000"
           id="path1006"
           inkscape:connector-curvature="0" />
        <path
           d="m 48.834496,85.462662 h 1.090372 v 1.312581 h -1.090372 z m 0,4.159953 h 1.090372 v 0.888834 l -0.847493,1.653646 h -0.666626 l 0.423747,-1.653646 z"
           style="stroke-width:0.26458332"
           id="path1008"
           inkscape:connector-curvature="0" />
      </g>
      <g
         aria-label="Value:"
         style="font-style:normal;font-weight:normal;font-size:10.58333302px;line-height:6.61458349px;font-family:sans-serif;letter-spacing:0px;word-spacing:0px;fill:#000000;fill-opacity:1;stroke:none;stroke-width:0.26458332"
         id="text817-5">
        <path
           d="m 106.65831,85.302299 -2.94555,-7.715291 h 1.09037 l 2.44429,6.495728 2.44947,-6.495728 h 1.0852 l -2.94039,7.715291 z"
           style="stroke-width:0.26458332"
           id="path1011"
           inkscape:connector-curvature="0" />
        <path
           d="m 114.49442,82.392916 q -1.15239,0 -1.5968,0.26355 -0.44442,0.26355 -0.44442,0.89917 0,0.506429 0.33073,0.806152 0.33589,0.294556 0.9095,0.294556 0.79065,0 1.26608,-0.558105 0.48059,-0.563273 0.48059,-1.493449 v -0.211874 z m 1.89652,-0.39274 v 3.302123 H 115.4401 V 84.4238 q -0.32557,0.5271 -0.81132,0.780314 -0.48576,0.248047 -1.18856,0.248047 -0.88884,0 -1.41594,-0.496094 -0.52193,-0.501261 -0.52193,-1.338419 0,-0.976685 0.65113,-1.472778 0.65629,-0.496094 1.95336,-0.496094 h 1.33326 v -0.09302 q 0,-0.65629 -0.43409,-1.012858 -0.42891,-0.361735 -1.20922,-0.361735 -0.4961,0 -0.96635,0.118856 -0.47026,0.118856 -0.90434,0.356567 v -0.878499 q 0.52193,-0.201538 1.01286,-0.299723 0.49092,-0.103353 0.95601,-0.103353 1.25574,0 1.87586,0.651123 0.62011,0.651123 0.62011,1.97404 z"
           style="stroke-width:0.26458332"
           id="path1013"
           inkscape:connector-curvature="0" />
        <path
           d="m 118.34948,77.261447 h 0.95085 v 8.040852 h -0.95085 z"
           style="stroke-width:0.26458332"
           id="path1015"
           inkscape:connector-curvature="0" />
        <path
           d="m 121.19168,83.018201 v -3.503662 h 0.95085 v 3.467489 q 0,0.821655 0.32039,1.235066 0.3204,0.408244 0.96118,0.408244 0.76998,0 1.2144,-0.490926 0.44959,-0.490926 0.44959,-1.338419 v -3.281454 h 0.95084 v 5.78776 h -0.95084 v -0.888834 q -0.34624,0.527099 -0.80616,0.785482 -0.45475,0.253214 -1.05936,0.253214 -0.99736,0 -1.51412,-0.620117 -0.51677,-0.620117 -0.51677,-1.813843 z m 2.39262,-3.643188 z"
           style="stroke-width:0.26458332"
           id="path1017"
           inkscape:connector-curvature="0" />
        <path
           d="m 132.94807,82.170708 v 0.465088 h -4.37182 q 0.062,0.981852 0.58911,1.498616 0.53226,0.511597 1.47794,0.511597 0.54777,0 1.05937,-0.134359 0.51676,-0.134359 1.02319,-0.403076 v 0.89917 q -0.51159,0.217041 -1.04903,0.330729 -0.53743,0.113688 -1.09037,0.113688 -1.38493,0 -2.19625,-0.806152 -0.80615,-0.806152 -0.80615,-2.180746 0,-1.421101 0.76481,-2.253092 0.76998,-0.837158 2.07222,-0.837158 1.16789,0 1.84485,0.754476 0.68213,0.749308 0.68213,2.041219 z m -0.95084,-0.279053 q -0.0103,-0.780314 -0.43925,-1.245402 -0.42375,-0.465088 -1.12655,-0.465088 -0.79582,0 -1.27641,0.449585 -0.47542,0.449585 -0.54777,1.266073 z"
           style="stroke-width:0.26458332"
           id="path1019"
           inkscape:connector-curvature="0" />
        <path
           d="m 134.75158,83.989718 h 1.09037 v 1.312581 h -1.09037 z m 0,-4.159953 h 1.09037 v 1.312582 h -1.09037 z"
           style="stroke-width:0.26458332"
           id="path1021"
           inkscape:connector-curvature="0" />
      </g>
      <g
         aria-label="Key: &quot;items-per-page&quot;"
         style="font-style:normal;font-weight:normal;font-size:10.58333302px;line-height:6.61458349px;font-family:sans-serif;letter-spacing:0px;word-spacing:0px;fill:#000000;fill-opacity:1;stroke:none;stroke-width:0.26458332"
         id="text817-3">
        <path
           d="m 103.86696,61.818087 h 1.04386 v 3.260783 l 3.46232,-3.260783 h 1.34359 l -3.82922,3.59668 4.10311,4.118612 h -1.3746 l -3.7052,-3.715536 v 3.715536 h -1.04386 z"
           style="stroke-width:0.26458332"
           id="path1024"
           inkscape:connector-curvature="0" />
        <path
           d="m 115.71431,66.401787 v 0.465088 h -4.37183 q 0.062,0.981852 0.58911,1.498616 0.53227,0.511597 1.47795,0.511597 0.54777,0 1.05936,-0.134359 0.51677,-0.134359 1.0232,-0.403076 v 0.89917 q -0.5116,0.217041 -1.04904,0.330729 -0.53743,0.113688 -1.09037,0.113688 -1.38493,0 -2.19625,-0.806152 -0.80615,-0.806152 -0.80615,-2.180745 0,-1.421102 0.76481,-2.253093 0.76998,-0.837158 2.07223,-0.837158 1.16788,0 1.84485,0.754476 0.68213,0.749308 0.68213,2.041219 z m -0.95085,-0.279053 q -0.0103,-0.780314 -0.43925,-1.245402 -0.42375,-0.465088 -1.12655,-0.465088 -0.79581,0 -1.2764,0.449585 -0.47543,0.449585 -0.54778,1.266073 z"
           style="stroke-width:0.26458332"
           id="path1026"
           inkscape:connector-curvature="0" />
        <path
           d="m 119.68306,70.070813 q -0.40308,1.033529 -0.78549,1.348755 -0.3824,0.315227 -1.02319,0.315227 h -0.75964 v -0.795817 h 0.5581 q 0.39274,0 0.60978,-0.186036 0.21704,-0.186035 0.48059,-0.878499 l 0.17054,-0.434082 -2.34095,-5.694743 h 1.00769 l 1.80868,4.526856 1.80868,-4.526856 h 1.00769 z"
           style="stroke-width:0.26458332"
           id="path1028"
           inkscape:connector-curvature="0" />
        <path
           d="m 123.77799,68.220797 h 1.09037 v 1.312582 h -1.09037 z m 0,-4.159952 h 1.09037 v 1.312581 h -1.09037 z"
           style="stroke-width:0.26458332"
           id="path1030"
           inkscape:connector-curvature="0" />
        <path
           d="m 131.36409,61.818087 v 2.868042 h -0.8785 v -2.868042 z m 1.95337,0 v 2.868042 h -0.8785 v -2.868042 z"
           style="stroke-width:0.26458332"
           id="path1032"
           inkscape:connector-curvature="0" />
        <path
           d="m 135.33284,63.745618 h 0.95084 v 5.787761 h -0.95084 z m 0,-2.253092 h 0.95084 v 1.204061 h -0.95084 z"
           style="fill:#88aa00;stroke-width:0.26458332"
           id="path1034"
           inkscape:connector-curvature="0" />
        <path
           d="m 139.21374,62.102308 v 1.64331 h 1.95853 v 0.738973 h -1.95853 v 3.141927 q 0,0.707967 0.1912,0.909505 0.19637,0.201539 0.79065,0.201539 h 0.97668 v 0.795817 h -0.97668 q -1.10071,0 -1.51929,-0.408244 -0.41858,-0.413412 -0.41858,-1.498617 v -3.141927 h -0.69763 v -0.738973 h 0.69763 v -1.64331 z"
           style="fill:#88aa00;stroke-width:0.26458332"
           id="path1036"
           inkscape:connector-curvature="0" />
        <path
           d="m 147.37345,66.401787 v 0.465088 h -4.37183 q 0.062,0.981852 0.58911,1.498616 0.53227,0.511597 1.47795,0.511597 0.54777,0 1.05937,-0.134359 0.51676,-0.134359 1.02319,-0.403076 v 0.89917 q -0.5116,0.217041 -1.04903,0.330729 -0.53744,0.113688 -1.09037,0.113688 -1.38493,0 -2.19625,-0.806152 -0.80615,-0.806152 -0.80615,-2.180745 0,-1.421102 0.76481,-2.253093 0.76997,-0.837158 2.07222,-0.837158 1.16789,0 1.84485,0.754476 0.68213,0.749308 0.68213,2.041219 z m -0.95085,-0.279053 q -0.0103,-0.780314 -0.43925,-1.245402 -0.42374,-0.465088 -1.12654,-0.465088 -0.79582,0 -1.27641,0.449585 -0.47542,0.449585 -0.54777,1.266073 z"
           style="fill:#88aa00;stroke-width:0.26458332"
           id="path1038"
           inkscape:connector-curvature="0" />
        <path
           d="m 153.44026,64.856662 q 0.35657,-0.640788 0.85266,-0.945679 0.4961,-0.304891 1.16789,-0.304891 0.90434,0 1.39526,0.63562 0.49093,0.630453 0.49093,1.79834 v 3.493327 h -0.95601 v -3.462321 q 0,-0.831991 -0.29456,-1.235067 -0.29456,-0.403076 -0.89917,-0.403076 -0.73897,0 -1.16789,0.490926 -0.42891,0.490926 -0.42891,1.33842 v 3.271118 h -0.95602 v -3.462321 q 0,-0.837158 -0.29455,-1.235067 -0.29456,-0.403076 -0.90951,-0.403076 -0.72863,0 -1.15755,0.496094 -0.42891,0.490926 -0.42891,1.333252 v 3.271118 h -0.95602 v -5.787761 h 0.95602 v 0.89917 q 0.32556,-0.532267 0.78031,-0.785481 0.45475,-0.253215 1.08004,-0.253215 0.63045,0 1.0697,0.320394 0.44442,0.320394 0.65629,0.930176 z"
           style="fill:#88aa00;stroke-width:0.26458332"
           id="path1040"
           inkscape:connector-curvature="0" />
        <path
           d="m 162.93322,63.916151 v 0.899169 q -0.40307,-0.206705 -0.83716,-0.310058 -0.43408,-0.103353 -0.89917,-0.103353 -0.70796,0 -1.06453,0.217041 -0.3514,0.217041 -0.3514,0.651123 0,0.330729 0.25321,0.521932 0.25322,0.186035 1.01803,0.356567 l 0.32556,0.07235 q 1.01286,0.217041 1.43661,0.61495 0.42891,0.392741 0.42891,1.100708 0,0.806152 -0.64079,1.276408 -0.63562,0.470255 -1.75183,0.470255 -0.46509,0 -0.97151,-0.09302 -0.50127,-0.08785 -1.05937,-0.268718 v -0.981852 q 0.5271,0.273885 1.03869,0.413411 0.5116,0.134359 1.01286,0.134359 0.6718,0 1.03353,-0.227376 0.36174,-0.232544 0.36174,-0.651123 0,-0.387573 -0.26355,-0.594279 -0.25839,-0.206706 -1.14205,-0.397909 l -0.33073,-0.07751 q -0.88367,-0.186035 -1.27641,-0.568441 -0.39274,-0.387573 -0.39274,-1.059367 0,-0.816487 0.57878,-1.260905 0.57877,-0.444417 1.64331,-0.444417 0.5271,0 0.99218,0.07752 0.46509,0.07751 0.85783,0.232544 z"
           style="fill:#88aa00;stroke-width:0.26458332"
           id="path1042"
           inkscape:connector-curvature="0" />
        <path
           d="m 164.27681,66.210584 h 2.78536 v 0.847494 h -2.78536 z"
           style="fill:#88aa00;stroke-width:0.26458332"
           id="path1044"
           inkscape:connector-curvature="0" />
        <path
           d="m 169.49613,68.665215 v 3.06958 h -0.95601 v -7.989177 h 0.95601 v 0.8785 q 0.29972,-0.516765 0.75448,-0.764811 0.45992,-0.253215 1.09554,-0.253215 1.05419,0 1.71049,0.837158 0.66145,0.837158 0.66145,2.201416 0,1.364258 -0.66145,2.201416 -0.6563,0.837158 -1.71049,0.837158 -0.63562,0 -1.09554,-0.248047 -0.45476,-0.253214 -0.75448,-0.769978 z m 3.23494,-2.020549 q 0,-1.049031 -0.43408,-1.64331 -0.42891,-0.599447 -1.18339,-0.599447 -0.75447,0 -1.18856,0.599447 -0.42891,0.594279 -0.42891,1.64331 0,1.049032 0.42891,1.648478 0.43409,0.594279 1.18856,0.594279 0.75448,0 1.18339,-0.594279 0.43408,-0.599446 0.43408,-1.648478 z"
           style="fill:#88aa00;stroke-width:0.26458332"
           id="path1046"
           inkscape:connector-curvature="0" />
        <path
           d="m 180.24482,66.401787 v 0.465088 H 175.873 q 0.062,0.981852 0.58911,1.498616 0.53227,0.511597 1.47795,0.511597 0.54777,0 1.05936,-0.134359 0.51677,-0.134359 1.0232,-0.403076 v 0.89917 q -0.5116,0.217041 -1.04904,0.330729 -0.53743,0.113688 -1.09037,0.113688 -1.38493,0 -2.19625,-0.806152 -0.80615,-0.806152 -0.80615,-2.180745 0,-1.421102 0.76481,-2.253093 0.76998,-0.837158 2.07223,-0.837158 1.16788,0 1.84485,0.754476 0.68212,0.749308 0.68212,2.041219 z m -0.95084,-0.279053 q -0.0103,-0.780314 -0.43925,-1.245402 -0.42375,-0.465088 -1.12655,-0.465088 -0.79581,0 -1.27641,0.449585 -0.47542,0.449585 -0.54777,1.266073 z"
           style="fill:#88aa00;stroke-width:0.26458332"
           id="path1048"
           inkscape:connector-curvature="0" />
        <path
           d="m 185.15925,64.634453 q -0.16019,-0.09302 -0.3514,-0.134359 -0.18603,-0.04651 -0.41341,-0.04651 -0.80615,0 -1.24023,0.5271 -0.42892,0.521932 -0.42892,1.503784 v 3.04891 h -0.95601 v -5.787761 h 0.95601 v 0.89917 q 0.29973,-0.527099 0.78032,-0.780314 0.48059,-0.258382 1.16788,-0.258382 0.0982,0 0.21705,0.0155 0.11885,0.01033 0.26355,0.03617 z"
           style="fill:#88aa00;stroke-width:0.26458332"
           id="path1050"
           inkscape:connector-curvature="0" />
        <path
           d="m 185.67337,66.210584 h 2.78536 v 0.847494 h -2.78536 z"
           style="fill:#88aa00;stroke-width:0.26458332"
           id="path1052"
           inkscape:connector-curvature="0" />
        <path
           d="m 190.89269,68.665215 v 3.06958 h -0.95601 v -7.989177 h 0.95601 v 0.8785 q 0.29972,-0.516765 0.75448,-0.764811 0.45992,-0.253215 1.09554,-0.253215 1.0542,0 1.71049,0.837158 0.66145,0.837158 0.66145,2.201416 0,1.364258 -0.66145,2.201416 -0.65629,0.837158 -1.71049,0.837158 -0.63562,0 -1.09554,-0.248047 -0.45476,-0.253214 -0.75448,-0.769978 z m 3.23494,-2.020549 q 0,-1.049031 -0.43408,-1.64331 -0.42891,-0.599447 -1.18339,-0.599447 -0.75447,0 -1.18856,0.599447 -0.42891,0.594279 -0.42891,1.64331 0,1.049032 0.42891,1.648478 0.43409,0.594279 1.18856,0.594279 0.75448,0 1.18339,-0.594279 0.43408,-0.599446 0.43408,-1.648478 z"
           style="fill:#88aa00;stroke-width:0.26458332"
           id="path1054"
           inkscape:connector-curvature="0" />
        <path
           d="m 199.32112,66.623996 q -1.15238,0 -1.5968,0.263549 -0.44442,0.26355 -0.44442,0.89917 0,0.506429 0.33073,0.806153 0.3359,0.294555 0.90951,0.294555 0.79065,0 1.26607,-0.558105 0.48059,-0.563273 0.48059,-1.493449 v -0.211873 z m 1.89653,-0.392741 v 3.302124 h -0.95085 v -0.8785 q -0.32556,0.5271 -0.81132,0.780314 -0.48576,0.248047 -1.18856,0.248047 -0.88883,0 -1.41593,-0.496093 -0.52193,-0.501262 -0.52193,-1.33842 0,-0.976685 0.65112,-1.472778 0.65629,-0.496094 1.95337,-0.496094 h 1.33325 v -0.09302 q 0,-0.65629 -0.43408,-1.012858 -0.42892,-0.361735 -1.20923,-0.361735 -0.49609,0 -0.96635,0.118856 -0.47026,0.118856 -0.90434,0.356567 v -0.878499 q 0.52193,-0.201538 1.01286,-0.299723 0.49093,-0.103353 0.95601,-0.103353 1.25574,0 1.87586,0.651123 0.62012,0.651123 0.62012,1.97404 z"
           style="fill:#88aa00;stroke-width:0.26458332"
           id="path1056"
           inkscape:connector-curvature="0" />
        <path
           d="m 206.98473,66.572319 q 0,-1.033528 -0.42891,-1.601969 -0.42375,-0.568441 -1.19373,-0.568441 -0.76481,0 -1.19372,0.568441 -0.42375,0.568441 -0.42375,1.601969 0,1.028361 0.42375,1.596802 0.42891,0.568441 1.19372,0.568441 0.76998,0 1.19373,-0.568441 0.42891,-0.568441 0.42891,-1.596802 z m 0.95085,2.242757 q 0,1.477946 -0.65629,2.196249 -0.65629,0.72347 -2.01021,0.72347 -0.50127,0 -0.94568,-0.07752 -0.44442,-0.07235 -0.863,-0.227376 V 70.50489 q 0.41858,0.227377 0.82682,0.335897 0.40825,0.108521 0.83199,0.108521 0.93535,0 1.40044,-0.490926 0.46508,-0.485759 0.46508,-1.472779 v -0.470255 q -0.29455,0.511597 -0.75447,0.764811 -0.45992,0.253215 -1.10071,0.253215 -1.06453,0 -1.71566,-0.81132 -0.65112,-0.81132 -0.65112,-2.14974 0,-1.343587 0.65112,-2.154907 0.65113,-0.81132 1.71566,-0.81132 0.64079,0 1.10071,0.253215 0.45992,0.253214 0.75447,0.764811 v -0.8785 h 0.95085 z"
           style="fill:#88aa00;stroke-width:0.26458332"
           id="path1058"
           inkscape:connector-curvature="0" />
        <path
           d="m 214.84472,66.401787 v 0.465088 h -4.37183 q 0.062,0.981852 0.58911,1.498616 0.53227,0.511597 1.47795,0.511597 0.54777,0 1.05936,-0.134359 0.51677,-0.134359 1.0232,-0.403076 v 0.89917 q -0.5116,0.217041 -1.04903,0.330729 -0.53744,0.113688 -1.09038,0.113688 -1.38493,0 -2.19624,-0.806152 -0.80616,-0.806152 -0.80616,-2.180745 0,-1.421102 0.76481,-2.253093 0.76998,-0.837158 2.07223,-0.837158 1.16789,0 1.84485,0.754476 0.68213,0.749308 0.68213,2.041219 z m -0.95085,-0.279053 q -0.0103,-0.780314 -0.43925,-1.245402 -0.42375,-0.465088 -1.12655,-0.465088 -0.79581,0 -1.2764,0.449585 -0.47543,0.449585 -0.54777,1.266073 z"
           style="fill:#88aa00;stroke-width:0.26458332"
           id="path1060"
           inkscape:connector-curvature="0" />
        <path
           d="m 217.30451,61.818087 v 2.868042 h -0.87849 v -2.868042 z m 1.95337,0 v 2.868042 h -0.8785 v -2.868042 z"
           style="stroke-width:0.26458332"
           id="path1062"
           inkscape:connector-curvature="0" />
      </g>
      <g
         aria-label="line: 15 "
         style="font-style:normal;font-weight:normal;font-size:10.58333302px;line-height:6.61458349px;font-family:sans-serif;letter-spacing:0px;word-spacing:0px;fill:#000000;fill-opacity:1;stroke:none;stroke-width:0.26458332"
         id="text817-5-1">
        <path
           d="m 143.4011,78.019961 h 0.95085 v 8.040853 h -0.95085 z"
           style="stroke-width:0.26458332"
           id="path1065"
           inkscape:connector-curvature="0" />
        <path
           d="m 146.34149,80.273054 h 0.95085 v 5.78776 h -0.95085 z m 0,-2.253093 h 0.95085 v 1.204061 h -0.95085 z"
           style="stroke-width:0.26458332"
           id="path1067"
           inkscape:connector-curvature="0" />
        <path
           d="m 154.09296,82.567487 v 3.493327 h -0.95085 v -3.462321 q 0,-0.821655 -0.32039,-1.229899 -0.3204,-0.408244 -0.96119,-0.408244 -0.76997,0 -1.21439,0.490926 -0.44442,0.490926 -0.44442,1.33842 v 3.271118 h -0.95601 v -5.78776 h 0.95601 v 0.89917 q 0.34107,-0.521932 0.80099,-0.780315 0.46508,-0.258382 1.0697,-0.258382 0.99735,0 1.50895,0.620117 0.5116,0.61495 0.5116,1.813843 z"
           style="stroke-width:0.26458332"
           id="path1069"
           inkscape:connector-curvature="0" />
        <path
           d="m 160.94008,82.929222 v 0.465088 h -4.37182 q 0.062,0.981852 0.58911,1.498617 0.53227,0.511596 1.47794,0.511596 0.54777,0 1.05937,-0.134358 0.51677,-0.134359 1.02319,-0.403077 v 0.89917 q -0.51159,0.217041 -1.04903,0.330729 -0.53743,0.113689 -1.09037,0.113689 -1.38493,0 -2.19625,-0.806153 -0.80615,-0.806152 -0.80615,-2.180745 0,-1.421102 0.76481,-2.253093 0.76998,-0.837158 2.07223,-0.837158 1.16788,0 1.84484,0.754476 0.68213,0.749308 0.68213,2.041219 z m -0.95084,-0.279053 q -0.0103,-0.780314 -0.43925,-1.245402 -0.42375,-0.465087 -1.12655,-0.465087 -0.79582,0 -1.27641,0.449585 -0.47542,0.449585 -0.54777,1.266072 z"
           style="stroke-width:0.26458332"
           id="path1071"
           inkscape:connector-curvature="0" />
        <path
           d="m 162.74359,84.748233 h 1.09037 v 1.312581 h -1.09037 z m 0,-4.159953 h 1.09037 v 1.312581 h -1.09037 z"
           style="stroke-width:0.26458332"
           id="path1073"
           inkscape:connector-curvature="0" />
        <path
           d="m 169.74575,85.182315 h 1.70532 v -5.885946 l -1.85518,0.37207 v -0.950846 l 1.84484,-0.37207 h 1.04387 v 6.836792 h 1.70532 v 0.878499 h -4.44417 z"
           style="fill:#008080"
           id="path1075"
           inkscape:connector-curvature="0" />
        <path
           d="m 176.30865,78.345523 h 4.09794 v 0.878499 h -3.14192 v 1.891357 q 0.22737,-0.07751 0.45475,-0.113688 0.22738,-0.04134 0.45475,-0.04134 1.29191,0 2.04639,0.707967 0.75447,0.707967 0.75447,1.917196 0,1.245402 -0.77514,1.937866 -0.77515,0.687297 -2.18592,0.687297 -0.48575,0 -0.99218,-0.08268 -0.50126,-0.08268 -1.0387,-0.248047 v -1.049031 q 0.46509,0.253214 0.96118,0.377238 0.4961,0.124023 1.04903,0.124023 0.89401,0 1.41594,-0.470255 0.52193,-0.470256 0.52193,-1.276408 0,-0.806152 -0.52193,-1.276408 -0.52193,-0.470255 -1.41594,-0.470255 -0.41858,0 -0.83715,0.09302 -0.41342,0.09302 -0.8475,0.289388 z"
           style="fill:#008080"
           id="path1077"
           inkscape:connector-curvature="0" />
      </g>
      <g
         aria-label="type: Type::INTEGER"
         style="font-style:normal;font-weight:normal;font-size:10.58333302px;line-height:6.61458349px;font-family:sans-serif;letter-spacing:0px;word-spacing:0px;fill:#000000;fill-opacity:1;stroke:none;stroke-width:0.26458332"
         id="text817-5-6">
        <path
           d="m 145.05475,91.141691 v 1.64331 h 1.95854 v 0.738973 h -1.95854 v 3.141927 q 0,0.707967 0.1912,0.909505 0.19637,0.201539 0.79065,0.201539 h 0.97669 v 0.795817 h -0.97669 q -1.10071,0 -1.51929,-0.408244 -0.41858,-0.413412 -0.41858,-1.498617 v -3.141927 h -0.69763 v -0.738973 h 0.69763 v -1.64331 z"
           style="stroke-width:0.26458332"
           id="path1080"
           inkscape:connector-curvature="0" />
        <path
           d="m 150.67198,99.110196 q -0.40308,1.033534 -0.78549,1.348754 -0.3824,0.31523 -1.02319,0.31523 h -0.75964 v -0.79582 h 0.5581 q 0.39274,0 0.60979,-0.186035 0.21704,-0.186035 0.48059,-0.878499 l 0.17053,-0.434082 -2.34094,-5.694743 h 1.00769 l 1.80867,4.526856 1.80868,-4.526856 h 1.00769 z"
           style="stroke-width:0.26458332"
           id="path1082"
           inkscape:connector-curvature="0" />
        <path
           d="m 155.44688,97.704597 v 3.069583 h -0.95602 v -7.989179 h 0.95602 v 0.8785 q 0.29972,-0.516765 0.75447,-0.764812 0.45992,-0.253214 1.09554,-0.253214 1.0542,0 1.71049,0.837158 0.66146,0.837158 0.66146,2.201416 0,1.364258 -0.66146,2.201416 -0.65629,0.837158 -1.71049,0.837158 -0.63562,0 -1.09554,-0.248047 -0.45475,-0.253214 -0.75447,-0.769979 z m 3.23494,-2.020548 q 0,-1.049031 -0.43408,-1.64331 -0.42891,-0.599447 -1.18339,-0.599447 -0.75447,0 -1.18856,0.599447 -0.42891,0.594279 -0.42891,1.64331 0,1.049032 0.42891,1.648478 0.43409,0.594279 1.18856,0.594279 0.75448,0 1.18339,-0.594279 0.43408,-0.599446 0.43408,-1.648478 z"
           style="stroke-width:0.26458332"
           id="path1084"
           inkscape:connector-curvature="0" />
        <path
           d="m 166.19558,95.44117 v 0.465088 h -4.37183 q 0.062,0.981852 0.58911,1.498616 0.53227,0.511597 1.47795,0.511597 0.54777,0 1.05936,-0.134359 0.51677,-0.134359 1.0232,-0.403076 v 0.89917 q -0.5116,0.217041 -1.04903,0.330729 -0.53744,0.113688 -1.09038,0.113688 -1.38492,0 -2.19624,-0.806152 -0.80616,-0.806152 -0.80616,-2.180746 0,-1.421101 0.76481,-2.253092 0.76998,-0.837158 2.07223,-0.837158 1.16789,0 1.84485,0.754476 0.68213,0.749308 0.68213,2.041219 z m -0.95085,-0.279053 q -0.0103,-0.780314 -0.43925,-1.245402 -0.42375,-0.465088 -1.12655,-0.465088 -0.79581,0 -1.2764,0.449585 -0.47543,0.449585 -0.54777,1.266073 z"
           style="stroke-width:0.26458332"
           id="path1086"
           inkscape:connector-curvature="0" />
        <path
           d="m 167.99908,97.26018 h 1.09038 v 1.312582 h -1.09038 z m 0,-4.159952 h 1.09038 v 1.312581 h -1.09038 z"
           style="stroke-width:0.26458332"
           id="path1088"
           inkscape:connector-curvature="0" />
        <path
           d="m 173.65765,90.85747 h 6.52674 v 0.8785 h -2.73885 v 6.836792 H 176.3965 V 91.73597 h -2.73885 z"
           style="fill:#0000ff"
           id="path1090"
           inkscape:connector-curvature="0" />
        <path
           d="m 183.55242,99.110196 q -0.40308,1.033534 -0.78548,1.348754 -0.38241,0.31523 -1.0232,0.31523 h -0.75964 v -0.79582 h 0.55811 q 0.39274,0 0.60978,-0.186035 0.21704,-0.186035 0.48059,-0.878499 l 0.17053,-0.434082 -2.34094,-5.694743 h 1.00769 l 1.80867,4.526856 1.80868,-4.526856 h 1.00769 z"
           style="fill:#0000ff"
           id="path1092"
           inkscape:connector-curvature="0" />
        <path
           d="m 188.32732,97.704597 v 3.069583 h -0.95601 v -7.989179 h 0.95601 v 0.8785 q 0.29972,-0.516765 0.75448,-0.764812 0.45992,-0.253214 1.09554,-0.253214 1.0542,0 1.71049,0.837158 0.66146,0.837158 0.66146,2.201416 0,1.364258 -0.66146,2.201416 -0.65629,0.837158 -1.71049,0.837158 -0.63562,0 -1.09554,-0.248047 -0.45476,-0.253214 -0.75448,-0.769979 z m 3.23495,-2.020548 q 0,-1.049031 -0.43409,-1.64331 -0.42891,-0.599447 -1.18339,-0.599447 -0.75447,0 -1.18855,0.599447 -0.42892,0.594279 -0.42892,1.64331 0,1.049032 0.42892,1.648478 0.43408,0.594279 1.18855,0.594279 0.75448,0 1.18339,-0.594279 0.43409,-0.599446 0.43409,-1.648478 z"
           style="fill:#0000ff"
           id="path1094"
           inkscape:connector-curvature="0" />
        <path
           d="m 199.07602,95.44117 v 0.465088 h -4.37183 q 0.062,0.981852 0.58911,1.498616 0.53227,0.511597 1.47795,0.511597 0.54777,0 1.05936,-0.134359 0.51677,-0.134359 1.0232,-0.403076 v 0.89917 q -0.5116,0.217041 -1.04903,0.330729 -0.53744,0.113688 -1.09038,0.113688 -1.38492,0 -2.19624,-0.806152 -0.80616,-0.806152 -0.80616,-2.180746 0,-1.421101 0.76481,-2.253092 0.76998,-0.837158 2.07223,-0.837158 1.16789,0 1.84485,0.754476 0.68213,0.749308 0.68213,2.041219 z m -0.95085,-0.279053 q -0.0103,-0.780314 -0.43925,-1.245402 -0.42375,-0.465088 -1.12655,-0.465088 -0.79581,0 -1.2764,0.449585 -0.47543,0.449585 -0.54777,1.266073 z"
           style="fill:#0000ff"
           id="path1096"
           inkscape:connector-curvature="0" />
        <path
           d="m 200.87952,97.26018 h 1.09038 v 1.312582 h -1.09038 z m 0,-4.159952 h 1.09038 v 1.312581 h -1.09038 z"
           style="fill:#0000ff"
           id="path1098"
           inkscape:connector-curvature="0" />
        <path
           d="m 204.4452,97.26018 h 1.09037 v 1.312582 h -1.09037 z m 0,-4.159952 h 1.09037 v 1.312581 h -1.09037 z"
           style="fill:#0000ff"
           id="path1100"
           inkscape:connector-curvature="0" />
        <path
           d="m 207.80933,90.85747 h 1.04387 v 7.715292 h -1.04387 z"
           style="fill:#0000ff"
           id="path1102"
           inkscape:connector-curvature="0" />
        <path
           d="m 210.93059,90.85747 h 1.4056 l 3.42098,6.454387 V 90.85747 h 1.01285 v 7.715292 h -1.40559 l -3.42098,-6.454387 v 6.454387 h -1.01286 z"
           style="fill:#0000ff"
           id="path1104"
           inkscape:connector-curvature="0" />
        <path
           d="m 217.77772,90.85747 h 6.52673 v 0.8785 h -2.73885 v 6.836792 h -1.04903 V 91.73597 h -2.73885 z"
           style="fill:#0000ff"
           id="path1106"
           inkscape:connector-curvature="0" />
        <path
           d="m 225.31214,90.85747 h 4.87826 v 0.8785 h -3.83439 v 2.284098 h 3.67419 v 0.878499 h -3.67419 v 2.795695 h 3.9274 v 0.8785 h -4.97127 z"
           style="fill:#0000ff"
           id="path1108"
           inkscape:connector-curvature="0" />
        <path
           d="m 237.25973,97.472054 v -2.072225 h -1.70532 V 94.542 h 2.73885 v 3.312459 q -0.60462,0.428915 -1.33325,0.651123 -0.72864,0.217041 -1.55546,0.217041 -1.80868,0 -2.83187,-1.054199 -1.01803,-1.059367 -1.01803,-2.945557 0,-1.891357 1.01803,-2.945556 1.02319,-1.059367 2.83187,-1.059367 0.75447,0 1.43143,0.186035 0.68213,0.186035 1.25574,0.54777 v 1.111044 q -0.57878,-0.490926 -1.2299,-0.738973 -0.65112,-0.248047 -1.36942,-0.248047 -1.41594,0 -2.12907,0.790649 -0.70797,0.79065 -0.70797,2.356445 0,1.560629 0.70797,2.351278 0.71313,0.790649 2.12907,0.790649 0.55293,0 0.98702,-0.09302 0.43408,-0.09819 0.78031,-0.299723 z"
           style="fill:#0000ff"
           id="path1110"
           inkscape:connector-curvature="0" />
        <path
           d="m 240.20012,90.85747 h 4.87825 v 0.8785 h -3.83439 v 2.284098 h 3.6742 v 0.878499 h -3.6742 v 2.795695 h 3.92741 v 0.8785 h -4.97127 z"
           style="fill:#0000ff"
           id="path1112"
           inkscape:connector-curvature="0" />
        <path
           d="m 250.54575,94.955411 q 0.33589,0.113689 0.65112,0.485759 0.32039,0.37207 0.64079,1.023193 l 1.05936,2.108399 h -1.12138 l -0.98702,-1.979208 q -0.3824,-0.775146 -0.74414,-1.028361 -0.35656,-0.253214 -0.97668,-0.253214 h -1.13688 v 3.260783 h -1.04387 V 90.85747 h 2.35645 q 1.32292,0 1.97404,0.552938 0.65112,0.552938 0.65112,1.669149 0,0.728638 -0.34106,1.209228 -0.3359,0.480591 -0.98185,0.666626 z m -2.61483,-3.240112 v 2.738851 h 1.31258 q 0.75448,0 1.13688,-0.346232 0.38757,-0.3514 0.38757,-1.028361 0,-0.676961 -0.38757,-1.018026 -0.3824,-0.346232 -1.13688,-0.346232 z"
           style="fill:#0000ff"
           id="path1114"
           inkscape:connector-curvature="0" />
      </g>
      <g
         aria-label="value: &quot;10&quot;"
         style="font-style:normal;font-weight:normal;font-size:10.58333302px;line-height:6.61458349px;font-family:sans-serif;letter-spacing:0px;word-spacing:0px;fill:#000000;fill-opacity:1;stroke:none;stroke-width:0.26458332"
         id="text817-5-3">
        <path
           d="m 143.4011,107.53453 h 1.00769 l 1.80868,4.85758 1.80867,-4.85758 h 1.00769 l -2.17041,5.78776 h -1.29191 z"
           style="stroke-width:0.26458332"
           id="path1117"
           inkscape:connector-curvature="0" />
        <path
           d="m 152.97675,110.41291 q -1.15239,0 -1.59681,0.26355 -0.44441,0.26355 -0.44441,0.89917 0,0.50642 0.33073,0.80615 0.33589,0.29455 0.9095,0.29455 0.79065,0 1.26607,-0.5581 0.48059,-0.56328 0.48059,-1.49345 v -0.21187 z m 1.89652,-0.39275 v 3.30213 h -0.95085 v -0.8785 q -0.32556,0.5271 -0.81132,0.78031 -0.48575,0.24805 -1.18855,0.24805 -0.88884,0 -1.41594,-0.49609 -0.52193,-0.50126 -0.52193,-1.33842 0,-0.97669 0.65112,-1.47278 0.65629,-0.4961 1.95337,-0.4961 h 1.33325 v -0.093 q 0,-0.65629 -0.43408,-1.01286 -0.42891,-0.36174 -1.20923,-0.36174 -0.49609,0 -0.96635,0.11886 -0.47025,0.11886 -0.90433,0.35657 v -0.8785 q 0.52193,-0.20154 1.01285,-0.29973 0.49093,-0.10335 0.95602,-0.10335 1.25574,0 1.87585,0.65112 0.62012,0.65113 0.62012,1.97404 z"
           style="stroke-width:0.26458332"
           id="path1119"
           inkscape:connector-curvature="0" />
        <path
           d="m 156.83181,105.28144 h 0.95084 v 8.04085 h -0.95084 z"
           style="stroke-width:0.26458332"
           id="path1121"
           inkscape:connector-curvature="0" />
        <path
           d="m 159.67401,111.03819 v -3.50366 h 0.95085 v 3.46749 q 0,0.82165 0.32039,1.23506 0.3204,0.40825 0.96118,0.40825 0.76998,0 1.2144,-0.49093 0.44958,-0.49092 0.44958,-1.33842 v -3.28145 h 0.95085 v 5.78776 h -0.95085 v -0.88884 q -0.34623,0.5271 -0.80615,0.78549 -0.45475,0.25321 -1.05937,0.25321 -0.99735,0 -1.51411,-0.62012 -0.51677,-0.62011 -0.51677,-1.81384 z m 2.39262,-3.64319 z"
           style="stroke-width:0.26458332"
           id="path1123"
           inkscape:connector-curvature="0" />
        <path
           d="m 171.4304,110.1907 v 0.46508 h -4.37183 q 0.062,0.98186 0.58911,1.49862 0.53227,0.5116 1.47795,0.5116 0.54777,0 1.05937,-0.13436 0.51676,-0.13436 1.02319,-0.40308 v 0.89917 q -0.5116,0.21704 -1.04903,0.33073 -0.53744,0.11369 -1.09037,0.11369 -1.38493,0 -2.19625,-0.80615 -0.80616,-0.80615 -0.80616,-2.18075 0,-1.4211 0.76482,-2.25309 0.76997,-0.83716 2.07222,-0.83716 1.16789,0 1.84485,0.75448 0.68213,0.74931 0.68213,2.04122 z m -0.95085,-0.27906 q -0.0103,-0.78031 -0.43925,-1.2454 -0.42374,-0.46509 -1.12654,-0.46509 -0.79582,0 -1.27641,0.44959 -0.47543,0.44958 -0.54777,1.26607 z"
           style="stroke-width:0.26458332"
           id="path1125"
           inkscape:connector-curvature="0" />
        <path
           d="m 173.23391,112.00971 h 1.09037 v 1.31258 h -1.09037 z m 0,-4.15996 h 1.09037 v 1.31259 h -1.09037 z"
           style="stroke-width:0.26458332"
           id="path1127"
           inkscape:connector-curvature="0" />
        <path
           d="m 180.82001,105.607 v 2.86804 h -0.8785 V 105.607 Z m 1.95337,0 v 2.86804 h -0.8785 V 105.607 Z"
           style="stroke-width:0.26458332"
           id="path1129"
           inkscape:connector-curvature="0" />
        <path
           d="m 185.10398,112.44379 h 1.70532 v -5.88595 l -1.85518,0.37207 v -0.95084 l 1.84485,-0.37207 h 1.04386 v 6.83679 h 1.70533 v 0.8785 h -4.44418 z"
           style="fill:#800000;stroke-width:0.26458332"
           id="path1131"
           inkscape:connector-curvature="0" />
        <path
           d="m 193.88898,106.29429 q -0.80616,0 -1.2144,0.79582 -0.40308,0.79065 -0.40308,2.38228 0,1.58647 0.40308,2.38229 0.40824,0.79065 1.2144,0.79065 0.81132,0 1.21439,-0.79065 0.40825,-0.79582 0.40825,-2.38229 0,-1.59163 -0.40825,-2.38228 -0.40307,-0.79582 -1.21439,-0.79582 z m 0,-0.82682 q 1.29708,0 1.9792,1.02836 0.6873,1.0232 0.6873,2.97656 0,1.94821 -0.6873,2.97657 -0.68212,1.02319 -1.9792,1.02319 -1.29708,0 -1.98438,-1.02319 -0.68213,-1.02836 -0.68213,-2.97657 0,-1.95336 0.68213,-2.97656 0.6873,-1.02836 1.98438,-1.02836 z"
           style="fill:#800000;stroke-width:0.26458332"
           id="path1133"
           inkscape:connector-curvature="0" />
        <path
           d="m 199.1548,105.607 v 2.86804 h -0.8785 V 105.607 Z m 1.95337,0 v 2.86804 h -0.8785 V 105.607 Z"
           style="stroke-width:0.26458332"
           id="path1135"
           inkscape:connector-curvature="0" />
      </g>
      <path
         style="fill:none;fill-opacity:1;fill-rule:evenodd;stroke:#000000;stroke-width:0.5;stroke-miterlimit:4;stroke-dasharray:none;stroke-opacity:1"
         d="M 140.04297,74.349205 H 256.585 V 117.13386 H 140.04297 Z"
         id="rect908"
         inkscape:connector-curvature="0" />
      <path
         inkscape:connector-curvature="0"
         id="path941"
         d="m 39.823159,96.013314 v 9.888976 H 140.3165"
         style="fill:none;stroke:#000000;stroke-width:0.26458332px;stroke-linecap:butt;stroke-linejoin:miter;stroke-opacity:1" />
      <path
         inkscape:connector-curvature="0"
         id="path945"
         d="M -21.648831,79.175334 V 64.208241 H 100.76061"
         style="fill:none;stroke:#000000;stroke-width:0.26458332px;stroke-linecap:butt;stroke-linejoin:miter;stroke-opacity:1" />
    </g>
  </g>
</svg>
