<?xml version="1.0" encoding="UTF-8" standalone="no"?><svg xmlns="http://www.w3.org/2000/svg" xmlns:xlink="http://www.w3.org/1999/xlink" contentScriptType="application/ecmascript" contentStyleType="text/css" height="331px" preserveAspectRatio="none" style="width:565px;height:331px;background:#FFFFFF;" version="1.1" viewBox="0 0 565 331" width="565px" zoomAndPan="magnify"><defs><filter height="300%" id="fnrajrqsefwmb" width="300%" x="-1" y="-1"><feGaussianBlur result="blurOut" stdDeviation="2.0"/><feColorMatrix in="blurOut" result="blurOut2" type="matrix" values="0 0 0 0 0 0 0 0 0 0 0 0 0 0 0 0 0 0 .4 0"/><feOffset dx="4.0" dy="4.0" in="blurOut2" result="blurOut3"/><feBlend in="SourceGraphic" in2="blurOut3" mode="normal"/></filter></defs><g><ellipse cx="386.125" cy="20" fill="#000000" filter="url(#fnrajrqsefwmb)" rx="10" ry="10" style="stroke:none;stroke-width:1.0;"/><rect fill="#FEFECE" filter="url(#fnrajrqsefwmb)" height="33.9688" rx="12.5" ry="12.5" style="stroke:#A80036;stroke-width:1.5;" width="130" x="321.125" y="50"/><text fill="#000000" font-family="sans-serif" font-size="12" lengthAdjust="spacing" textLength="110" x="331.125" y="71.1387">calculate available</text><polygon fill="#FEFECE" filter="url(#fnrajrqsefwmb)" points="345.625,103.9688,426.625,103.9688,438.625,115.9688,426.625,127.9688,345.625,127.9688,333.625,115.9688,345.625,103.9688" style="stroke:#A80036;stroke-width:1.5;"/><text fill="#000000" font-family="sans-serif" font-size="11" lengthAdjust="spacing" textLength="51" x="349.625" y="119.7769">available</text><text fill="#000000" font-family="monospace" font-size="11" lengthAdjust="spacing" textLength="7" x="404.625" y="119.7769">&gt;</text><text fill="#000000" font-family="sans-serif" font-size="11" lengthAdjust="spacing" textLength="7" x="415.625" y="119.7769">0</text><text fill="#000000" font-family="sans-serif" font-size="11" lengthAdjust="spacing" textLength="23" x="310.625" y="113.3745">true</text><text fill="#000000" font-family="sans-serif" font-size="11" lengthAdjust="spacing" textLength="27" x="438.625" y="113.3745">false</text><polygon fill="#FEFECE" filter="url(#fnrajrqsefwmb)" points="174.75,137.9688,303.75,137.9688,315.75,149.9688,303.75,161.9688,174.75,161.9688,162.75,149.9688,174.75,137.9688" style="stroke:#A80036;stroke-width:1.5;"/><text fill="#000000" font-family="sans-serif" font-size="11" lengthAdjust="spacing" textLength="48" x="178.75" y="153.7769">required</text><text fill="#000000" font-family="monospace" font-size="11" lengthAdjust="spacing" textLength="14" x="230.75" y="153.7769">&lt;=</text><text fill="#000000" font-family="sans-serif" font-size="11" lengthAdjust="spacing" textLength="51" x="248.75" y="153.7769">available</text><text fill="#000000" font-family="sans-serif" font-size="11" lengthAdjust="spacing" textLength="20" x="142.75" y="147.3745">yes</text><text fill="#000000" font-family="sans-serif" font-size="11" lengthAdjust="spacing" textLength="14" x="315.75" y="147.3745">no</text><rect fill="#FEFECE" filter="url(#fnrajrqsefwmb)" height="33.9688" rx="12.5" ry="12.5" style="stroke:#A80036;stroke-width:1.5;" width="218" x="11" y="171.9688"/><text fill="#000000" font-family="sans-serif" font-size="12" lengthAdjust="spacing" textLength="198" x="21" y="193.1074">process required amount of data</text><rect fill="#FEFECE" filter="url(#fnrajrqsefwmb)" height="33.9688" rx="12.5" ry="12.5" style="stroke:#A80036;stroke-width:1.5;" width="113" x="63.5" y="240.9375"/><text fill="#000000" font-family="sans-serif" font-size="12" lengthAdjust="spacing" textLength="93" x="73.5" y="262.0762">return required</text><ellipse cx="120" cy="304.9063" fill="#FFFFFF" filter="url(#fnrajrqsefwmb)" rx="10" ry="10" style="stroke:#000000;stroke-width:1.5;"/><line style="stroke:#000000;stroke-width:2.5;" x1="113.8128" x2="126.1872" y1="298.7191" y2="311.0934"/><line style="stroke:#000000;stroke-width:2.5;" x1="126.1872" x2="113.8128" y1="298.7191" y2="311.0934"/><rect fill="#FEFECE" filter="url(#fnrajrqsefwmb)" height="33.9688" rx="12.5" ry="12.5" style="stroke:#A80036;stroke-width:1.5;" width="219" x="249" y="171.9688"/><text fill="#000000" font-family="sans-serif" font-size="12" lengthAdjust="spacing" textLength="199" x="259" y="193.1074">process available amount of data</text><rect fill="#FEFECE" filter="url(#fnrajrqsefwmb)" height="33.9688" rx="12.5" ry="12.5" style="stroke:#A80036;stroke-width:1.5;" width="114" x="301.5" y="240.9375"/><text fill="#000000" font-family="sans-serif" font-size="12" lengthAdjust="spacing" textLength="94" x="311.5" y="262.0762">return available</text><ellipse cx="358.5" cy="304.9063" fill="#FFFFFF" filter="url(#fnrajrqsefwmb)" rx="10" ry="10" style="stroke:#000000;stroke-width:1.5;"/><line style="stroke:#000000;stroke-width:2.5;" x1="352.3128" x2="364.6872" y1="298.7191" y2="311.0934"/><line style="stroke:#000000;stroke-width:2.5;" x1="364.6872" x2="352.3128" y1="298.7191" y2="311.0934"/><rect fill="#FEFECE" filter="url(#fnrajrqsefwmb)" height="33.9688" rx="12.5" ry="12.5" style="stroke:#A80036;stroke-width:1.5;" width="70" x="478" y="137.9688"/><text fill="#000000" font-family="sans-serif" font-size="12" lengthAdjust="spacing" textLength="50" x="488" y="159.1074">return 0</text><ellipse cx="513" cy="216.9375" fill="#FFFFFF" filter="url(#fnrajrqsefwmb)" rx="10" ry="10" style="stroke:#000000;stroke-width:1.5;"/><line style="stroke:#000000;stroke-width:2.5;" x1="506.8128" x2="519.1872" y1="210.7503" y2="223.1247"/><line style="stroke:#000000;stroke-width:2.5;" x1="519.1872" x2="506.8128" y1="210.7503" y2="223.1247"/><line style="stroke:#A80036;stroke-width:1.5;" x1="386.125" x2="386.125" y1="30" y2="50"/><polygon fill="#A80036" points="382.125,40,386.125,50,390.125,40,386.125,44" style="stroke:#A80036;stroke-width:1.0;"/><line style="stroke:#A80036;stroke-width:1.5;" x1="120" x2="120" y1="205.9375" y2="240.9375"/><polygon fill="#A80036" points="116,230.9375,120,240.9375,124,230.9375,120,234.9375" style="stroke:#A80036;stroke-width:1.0;"/><line style="stroke:#A80036;stroke-width:1.5;" x1="120" x2="120" y1="274.9063" y2="294.9063"/><polygon fill="#A80036" points="116,284.9063,120,294.9063,124,284.9063,120,288.9063" style="stroke:#A80036;stroke-width:1.0;"/><line style="stroke:#A80036;stroke-width:1.5;" x1="358.5" x2="358.5" y1="205.9375" y2="240.9375"/><polygon fill="#A80036" points="354.5,230.9375,358.5,240.9375,362.5,230.9375,358.5,234.9375" style="stroke:#A80036;stroke-width:1.0;"/><line style="stroke:#A80036;stroke-width:1.5;" x1="358.5" x2="358.5" y1="274.9063" y2="294.9063"/><polygon fill="#A80036" points="354.5,284.9063,358.5,294.9063,362.5,284.9063,358.5,288.9063" style="stroke:#A80036;stroke-width:1.0;"/><line style="stroke:#A80036;stroke-width:1.5;" x1="162.75" x2="120" y1="149.9688" y2="149.9688"/><line style="stroke:#A80036;stroke-width:1.5;" x1="120" x2="120" y1="149.9688" y2="171.9688"/><polygon fill="#A80036" points="116,161.9688,120,171.9688,124,161.9688,120,165.9688" style="stroke:#A80036;stroke-width:1.0;"/><line style="stroke:#A80036;stroke-width:1.5;" x1="315.75" x2="358.5" y1="149.9688" y2="149.9688"/><line style="stroke:#A80036;stroke-width:1.5;" x1="358.5" x2="358.5" y1="149.9688" y2="171.9688"/><polygon fill="#A80036" points="354.5,161.9688,358.5,171.9688,362.5,161.9688,358.5,165.9688" style="stroke:#A80036;stroke-width:1.0;"/><line style="stroke:#A80036;stroke-width:1.5;" x1="513" x2="513" y1="171.9375" y2="206.9375"/><polygon fill="#A80036" points="509,196.9375,513,206.9375,517,196.9375,513,200.9375" style="stroke:#A80036;stroke-width:1.0;"/><line style="stroke:#A80036;stroke-width:1.5;" x1="333.625" x2="239.25" y1="115.9688" y2="115.9688"/><line style="stroke:#A80036;stroke-width:1.5;" x1="239.25" x2="239.25" y1="115.9688" y2="137.9688"/><polygon fill="#A80036" points="235.25,127.9688,239.25,137.9688,243.25,127.9688,239.25,131.9688" style="stroke:#A80036;stroke-width:1.0;"/><line style="stroke:#A80036;stroke-width:1.5;" x1="438.625" x2="513" y1="115.9688" y2="115.9688"/><line style="stroke:#A80036;stroke-width:1.5;" x1="513" x2="513" y1="115.9688" y2="137.9688"/><polygon fill="#A80036" points="509,127.9688,513,137.9688,517,127.9688,513,131.9688" style="stroke:#A80036;stroke-width:1.0;"/><line style="stroke:#A80036;stroke-width:1.5;" x1="386.125" x2="386.125" y1="83.9688" y2="103.9688"/><polygon fill="#A80036" points="382.125,93.9688,386.125,103.9688,390.125,93.9688,386.125,97.9688" style="stroke:#A80036;stroke-width:1.0;"/><!--MD5=[80100e4a4482dbacd436f544b0a76992]
@startuml
'https://plantuml.com/activity-diagram-beta

start
:calculate available;
if( available "">"" 0 ) then (true)
    if( required ""<="" available ) then (yes)
        :process required amount of data;
        :return required;
        end
    else (no)
        :process available amount of data;
        :return available;
        end
endif
else (false)
    :return 0;
    end
endif

@enduml

@startuml

start
:calculate available;
if( available "">"" 0 ) then (true)
    if( required ""<="" available ) then (yes)
        :process required amount of data;
        :return required;
        end
    else (no)
        :process available amount of data;
        :return available;
        end
endif
else (false)
    :return 0;
    end
endif

@enduml

PlantUML version 1.2021.7(Sun May 23 14:40:07 CEST 2021)
(GPL source distribution)
Java Runtime: OpenJDK Runtime Environment
JVM: OpenJDK 64-Bit Server VM
Default Encoding: UTF-8
Language: en
Country: GB
--></g></svg>