<?xml version="1.0" encoding="UTF-8" standalone="no"?><svg xmlns="http://www.w3.org/2000/svg" xmlns:xlink="http://www.w3.org/1999/xlink" contentScriptType="application/ecmascript" contentStyleType="text/css" height="491px" preserveAspectRatio="none" style="width:513px;height:491px;background:#FFFFFF;" version="1.1" viewBox="0 0 513 491" width="513px" zoomAndPan="magnify"><defs><filter height="300%" id="fxik8uivsbij2" width="300%" x="-1" y="-1"><feGaussianBlur result="blurOut" stdDeviation="2.0"/><feColorMatrix in="blurOut" result="blurOut2" type="matrix" values="0 0 0 0 0 0 0 0 0 0 0 0 0 0 0 0 0 0 .4 0"/><feOffset dx="4.0" dy="4.0" in="blurOut2" result="blurOut3"/><feBlend in="SourceGraphic" in2="blurOut3" mode="normal"/></filter></defs><g><!--MD5=[d64883541e3d62e3241c4d12decf100d]
cluster Application--><polygon fill="#D3D3D3" filter="url(#fxik8uivsbij2)" points="21,6,117,6,124,28.2969,417,28.2969,417,327,21,327,21,6" style="stroke:#000000;stroke-width:1.5;"/><line style="stroke:#000000;stroke-width:1.5;" x1="21" x2="124" y1="28.2969" y2="28.2969"/><text fill="#000000" font-family="sans-serif" font-size="14" font-weight="bold" lengthAdjust="spacing" textLength="90" x="25" y="20.9951">Application</text><!--MD5=[3f1bc44109a0c26cf0d74039f977b966]
cluster Plugins--><polygon fill="#D3D3D3" filter="url(#fxik8uivsbij2)" points="16,397,80,397,87,419.2969,441,419.2969,441,484,16,484,16,397" style="stroke:#000000;stroke-width:1.5;"/><line style="stroke:#000000;stroke-width:1.5;" x1="16" x2="87" y1="419.2969" y2="419.2969"/><text fill="#000000" font-family="sans-serif" font-size="14" font-weight="bold" lengthAdjust="spacing" textLength="58" x="20" y="411.9951">Plugins</text><!--MD5=[770389ab9df153645bc6ef28055eb2b5]
entity A--><rect fill="#FEFECE" filter="url(#fxik8uivsbij2)" height="46.2969" style="stroke:#A80036;stroke-width:1.5;" width="123" x="181.5" y="41"/><rect fill="#FEFECE" height="10" style="stroke:#A80036;stroke-width:1.5;" width="15" x="284.5" y="46"/><rect fill="#FEFECE" height="2" style="stroke:#A80036;stroke-width:1.5;" width="4" x="282.5" y="48"/><rect fill="#FEFECE" height="2" style="stroke:#A80036;stroke-width:1.5;" width="4" x="282.5" y="52"/><text fill="#000000" font-family="sans-serif" font-size="14" lengthAdjust="spacing" textLength="83" x="196.5" y="73.9951">Component</text><!--MD5=[a88daa769981030d98eed5c15618f282]
entity In--><ellipse cx="362" cy="176" fill="#FEFECE" filter="url(#fxik8uivsbij2)" rx="8" ry="8" style="stroke:#A80036;stroke-width:1.5;"/><text fill="#000000" font-family="sans-serif" font-size="14" lengthAdjust="spacing" textLength="62" x="331" y="205.9951">Input API</text><!--MD5=[7b05989e369ae1af2c6a9837cb382bd0]
entity Out--><ellipse cx="243" cy="176" fill="#FEFECE" filter="url(#fxik8uivsbij2)" rx="8" ry="8" style="stroke:#A80036;stroke-width:1.5;"/><text fill="#000000" font-family="sans-serif" font-size="14" lengthAdjust="spacing" textLength="74" x="206" y="205.9951">Output API</text><!--MD5=[e9afd8dee7f22e3497c63b001e7f1ac7]
entity Loader--><rect fill="#FEFECE" filter="url(#fxik8uivsbij2)" height="46.2969" style="stroke:#A80036;stroke-width:1.5;" width="133" x="37.5" y="265"/><rect fill="#FEFECE" height="10" style="stroke:#A80036;stroke-width:1.5;" width="15" x="150.5" y="270"/><rect fill="#FEFECE" height="2" style="stroke:#A80036;stroke-width:1.5;" width="4" x="148.5" y="272"/><rect fill="#FEFECE" height="2" style="stroke:#A80036;stroke-width:1.5;" width="4" x="148.5" y="276"/><text fill="#000000" font-family="sans-serif" font-size="14" lengthAdjust="spacing" textLength="93" x="52.5" y="297.9951">Plugin loader</text><!--MD5=[fdaeea6e9340559e202c2e68335ed8d6]
entity iLoader--><ellipse cx="100" cy="176" fill="#FEFECE" filter="url(#fxik8uivsbij2)" rx="8" ry="8" style="stroke:#A80036;stroke-width:1.5;"/><text fill="#000000" font-family="sans-serif" font-size="14" lengthAdjust="spacing" textLength="111" x="44.5" y="205.9951">Plugin interface</text><!--MD5=[9d7f323edd396efc54c1947afbeb972d]
entity InputA--><polygon fill="#FEFECE" filter="url(#fxik8uivsbij2)" points="258,432,258,468.2969,324,468.2969,324,442,314,432,258,432" style="stroke:#000000;stroke-width:1.5;"/><path d="M314,432 L314,442 L324,442 " fill="#FEFECE" style="stroke:#000000;stroke-width:1.5;"/><text fill="#000000" font-family="sans-serif" font-size="14" lengthAdjust="spacing" textLength="46" x="268" y="454.9951">InputA</text><!--MD5=[8dfcb4fc48c5ca2116a6953f63469004]
entity InputB--><polygon fill="#FEFECE" filter="url(#fxik8uivsbij2)" points="359,432,359,468.2969,425,468.2969,425,442,415,432,359,432" style="stroke:#000000;stroke-width:1.5;"/><path d="M415,432 L415,442 L425,442 " fill="#FEFECE" style="stroke:#000000;stroke-width:1.5;"/><text fill="#000000" font-family="sans-serif" font-size="14" lengthAdjust="spacing" textLength="46" x="369" y="454.9951">InputB</text><!--MD5=[a0cb8f6ca8b289363c1a8f0d94921ce1]
entity OutputA--><polygon fill="#FEFECE" filter="url(#fxik8uivsbij2)" points="32,432,32,468.2969,110,468.2969,110,442,100,432,32,432" style="stroke:#000000;stroke-width:1.5;"/><path d="M100,432 L100,442 L110,442 " fill="#FEFECE" style="stroke:#000000;stroke-width:1.5;"/><text fill="#000000" font-family="sans-serif" font-size="14" lengthAdjust="spacing" textLength="58" x="42" y="454.9951">OutputA</text><!--MD5=[67adcfdc0e1c0da5e39fdb0f75f58235]
entity OutputB--><polygon fill="#FEFECE" filter="url(#fxik8uivsbij2)" points="145,432,145,468.2969,223,468.2969,223,442,213,432,145,432" style="stroke:#000000;stroke-width:1.5;"/><path d="M213,432 L213,442 L223,442 " fill="#FEFECE" style="stroke:#000000;stroke-width:1.5;"/><text fill="#000000" font-family="sans-serif" font-size="14" lengthAdjust="spacing" textLength="58" x="155" y="454.9951">OutputB</text><!--MD5=[049ec72fee227093dcf52fe89748957a]
link iLoader to Loader--><path d="M100.3,185.27 C100.91,201.96 102.3,240.16 103.19,264.71 " fill="none" id="iLoader-Loader" style="stroke:#A80036;stroke-width:1.0;"/><!--MD5=[d6410e000921d0c627ec2e4fbed12e58]
link A to In--><path d="M267.08,87.26 C290.48,108.89 325.37,141.14 345.69,159.92 " fill="none" id="A-to-In" style="stroke:#A80036;stroke-width:1.0;"/><path d="M356.6692,158.5597 A9,9 0 0 0 345.1894 170.982" style="stroke:#A80036;stroke-width:1.5;fill:none;"/><!--MD5=[aa34f902fdfd08ab163e93f91c969f3a]
link A to Out--><path d="M243,87.26 C243,107.74 243,137.73 243,156.81 " fill="none" id="A-to-Out" style="stroke:#A80036;stroke-width:1.0;"/><path d="M251.4572,163.7818 A9,9 0 0 0 234.5428 163.7818" style="stroke:#A80036;stroke-width:1.5;fill:none;"/><!--MD5=[a5fdb7d18d7d9f6c725e920b995a6f04]
link A to iLoader--><path d="M214.06,87.26 C185.12,109.53 141.54,143.05 117.49,161.55 " fill="none" id="A-to-iLoader" style="stroke:#A80036;stroke-width:1.0;"/><path d="M116.8967,172.6759 A9,9 0 0 0 106.5826 159.27" style="stroke:#A80036;stroke-width:1.5;fill:none;"/><!--MD5=[5de76839c9bc20fa8e27f2c294b13442]
link In to InputA--><path d="M359.88,185.14 C350.36,221.61 311.46,370.62 296.71,427.13 " fill="none" id="In-to-InputA" style="stroke:#A80036;stroke-width:1.0;"/><polygon fill="#A80036" points="295.44,431.99,301.573,424.2838,296.6963,427.1504,293.8297,422.2737,295.44,431.99" style="stroke:#A80036;stroke-width:1.0;"/><!--MD5=[7c827d67101b446e65157151cea83778]
link In to InputB--><path d="M371.06,180.13 C395.07,188.96 460.15,216.66 485,265 C506.74,307.29 505.24,328.97 485,372 C473.42,396.62 449.69,416.06 429.09,429.25 " fill="none" id="In-to-InputB" style="stroke:#A80036;stroke-width:1.0;"/><polygon fill="#A80036" points="424.75,431.97,434.4986,430.5684,428.9836,429.3097,430.2422,423.7947,424.75,431.97" style="stroke:#A80036;stroke-width:1.0;"/><!--MD5=[6cc1779a17eda7119e4bf8e670e1ceac]
link Out to OutputA--><path d="M241.66,185.21 C237.36,209.77 222.13,284.1 188,335 C167.84,365.07 152.94,363.74 127,389 C114.16,401.51 100.42,416.21 89.76,427.93 " fill="none" id="Out-to-OutputA" style="stroke:#A80036;stroke-width:1.0;"/><polygon fill="#A80036" points="86.27,431.78,95.2724,427.7853,89.6227,428.0706,89.3374,422.421,86.27,431.78" style="stroke:#A80036;stroke-width:1.0;"/><!--MD5=[a4faa5d670158bc0f25093b63798a821]
link Out to OutputB--><path d="M245.05,185.08 C250.66,208.67 264.96,279.31 250,335 C240.55,370.2 217.28,405.76 201.07,427.58 " fill="none" id="Out-to-OutputB" style="stroke:#A80036;stroke-width:1.0;"/><polygon fill="#A80036" points="197.93,431.76,206.5409,426.9796,200.9391,427.7669,200.1519,422.165,197.93,431.76" style="stroke:#A80036;stroke-width:1.0;"/><!--MD5=[3ee5019c2f4440cbe6dbf57bc924903a]
link Loader to InputA--><path d="M139.02,311.08 C167.84,330.03 209,358.99 241,389 C253.51,400.73 265.86,415.51 275.16,427.47 " fill="none" id="Loader-to-InputA" style="stroke:#4169E1;stroke-width:1.0;stroke-dasharray:7.0,7.0;"/><polygon fill="#4169E1" points="278.44,431.74,276.1248,422.1671,275.3921,427.7763,269.7829,427.0437,278.44,431.74" style="stroke:#4169E1;stroke-width:1.0;"/><!--MD5=[cd98f35f63d737c305d096f437bbea44]
link Loader to InputB--><path d="M170.75,307.55 C221.06,323.68 290.02,350.55 342,389 C356.3,399.58 369.07,415.07 378.13,427.66 " fill="none" id="Loader-to-InputB" style="stroke:#4169E1;stroke-width:1.0;stroke-dasharray:7.0,7.0;"/><polygon fill="#4169E1" points="381.05,431.81,379.1251,422.1511,378.1655,427.726,372.5906,426.7663,381.05,431.81" style="stroke:#4169E1;stroke-width:1.0;"/><!--MD5=[55e7b9f07810bc76c05ad86596faf8e3]
link Loader to OutputA--><path d="M95.48,311.28 C89.61,327.58 82.15,350.35 78,371 C74.27,389.56 72.53,411.01 71.71,426.71 " fill="none" id="Loader-to-OutputA" style="stroke:#4169E1;stroke-width:1.0;stroke-dasharray:7.0,7.0;"/><polygon fill="#4169E1" points="71.47,431.8,75.8768,422.9921,71.6983,426.8052,67.8852,422.6267,71.47,431.8" style="stroke:#4169E1;stroke-width:1.0;"/><!--MD5=[316da18925af04260259dc90b87822ac]
link Loader to OutputB--><path d="M115.12,311.25 C130.45,341.89 157.88,396.75 173.09,427.17 " fill="none" id="Loader-to-OutputB" style="stroke:#4169E1;stroke-width:1.0;stroke-dasharray:7.0,7.0;"/><polygon fill="#4169E1" points="175.42,431.84,174.9602,422.0019,173.1782,427.3707,167.8094,425.5887,175.42,431.84" style="stroke:#4169E1;stroke-width:1.0;"/><!--MD5=[ffa26810f01c1728c961ae05a6b6cc61]
@startuml
'https://plantuml.com/component-diagram

package Application #lightgrey {
    component "Component" as A
    interface "Input API" as In
    interface "Output API" as Out
    component "Plugin loader" as Loader
    interface "Plugin interface" as iLoader

    iLoader - - Loader
    A - -( In
    A - -( Out
    A - -( iLoader
}

package Plugins #lightgrey {
    File InputA
    File InputB
    File OutputA
    File OutputB
}

InputA  <- -up- - In
InputB  <- -up- - In
OutputA <- -up- - Out
OutputB <- -up- - Out

Loader .[#RoyalBlue].> InputA
Loader .[#RoyalBlue].> InputB
Loader .[#RoyalBlue].> OutputA
Loader .[#RoyalBlue].> OutputB

@enduml

@startuml

package Application #lightgrey {
    component "Component" as A
    interface "Input API" as In
    interface "Output API" as Out
    component "Plugin loader" as Loader
    interface "Plugin interface" as iLoader

    iLoader - - Loader
    A - -( In
    A - -( Out
    A - -( iLoader
}

package Plugins #lightgrey {
    File InputA
    File InputB
    File OutputA
    File OutputB
}

InputA  <- -up- - In
InputB  <- -up- - In
OutputA <- -up- - Out
OutputB <- -up- - Out

Loader .[#RoyalBlue].> InputA
Loader .[#RoyalBlue].> InputB
Loader .[#RoyalBlue].> OutputA
Loader .[#RoyalBlue].> OutputB

@enduml

PlantUML version 1.2021.7(Sun May 23 14:40:07 CEST 2021)
(GPL source distribution)
Java Runtime: OpenJDK Runtime Environment
JVM: Dynamic Code Evolution 64-Bit Server VM
Default Encoding: UTF-8
Language: en
Country: GB
--></g></svg>