<?xml version="1.0" encoding="UTF-8" standalone="no"?>
<svg
   xmlns:dc="http://purl.org/dc/elements/1.1/"
   xmlns:cc="http://creativecommons.org/ns#"
   xmlns:rdf="http://www.w3.org/1999/02/22-rdf-syntax-ns#"
   xmlns:svg="http://www.w3.org/2000/svg"
   xmlns="http://www.w3.org/2000/svg"
   xmlns:sodipodi="http://sodipodi.sourceforge.net/DTD/sodipodi-0.dtd"
   xmlns:inkscape="http://www.inkscape.org/namespaces/inkscape"
   inkscape:version="1.0 (4035a4fb49, 2020-05-01)"
   sodipodi:docname="ASCII.svg"
   id="svg8"
   version="1.1"
   viewBox="0 0 94.347168 134.80039"
   height="134.80038mm"
   width="94.347168mm">
  <defs
     id="defs2" />
  <sodipodi:namedview
     inkscape:window-maximized="1"
     inkscape:window-y="30"
     inkscape:window-x="0"
     inkscape:window-height="1141"
     inkscape:window-width="1920"
     fit-margin-bottom="1"
     fit-margin-top="1"
     fit-margin-right="1"
     fit-margin-left="1"
     showgrid="false"
     inkscape:document-rotation="0"
     inkscape:current-layer="layer1"
     inkscape:document-units="mm"
     inkscape:cy="441.07648"
     inkscape:cx="-324.80571"
     inkscape:zoom="0.69937584"
     inkscape:pageshadow="2"
     inkscape:pageopacity="0.0"
     borderopacity="1.0"
     bordercolor="#666666"
     pagecolor="#ffffff"
     id="base" />
  <metadata
     id="metadata5">
    <rdf:RDF>
      <cc:Work
         rdf:about="">
        <dc:format>image/svg+xml</dc:format>
        <dc:type
           rdf:resource="http://purl.org/dc/dcmitype/StillImage" />
        <dc:title></dc:title>
      </cc:Work>
    </rdf:RDF>
  </metadata>
  <g
     transform="translate(-54.828217,58.192174)"
     id="layer1"
     inkscape:groupmode="layer"
     inkscape:label="Layer 1">
    <g
       style="font-style:normal;font-weight:normal;font-size:10.5833px;line-height:1.25;font-family:sans-serif;letter-spacing:0px;word-spacing:0px;fill:#000000;fill-opacity:1;stroke:none;stroke-width:0.264583"
       id="text837"
       aria-label="0">
      <path
         id="path1012"
         style="stroke-width:0.264583"
         d="m 71.532635,-55.432262 q -0.806149,0 -1.214392,0.795815 -0.403075,0.790647 -0.403075,2.382276 0,1.586461 0.403075,2.382276 0.408243,0.790647 1.214392,0.790647 0.811318,0 1.214393,-0.790647 0.408242,-0.795815 0.408242,-2.382276 0,-1.591629 -0.408242,-2.382276 -0.403075,-0.795815 -1.214393,-0.795815 z m 0,-0.82682 q 1.297075,0 1.979202,1.028358 0.687294,1.02319 0.687294,2.976553 0,1.948195 -0.687294,2.976553 -0.682127,1.02319 -1.979202,1.02319 -1.297074,0 -1.984368,-1.02319 -0.682127,-1.028358 -0.682127,-2.976553 0,-1.953363 0.682127,-2.976553 0.687294,-1.028358 1.984368,-1.028358 z" />
    </g>
    <g
       style="font-style:normal;font-weight:normal;font-size:10.5833px;line-height:1.25;font-family:sans-serif;letter-spacing:0px;word-spacing:0px;fill:#000000;fill-opacity:1;stroke:none;stroke-width:0.264583"
       id="text841"
       aria-label="127">
      <path
         id="path1015"
         style="stroke-width:0.264583"
         d="m 56.215795,74.355825 h 1.705316 v -5.885927 l -1.855178,0.372069 v -0.950843 l 1.844843,-0.372069 h 1.043861 v 6.83677 h 1.705317 v 0.878497 h -4.444159 z" />
      <path
         id="path1017"
         style="stroke-width:0.264583"
         d="m 63.667512,74.355825 h 3.643177 v 0.878497 h -4.89891 v -0.878497 q 0.594277,-0.614948 1.617467,-1.648473 1.028358,-1.038693 1.291907,-1.338415 0.50126,-0.563272 0.697629,-0.950844 0.201538,-0.392739 0.201538,-0.769976 0,-0.614948 -0.434081,-1.00252 -0.428913,-0.387572 -1.121375,-0.387572 -0.490924,0 -1.038693,0.170532 -0.542601,0.170532 -1.162716,0.516763 v -1.054196 q 0.630451,-0.253214 1.178219,-0.382404 0.547768,-0.129191 1.00252,-0.129191 1.198889,0 1.912022,0.599445 0.713132,0.599444 0.713132,1.601964 0,0.475422 -0.180867,0.904335 -0.175699,0.423745 -0.645953,1.002519 -0.129191,0.149861 -0.821653,0.868161 -0.692462,0.713133 -1.953363,1.999872 z" />
      <path
         id="path1019"
         style="stroke-width:0.264583"
         d="m 69.238214,67.519055 h 4.960921 v 0.444416 l -2.800853,7.270851 h -1.09037 l 2.63549,-6.836771 h -3.705188 z" />
    </g>
    <rect
       y="68.17659"
       x="78.522781"
       height="7.2081208"
       width="69.4291"
       id="rect903"
       style="fill:#8ad6ff;fill-opacity:1;stroke:#000000;stroke-width:0.447;stroke-miterlimit:4;stroke-dasharray:none" />
    <rect
       y="-20.747129"
       x="78.57859"
       height="88.923721"
       width="69.220566"
       id="rect851"
       style="fill:#8e8aff;fill-opacity:1;stroke:#000000;stroke-width:0.446739;stroke-opacity:1" />
    <rect
       y="-56.968674"
       x="78.531296"
       height="36.230061"
       width="69.259338"
       id="rect901"
       style="fill:#8ad6ff;fill-opacity:1;stroke:#000000;stroke-width:0.447;stroke-miterlimit:4;stroke-dasharray:none" />
    <g
       style="font-style:normal;font-weight:normal;font-size:10.5833px;line-height:1.25;font-family:sans-serif;letter-spacing:0px;word-spacing:0px;fill:#000000;fill-opacity:1;stroke:none;stroke-width:0.264583"
       id="text907"
       aria-label="31">
      <path
         id="path929"
         style="stroke-width:0.264583"
         d="m 66.003275,-25.611625 q 0.749305,0.160197 1.167883,0.666624 0.423746,0.506428 0.423746,1.250566 0,1.142046 -0.78548,1.767328 -0.785479,0.625283 -2.232414,0.625283 -0.485757,0 -1.00252,-0.09819 -0.511595,-0.09302 -1.059363,-0.284219 v -1.007687 q 0.43408,0.253213 0.950843,0.382404 0.516763,0.129191 1.080034,0.129191 0.981849,0 1.493444,-0.387572 0.516763,-0.387572 0.516763,-1.126543 0,-0.682127 -0.48059,-1.064531 -0.475421,-0.387572 -1.32808,-0.387572 h -0.899167 v -0.857826 h 0.940508 q 0.769977,0 1.178219,-0.30489 0.408243,-0.310058 0.408243,-0.888832 0,-0.594277 -0.423746,-0.909502 -0.418577,-0.320393 -1.204057,-0.320393 -0.428913,0 -0.919837,0.09302 -0.490925,0.09302 -1.080034,0.289387 v -0.930173 q 0.594277,-0.165364 1.111039,-0.248046 0.521931,-0.08268 0.98185,-0.08268 1.188554,0 1.881016,0.542601 0.692462,0.537433 0.692462,1.457271 0,0.640786 -0.366902,1.085202 -0.366901,0.439248 -1.04386,0.609779 z" />
      <path
         id="path931"
         style="stroke-width:0.264583"
         d="m 69.754971,-22.330182 h 1.705317 v -5.885926 l -1.855178,0.372069 v -0.950844 l 1.844843,-0.372069 h 1.043861 v 6.83677 h 1.705316 v 0.878497 h -4.444159 z" />
    </g>
    <g
       style="font-style:normal;font-weight:normal;font-size:10.5833px;line-height:1.25;font-family:sans-serif;letter-spacing:0px;word-spacing:0px;fill:#000000;fill-opacity:1;stroke:none;stroke-width:0.264583"
       id="text911"
       aria-label="32">
      <path
         id="path934"
         style="stroke-width:0.264583"
         d="m 66.085958,-15.766989 q 0.749306,0.160196 1.167884,0.666623 0.423745,0.506428 0.423745,1.250566 0,1.142046 -0.785479,1.767328 -0.785479,0.625283 -2.232415,0.625283 -0.485757,0 -1.002519,-0.09819 -0.511595,-0.09302 -1.059364,-0.284219 v -1.007687 q 0.434081,0.253213 0.950843,0.382404 0.516763,0.129191 1.080034,0.129191 0.981849,0 1.493445,-0.387572 0.516762,-0.387572 0.516762,-1.126543 0,-0.682127 -0.480589,-1.064531 -0.475422,-0.387572 -1.32808,-0.387572 h -0.899167 v -0.857826 h 0.940508 q 0.769976,0 1.178219,-0.30489 0.408242,-0.310058 0.408242,-0.888832 0,-0.594277 -0.423745,-0.909502 -0.418578,-0.320393 -1.204057,-0.320393 -0.428913,0 -0.919838,0.09302 -0.490924,0.09302 -1.080034,0.289387 v -0.930173 q 0.594277,-0.165364 1.11104,-0.248046 0.52193,-0.08268 0.981849,-0.08268 1.188554,0 1.881016,0.542601 0.692462,0.537433 0.692462,1.457271 0,0.640786 -0.366901,1.085202 -0.366902,0.439248 -1.043861,0.60978 z" />
      <path
         id="path936"
         style="stroke-width:0.264583"
         d="m 70.555955,-12.485546 h 3.643177 v 0.878496 h -4.89891 v -0.878496 q 0.594277,-0.614948 1.617467,-1.648473 1.028358,-1.038693 1.291907,-1.338416 0.50126,-0.563271 0.697629,-0.950843 0.201538,-0.39274 0.201538,-0.769976 0,-0.614948 -0.434081,-1.00252 -0.428913,-0.387572 -1.121375,-0.387572 -0.490924,0 -1.038693,0.170532 -0.542601,0.170531 -1.162716,0.516762 v -1.054196 q 0.630451,-0.253213 1.178219,-0.382404 0.547768,-0.129191 1.00252,-0.129191 1.198889,0 1.912022,0.599445 0.713132,0.599445 0.713132,1.601964 0,0.475422 -0.180867,0.904335 -0.175699,0.423745 -0.645953,1.00252 -0.129191,0.149861 -0.821653,0.868161 -0.692462,0.713132 -1.953363,1.999872 z" />
    </g>
    <g
       style="font-style:normal;font-weight:normal;font-size:10.5833px;line-height:1.25;font-family:sans-serif;letter-spacing:0px;word-spacing:0px;fill:#000000;fill-opacity:1;stroke:none;stroke-width:0.264583"
       id="text915"
       aria-label="126">
      <path
         id="path939"
         style="stroke-width:0.264583"
         d="m 55.978078,64.403555 h 1.705317 v -5.885927 l -1.855178,0.372069 v -0.950844 l 1.844842,-0.372069 h 1.043861 v 6.836771 h 1.705317 v 0.878496 h -4.444159 z" />
      <path
         id="path941"
         style="stroke-width:0.264583"
         d="m 63.429795,64.403555 h 3.643177 v 0.878496 h -4.89891 v -0.878496 q 0.594277,-0.614948 1.617467,-1.648473 1.028358,-1.038693 1.291907,-1.338416 0.50126,-0.563271 0.69763,-0.950843 0.201537,-0.39274 0.201537,-0.769976 0,-0.614948 -0.434081,-1.00252 -0.428913,-0.387572 -1.121375,-0.387572 -0.490924,0 -1.038693,0.170532 -0.5426,0.170531 -1.162716,0.516762 v -1.054196 q 0.630451,-0.253213 1.178219,-0.382404 0.547769,-0.129191 1.00252,-0.129191 1.198889,0 1.912022,0.599445 0.713132,0.599445 0.713132,1.601964 0,0.475422 -0.180867,0.904335 -0.175699,0.423745 -0.645953,1.00252 -0.129191,0.149861 -0.821653,0.868161 -0.692462,0.713132 -1.953363,1.999872 z" />
      <path
         id="path943"
         style="stroke-width:0.264583"
         d="m 71.625651,61.008424 q -0.702797,0 -1.116207,0.480589 -0.408243,0.480589 -0.408243,1.317745 0,0.831988 0.408243,1.317745 0.41341,0.480589 1.116207,0.480589 0.702798,0 1.11104,-0.480589 0.41341,-0.485757 0.41341,-1.317745 0,-0.837156 -0.41341,-1.317745 -0.408242,-0.480589 -1.11104,-0.480589 z m 2.072219,-3.271108 v 0.950843 q -0.39274,-0.186034 -0.795815,-0.284219 -0.397907,-0.09819 -0.790647,-0.09819 -1.033525,0 -1.581294,0.69763 -0.5426,0.697629 -0.620115,2.108391 0.30489,-0.449583 0.764809,-0.687294 0.459919,-0.242879 1.012855,-0.242879 1.162716,0 1.834507,0.707965 0.676959,0.702798 0.676959,1.91719 0,1.188554 -0.702797,1.906854 -0.702797,0.7183 -1.870681,0.7183 -1.338415,0 -2.04638,-1.02319 -0.707965,-1.028358 -0.707965,-2.976553 0,-1.82934 0.868162,-2.914541 0.868161,-1.09037 2.330599,-1.09037 0.39274,0 0.790647,0.07751 0.403075,0.07751 0.837156,0.232543 z" />
    </g>
    <g
       style="font-style:normal;font-weight:normal;font-size:10.5833px;line-height:1.25;font-family:sans-serif;text-align:center;letter-spacing:0px;word-spacing:0px;text-anchor:middle;fill:#000000;fill-opacity:1;stroke:none;stroke-width:0.264583"
       id="text919"
       aria-label="C0 
Ctrl codes">
      <path
         id="path946"
         style="text-align:center;text-anchor:middle;stroke-width:0.264583"
         d="m 111.19468,-48.736731 v 1.100704 q -0.5271,-0.490924 -1.12654,-0.733803 -0.59428,-0.242878 -1.26607,-0.242878 -1.32291,0 -2.02571,0.811317 -0.7028,0.80615 -0.7028,2.335767 0,1.52445 0.7028,2.335768 0.7028,0.806149 2.02571,0.806149 0.67179,0 1.26607,-0.242878 0.59944,-0.242879 1.12654,-0.733803 v 1.090369 q -0.54777,0.372069 -1.16271,0.558104 -0.60978,0.186034 -1.29191,0.186034 -1.75183,0 -2.75951,-1.069698 -1.00769,-1.074867 -1.00769,-2.930045 0,-1.860345 1.00769,-2.930044 1.00768,-1.074866 2.75951,-1.074866 0.69246,0 1.30224,0.186034 0.61495,0.180867 1.15238,0.547769 z" />
      <path
         id="path948"
         style="text-align:center;text-anchor:middle;stroke-width:0.264583"
         d="m 115.13241,-48.643714 q -0.80615,0 -1.21439,0.795814 -0.40307,0.790647 -0.40307,2.382276 0,1.586462 0.40307,2.382276 0.40824,0.790647 1.21439,0.790647 0.81132,0 1.2144,-0.790647 0.40824,-0.795814 0.40824,-2.382276 0,-1.591629 -0.40824,-2.382276 -0.40308,-0.795814 -1.2144,-0.795814 z m 0,-0.82682 q 1.29708,0 1.97921,1.028357 0.68729,1.02319 0.68729,2.976553 0,1.948196 -0.68729,2.976553 -0.68213,1.02319 -1.97921,1.02319 -1.29707,0 -1.98436,-1.02319 -0.68213,-1.028357 -0.68213,-2.976553 0,-1.953363 0.68213,-2.976553 0.68729,-1.028357 1.98436,-1.028357 z" />
      <path
         id="path950"
         style="text-align:center;text-anchor:middle;stroke-width:0.264583"
         d="m 93.322446,-35.507607 v 1.100705 q -0.527098,-0.490925 -1.126543,-0.733803 -0.594277,-0.242879 -1.266069,-0.242879 -1.322912,0 -2.025709,0.811318 -0.702797,0.806149 -0.702797,2.335767 0,1.52445 0.702797,2.335767 0.702797,0.80615 2.025709,0.80615 0.671792,0 1.266069,-0.242879 0.599445,-0.242878 1.126543,-0.733803 v 1.09037 q -0.547769,0.372069 -1.162716,0.558103 -0.60978,0.186035 -1.291907,0.186035 -1.751826,0 -2.759513,-1.069699 -1.007687,-1.074866 -1.007687,-2.930044 0,-1.860346 1.007687,-2.930045 1.007687,-1.074866 2.759513,-1.074866 0.692462,0 1.302242,0.186035 0.614947,0.180867 1.152381,0.547768 z" />
      <path
         id="path952"
         style="text-align:center;text-anchor:middle;stroke-width:0.264583"
         d="m 95.833912,-35.817664 v 1.643305 h 1.958531 v 0.73897 h -1.958531 v 3.141918 q 0,0.707964 0.191202,0.909502 0.19637,0.201537 0.790647,0.201537 h 0.976682 v 0.795815 h -0.976682 q -1.100704,0 -1.519282,-0.408243 -0.418578,-0.41341 -0.418578,-1.498611 v -3.141918 h -0.697629 v -0.73897 h 0.697629 v -1.643305 z" />
      <path
         id="path954"
         style="text-align:center;text-anchor:middle;stroke-width:0.264583"
         d="m 102.3968,-33.285527 q -0.1602,-0.09302 -0.3514,-0.134359 -0.18604,-0.04651 -0.41341,-0.04651 -0.80615,0 -1.24023,0.527098 -0.428914,0.52193 -0.428914,1.503779 v 3.0489 h -0.956011 v -5.787742 h 0.956011 v 0.899167 q 0.299724,-0.527098 0.780314,-0.780312 0.48059,-0.258381 1.16788,-0.258381 0.0982,0 0.21704,0.0155 0.11886,0.01033 0.26355,0.03617 z" />
      <path
         id="path956"
         style="text-align:center;text-anchor:middle;stroke-width:0.264583"
         d="m 103.39415,-36.427444 h 0.95084 v 8.040827 h -0.95084 z" />
      <path
         id="path958"
         style="text-align:center;text-anchor:middle;stroke-width:0.264583"
         d="m 113.86376,-33.952151 v 0.888832 q -0.40307,-0.222208 -0.81131,-0.330729 -0.40308,-0.113687 -0.81649,-0.113687 -0.925,0 -1.4366,0.589109 -0.51159,0.583942 -0.51159,1.643305 0,1.059364 0.51159,1.648473 0.5116,0.583942 1.4366,0.583942 0.41341,0 0.81649,-0.10852 0.40824,-0.113688 0.81131,-0.335896 v 0.878497 q -0.3979,0.186034 -0.82682,0.279052 -0.42374,0.09302 -0.90433,0.09302 -1.30741,0 -2.07739,-0.821653 -0.76997,-0.821652 -0.76997,-2.216912 0,-1.415929 0.77514,-2.227247 0.78031,-0.811317 2.13423,-0.811317 0.43925,0 0.85783,0.09302 0.41857,0.08785 0.81131,0.268717 z" />
      <path
         id="path960"
         style="text-align:center;text-anchor:middle;stroke-width:0.264583"
         d="m 117.76015,-33.507735 q -0.76481,0 -1.20922,0.599444 -0.44442,0.594277 -0.44442,1.63297 0,1.038693 0.43925,1.638138 0.44442,0.594277 1.21439,0.594277 0.75964,0 1.20406,-0.599444 0.44442,-0.599445 0.44442,-1.632971 0,-1.028357 -0.44442,-1.627802 -0.44442,-0.604612 -1.20406,-0.604612 z m 0,-0.80615 q 1.24023,0 1.9482,0.80615 0.70796,0.806149 0.70796,2.232414 0,1.421098 -0.70796,2.232415 -0.70797,0.80615 -1.9482,0.80615 -1.2454,0 -1.95336,-0.80615 -0.7028,-0.811317 -0.7028,-2.232415 0,-1.426265 0.7028,-2.232414 0.70796,-0.80615 1.95336,-0.80615 z" />
      <path
         id="path962"
         style="text-align:center;text-anchor:middle;stroke-width:0.264583"
         d="m 125.80098,-33.295863 v -3.131581 h 0.95084 v 8.040827 h -0.95084 v -0.868161 q -0.29972,0.516762 -0.75964,0.769976 -0.45475,0.248046 -1.09554,0.248046 -1.04903,0 -1.71048,-0.837156 -0.65629,-0.837155 -0.65629,-2.201409 0,-1.364253 0.65629,-2.201409 0.66145,-0.837155 1.71048,-0.837155 0.64079,0 1.09554,0.253214 0.45992,0.248046 0.75964,0.764808 z m -3.2401,2.020542 q 0,1.049029 0.42891,1.648473 0.43408,0.594277 1.18855,0.594277 0.75448,0 1.18856,-0.594277 0.43408,-0.599444 0.43408,-1.648473 0,-1.049028 -0.43408,-1.643305 -0.43408,-0.599445 -1.18856,-0.599445 -0.75447,0 -1.18855,0.599445 -0.42891,0.594277 -0.42891,1.643305 z" />
      <path
         id="path964"
         style="text-align:center;text-anchor:middle;stroke-width:0.264583"
         d="m 133.66094,-31.518199 v 0.465086 h -4.37181 q 0.062,0.981849 0.58911,1.498612 0.53226,0.511595 1.47794,0.511595 0.54776,0 1.05936,-0.134358 0.51676,-0.134358 1.02319,-0.403075 v 0.899167 q -0.5116,0.21704 -1.04903,0.330728 -0.53743,0.113688 -1.09037,0.113688 -1.38492,0 -2.19624,-0.80615 -0.80615,-0.80615 -0.80615,-2.180738 0,-1.421098 0.76481,-2.253086 0.76998,-0.837155 2.07222,-0.837155 1.16788,0 1.84484,0.754473 0.68213,0.749306 0.68213,2.041213 z m -0.95085,-0.279052 q -0.0103,-0.780311 -0.43924,-1.245398 -0.42375,-0.465086 -1.12655,-0.465086 -0.79581,0 -1.2764,0.449583 -0.47542,0.449584 -0.54777,1.266069 z" />
      <path
         id="path966"
         style="text-align:center;text-anchor:middle;stroke-width:0.264583"
         d="m 138.91125,-34.003827 v 0.899167 q -0.40308,-0.206706 -0.83716,-0.310058 -0.43408,-0.103353 -0.89916,-0.103353 -0.70797,0 -1.06454,0.217041 -0.35139,0.21704 -0.35139,0.651121 0,0.330728 0.25321,0.52193 0.25321,0.186035 1.01802,0.356566 l 0.32556,0.07235 q 1.01286,0.21704 1.4366,0.614948 0.42892,0.392739 0.42892,1.100704 0,0.80615 -0.64079,1.276404 -0.63562,0.470254 -1.75183,0.470254 -0.46508,0 -0.97151,-0.09302 -0.50126,-0.08785 -1.05936,-0.268717 v -0.981849 q 0.5271,0.273884 1.03869,0.41341 0.5116,0.134358 1.01286,0.134358 0.67179,0 1.03352,-0.227375 0.36173,-0.232543 0.36173,-0.651121 0,-0.387572 -0.26354,-0.594277 -0.25839,-0.206705 -1.14205,-0.397907 l -0.33073,-0.07751 q -0.88366,-0.186034 -1.2764,-0.568439 -0.39274,-0.387572 -0.39274,-1.059363 0,-0.816485 0.57877,-1.260901 0.57878,-0.444416 1.64331,-0.444416 0.5271,0 0.99218,0.07751 0.46509,0.07751 0.85783,0.232544 z" />
    </g>
    <g
       style="font-style:normal;font-weight:normal;font-size:10.5833px;line-height:1.25;font-family:sans-serif;text-align:center;letter-spacing:0px;word-spacing:0px;text-anchor:middle;fill:#000000;fill-opacity:1;stroke:none;stroke-width:0.264583"
       id="text925"
       aria-label="printable
characters">
      <path
         id="path969"
         style="text-align:center;text-anchor:middle;stroke-width:0.264583"
         d="m 91.311723,20.177491 v 3.06957 H 90.355712 V 15.25791 h 0.956011 v 0.878497 q 0.299722,-0.516763 0.754473,-0.764809 0.459919,-0.253214 1.095537,-0.253214 1.054196,0 1.710485,0.837156 0.661456,0.837156 0.661456,2.201409 0,1.364253 -0.661456,2.201409 -0.656289,0.837156 -1.710485,0.837156 -0.635618,0 -1.095537,-0.248047 -0.454751,-0.253213 -0.754473,-0.769976 z m 3.234934,-2.020542 q 0,-1.049028 -0.434081,-1.643305 -0.428913,-0.599445 -1.183386,-0.599445 -0.754474,0 -1.188554,0.599445 -0.428913,0.594277 -0.428913,1.643305 0,1.049028 0.428913,1.648473 0.43408,0.594277 1.188554,0.594277 0.754473,0 1.183386,-0.594277 0.434081,-0.599445 0.434081,-1.648473 z" />
      <path
         id="path971"
         style="text-align:center;text-anchor:middle;stroke-width:0.264583"
         d="m 100.46359,16.146742 q -0.1602,-0.09302 -0.3514,-0.134358 -0.186034,-0.04651 -0.413409,-0.04651 -0.80615,0 -1.240231,0.527098 -0.428913,0.521931 -0.428913,1.50378 v 3.048899 H 97.073626 V 15.25791 h 0.956011 v 0.899167 q 0.299723,-0.527097 0.780312,-0.780311 0.480589,-0.258382 1.167884,-0.258382 0.09819,0 0.217037,0.0155 0.11886,0.01034 0.26355,0.03617 z" />
      <path
         id="path973"
         style="text-align:center;text-anchor:middle;stroke-width:0.264583"
         d="m 101.46094,15.25791 h 0.95084 v 5.787742 h -0.95084 z m 0,-2.253085 h 0.95084 v 1.204057 h -0.95084 z" />
      <path
         id="path975"
         style="text-align:center;text-anchor:middle;stroke-width:0.264583"
         d="m 109.21238,17.552337 v 3.493315 h -0.95084 v -3.46231 q 0,-0.821652 -0.32039,-1.229895 -0.3204,-0.408242 -0.96118,-0.408242 -0.76998,0 -1.2144,0.490924 -0.44441,0.490925 -0.44441,1.338416 v 3.271107 h -0.95601 V 15.25791 h 0.95601 v 0.899167 q 0.34106,-0.52193 0.80098,-0.780311 0.46509,-0.258382 1.0697,-0.258382 0.99735,0 1.50895,0.620116 0.51159,0.614947 0.51159,1.813837 z" />
      <path
         id="path977"
         style="text-align:center;text-anchor:middle;stroke-width:0.264583"
         d="m 112.04941,13.614605 v 1.643305 h 1.95853 v 0.738971 h -1.95853 v 3.141917 q 0,0.707965 0.1912,0.909502 0.19637,0.201538 0.79065,0.201538 h 0.97668 v 0.795814 h -0.97668 q -1.10071,0 -1.51928,-0.408242 -0.41858,-0.41341 -0.41858,-1.498612 v -3.141917 h -0.69763 V 15.25791 h 0.69763 v -1.643305 z" />
      <path
         id="path979"
         style="text-align:center;text-anchor:middle;stroke-width:0.264583"
         d="m 117.88883,18.136279 q -1.15238,0 -1.5968,0.263548 -0.44442,0.263549 -0.44442,0.899168 0,0.506427 0.33073,0.806149 0.3359,0.294555 0.9095,0.294555 0.79065,0 1.26607,-0.558104 0.48059,-0.563271 0.48059,-1.493444 v -0.211872 z m 1.89652,-0.39274 v 3.302113 h -0.95085 v -0.878496 q -0.32556,0.527098 -0.81132,0.780311 -0.48575,0.248047 -1.18855,0.248047 -0.88883,0 -1.41593,-0.496093 -0.52193,-0.501259 -0.52193,-1.338415 0,-0.976681 0.65112,-1.472774 0.65629,-0.496092 1.95336,-0.496092 h 1.33325 v -0.09302 q 0,-0.656289 -0.43408,-1.012855 -0.42891,-0.361734 -1.20922,-0.361734 -0.4961,0 -0.96635,0.118856 -0.47025,0.118855 -0.90433,0.356566 v -0.878497 q 0.52193,-0.201537 1.01285,-0.299722 0.49093,-0.103353 0.95601,-0.103353 1.25573,0 1.87585,0.651121 0.62012,0.651121 0.62012,1.974034 z" />
      <path
         id="path981"
         style="text-align:center;text-anchor:middle;stroke-width:0.264583"
         d="m 125.89865,18.156949 q 0,-1.049028 -0.43408,-1.643305 -0.42891,-0.599445 -1.18339,-0.599445 -0.75447,0 -1.18855,0.599445 -0.42892,0.594277 -0.42892,1.643305 0,1.049028 0.42892,1.648473 0.43408,0.594277 1.18855,0.594277 0.75448,0 1.18339,-0.594277 0.43408,-0.599445 0.43408,-1.648473 z m -3.23494,-2.020542 q 0.29973,-0.516763 0.75448,-0.764809 0.45992,-0.253214 1.09553,-0.253214 1.0542,0 1.71049,0.837156 0.66146,0.837156 0.66146,2.201409 0,1.364253 -0.66146,2.201409 -0.65629,0.837156 -1.71049,0.837156 -0.63561,0 -1.09553,-0.248047 -0.45475,-0.253213 -0.75448,-0.769976 v 0.868161 h -0.95601 v -8.040827 h 0.95601 z" />
      <path
         id="path983"
         style="text-align:center;text-anchor:middle;stroke-width:0.264583"
         d="m 128.46179,13.004825 h 0.95085 v 8.040827 h -0.95085 z" />
      <path
         id="path985"
         style="text-align:center;text-anchor:middle;stroke-width:0.264583"
         d="m 136.35276,17.914071 v 0.465086 h -4.37182 q 0.062,0.981849 0.58911,1.498612 0.53227,0.511595 1.47794,0.511595 0.54777,0 1.05937,-0.134359 0.51676,-0.134358 1.02319,-0.403074 v 0.899167 q -0.5116,0.21704 -1.04903,0.330728 -0.53743,0.113688 -1.09037,0.113688 -1.38492,0 -2.19624,-0.80615 -0.80615,-0.80615 -0.80615,-2.180739 0,-1.421097 0.76481,-2.253085 0.76997,-0.837156 2.07222,-0.837156 1.16788,0 1.84484,0.754474 0.68213,0.749306 0.68213,2.041213 z m -0.95085,-0.279052 q -0.0103,-0.780312 -0.43925,-1.245398 -0.42374,-0.465087 -1.12654,-0.465087 -0.79581,0 -1.2764,0.449584 -0.47542,0.449583 -0.54777,1.266068 z" />
      <path
         id="path987"
         style="text-align:center;text-anchor:middle;stroke-width:0.264583"
         d="m 90.221353,28.709243 v 0.888832 q -0.403074,-0.222208 -0.811317,-0.330728 -0.403075,-0.113688 -0.816485,-0.113688 -0.925005,0 -1.4366,0.589109 -0.511595,0.583942 -0.511595,1.643306 0,1.059363 0.511595,1.648473 0.511595,0.583941 1.4366,0.583941 0.41341,0 0.816485,-0.10852 0.408243,-0.113688 0.811317,-0.335896 v 0.878497 q -0.397907,0.186035 -0.82682,0.279052 -0.423745,0.09302 -0.904335,0.09302 -1.307409,0 -2.077385,-0.821653 -0.769977,-0.821652 -0.769977,-2.216911 0,-1.41593 0.775144,-2.227248 0.780312,-0.811317 2.13423,-0.811317 0.439248,0 0.857826,0.09302 0.418578,0.08785 0.811317,0.268717 z" />
      <path
         id="path989"
         style="text-align:center;text-anchor:middle;stroke-width:0.264583"
         d="m 96.686054,30.781461 v 3.493316 h -0.950843 v -3.46231 q 0,-0.821653 -0.320393,-1.229895 -0.320393,-0.408243 -0.961178,-0.408243 -0.769977,0 -1.214393,0.490925 -0.444416,0.490924 -0.444416,1.338415 v 3.271108 H 91.83882 V 26.23395 h 0.956011 v 3.152252 q 0.341064,-0.52193 0.800982,-0.780312 0.465087,-0.258381 1.069699,-0.258381 0.997352,0 1.508947,0.620115 0.511595,0.614948 0.511595,1.813837 z" />
      <path
         id="path991"
         style="text-align:center;text-anchor:middle;stroke-width:0.264583"
         d="m 101.2129,31.365403 q -1.15239,0 -1.596801,0.263549 -0.444416,0.263549 -0.444416,0.899167 0,0.506428 0.330728,0.80615 0.335896,0.294555 0.909499,0.294555 0.79065,0 1.26607,-0.558104 0.48059,-0.563271 0.48059,-1.493444 v -0.211873 z m 1.89651,-0.39274 v 3.302114 h -0.95084 V 33.39628 q -0.32556,0.527098 -0.81132,0.780312 -0.48575,0.248046 -1.18855,0.248046 -0.888832,0 -1.41593,-0.496092 -0.52193,-0.50126 -0.52193,-1.338415 0,-0.976682 0.65112,-1.472774 0.656289,-0.496092 1.95336,-0.496092 h 1.33325 v -0.09302 q 0,-0.656289 -0.43408,-1.012855 -0.42891,-0.361734 -1.20922,-0.361734 -0.4961,0 -0.96635,0.118855 -0.470254,0.118856 -0.904335,0.356566 v -0.878496 q 0.52193,-0.201538 1.012855,-0.299722 0.49092,-0.103353 0.95601,-0.103353 1.25573,0 1.87585,0.651121 0.62011,0.651121 0.62011,1.974033 z" />
      <path
         id="path993"
         style="text-align:center;text-anchor:middle;stroke-width:0.264583"
         d="m 108.42174,29.375867 q -0.1602,-0.09302 -0.3514,-0.134359 -0.18604,-0.04651 -0.41341,-0.04651 -0.80615,0 -1.24023,0.527098 -0.42892,0.52193 -0.42892,1.503779 v 3.0489 h -0.95601 v -5.787742 h 0.95601 v 0.899167 q 0.29973,-0.527098 0.78032,-0.780312 0.48058,-0.258381 1.16788,-0.258381 0.0982,0 0.21704,0.0155 0.11885,0.01033 0.26355,0.03617 z" />
      <path
         id="path995"
         style="text-align:center;text-anchor:middle;stroke-width:0.264583"
         d="m 112.04941,31.365403 q -1.15238,0 -1.5968,0.263549 -0.44441,0.263549 -0.44441,0.899167 0,0.506428 0.33072,0.80615 0.3359,0.294555 0.90951,0.294555 0.79064,0 1.26607,-0.558104 0.48058,-0.563271 0.48058,-1.493444 v -0.211873 z m 1.89652,-0.39274 v 3.302114 h -0.95085 V 33.39628 q -0.32556,0.527098 -0.81131,0.780312 -0.48576,0.248046 -1.18856,0.248046 -0.88883,0 -1.41593,-0.496092 -0.52193,-0.50126 -0.52193,-1.338415 0,-0.976682 0.65112,-1.472774 0.65629,-0.496092 1.95337,-0.496092 h 1.33324 v -0.09302 q 0,-0.656289 -0.43408,-1.012855 -0.42891,-0.361734 -1.20922,-0.361734 -0.49609,0 -0.96635,0.118855 -0.47025,0.118856 -0.90433,0.356566 v -0.878496 q 0.52193,-0.201538 1.01285,-0.299722 0.49093,-0.103353 0.95601,-0.103353 1.25574,0 1.87585,0.651121 0.62012,0.651121 0.62012,1.974033 z" />
      <path
         id="path997"
         style="text-align:center;text-anchor:middle;stroke-width:0.264583"
         d="m 120.06957,28.709243 v 0.888832 q -0.40308,-0.222208 -0.81132,-0.330728 -0.40308,-0.113688 -0.81649,-0.113688 -0.925,0 -1.4366,0.589109 -0.51159,0.583942 -0.51159,1.643306 0,1.059363 0.51159,1.648473 0.5116,0.583941 1.4366,0.583941 0.41341,0 0.81649,-0.10852 0.40824,-0.113688 0.81132,-0.335896 v 0.878497 q -0.39791,0.186035 -0.82682,0.279052 -0.42375,0.09302 -0.90434,0.09302 -1.30741,0 -2.07738,-0.821653 -0.76998,-0.821652 -0.76998,-2.216911 0,-1.41593 0.77514,-2.227248 0.78031,-0.811317 2.13423,-0.811317 0.43925,0 0.85783,0.09302 0.41858,0.08785 0.81132,0.268717 z" />
      <path
         id="path999"
         style="text-align:center;text-anchor:middle;stroke-width:0.264583"
         d="m 122.66372,26.84373 v 1.643305 h 1.95853 v 0.738971 h -1.95853 v 3.141917 q 0,0.707965 0.1912,0.909502 0.19637,0.201537 0.79065,0.201537 h 0.97668 v 0.795815 h -0.97668 q -1.10071,0 -1.51929,-0.408243 -0.41857,-0.41341 -0.41857,-1.498611 v -3.141917 h -0.69763 v -0.738971 h 0.69763 V 26.84373 Z" />
      <path
         id="path1001"
         style="text-align:center;text-anchor:middle;stroke-width:0.264583"
         d="m 130.8234,31.143195 v 0.465087 h -4.37182 q 0.062,0.981849 0.58911,1.498611 0.53227,0.511595 1.47794,0.511595 0.54777,0 1.05937,-0.134358 0.51676,-0.134358 1.02319,-0.403075 v 0.899167 q -0.5116,0.217041 -1.04903,0.330728 -0.53743,0.113688 -1.09037,0.113688 -1.38492,0 -2.19624,-0.80615 -0.80615,-0.806149 -0.80615,-2.180738 0,-1.421098 0.76481,-2.253085 0.76997,-0.837156 2.07222,-0.837156 1.16788,0 1.84484,0.754474 0.68213,0.749305 0.68213,2.041212 z m -0.95085,-0.279052 q -0.0103,-0.780311 -0.43925,-1.245398 -0.42374,-0.465086 -1.12654,-0.465086 -0.79581,0 -1.2764,0.449583 -0.47542,0.449584 -0.54777,1.266069 z" />
      <path
         id="path1003"
         style="text-align:center;text-anchor:middle;stroke-width:0.264583"
         d="m 135.73781,29.375867 q -0.1602,-0.09302 -0.3514,-0.134359 -0.18603,-0.04651 -0.41341,-0.04651 -0.80615,0 -1.24023,0.527098 -0.42891,0.52193 -0.42891,1.503779 v 3.0489 h -0.95601 v -5.787742 h 0.95601 v 0.899167 q 0.29972,-0.527098 0.78031,-0.780312 0.48059,-0.258381 1.16788,-0.258381 0.0982,0 0.21704,0.0155 0.11886,0.01033 0.26355,0.03617 z" />
      <path
         id="path1005"
         style="text-align:center;text-anchor:middle;stroke-width:0.264583"
         d="m 140.42485,28.657567 v 0.899167 q -0.40308,-0.206705 -0.83716,-0.310058 -0.43408,-0.103352 -0.89916,-0.103352 -0.70797,0 -1.06454,0.21704 -0.35139,0.21704 -0.35139,0.651121 0,0.330728 0.25321,0.52193 0.25321,0.186035 1.01802,0.356566 l 0.32556,0.07235 q 1.01286,0.21704 1.4366,0.614948 0.42892,0.392739 0.42892,1.100704 0,0.80615 -0.64079,1.276404 -0.63562,0.470254 -1.75182,0.470254 -0.46509,0 -0.97152,-0.09302 -0.50126,-0.08785 -1.05936,-0.268717 v -0.981849 q 0.5271,0.273884 1.03869,0.41341 0.5116,0.134359 1.01286,0.134359 0.67179,0 1.03352,-0.227376 0.36173,-0.232543 0.36173,-0.651121 0,-0.387572 -0.26354,-0.594277 -0.25839,-0.206705 -1.14205,-0.397907 l -0.33073,-0.07752 q -0.88366,-0.186034 -1.2764,-0.568439 -0.39274,-0.387572 -0.39274,-1.059363 0,-0.816485 0.57877,-1.260901 0.57878,-0.444416 1.64331,-0.444416 0.5271,0 0.99218,0.07751 0.46509,0.07752 0.85783,0.232544 z" />
    </g>
  </g>
</svg>
