<?xml version="1.0" encoding="UTF-8" standalone="no"?>
<svg
   xmlns:dc="http://purl.org/dc/elements/1.1/"
   xmlns:cc="http://creativecommons.org/ns#"
   xmlns:rdf="http://www.w3.org/1999/02/22-rdf-syntax-ns#"
   xmlns:svg="http://www.w3.org/2000/svg"
   xmlns="http://www.w3.org/2000/svg"
   id="svg8"
   version="1.1"
   viewBox="0 0 242.24594 106.82685"
   height="106.82685mm"
   width="242.24594mm">
  <defs
     id="defs2" />
  <metadata
     id="metadata5">
    <rdf:RDF>
      <cc:Work
         rdf:about="">
        <dc:format>image/svg+xml</dc:format>
        <dc:type
           rdf:resource="http://purl.org/dc/dcmitype/StillImage" />
        <dc:title></dc:title>
      </cc:Work>
    </rdf:RDF>
  </metadata>
  <g
     transform="translate(-2.0121992,-0.7845533)"
     id="layer1">
    <path
       d="M 3.2356992,2.0080533 H 243.03463 V 31.840544 H 3.2356992 Z"
       style="fill:#000000;fill-opacity:1;stroke:#000000;stroke-width:0.447"
       id="rect917" />
    <path
       d="M 3.2356992,31.840544 H 243.03463 V 106.42286 H 3.2356992 Z"
       style="fill:#8ad6ff;stroke:#000000;stroke-width:0.377083"
       id="rect915" />
    <g
       style="font-style:normal;font-weight:normal;font-size:21.1666px;line-height:1.25;font-family:sans-serif;letter-spacing:0px;word-spacing:0px;fill:#ffffff;fill-opacity:1;stroke:none;stroke-width:0.529166"
       id="text835"
       aria-label="한">
      <path
         id="path921"
         style="fill:#ffffff;fill-opacity:1;stroke-width:0.529166"
         d="m 12.197481,8.8080596 h 6.307647 V 10.183889 H 12.197481 Z M 9.3823233,11.411551 H 21.277952 V 12.78738 H 9.3823233 Z m 5.8419817,2.349493 q 4.847151,0 4.847151,3.386656 0,3.471322 -4.783651,3.471322 -1.24883,0 -2.24366,-0.296332 -0.99483,-0.296333 -1.714495,-1.100664 -0.698497,-0.825497 -0.698497,-2.095493 0,-0.952497 0.380998,-1.629828 0.402166,-0.698498 1.079497,-1.05833 0.698498,-0.359832 1.460495,-0.507998 0.761998,-0.169333 1.672162,-0.169333 z M 12.176314,17.1477 q 0,2.095493 3.132657,2.095493 3.196157,0 3.196157,-2.074327 0,-2.031993 -3.111491,-2.031993 -3.217323,0 -3.217323,2.010827 z m -0.148166,4.466152 h 1.312329 q 0.338666,0 0.338666,0.1905 0,0.126999 -0.08467,0.359832 -0.08467,0.232832 -0.08467,0.359832 v 2.836324 h 12.403627 v 1.375829 H 12.028148 Z M 23.733278,8.3212278 h 1.418162 q 0.211666,0 0.211666,0.1693328 0,0.105833 -0.08467,0.3386656 -0.0635,0.2328326 -0.0635,0.3598322 v 6.0748136 h 3.11149 v 1.396996 h -3.11149 v 6.709812 h -1.481662 z" />
    </g>
    <text
       id="text839"
       y="125.13755"
       x="138.87894"
       style="font-style:normal;font-weight:normal;font-size:10.5833px;line-height:1.25;font-family:sans-serif;letter-spacing:0px;word-spacing:0px;fill:#000000;fill-opacity:1;stroke:none;stroke-width:0.264583"
       xml:space="preserve"><tspan
         style="stroke-width:0.264583"
         y="125.13755"
         x="138.87894"
         id="tspan837" /></text>
    <text
       id="text847"
       y="110.01454"
       x="111.32832"
       style="font-style:normal;font-weight:normal;font-size:10.5833px;line-height:1.25;font-family:sans-serif;letter-spacing:0px;word-spacing:0px;fill:#000000;fill-opacity:1;stroke:none;stroke-width:0.264583"
       xml:space="preserve"><tspan
         style="stroke-width:0.264583"
         y="110.01454"
         x="111.32832"
         id="tspan845"></tspan></text>
    <g
       style="font-size:10.5833px;line-height:1.25;font-family:sans-serif;letter-spacing:0px;word-spacing:0px;fill:#ffffff;fill-opacity:1;stroke-width:0.264583"
       id="text875"
       aria-label="U+D55C">
      <path
         id="path924"
         style="fill:#ffffff;fill-opacity:1;stroke-width:0.264583"
         d="m 40.517345,7.5486025 h 1.049028 V 12.23564 q 0,1.24023 0.449584,1.787999 0.449583,0.542601 1.457271,0.542601 1.002519,0 1.452103,-0.542601 0.449583,-0.547769 0.449583,-1.787999 V 7.5486025 h 1.049028 v 4.8162285 q 0,1.508947 -0.749305,2.278923 -0.744139,0.769976 -2.201409,0.769976 -1.462439,0 -2.211745,-0.769976 -0.744138,-0.769976 -0.744138,-2.278923 z" />
      <path
         id="path926"
         style="fill:#ffffff;fill-opacity:1;stroke-width:0.264583"
         d="m 52.211684,8.6286365 v 2.8783685 h 2.878369 v 0.878496 h -2.878369 v 2.878368 h -0.868161 v -2.878368 h -2.878368 v -0.878496 h 2.878368 V 8.6286365 Z" />
      <path
         id="path928"
         style="fill:#ffffff;fill-opacity:1;stroke-width:0.264583"
         d="m 58.293981,8.4064286 v 5.9996144 h 1.260901 q 1.596797,0 2.335768,-0.723468 0.744138,-0.723467 0.744138,-2.284091 0,-1.5502876 -0.744138,-2.2685877 -0.738971,-0.7234677 -2.335768,-0.7234677 z m -1.04386,-0.8578261 h 2.144565 q 2.24275,0 3.291778,0.9353405 1.049028,0.9301728 1.049028,2.914541 0,1.994704 -1.054196,2.930045 -1.054195,0.93534 -3.28661,0.93534 h -2.144565 z" />
      <path
         id="path930"
         style="fill:#ffffff;fill-opacity:1;stroke-width:0.264583"
         d="m 65.502821,7.5486025 h 4.097928 V 8.4270991 H 66.458831 V 10.31845 q 0.227376,-0.07751 0.454752,-0.113687 0.227375,-0.04134 0.454751,-0.04134 1.291906,0 2.04638,0.707965 0.754473,0.707964 0.754473,1.917189 0,1.245398 -0.775144,1.93786 -0.775144,0.687294 -2.185906,0.687294 -0.485757,0 -0.992184,-0.08268 -0.50126,-0.08268 -1.038693,-0.248046 v -1.049028 q 0.465086,0.253214 0.961179,0.377237 0.496092,0.124023 1.049028,0.124023 0.893999,0 1.41593,-0.470254 0.52193,-0.470254 0.52193,-1.276404 0,-0.80615 -0.52193,-1.276404 -0.521931,-0.470254 -1.41593,-0.470254 -0.418578,0 -0.837156,0.09302 -0.41341,0.09302 -0.84749,0.289388 z" />
      <path
         id="path932"
         style="fill:#ffffff;fill-opacity:1;stroke-width:0.264583"
         d="m 72.236238,7.5486025 h 4.097928 V 8.4270991 H 73.192249 V 10.31845 q 0.227376,-0.07751 0.454751,-0.113687 0.227376,-0.04134 0.454751,-0.04134 1.291907,0 2.04638,0.707965 0.754474,0.707964 0.754474,1.917189 0,1.245398 -0.775144,1.93786 -0.775144,0.687294 -2.185906,0.687294 -0.485757,0 -0.992184,-0.08268 -0.50126,-0.08268 -1.038693,-0.248046 v -1.049028 q 0.465086,0.253214 0.961178,0.377237 0.496092,0.124023 1.049028,0.124023 0.894,0 1.41593,-0.470254 0.52193,-0.470254 0.52193,-1.276404 0,-0.80615 -0.52193,-1.276404 -0.52193,-0.470254 -1.41593,-0.470254 -0.418577,0 -0.837155,0.09302 -0.41341,0.09302 -0.847491,0.289388 z" />
      <path
         id="path934"
         style="fill:#ffffff;fill-opacity:1;stroke-width:0.264583"
         d="M 84.64371,8.1428796 V 9.2435841 Q 84.116612,8.7526595 83.517167,8.5097811 82.92289,8.2669026 82.251099,8.2669026 q -1.322913,0 -2.02571,0.8113174 -0.702797,0.8061498 -0.702797,2.335767 0,1.52445 0.702797,2.335768 0.702797,0.806149 2.02571,0.806149 0.671791,0 1.266068,-0.242878 0.599445,-0.242878 1.126543,-0.733803 v 1.090369 q -0.547769,0.372069 -1.162716,0.558104 -0.60978,0.186034 -1.291907,0.186034 -1.751825,0 -2.759513,-1.069698 -1.007687,-1.074867 -1.007687,-2.930045 0,-1.8603453 1.007687,-2.930044 1.007688,-1.0748664 2.759513,-1.0748664 0.692462,0 1.302242,0.1860346 0.614948,0.1808669 1.152381,0.5477684 z" />
    </g>
    <g
       style="font-size:10.5833px;line-height:1.25;font-family:sans-serif;letter-spacing:0px;word-spacing:0px;fill:#ffffff;fill-opacity:1;stroke-width:0.264583"
       id="text879"
       aria-label="HANGUL SYLLABLE HAN">
      <path
         id="path937"
         style="fill:#ffffff;fill-opacity:1;stroke-width:0.264583"
         d="m 40.517346,18.672078 h 1.043861 v 3.162587 h 3.793038 v -3.162587 h 1.04386 v 7.715266 h -1.04386 v -3.674182 h -3.793038 v 3.674182 h -1.043861 z" />
      <path
         id="path939"
         style="fill:#ffffff;fill-opacity:1;stroke-width:0.264583"
         d="m 51.054137,19.700435 -1.41593,3.839547 h 2.837027 z m -0.58911,-1.028357 h 1.183387 l 2.94038,7.715266 h -1.085202 l -0.702797,-1.979201 h -3.477813 l -0.702797,1.979201 H 47.51948 Z" />
      <path
         id="path941"
         style="fill:#ffffff;fill-opacity:1;stroke-width:0.264583"
         d="m 55.715336,18.672078 h 1.405595 l 3.420969,6.454365 v -6.454365 h 1.012855 v 7.715266 H 60.14916 l -3.420969,-6.454365 v 6.454365 h -1.012855 z" />
      <path
         id="path943"
         style="fill:#ffffff;fill-opacity:1;stroke-width:0.264583"
         d="m 68.892786,25.28664 v -2.072218 h -1.705317 v -0.857827 h 2.738842 v 3.312449 q -0.604612,0.428913 -1.333248,0.651121 -0.728635,0.217041 -1.555455,0.217041 -1.80867,0 -2.83186,-1.054196 -1.018022,-1.059364 -1.018022,-2.945548 0,-1.891351 1.018022,-2.945547 1.02319,-1.059363 2.83186,-1.059363 0.754473,0 1.431432,0.186034 0.682127,0.186035 1.255734,0.547769 v 1.111039 q -0.578775,-0.490924 -1.229896,-0.73897 -0.651121,-0.248046 -1.369421,-0.248046 -1.415929,0 -2.129062,0.790647 -0.707965,0.790646 -0.707965,2.356437 0,1.560624 0.707965,2.351271 0.713133,0.790646 2.129062,0.790646 0.552936,0 0.987017,-0.09302 0.434081,-0.09819 0.780312,-0.299722 z" />
      <path
         id="path945"
         style="fill:#ffffff;fill-opacity:1;stroke-width:0.264583"
         d="m 71.714309,18.672078 h 1.049029 v 4.687037 q 0,1.24023 0.449583,1.787999 0.449584,0.542601 1.457271,0.542601 1.002519,0 1.452103,-0.542601 0.449583,-0.547769 0.449583,-1.787999 v -4.687037 h 1.049029 v 4.816228 q 0,1.508947 -0.749306,2.278923 -0.744138,0.769977 -2.201409,0.769977 -1.462439,0 -2.211744,-0.769977 -0.744139,-0.769976 -0.744139,-2.278923 z" />
      <path
         id="path947"
         style="fill:#ffffff;fill-opacity:1;stroke-width:0.264583"
         d="m 79.579438,18.672078 h 1.04386 v 6.83677 h 3.756865 v 0.878496 h -4.800725 z" />
      <path
         id="path949"
         style="fill:#ffffff;fill-opacity:1;stroke-width:0.264583"
         d="m 93.464851,18.925291 v 1.018023 q -0.594277,-0.28422 -1.121375,-0.423746 -0.527098,-0.139526 -1.018022,-0.139526 -0.852659,0 -1.317745,0.330729 -0.459919,0.330728 -0.459919,0.940508 0,0.511595 0.30489,0.775144 0.310058,0.258381 1.167884,0.418577 l 0.63045,0.129191 q 1.167884,0.222208 1.72082,0.785479 0.558104,0.558104 0.558104,1.498612 0,1.121375 -0.754474,1.700149 -0.749306,0.578775 -2.201409,0.578775 -0.547768,0 -1.167884,-0.124024 -0.614947,-0.124023 -1.276403,-0.366901 v -1.074866 q 0.635618,0.356566 1.245398,0.537433 0.60978,0.180867 1.198889,0.180867 0.893999,0 1.379756,-0.351399 0.485757,-0.351398 0.485757,-1.002519 0,-0.568439 -0.351398,-0.888832 -0.346231,-0.320393 -1.142046,-0.48059 l -0.635618,-0.124023 q -1.167884,-0.232543 -1.689814,-0.728635 -0.52193,-0.496092 -0.52193,-1.379756 0,-1.02319 0.7183,-1.6123 0.723468,-0.589109 1.989536,-0.589109 0.542601,0 1.105872,0.09819 0.563272,0.09818 1.152381,0.294554 z" />
      <path
         id="path951"
         style="fill:#ffffff;fill-opacity:1;stroke-width:0.264583"
         d="m 94.498376,18.672078 h 1.121375 l 2.139398,3.172922 2.123894,-3.172922 h 1.121377 l -2.728509,4.041084 v 3.674182 h -1.049028 v -3.674182 z" />
      <path
         id="path953"
         style="fill:#ffffff;fill-opacity:1;stroke-width:0.264583"
         d="m 102.02244,18.672078 h 1.04386 v 6.83677 h 3.75686 v 0.878496 h -4.80072 z" />
      <path
         id="path955"
         style="fill:#ffffff;fill-opacity:1;stroke-width:0.264583"
         d="m 107.91871,18.672078 h 1.04386 v 6.83677 h 3.75686 v 0.878496 h -4.80072 z" />
      <path
         id="path957"
         style="fill:#ffffff;fill-opacity:1;stroke-width:0.264583"
         d="m 116.63649,19.700435 -1.41593,3.839547 h 2.83703 z m -0.58911,-1.028357 h 1.18339 l 2.94038,7.715266 h -1.08521 l -0.70279,-1.979201 h -3.47782 l -0.70279,1.979201 h -1.10071 z" />
      <path
         id="path959"
         style="fill:#ffffff;fill-opacity:1;stroke-width:0.264583"
         d="m 122.34155,22.702826 v 2.826692 h 1.67431 q 0.84232,0 1.2454,-0.346231 0.40824,-0.351398 0.40824,-1.069698 0,-0.723468 -0.40824,-1.064532 -0.40308,-0.346231 -1.2454,-0.346231 z m 0,-3.172922 v 2.325432 h 1.54512 q 0.76481,0 1.13688,-0.28422 0.37723,-0.289387 0.37723,-0.878496 0,-0.583942 -0.37723,-0.873329 -0.37207,-0.289387 -1.13688,-0.289387 z m -1.04386,-0.857826 h 2.66649 q 1.19373,0 1.83968,0.496092 0.64595,0.496092 0.64595,1.410762 0,0.707965 -0.33073,1.126543 -0.33072,0.418577 -0.97151,0.52193 0.76998,0.165364 1.19372,0.692462 0.42891,0.52193 0.42891,1.307409 0,1.033526 -0.70279,1.596797 -0.7028,0.563271 -1.99987,0.563271 h -2.76985 z" />
      <path
         id="path961"
         style="fill:#ffffff;fill-opacity:1;stroke-width:0.264583"
         d="m 128.5582,18.672078 h 1.04386 v 6.83677 h 3.75687 v 0.878496 h -4.80073 z" />
      <path
         id="path963"
         style="fill:#ffffff;fill-opacity:1;stroke-width:0.264583"
         d="m 134.45446,18.672078 h 4.87824 v 0.878496 h -3.83437 v 2.284091 h 3.67418 v 0.878497 h -3.67418 v 2.795686 h 3.92739 v 0.878496 h -4.97126 z" />
      <path
         id="path965"
         style="fill:#ffffff;fill-opacity:1;stroke-width:0.264583"
         d="m 144.5055,18.672078 h 1.04386 v 3.162587 h 3.79304 v -3.162587 h 1.04386 v 7.715266 h -1.04386 v -3.674182 h -3.79304 v 3.674182 h -1.04386 z" />
      <path
         id="path967"
         style="fill:#ffffff;fill-opacity:1;stroke-width:0.264583"
         d="m 155.04229,19.700435 -1.41593,3.839547 h 2.83703 z m -0.58911,-1.028357 h 1.18339 l 2.94038,7.715266 h -1.08521 l -0.70279,-1.979201 h -3.47782 l -0.70279,1.979201 h -1.10071 z" />
      <path
         id="path969"
         style="fill:#ffffff;fill-opacity:1;stroke-width:0.264583"
         d="m 159.70349,18.672078 h 1.40559 l 3.42097,6.454365 v -6.454365 h 1.01286 v 7.715266 h -1.4056 l -3.42097,-6.454365 v 6.454365 h -1.01285 z" />
    </g>
    <g
       style="font-size:21.1666px;line-height:1.25;font-family:sans-serif;letter-spacing:0px;word-spacing:0px;stroke-width:0.529166"
       id="text887"
       aria-label="‎ᄒ">
      <path
         id="path972"
         style="stroke-width:0.529166"
         d="m 16.324967,39.204848 h 4.974151 v 1.333496 h -4.974151 z m -2.730491,2.010827 h 10.5198 v 1.312329 h -10.5198 z m 4.804818,1.904994 h 0.99483 q 0.867831,0 1.608662,0.169333 0.761997,0.169333 1.333496,0.698498 0.592664,0.529165 0.571498,1.333496 -0.04233,2.05316 -4.085154,2.05316 -0.698498,0 -1.312329,-0.08467 -0.613831,-0.08467 -1.269996,-0.296332 -0.656165,-0.211666 -1.037163,-0.677331 -0.380999,-0.465665 -0.380999,-1.12183 0,-0.613831 0.359832,-1.05833 0.380999,-0.444499 0.973664,-0.634998 0.592664,-0.211666 1.121829,-0.296332 0.550332,-0.08467 1.12183,-0.08467 z m -0.08467,1.24883 q -0.253999,0 -0.529165,0.04233 -0.275166,0.02117 -0.634998,0.105833 -0.338666,0.08467 -0.571498,0.275166 -0.211666,0.169332 -0.211666,0.444498 0.02117,0.867831 2.412992,0.867831 2.582325,0 2.582325,-0.846664 0,-0.486832 -0.656165,-0.677331 -0.634997,-0.211666 -1.312329,-0.211666 z" />
    </g>
    <g
       style="font-size:21.1666px;line-height:1.25;font-family:sans-serif;letter-spacing:0px;word-spacing:0px;stroke-width:0.529166"
       id="text891"
       aria-label="‎ᅡ ">
      <path
         id="path975"
         style="stroke-width:0.529166"
         d="m 16.293218,61.12442 h 1.396996 q 0.253999,0 0.253999,0.190499 0,0.127 -0.08467,0.338666 -0.08467,0.211666 -0.08467,0.338666 v 4.190986 h 3.11149 v 1.375829 h -3.11149 v 4.29682 h -1.481662 z" />
    </g>
    <g
       style="font-size:21.1666px;line-height:1.25;font-family:sans-serif;letter-spacing:0px;word-spacing:0px;stroke-width:0.529166"
       id="text895"
       aria-label="ᆫ ">
      <path
         id="path978"
         style="stroke-width:0.529166"
         d="m 10.091404,92.251446 h 1.291162 q 0.338666,0 0.338666,0.190499 0,0.127 -0.08467,0.359833 -0.08467,0.232832 -0.08467,0.359832 v 2.836324 h 12.763459 v 1.375829 H 10.091404 Z" />
    </g>
    <g
       style="font-size:10.5833px;line-height:1.25;font-family:sans-serif;letter-spacing:0px;word-spacing:0px;stroke-width:0.264583"
       id="text899"
       aria-label="U+1112 HANGUL CHOSEONG HIEUH">
      <path
         id="path981"
         style="stroke-width:0.264583"
         d="m 40.517345,39.427201 h 1.049028 v 4.687037 q 0,1.240231 0.449584,1.787999 0.449583,0.542601 1.457271,0.542601 1.002519,0 1.452103,-0.542601 0.449583,-0.547768 0.449583,-1.787999 v -4.687037 h 1.049028 v 4.816228 q 0,1.508947 -0.749305,2.278923 -0.744139,0.769977 -2.201409,0.769977 -1.462439,0 -2.211745,-0.769977 -0.744138,-0.769976 -0.744138,-2.278923 z" />
      <path
         id="path983"
         style="stroke-width:0.264583"
         d="m 52.211684,40.507235 v 2.878368 h 2.878369 v 0.878496 h -2.878369 v 2.878368 h -0.868161 v -2.878368 h -2.878368 v -0.878496 h 2.878368 v -2.878368 z" />
      <path
         id="path985"
         style="stroke-width:0.264583"
         d="m 57.524005,46.263971 h 1.705317 v -5.885927 l -1.855178,0.372069 V 39.79927 l 1.844842,-0.372069 h 1.043861 v 6.83677 h 1.705317 v 0.878496 h -4.444159 z" />
      <path
         id="path987"
         style="stroke-width:0.264583"
         d="m 64.257422,46.263971 h 1.705317 v -5.885927 l -1.855178,0.372069 V 39.79927 l 1.844843,-0.372069 h 1.043861 v 6.83677 h 1.705316 v 0.878496 h -4.444159 z" />
      <path
         id="path989"
         style="stroke-width:0.264583"
         d="m 70.99084,46.263971 h 1.705317 v -5.885927 l -1.855178,0.372069 V 39.79927 l 1.844842,-0.372069 h 1.043861 v 6.83677 h 1.705317 v 0.878496 H 70.99084 Z" />
      <path
         id="path991"
         style="stroke-width:0.264583"
         d="m 78.442556,46.263971 h 3.643177 v 0.878496 h -4.898911 v -0.878496 q 0.594277,-0.614948 1.617468,-1.648473 1.028357,-1.038693 1.291906,-1.338415 0.50126,-0.563272 0.69763,-0.950844 0.201537,-0.392739 0.201537,-0.769976 0,-0.614948 -0.43408,-1.00252 -0.428913,-0.387572 -1.121375,-0.387572 -0.490925,0 -1.038693,0.170532 -0.542601,0.170532 -1.162716,0.516763 V 39.79927 q 0.63045,-0.253214 1.178219,-0.382405 0.547768,-0.12919 1.002519,-0.12919 1.19889,0 1.912022,0.599445 0.713132,0.599444 0.713132,1.601964 0,0.475421 -0.180866,0.904334 -0.1757,0.423746 -0.645954,1.00252 -0.12919,0.149861 -0.821652,0.868161 -0.692462,0.713133 -1.953363,1.999872 z" />
      <path
         id="path993"
         style="stroke-width:0.264583"
         d="m 87.547917,39.427201 h 1.043861 v 3.162587 h 3.793038 v -3.162587 h 1.04386 v 7.715266 h -1.04386 v -3.674182 h -3.793038 v 3.674182 h -1.043861 z" />
      <path
         id="path995"
         style="stroke-width:0.264583"
         d="m 98.084708,40.455558 -1.41593,3.839547 h 2.837027 z m -0.58911,-1.028357 h 1.183387 l 2.940375,7.715266 h -1.0852 l -0.702794,-1.979201 h -3.477813 l -0.702797,1.979201 h -1.100705 z" />
      <path
         id="path997"
         style="stroke-width:0.264583"
         d="m 102.74591,39.427201 h 1.40559 l 3.42097,6.454366 v -6.454366 h 1.01286 v 7.715266 h -1.4056 l -3.42097,-6.454365 v 6.454365 h -1.01285 z" />
      <path
         id="path999"
         style="stroke-width:0.264583"
         d="m 115.92336,46.041763 v -2.072218 h -1.70532 v -0.857826 h 2.73884 v 3.312448 q -0.60461,0.428913 -1.33325,0.651121 -0.72863,0.217041 -1.55545,0.217041 -1.80867,0 -2.83186,-1.054196 -1.01802,-1.059364 -1.01802,-2.945547 0,-1.891352 1.01802,-2.945548 1.02319,-1.059363 2.83186,-1.059363 0.75447,0 1.43143,0.186034 0.68213,0.186035 1.25573,0.547769 v 1.11104 q -0.57877,-0.490925 -1.22989,-0.738971 -0.65112,-0.248046 -1.36942,-0.248046 -1.41593,0 -2.12906,0.790647 -0.70797,0.790647 -0.70797,2.356438 0,1.560623 0.70797,2.35127 0.71313,0.790647 2.12906,0.790647 0.55293,0 0.98702,-0.09302 0.43408,-0.09819 0.78031,-0.299722 z" />
      <path
         id="path1001"
         style="stroke-width:0.264583"
         d="m 118.74488,39.427201 h 1.04902 v 4.687037 q 0,1.240231 0.44959,1.787999 0.44958,0.542601 1.45727,0.542601 1.00252,0 1.4521,-0.542601 0.44959,-0.547768 0.44959,-1.787999 v -4.687037 h 1.04902 v 4.816228 q 0,1.508947 -0.7493,2.278923 -0.74414,0.769977 -2.20141,0.769977 -1.46244,0 -2.21175,-0.769977 -0.74413,-0.769976 -0.74413,-2.278923 z" />
      <path
         id="path1003"
         style="stroke-width:0.264583"
         d="m 126.61001,39.427201 h 1.04386 v 6.83677 h 3.75686 v 0.878496 h -4.80072 z" />
      <path
         id="path1005"
         style="stroke-width:0.264583"
         d="m 141.6478,40.021478 v 1.100704 q -0.5271,-0.490924 -1.12654,-0.733803 -0.59428,-0.242878 -1.26607,-0.242878 -1.32291,0 -2.02571,0.811317 -0.7028,0.80615 -0.7028,2.335768 0,1.524449 0.7028,2.335767 0.7028,0.80615 2.02571,0.80615 0.67179,0 1.26607,-0.242879 0.59944,-0.242878 1.12654,-0.733803 v 1.090369 q -0.54777,0.37207 -1.16272,0.558104 -0.60978,0.186035 -1.2919,0.186035 -1.75183,0 -2.75952,-1.069699 -1.00768,-1.074866 -1.00768,-2.930044 0,-1.860346 1.00768,-2.930045 1.00769,-1.074866 2.75952,-1.074866 0.69246,0 1.30224,0.186034 0.61495,0.180867 1.15238,0.547769 z" />
      <path
         id="path1007"
         style="stroke-width:0.264583"
         d="m 143.2601,39.427201 h 1.04386 v 3.162587 h 3.79304 v -3.162587 h 1.04386 v 7.715266 H 148.097 v -3.674182 h -3.79304 v 3.674182 h -1.04386 z" />
      <path
         id="path1009"
         style="stroke-width:0.264583"
         d="m 154.34983,40.135166 q -1.13688,0 -1.80867,0.84749 -0.66662,0.847491 -0.66662,2.30993 0,1.45727 0.66662,2.304761 0.67179,0.847491 1.80867,0.847491 1.13688,0 1.79833,-0.847491 0.66663,-0.847491 0.66663,-2.304761 0,-1.462439 -0.66663,-2.30993 -0.66145,-0.84749 -1.79833,-0.84749 z m 0,-0.847491 q 1.62263,0 2.59415,1.090369 0.97151,1.085202 0.97151,2.914542 0,1.824172 -0.97151,2.914541 -0.97152,1.085202 -2.59415,1.085202 -1.6278,0 -2.60449,-1.085202 -0.97151,-1.085202 -0.97151,-2.914541 0,-1.82934 0.97151,-2.914542 0.97669,-1.090369 2.60449,-1.090369 z" />
      <path
         id="path1011"
         style="stroke-width:0.264583"
         d="m 164.17349,39.680414 v 1.018023 q -0.59428,-0.28422 -1.12138,-0.423745 -0.52709,-0.139526 -1.01802,-0.139526 -0.85266,0 -1.31774,0.330728 -0.45992,0.330728 -0.45992,0.940508 0,0.511595 0.30489,0.775144 0.31005,0.258381 1.16788,0.418578 l 0.63045,0.12919 q 1.16789,0.222208 1.72082,0.78548 0.5581,0.558103 0.5581,1.498611 0,1.121375 -0.75447,1.700149 -0.7493,0.578775 -2.20141,0.578775 -0.54777,0 -1.16788,-0.124023 -0.61495,-0.124023 -1.27641,-0.366902 v -1.074866 q 0.63562,0.356566 1.2454,0.537433 0.60978,0.180867 1.19889,0.180867 0.894,0 1.37976,-0.351399 0.48576,-0.351398 0.48576,-1.002519 0,-0.568439 -0.3514,-0.888832 -0.34623,-0.320393 -1.14205,-0.480589 l -0.63562,-0.124023 q -1.16788,-0.232544 -1.68981,-0.728636 -0.52193,-0.496092 -0.52193,-1.379756 0,-1.02319 0.7183,-1.6123 0.72347,-0.589109 1.98954,-0.589109 0.5426,0 1.10587,0.09819 0.56327,0.09819 1.15238,0.294554 z" />
      <path
         id="path1013"
         style="stroke-width:0.264583"
         d="m 166.26637,39.427201 h 4.87824 v 0.878496 h -3.83438 v 2.284091 h 3.67419 v 0.878497 h -3.67419 v 2.795686 h 3.9274 v 0.878496 h -4.97126 z" />
      <path
         id="path1015"
         style="stroke-width:0.264583"
         d="m 176.08486,40.135166 q -1.13688,0 -1.80867,0.84749 -0.66662,0.847491 -0.66662,2.30993 0,1.45727 0.66662,2.304761 0.67179,0.847491 1.80867,0.847491 1.13688,0 1.79833,-0.847491 0.66663,-0.847491 0.66663,-2.304761 0,-1.462439 -0.66663,-2.30993 -0.66145,-0.84749 -1.79833,-0.84749 z m 0,-0.847491 q 1.62263,0 2.59415,1.090369 0.97151,1.085202 0.97151,2.914542 0,1.824172 -0.97151,2.914541 -0.97152,1.085202 -2.59415,1.085202 -1.6278,0 -2.60448,-1.085202 -0.97152,-1.085202 -0.97152,-2.914541 0,-1.82934 0.97152,-2.914542 0.97668,-1.090369 2.60448,-1.090369 z" />
      <path
         id="path1017"
         style="stroke-width:0.264583"
         d="m 181.28349,39.427201 h 1.4056 l 3.42097,6.454366 v -6.454366 h 1.01285 v 7.715266 h -1.40559 l -3.42097,-6.454365 v 6.454365 h -1.01286 z" />
      <path
         id="path1019"
         style="stroke-width:0.264583"
         d="m 194.46095,46.041763 v -2.072218 h -1.70532 v -0.857826 h 2.73884 v 3.312448 q -0.60461,0.428913 -1.33325,0.651121 -0.72863,0.217041 -1.55545,0.217041 -1.80867,0 -2.83186,-1.054196 -1.01802,-1.059364 -1.01802,-2.945547 0,-1.891352 1.01802,-2.945548 1.02319,-1.059363 2.83186,-1.059363 0.75447,0 1.43143,0.186034 0.68213,0.186035 1.25573,0.547769 v 1.11104 q -0.57877,-0.490925 -1.22989,-0.738971 -0.65112,-0.248046 -1.36942,-0.248046 -1.41593,0 -2.12906,0.790647 -0.70797,0.790647 -0.70797,2.356438 0,1.560623 0.70797,2.35127 0.71313,0.790647 2.12906,0.790647 0.55293,0 0.98702,-0.09302 0.43408,-0.09819 0.78031,-0.299722 z" />
      <path
         id="path1021"
         style="stroke-width:0.264583"
         d="m 200.76546,39.427201 h 1.04386 v 3.162587 h 3.79304 v -3.162587 h 1.04386 v 7.715266 h -1.04386 v -3.674182 h -3.79304 v 3.674182 h -1.04386 z" />
      <path
         id="path1023"
         style="stroke-width:0.264583"
         d="m 208.7236,39.427201 h 1.04386 v 7.715266 h -1.04386 z" />
      <path
         id="path1025"
         style="stroke-width:0.264583"
         d="m 211.84485,39.427201 h 4.87824 v 0.878496 h -3.83438 v 2.284091 h 3.67418 v 0.878497 h -3.67418 v 2.795686 h 3.9274 v 0.878496 h -4.97126 z" />
      <path
         id="path1027"
         style="stroke-width:0.264583"
         d="m 218.4129,39.427201 h 1.04903 v 4.687037 q 0,1.240231 0.44958,1.787999 0.44958,0.542601 1.45727,0.542601 1.00252,0 1.4521,-0.542601 0.44959,-0.547768 0.44959,-1.787999 v -4.687037 h 1.04903 v 4.816228 q 0,1.508947 -0.74931,2.278923 -0.74414,0.769977 -2.20141,0.769977 -1.46244,0 -2.21174,-0.769977 -0.74414,-0.769976 -0.74414,-2.278923 z" />
      <path
         id="path1029"
         style="stroke-width:0.264583"
         d="m 226.27803,39.427201 h 1.04386 v 3.162587 h 3.79304 v -3.162587 h 1.04386 v 7.715266 h -1.04386 v -3.674182 h -3.79304 v 3.674182 h -1.04386 z" />
    </g>
    <g
       style="font-size:10.5833px;line-height:1.25;font-family:sans-serif;letter-spacing:0px;word-spacing:0px;stroke-width:0.264583"
       id="text903"
       aria-label="U+1161 HANGUL JUNGSEONG A">
      <path
         id="path1032"
         style="stroke-width:0.264583"
         d="m 40.517345,64.204075 h 1.049028 v 4.687038 q 0,1.24023 0.449584,1.787999 0.449583,0.5426 1.457271,0.5426 1.002519,0 1.452103,-0.5426 0.449583,-0.547769 0.449583,-1.787999 v -4.687038 h 1.049028 v 4.816228 q 0,1.508947 -0.749305,2.278924 -0.744139,0.769976 -2.201409,0.769976 -1.462439,0 -2.211745,-0.769976 -0.744138,-0.769977 -0.744138,-2.278924 z" />
      <path
         id="path1034"
         style="stroke-width:0.264583"
         d="m 52.211684,65.284109 v 2.878368 h 2.878369 v 0.878497 h -2.878369 v 2.878368 h -0.868161 v -2.878368 h -2.878368 v -0.878497 h 2.878368 v -2.878368 z" />
      <path
         id="path1036"
         style="stroke-width:0.264583"
         d="m 57.524005,71.040845 h 1.705317 v -5.885926 l -1.855178,0.372069 v -0.950844 l 1.844842,-0.372069 h 1.043861 v 6.83677 h 1.705317 v 0.878497 h -4.444159 z" />
      <path
         id="path1038"
         style="stroke-width:0.264583"
         d="m 64.257422,71.040845 h 1.705317 v -5.885926 l -1.855178,0.372069 v -0.950844 l 1.844843,-0.372069 h 1.043861 v 6.83677 h 1.705316 v 0.878497 h -4.444159 z" />
      <path
         id="path1040"
         style="stroke-width:0.264583"
         d="m 73.171578,67.645715 q -0.702797,0 -1.116207,0.480589 -0.408242,0.480589 -0.408242,1.317745 0,0.831988 0.408242,1.317745 0.41341,0.480589 1.116207,0.480589 0.702798,0 1.11104,-0.480589 0.41341,-0.485757 0.41341,-1.317745 0,-0.837156 -0.41341,-1.317745 -0.408242,-0.480589 -1.11104,-0.480589 z m 2.072219,-3.271108 v 0.950843 q -0.39274,-0.186034 -0.795815,-0.284219 -0.397907,-0.09819 -0.790647,-0.09819 -1.033525,0 -1.581293,0.69763 -0.542601,0.697629 -0.620116,2.108391 0.30489,-0.449583 0.764809,-0.687294 0.459919,-0.242879 1.012855,-0.242879 1.162716,0 1.834507,0.707965 0.67696,0.702798 0.67696,1.91719 0,1.188554 -0.702798,1.906854 -0.702797,0.7183 -1.870681,0.7183 -1.338415,0 -2.04638,-1.02319 -0.707965,-1.028358 -0.707965,-2.976553 0,-1.82934 0.868162,-2.914541 0.868161,-1.09037 2.330599,-1.09037 0.39274,0 0.790647,0.07752 0.403075,0.07751 0.837156,0.232543 z" />
      <path
         id="path1042"
         style="stroke-width:0.264583"
         d="m 77.724256,71.040845 h 1.705316 v -5.885926 l -1.855178,0.372069 v -0.950844 l 1.844843,-0.372069 h 1.043861 v 6.83677 h 1.705317 v 0.878497 h -4.444159 z" />
      <path
         id="path1044"
         style="stroke-width:0.264583"
         d="m 87.547917,64.204075 h 1.043861 v 3.162588 h 3.793038 v -3.162588 h 1.04386 v 7.715267 h -1.04386 v -3.674183 h -3.793038 v 3.674183 h -1.043861 z" />
      <path
         id="path1046"
         style="stroke-width:0.264583"
         d="m 98.084708,65.232433 -1.41593,3.839547 h 2.837027 z m -0.58911,-1.028358 h 1.183387 l 2.940375,7.715267 h -1.0852 l -0.702794,-1.979201 h -3.477813 l -0.702797,1.979201 h -1.100705 z" />
      <path
         id="path1048"
         style="stroke-width:0.264583"
         d="m 102.74591,64.204075 h 1.40559 l 3.42097,6.454366 v -6.454366 h 1.01286 v 7.715267 h -1.4056 l -3.42097,-6.454366 v 6.454366 h -1.01285 z" />
      <path
         id="path1050"
         style="stroke-width:0.264583"
         d="m 115.92336,70.818638 v -2.072219 h -1.70532 v -0.857826 h 2.73884 v 3.312449 q -0.60461,0.428913 -1.33325,0.651121 -0.72863,0.21704 -1.55545,0.21704 -1.80867,0 -2.83186,-1.054196 -1.01802,-1.059363 -1.01802,-2.945547 0,-1.891351 1.01802,-2.945547 1.02319,-1.059364 2.83186,-1.059364 0.75447,0 1.43143,0.186035 0.68213,0.186034 1.25573,0.547768 v 1.11104 q -0.57877,-0.490924 -1.22989,-0.738971 -0.65112,-0.248046 -1.36942,-0.248046 -1.41593,0 -2.12906,0.790647 -0.70797,0.790647 -0.70797,2.356438 0,1.560623 0.70797,2.35127 0.71313,0.790647 2.12906,0.790647 0.55293,0 0.98702,-0.09302 0.43408,-0.09819 0.78031,-0.299722 z" />
      <path
         id="path1052"
         style="stroke-width:0.264583"
         d="m 118.74488,64.204075 h 1.04902 v 4.687038 q 0,1.24023 0.44959,1.787999 0.44958,0.5426 1.45727,0.5426 1.00252,0 1.4521,-0.5426 0.44959,-0.547769 0.44959,-1.787999 v -4.687038 h 1.04902 v 4.816228 q 0,1.508947 -0.7493,2.278924 -0.74414,0.769976 -2.20141,0.769976 -1.46244,0 -2.21175,-0.769976 -0.74413,-0.769977 -0.74413,-2.278924 z" />
      <path
         id="path1054"
         style="stroke-width:0.264583"
         d="m 126.61001,64.204075 h 1.04386 v 6.83677 h 3.75686 v 0.878497 h -4.80072 z" />
      <path
         id="path1056"
         style="stroke-width:0.264583"
         d="m 135.87039,64.204075 h 1.04386 v 7.177834 q 0,1.395259 -0.53226,2.02571 -0.5271,0.63045 -1.70015,0.63045 h -0.39791 v -0.878497 h 0.32556 q 0.69246,0 0.97668,-0.387572 0.28422,-0.387572 0.28422,-1.390091 z" />
      <path
         id="path1058"
         style="stroke-width:0.264583"
         d="m 138.87278,64.204075 h 1.04903 v 4.687038 q 0,1.24023 0.44959,1.787999 0.44958,0.5426 1.45727,0.5426 1.00252,0 1.4521,-0.5426 0.44958,-0.547769 0.44958,-1.787999 v -4.687038 h 1.04903 v 4.816228 q 0,1.508947 -0.74931,2.278924 -0.74413,0.769976 -2.2014,0.769976 -1.46244,0 -2.21175,-0.769976 -0.74414,-0.769977 -0.74414,-2.278924 z" />
      <path
         id="path1060"
         style="stroke-width:0.264583"
         d="m 146.73792,64.204075 h 1.40559 l 3.42097,6.454366 v -6.454366 h 1.01285 v 7.715267 h -1.40559 l -3.42097,-6.454366 v 6.454366 h -1.01285 z" />
      <path
         id="path1062"
         style="stroke-width:0.264583"
         d="m 159.91536,70.818638 v -2.072219 h -1.70532 v -0.857826 h 2.73885 v 3.312449 q -0.60462,0.428913 -1.33325,0.651121 -0.72864,0.21704 -1.55546,0.21704 -1.80867,0 -2.83186,-1.054196 -1.01802,-1.059363 -1.01802,-2.945547 0,-1.891351 1.01802,-2.945547 1.02319,-1.059364 2.83186,-1.059364 0.75448,0 1.43144,0.186035 0.68212,0.186034 1.25573,0.547768 v 1.11104 q -0.57878,-0.490924 -1.2299,-0.738971 -0.65112,-0.248046 -1.36942,-0.248046 -1.41593,0 -2.12906,0.790647 -0.70796,0.790647 -0.70796,2.356438 0,1.560623 0.70796,2.35127 0.71313,0.790647 2.12906,0.790647 0.55294,0 0.98702,-0.09302 0.43408,-0.09819 0.78031,-0.299722 z" />
      <path
         id="path1064"
         style="stroke-width:0.264583"
         d="m 167.48077,64.457289 v 1.018022 q -0.59428,-0.284219 -1.12138,-0.423745 -0.52709,-0.139526 -1.01802,-0.139526 -0.85266,0 -1.31774,0.330728 -0.45992,0.330728 -0.45992,0.940508 0,0.511595 0.30489,0.775144 0.31006,0.258382 1.16788,0.418578 l 0.63045,0.129191 q 1.16789,0.222208 1.72082,0.785479 0.55811,0.558104 0.55811,1.498612 0,1.121375 -0.75448,1.700149 -0.7493,0.578774 -2.20141,0.578774 -0.54776,0 -1.16788,-0.124023 -0.61495,-0.124023 -1.2764,-0.366901 v -1.074867 q 0.63561,0.356567 1.24539,0.537433 0.60978,0.180867 1.19889,0.180867 0.894,0 1.37976,-0.351398 0.48576,-0.351399 0.48576,-1.00252 0,-0.568439 -0.3514,-0.888832 -0.34623,-0.320392 -1.14205,-0.480589 l -0.63562,-0.124023 q -1.16788,-0.232543 -1.68981,-0.728635 -0.52193,-0.496092 -0.52193,-1.379757 0,-1.02319 0.7183,-1.612299 0.72347,-0.58911 1.98954,-0.58911 0.5426,0 1.10587,0.09819 0.56327,0.09819 1.15238,0.294555 z" />
      <path
         id="path1066"
         style="stroke-width:0.264583"
         d="m 169.57365,64.204075 h 4.87824 v 0.878497 h -3.83437 v 2.284091 h 3.67418 v 0.878496 h -3.67418 v 2.795686 h 3.92739 v 0.878497 h -4.97126 z" />
      <path
         id="path1068"
         style="stroke-width:0.264583"
         d="m 179.39214,64.91204 q -1.13688,0 -1.80867,0.847491 -0.66662,0.847491 -0.66662,2.309929 0,1.457271 0.66662,2.304762 0.67179,0.84749 1.80867,0.84749 1.13688,0 1.79834,-0.84749 0.66662,-0.847491 0.66662,-2.304762 0,-1.462438 -0.66662,-2.309929 -0.66146,-0.847491 -1.79834,-0.847491 z m 0,-0.847491 q 1.62264,0 2.59415,1.09037 0.97151,1.085201 0.97151,2.914541 0,1.824172 -0.97151,2.914542 -0.97151,1.085201 -2.59415,1.085201 -1.6278,0 -2.60448,-1.085201 -0.97152,-1.085202 -0.97152,-2.914542 0,-1.82934 0.97152,-2.914541 0.97668,-1.09037 2.60448,-1.09037 z" />
      <path
         id="path1070"
         style="stroke-width:0.264583"
         d="m 184.59078,64.204075 h 1.40559 l 3.42097,6.454366 v -6.454366 h 1.01285 v 7.715267 h -1.40559 l -3.42097,-6.454366 v 6.454366 h -1.01285 z" />
      <path
         id="path1072"
         style="stroke-width:0.264583"
         d="m 197.76823,70.818638 v -2.072219 h -1.70532 v -0.857826 h 2.73884 v 3.312449 q -0.60461,0.428913 -1.33324,0.651121 -0.72864,0.21704 -1.55546,0.21704 -1.80867,0 -2.83186,-1.054196 -1.01802,-1.059363 -1.01802,-2.945547 0,-1.891351 1.01802,-2.945547 1.02319,-1.059364 2.83186,-1.059364 0.75447,0 1.43143,0.186035 0.68213,0.186034 1.25574,0.547768 v 1.11104 q -0.57878,-0.490924 -1.2299,-0.738971 -0.65112,-0.248046 -1.36942,-0.248046 -1.41593,0 -2.12906,0.790647 -0.70797,0.790647 -0.70797,2.356438 0,1.560623 0.70797,2.35127 0.71313,0.790647 2.12906,0.790647 0.55294,0 0.98702,-0.09302 0.43408,-0.09819 0.78031,-0.299722 z" />
      <path
         id="path1074"
         style="stroke-width:0.264583"
         d="m 206.65138,65.232433 -1.41592,3.839547 h 2.83702 z m -0.5891,-1.028358 h 1.18338 l 2.94038,7.715267 h -1.0852 l -0.7028,-1.979201 h -3.47781 l -0.7028,1.979201 h -1.1007 z" />
    </g>
    <g
       style="font-size:10.5833px;line-height:1.25;font-family:sans-serif;letter-spacing:0px;word-spacing:0px;stroke-width:0.264583"
       id="text909"
       aria-label="‎U+11AB HANGUL JONGSEONG NIEUN">
      <path
         id="path1077"
         style="stroke-width:0.264583"
         d="m 40.517345,89.965374 h 1.049028 v 4.687038 q 0,1.24023 0.449584,1.787999 0.449583,0.542601 1.457271,0.542601 1.002519,0 1.452103,-0.542601 0.449583,-0.547769 0.449583,-1.787999 v -4.687038 h 1.049028 v 4.816229 q 0,1.508947 -0.749305,2.278923 -0.744139,0.769976 -2.201409,0.769976 -1.462439,0 -2.211745,-0.769976 -0.744138,-0.769976 -0.744138,-2.278923 z" />
      <path
         id="path1079"
         style="stroke-width:0.264583"
         d="m 52.211684,91.045408 v 2.878369 h 2.878369 v 0.878496 h -2.878369 v 2.878368 h -0.868161 v -2.878368 h -2.878368 v -0.878496 h 2.878368 v -2.878369 z" />
      <path
         id="path1081"
         style="stroke-width:0.264583"
         d="m 57.524005,96.802145 h 1.705317 v -5.885927 l -1.855178,0.372069 v -0.950843 l 1.844842,-0.37207 h 1.043861 v 6.836771 h 1.705317 v 0.878496 h -4.444159 z" />
      <path
         id="path1083"
         style="stroke-width:0.264583"
         d="m 64.257422,96.802145 h 1.705317 v -5.885927 l -1.855178,0.372069 v -0.950843 l 1.844843,-0.37207 h 1.043861 v 6.836771 h 1.705316 v 0.878496 h -4.444159 z" />
      <path
         id="path1085"
         style="stroke-width:0.264583"
         d="m 73.295601,90.993732 -1.415929,3.839547 h 2.837027 z m -0.589109,-1.028358 h 1.183387 l 2.940379,7.715267 H 75.745057 L 75.042259,95.70144 h -3.477813 l -0.702797,1.979201 h -1.100704 z" />
      <path
         id="path1087"
         style="stroke-width:0.264583"
         d="m 79.00066,93.996123 v 2.826692 h 1.674311 q 0.842323,0 1.245398,-0.346231 0.408242,-0.351398 0.408242,-1.069699 0,-0.723467 -0.408242,-1.064531 -0.403075,-0.346231 -1.245398,-0.346231 z m 0,-3.172923 v 2.325432 h 1.54512 q 0.764809,0 1.136878,-0.284219 0.377237,-0.289387 0.377237,-0.878497 0,-0.583941 -0.377237,-0.873328 Q 81.310589,90.8232 80.54578,90.8232 Z m -1.043861,-0.857826 h 2.666495 q 1.193722,0 1.839676,0.496093 0.645953,0.496092 0.645953,1.410762 0,0.707965 -0.330728,1.126542 -0.330728,0.418578 -0.971514,0.521931 0.769976,0.165364 1.193722,0.692462 0.428913,0.52193 0.428913,1.307409 0,1.033526 -0.702797,1.596797 -0.702798,0.563271 -1.999872,0.563271 h -2.769848 z" />
      <path
         id="path1089"
         style="stroke-width:0.264583"
         d="m 88.58144,89.965374 h 1.043861 v 3.162588 h 3.793038 V 89.965374 H 94.4622 v 7.715267 h -1.043861 v -3.674182 h -3.793038 v 3.674182 H 88.58144 Z" />
      <path
         id="path1091"
         style="stroke-width:0.264583"
         d="m 99.118231,90.993732 -1.415929,3.839547 h 2.837028 z m -0.589109,-1.028358 h 1.183386 l 2.940382,7.715267 h -1.0852 l -0.7028,-1.979201 h -3.477814 l -0.702797,1.979201 h -1.100704 z" />
      <path
         id="path1093"
         style="stroke-width:0.264583"
         d="m 103.77943,89.965374 h 1.4056 l 3.42096,6.454366 v -6.454366 h 1.01286 v 7.715267 h -1.4056 l -3.42096,-6.454366 v 6.454366 h -1.01286 z" />
      <path
         id="path1095"
         style="stroke-width:0.264583"
         d="m 116.95688,96.579937 v -2.072219 h -1.70532 v -0.857826 h 2.73885 v 3.312449 q -0.60462,0.428913 -1.33325,0.651121 -0.72864,0.21704 -1.55546,0.21704 -1.80867,0 -2.83186,-1.054196 -1.01802,-1.059363 -1.01802,-2.945547 0,-1.891351 1.01802,-2.945547 1.02319,-1.059364 2.83186,-1.059364 0.75448,0 1.43143,0.186035 0.68213,0.186035 1.25574,0.547768 v 1.11104 q -0.57878,-0.490924 -1.2299,-0.73897 -0.65112,-0.248046 -1.36942,-0.248046 -1.41593,0 -2.12906,0.790646 -0.70797,0.790647 -0.70797,2.356438 0,1.560624 0.70797,2.35127 0.71313,0.790647 2.12906,0.790647 0.55294,0 0.98702,-0.09302 0.43408,-0.09819 0.78031,-0.299722 z" />
      <path
         id="path1097"
         style="stroke-width:0.264583"
         d="m 119.77841,89.965374 h 1.04903 v 4.687038 q 0,1.24023 0.44958,1.787999 0.44958,0.542601 1.45727,0.542601 1.00252,0 1.4521,-0.542601 0.44959,-0.547769 0.44959,-1.787999 v -4.687038 h 1.04903 v 4.816229 q 0,1.508947 -0.74931,2.278923 -0.74414,0.769976 -2.20141,0.769976 -1.46244,0 -2.21174,-0.769976 -0.74414,-0.769976 -0.74414,-2.278923 z" />
      <path
         id="path1099"
         style="stroke-width:0.264583"
         d="m 127.64353,89.965374 h 1.04386 v 6.836771 h 3.75687 v 0.878496 h -4.80073 z" />
      <path
         id="path1101"
         style="stroke-width:0.264583"
         d="m 136.90392,89.965374 h 1.04386 v 7.177834 q 0,1.395259 -0.53227,2.02571 -0.5271,0.63045 -1.70015,0.63045 h -0.39791 v -0.878496 h 0.32556 q 0.69247,0 0.97669,-0.387572 0.28422,-0.387572 0.28422,-1.390092 z" />
      <path
         id="path1103"
         style="stroke-width:0.264583"
         d="m 143.15675,90.673339 q -1.13688,0 -1.80867,0.847491 -0.66662,0.847491 -0.66662,2.309929 0,1.457271 0.66662,2.304762 0.67179,0.847491 1.80867,0.847491 1.13688,0 1.79834,-0.847491 0.66662,-0.847491 0.66662,-2.304762 0,-1.462438 -0.66662,-2.309929 -0.66146,-0.847491 -1.79834,-0.847491 z m 0,-0.847491 q 1.62264,0 2.59415,1.09037 0.97151,1.085201 0.97151,2.914541 0,1.824172 -0.97151,2.914542 -0.97151,1.085201 -2.59415,1.085201 -1.6278,0 -2.60448,-1.085201 -0.97152,-1.085202 -0.97152,-2.914542 0,-1.82934 0.97152,-2.914541 0.97668,-1.09037 2.60448,-1.09037 z" />
      <path
         id="path1105"
         style="stroke-width:0.264583"
         d="m 148.35538,89.965374 h 1.40559 l 3.42097,6.454366 v -6.454366 h 1.01286 v 7.715267 h -1.4056 l -3.42097,-6.454366 v 6.454366 h -1.01285 z" />
      <path
         id="path1107"
         style="stroke-width:0.264583"
         d="m 161.53283,96.579937 v -2.072219 h -1.70532 v -0.857826 h 2.73885 v 3.312449 q -0.60462,0.428913 -1.33325,0.651121 -0.72864,0.21704 -1.55546,0.21704 -1.80867,0 -2.83186,-1.054196 -1.01802,-1.059363 -1.01802,-2.945547 0,-1.891351 1.01802,-2.945547 1.02319,-1.059364 2.83186,-1.059364 0.75448,0 1.43144,0.186035 0.68212,0.186035 1.25573,0.547768 v 1.11104 q -0.57878,-0.490924 -1.2299,-0.73897 -0.65112,-0.248046 -1.36942,-0.248046 -1.41593,0 -2.12906,0.790646 -0.70796,0.790647 -0.70796,2.356438 0,1.560624 0.70796,2.35127 0.71313,0.790647 2.12906,0.790647 0.55294,0 0.98702,-0.09302 0.43408,-0.09819 0.78031,-0.299722 z" />
      <path
         id="path1109"
         style="stroke-width:0.264583"
         d="m 169.09823,90.218588 v 1.018023 q -0.59428,-0.28422 -1.12137,-0.423746 -0.5271,-0.139526 -1.01803,-0.139526 -0.85265,0 -1.31774,0.330728 -0.45992,0.330728 -0.45992,0.940508 0,0.511596 0.30489,0.775144 0.31006,0.258382 1.16788,0.418578 l 0.63046,0.129191 q 1.16788,0.222208 1.72081,0.785479 0.55811,0.558104 0.55811,1.498612 0,1.121375 -0.75448,1.700149 -0.7493,0.578774 -2.2014,0.578774 -0.54777,0 -1.16789,-0.124023 -0.61495,-0.124023 -1.2764,-0.366901 v -1.074867 q 0.63562,0.356567 1.2454,0.537434 0.60978,0.180867 1.19889,0.180867 0.894,0 1.37975,-0.351399 0.48576,-0.351399 0.48576,-1.00252 0,-0.568439 -0.3514,-0.888831 -0.34623,-0.320393 -1.14204,-0.48059 l -0.63562,-0.124023 q -1.16789,-0.232543 -1.68982,-0.728635 -0.52193,-0.496092 -0.52193,-1.379757 0,-1.02319 0.7183,-1.612299 0.72347,-0.58911 1.98954,-0.58911 0.5426,0 1.10587,0.09819 0.56327,0.09819 1.15238,0.294555 z" />
      <path
         id="path1111"
         style="stroke-width:0.264583"
         d="m 171.19112,89.965374 h 4.87824 v 0.878497 h -3.83438 v 2.284091 h 3.67418 v 0.878497 h -3.67418 v 2.795686 h 3.92739 v 0.878496 h -4.97125 z" />
      <path
         id="path1113"
         style="stroke-width:0.264583"
         d="m 181.00962,90.673339 q -1.13688,0 -1.80867,0.847491 -0.66662,0.847491 -0.66662,2.309929 0,1.457271 0.66662,2.304762 0.67179,0.847491 1.80867,0.847491 1.13688,0 1.79833,-0.847491 0.66663,-0.847491 0.66663,-2.304762 0,-1.462438 -0.66663,-2.309929 -0.66145,-0.847491 -1.79833,-0.847491 z m 0,-0.847491 q 1.62263,0 2.59415,1.09037 0.97151,1.085201 0.97151,2.914541 0,1.824172 -0.97151,2.914542 -0.97152,1.085201 -2.59415,1.085201 -1.6278,0 -2.60449,-1.085201 -0.97151,-1.085202 -0.97151,-2.914542 0,-1.82934 0.97151,-2.914541 0.97669,-1.09037 2.60449,-1.09037 z" />
      <path
         id="path1115"
         style="stroke-width:0.264583"
         d="m 186.20825,89.965374 h 1.4056 l 3.42097,6.454366 v -6.454366 h 1.01285 v 7.715267 h -1.40559 l -3.42097,-6.454366 v 6.454366 h -1.01286 z" />
      <path
         id="path1117"
         style="stroke-width:0.264583"
         d="m 199.38569,96.579937 v -2.072219 h -1.70532 v -0.857826 h 2.73885 v 3.312449 q -0.60462,0.428913 -1.33325,0.651121 -0.72864,0.21704 -1.55546,0.21704 -1.80867,0 -2.83186,-1.054196 -1.01802,-1.059363 -1.01802,-2.945547 0,-1.891351 1.01802,-2.945547 1.02319,-1.059364 2.83186,-1.059364 0.75448,0 1.43143,0.186035 0.68213,0.186035 1.25574,0.547768 v 1.11104 q -0.57878,-0.490924 -1.2299,-0.73897 -0.65112,-0.248046 -1.36942,-0.248046 -1.41593,0 -2.12906,0.790646 -0.70797,0.790647 -0.70797,2.356438 0,1.560624 0.70797,2.35127 0.71313,0.790647 2.12906,0.790647 0.55294,0 0.98702,-0.09302 0.43408,-0.09819 0.78031,-0.299722 z" />
      <path
         id="path1119"
         style="stroke-width:0.264583"
         d="m 205.6902,89.965374 h 1.4056 l 3.42096,6.454366 v -6.454366 h 1.01286 v 7.715267 h -1.40559 l -3.42097,-6.454366 v 6.454366 h -1.01286 z" />
      <path
         id="path1121"
         style="stroke-width:0.264583"
         d="m 213.60701,89.965374 h 1.04386 v 7.715267 h -1.04386 z" />
      <path
         id="path1123"
         style="stroke-width:0.264583"
         d="m 216.72826,89.965374 h 4.87824 v 0.878497 h -3.83438 v 2.284091 h 3.67418 v 0.878497 h -3.67418 v 2.795686 h 3.92739 v 0.878496 h -4.97125 z" />
      <path
         id="path1125"
         style="stroke-width:0.264583"
         d="m 223.29631,89.965374 h 1.04902 v 4.687038 q 0,1.24023 0.44959,1.787999 0.44958,0.542601 1.45727,0.542601 1.00252,0 1.4521,-0.542601 0.44959,-0.547769 0.44959,-1.787999 v -4.687038 h 1.04902 v 4.816229 q 0,1.508947 -0.7493,2.278923 -0.74414,0.769976 -2.20141,0.769976 -1.46244,0 -2.21175,-0.769976 -0.74413,-0.769976 -0.74413,-2.278923 z" />
      <path
         id="path1127"
         style="stroke-width:0.264583"
         d="m 231.16144,89.965374 h 1.40559 l 3.42097,6.454366 v -6.454366 h 1.01286 v 7.715267 h -1.4056 l -3.42097,-6.454366 v 6.454366 h -1.01285 z" />
    </g>
  </g>
</svg>
