<?xml version="1.0" encoding="UTF-8" standalone="no"?><svg xmlns="http://www.w3.org/2000/svg" xmlns:xlink="http://www.w3.org/1999/xlink" contentScriptType="application/ecmascript" contentStyleType="text/css" height="133px" preserveAspectRatio="none" style="width:877px;height:133px;background:#FFFFFF;" version="1.1" viewBox="0 0 877 133" width="877px" zoomAndPan="magnify"><defs><filter height="300%" id="fm26pafeyq9zu" width="300%" x="-1" y="-1"><feGaussianBlur result="blurOut" stdDeviation="2.0"/><feColorMatrix in="blurOut" result="blurOut2" type="matrix" values="0 0 0 0 0 0 0 0 0 0 0 0 0 0 0 0 0 0 .4 0"/><feOffset dx="4.0" dy="4.0" in="blurOut2" result="blurOut3"/><feBlend in="SourceGraphic" in2="blurOut3" mode="normal"/></filter></defs><g><!--MD5=[605ddada9486cd68ea3cb33d81299a4c]
class WindowProperty_t--><rect codeLine="3" fill="#FEFECE" filter="url(#fm26pafeyq9zu)" height="99.2188" id="WindowProperty_t" style="stroke:#A80036;stroke-width:1.5;" width="142" x="721" y="13.5"/><ellipse cx="736" cy="29.5" fill="#ADD1B2" rx="11" ry="11" style="stroke:#A80036;stroke-width:1.0;"/><path d="M738.4688,35.375 Q737.8906,35.6875 737.25,35.8438 Q736.6094,36 735.9063,36 Q733.4063,36 732.0781,34.3281 Q730.7656,32.6563 730.7656,29.5 Q730.7656,26.3438 732.0781,24.6719 Q733.4063,23 735.9063,23 Q736.6094,23 737.25,23.1563 Q737.9063,23.3125 738.4688,23.625 L738.4688,26.4219 Q737.8438,25.8594 737.25,25.5938 Q736.6563,25.3125 736.0313,25.3125 Q734.6875,25.3125 734,26.375 Q733.3125,27.4375 733.3125,29.5 Q733.3125,31.5781 734,32.6406 Q734.6875,33.6875 736.0313,33.6875 Q736.6563,33.6875 737.25,33.4219 Q737.8438,33.1563 738.4688,32.5781 L738.4688,35.375 Z " fill="#000000"/><text fill="#000000" font-family="sans-serif" font-size="12" lengthAdjust="spacing" textLength="110" x="750" y="33.6543">WindowProperty_t</text><line style="stroke:#A80036;stroke-width:1.5;" x1="722" x2="862" y1="45.5" y2="45.5"/><ellipse cx="732" cy="56.5" rx="3" ry="3" style="stroke:#038048;stroke-width:1.0;fill:none;"/><text fill="#000000" font-family="sans-serif" font-size="11" lengthAdjust="spacing" textLength="53" x="741" y="59.7104">rows : int</text><ellipse cx="732" cy="69.3047" rx="3" ry="3" style="stroke:#038048;stroke-width:1.0;fill:none;"/><text fill="#000000" font-family="sans-serif" font-size="11" lengthAdjust="spacing" textLength="48" x="741" y="72.5151">cols : int</text><ellipse cx="732" cy="82.1094" rx="3" ry="3" style="stroke:#038048;stroke-width:1.0;fill:none;"/><text fill="#000000" font-family="sans-serif" font-size="11" lengthAdjust="spacing" textLength="59" x="741" y="85.3198">pos_y : int</text><ellipse cx="732" cy="94.9141" rx="3" ry="3" style="stroke:#038048;stroke-width:1.0;fill:none;"/><text fill="#000000" font-family="sans-serif" font-size="11" lengthAdjust="spacing" textLength="59" x="741" y="98.1245">pos_x : int</text><line style="stroke:#A80036;stroke-width:1.5;" x1="722" x2="862" y1="104.7188" y2="104.7188"/><!--MD5=[93899e2e49460e9463982e40fb6a726b]
class BorderWin_t--><rect codeLine="10" fill="#FEFECE" filter="url(#fm26pafeyq9zu)" height="86.4141" id="BorderWin_t" style="stroke:#A80036;stroke-width:1.5;" width="126" x="7" y="20"/><ellipse cx="31" cy="36" fill="#ADD1B2" rx="11" ry="11" style="stroke:#A80036;stroke-width:1.0;"/><path d="M33.4688,41.875 Q32.8906,42.1875 32.25,42.3438 Q31.6094,42.5 30.9063,42.5 Q28.4063,42.5 27.0781,40.8281 Q25.7656,39.1563 25.7656,36 Q25.7656,32.8438 27.0781,31.1719 Q28.4063,29.5 30.9063,29.5 Q31.6094,29.5 32.25,29.6563 Q32.9063,29.8125 33.4688,30.125 L33.4688,32.9219 Q32.8438,32.3594 32.25,32.0938 Q31.6563,31.8125 31.0313,31.8125 Q29.6875,31.8125 29,32.875 Q28.3125,33.9375 28.3125,36 Q28.3125,38.0781 29,39.1406 Q29.6875,40.1875 31.0313,40.1875 Q31.6563,40.1875 32.25,39.9219 Q32.8438,39.6563 33.4688,39.0781 L33.4688,41.875 Z " fill="#000000"/><text fill="#000000" font-family="sans-serif" font-size="12" lengthAdjust="spacing" textLength="74" x="47" y="40.1543">BorderWin_t</text><line style="stroke:#A80036;stroke-width:1.5;" x1="8" x2="132" y1="52" y2="52"/><text fill="#000000" font-family="sans-serif" font-size="11" lengthAdjust="spacing" textLength="114" x="13" y="66.2104">window : WINDOW *</text><text fill="#000000" font-family="sans-serif" font-size="11" lengthAdjust="spacing" textLength="89" x="13" y="79.0151">panel : PANEL *</text><text fill="#000000" font-family="sans-serif" font-size="11" lengthAdjust="spacing" textLength="61" x="13" y="91.8198">colour : int</text><line style="stroke:#A80036;stroke-width:1.5;" x1="8" x2="132" y1="98.4141" y2="98.4141"/><!--MD5=[594c03fbc40458485572b2cc74398ffe]
class BorderWin--><rect codeLine="16" fill="#FEFECE" filter="url(#fm26pafeyq9zu)" height="112.0234" id="BorderWin" style="stroke:#A80036;stroke-width:1.5;" width="518" x="168" y="7"/><ellipse cx="391.25" cy="23" fill="#B4A7E5" rx="11" ry="11" style="stroke:#A80036;stroke-width:1.0;"/><path d="M387.6719,18.7813 L387.6719,16.5 L395.0625,16.5 L395.0625,18.7813 L392.5938,18.7813 L392.5938,27.2344 L395.0625,27.2344 L395.0625,29.5 L387.6719,29.5 L387.6719,27.2344 L390.1406,27.2344 L390.1406,18.7813 L387.6719,18.7813 Z " fill="#000000"/><text fill="#000000" font-family="sans-serif" font-size="12" font-style="italic" lengthAdjust="spacing" textLength="63" x="411.75" y="27.1543">BorderWin</text><line style="stroke:#A80036;stroke-width:1.5;" x1="169" x2="685" y1="39" y2="39"/><line style="stroke:#A80036;stroke-width:1.5;" x1="169" x2="685" y1="47" y2="47"/><ellipse cx="179" cy="58" fill="#84BE84" rx="3" ry="3" style="stroke:#038048;stroke-width:1.0;"/><text fill="#000000" font-family="sans-serif" font-size="11" lengthAdjust="spacing" textLength="187" x="188" y="61.2104">create( int colour ) : BorderWin_t</text><ellipse cx="179" cy="70.8047" fill="#84BE84" rx="3" ry="3" style="stroke:#038048;stroke-width:1.0;"/><text fill="#000000" font-family="sans-serif" font-size="11" lengthAdjust="spacing" textLength="492" x="188" y="74.0151">init( BorderWin_t * border_win, WindowProperty_t * property, const char * title ) : bool</text><ellipse cx="179" cy="83.6094" fill="#84BE84" rx="3" ry="3" style="stroke:#038048;stroke-width:1.0;"/><text fill="#000000" font-family="sans-serif" font-size="11" lengthAdjust="spacing" textLength="228" x="188" y="86.8198">show( BorderWin_t * border_win ) : bool</text><ellipse cx="179" cy="96.4141" fill="#84BE84" rx="3" ry="3" style="stroke:#038048;stroke-width:1.0;"/><text fill="#000000" font-family="sans-serif" font-size="11" lengthAdjust="spacing" textLength="223" x="188" y="99.6245">hide( BorderWin_t * border_win ) : bool</text><ellipse cx="179" cy="109.2188" fill="#84BE84" rx="3" ry="3" style="stroke:#038048;stroke-width:1.0;"/><text fill="#000000" font-family="sans-serif" font-size="11" lengthAdjust="spacing" textLength="222" x="188" y="112.4292">free( BorderWin_t * border_win ) : void</text><!--MD5=[eba97596b2ae9d94c7d8279ff7880daa]
reverse link BorderWin_t to BorderWin--><path codeLine="24" d="M138.26,63 C148.12,63 157.97,63 167.83,63 " fill="none" id="BorderWin_t-backto-BorderWin" style="stroke:#A80036;stroke-width:1.0;"/><polygon fill="#A80036" points="133.1,63,142.1,67,138.1,63,142.1,59,133.1,63" style="stroke:#A80036;stroke-width:1.0;"/><!--MD5=[9394d9133684423896a19e30abc934d4]
link BorderWin to WindowProperty_t--><path codeLine="25" d="M686.14,63 C696,63 705.86,63 715.72,63 " fill="none" id="BorderWin-to-WindowProperty_t" style="stroke:#A80036;stroke-width:1.0;"/><polygon fill="#A80036" points="720.87,63,711.87,59,715.87,63,711.87,67,720.87,63" style="stroke:#A80036;stroke-width:1.0;"/><!--MD5=[d72e85592519f05d27828eb6df579562]
@startuml
'https://plantuml.com/class-diagram

class WindowProperty_t {
    + rows : int
    + cols : int
    + pos_y : int
    + pos_x : int
}

class BorderWin_t {
    window : WINDOW *
    panel : PANEL *
    colour : int
}

interface BorderWin {
    + create( int colour ) : BorderWin_t
    + init( BorderWin_t * border_win, WindowProperty_t * property, const char * title ) : bool
    + show( BorderWin_t * border_win ) : bool
    + hide( BorderWin_t * border_win ) : bool
    + free( BorderWin_t * border_win ) : void
}

BorderWin -left-> BorderWin_t
BorderWin -right-> WindowProperty_t

@enduml

@startuml

class WindowProperty_t {
    + rows : int
    + cols : int
    + pos_y : int
    + pos_x : int
}

class BorderWin_t {
    window : WINDOW *
    panel : PANEL *
    colour : int
}

interface BorderWin {
    + create( int colour ) : BorderWin_t
    + init( BorderWin_t * border_win, WindowProperty_t * property, const char * title ) : bool
    + show( BorderWin_t * border_win ) : bool
    + hide( BorderWin_t * border_win ) : bool
    + free( BorderWin_t * border_win ) : void
}

BorderWin -left-> BorderWin_t
BorderWin -right-> WindowProperty_t

@enduml

PlantUML version 1.2021.7(Sun May 23 14:40:07 CEST 2021)
(GPL source distribution)
Java Runtime: OpenJDK Runtime Environment
JVM: OpenJDK 64-Bit Server VM
Default Encoding: UTF-8
Language: en
Country: GB
--></g></svg>