<?xml version="1.0" encoding="UTF-8" standalone="no"?><svg xmlns="http://www.w3.org/2000/svg" xmlns:xlink="http://www.w3.org/1999/xlink" contentScriptType="application/ecmascript" contentStyleType="text/css" height="187px" preserveAspectRatio="none" style="width:257px;height:187px;background:#FFFFFF;" version="1.1" viewBox="0 0 257 187" width="257px" zoomAndPan="magnify"><defs><filter height="300%" id="fribgrmpageov" width="300%" x="-1" y="-1"><feGaussianBlur result="blurOut" stdDeviation="2.0"/><feColorMatrix in="blurOut" result="blurOut2" type="matrix" values="0 0 0 0 0 0 0 0 0 0 0 0 0 0 0 0 0 0 .4 0"/><feOffset dx="4.0" dy="4.0" in="blurOut2" result="blurOut3"/><feBlend in="SourceGraphic" in2="blurOut3" mode="normal"/></filter></defs><g><!--MD5=[6eb289ab5c8d09cf37709d77f80249c1]
class TextID_e--><rect codeLine="5" fill="#FEFECE" filter="url(#fribgrmpageov)" height="32" id="TextID_e" style="stroke:#A80036;stroke-width:1.5;" width="84" x="83" y="141"/><ellipse cx="98" cy="157" fill="#EB937F" rx="11" ry="11" style="stroke:#A80036;stroke-width:1.0;"/><path d="M102.1094,163.5 L94.3906,163.5 L94.3906,150.5 L102.1094,150.5 L102.1094,152.7813 L96.8438,152.7813 L96.8438,155.5 L101.6094,155.5 L101.6094,157.7813 L96.8438,157.7813 L96.8438,161.2344 L102.1094,161.2344 L102.1094,163.5 Z " fill="#000000"/><text fill="#000000" font-family="sans-serif" font-size="12" lengthAdjust="spacing" textLength="52" x="112" y="161.1543">TextID_e</text><!--MD5=[2a3e28b8d92ccc57ea3cd998e7be5702]
class iLanguage--><rect codeLine="7" fill="#FEFECE" filter="url(#fribgrmpageov)" height="73.6094" id="iLanguage" style="stroke:#A80036;stroke-width:1.5;" width="236" x="7" y="7"/><ellipse cx="62.25" cy="23" fill="#B4A7E5" rx="11" ry="11" style="stroke:#A80036;stroke-width:1.0;"/><path d="M58.6719,18.7813 L58.6719,16.5 L66.0625,16.5 L66.0625,18.7813 L63.5938,18.7813 L63.5938,27.2344 L66.0625,27.2344 L66.0625,29.5 L58.6719,29.5 L58.6719,27.2344 L61.1406,27.2344 L61.1406,18.7813 L58.6719,18.7813 Z " fill="#000000"/><text fill="#000000" font-family="sans-serif" font-size="12" font-style="italic" lengthAdjust="spacing" textLength="117" x="82.75" y="27.1543">Language interface</text><line style="stroke:#A80036;stroke-width:1.5;" x1="8" x2="242" y1="39" y2="39"/><text fill="#000000" font-family="sans-serif" font-size="11" font-weight="bold" lengthAdjust="spacing" textLength="56" x="13" y="53.2104">UI global</text><line style="stroke:#A80036;stroke-width:1.0;" x1="8" x2="242" y1="59.8047" y2="59.8047"/><ellipse cx="18" cy="70.8047" fill="#84BE84" rx="3" ry="3" style="stroke:#038048;stroke-width:1.0;"/><text fill="#000000" font-family="sans-serif" font-size="11" lengthAdjust="spacing" textLength="210" x="27" y="74.0151">text( TextID_e text_id ) : const char *</text><!--MD5=[7ace17d08573f4082aae36c6b7d6ee94]
link iLanguage to TextID_e--><path codeLine="13" d="M125,81.04 C125,99.08 125,120.26 125,135.5 " fill="none" id="iLanguage-to-TextID_e" style="stroke:#A80036;stroke-width:1.0;"/><polygon fill="#A80036" points="125,140.83,129,131.83,125,135.83,121,131.83,125,140.83" style="stroke:#A80036;stroke-width:1.0;"/><!--MD5=[9d236830bbdc2869924125bce786ad9d]
@startuml
'https://plantuml.com/class-diagram

hide enum members

enum TextID_e

interface "Language interface" as iLanguage {
    <b>UI global</b>
    - - - -
    + text( TextID_e text_id ) : const char *
}

iLanguage -down-> TextID_e

@enduml

@startuml

hide enum members

enum TextID_e

interface "Language interface" as iLanguage {
    <b>UI global</b>
    - - - -
    + text( TextID_e text_id ) : const char *
}

iLanguage -down-> TextID_e

@enduml

PlantUML version 1.2021.7(Sun May 23 14:40:07 CEST 2021)
(GPL source distribution)
Java Runtime: OpenJDK Runtime Environment
JVM: Dynamic Code Evolution 64-Bit Server VM
Default Encoding: UTF-8
Language: en
Country: GB
--></g></svg>