<?xml version="1.0" encoding="UTF-8" standalone="no"?><svg xmlns="http://www.w3.org/2000/svg" xmlns:xlink="http://www.w3.org/1999/xlink" contentScriptType="application/ecmascript" contentStyleType="text/css" height="492px" preserveAspectRatio="none" style="width:645px;height:492px;background:#FFFFFF;" version="1.1" viewBox="0 0 645 492" width="645px" zoomAndPan="magnify"><defs><filter height="300%" id="f8d15pwre7z5q" width="300%" x="-1" y="-1"><feGaussianBlur result="blurOut" stdDeviation="2.0"/><feColorMatrix in="blurOut" result="blurOut2" type="matrix" values="0 0 0 0 0 0 0 0 0 0 0 0 0 0 0 0 0 0 .4 0"/><feOffset dx="4.0" dy="4.0" in="blurOut2" result="blurOut3"/><feBlend in="SourceGraphic" in2="blurOut3" mode="normal"/></filter></defs><g><!--MD5=[605ddada9486cd68ea3cb33d81299a4c]
class WindowProperty_t--><rect codeLine="3" fill="#FEFECE" filter="url(#f8d15pwre7z5q)" height="99.2188" id="WindowProperty_t" style="stroke:#A80036;stroke-width:1.5;" width="142" x="489" y="311"/><ellipse cx="504" cy="327" fill="#ADD1B2" rx="11" ry="11" style="stroke:#A80036;stroke-width:1.0;"/><path d="M506.4688,332.875 Q505.8906,333.1875 505.25,333.3438 Q504.6094,333.5 503.9063,333.5 Q501.4063,333.5 500.0781,331.8281 Q498.7656,330.1563 498.7656,327 Q498.7656,323.8438 500.0781,322.1719 Q501.4063,320.5 503.9063,320.5 Q504.6094,320.5 505.25,320.6563 Q505.9063,320.8125 506.4688,321.125 L506.4688,323.9219 Q505.8438,323.3594 505.25,323.0938 Q504.6563,322.8125 504.0313,322.8125 Q502.6875,322.8125 502,323.875 Q501.3125,324.9375 501.3125,327 Q501.3125,329.0781 502,330.1406 Q502.6875,331.1875 504.0313,331.1875 Q504.6563,331.1875 505.25,330.9219 Q505.8438,330.6563 506.4688,330.0781 L506.4688,332.875 Z " fill="#000000"/><text fill="#000000" font-family="sans-serif" font-size="12" lengthAdjust="spacing" textLength="110" x="518" y="331.1543">WindowProperty_t</text><line style="stroke:#A80036;stroke-width:1.5;" x1="490" x2="630" y1="343" y2="343"/><ellipse cx="500" cy="354" rx="3" ry="3" style="stroke:#038048;stroke-width:1.0;fill:none;"/><text fill="#000000" font-family="sans-serif" font-size="11" lengthAdjust="spacing" textLength="53" x="509" y="357.2104">rows : int</text><ellipse cx="500" cy="366.8047" rx="3" ry="3" style="stroke:#038048;stroke-width:1.0;fill:none;"/><text fill="#000000" font-family="sans-serif" font-size="11" lengthAdjust="spacing" textLength="48" x="509" y="370.0151">cols : int</text><ellipse cx="500" cy="379.6094" rx="3" ry="3" style="stroke:#038048;stroke-width:1.0;fill:none;"/><text fill="#000000" font-family="sans-serif" font-size="11" lengthAdjust="spacing" textLength="59" x="509" y="382.8198">pos_y : int</text><ellipse cx="500" cy="392.4141" rx="3" ry="3" style="stroke:#038048;stroke-width:1.0;fill:none;"/><text fill="#000000" font-family="sans-serif" font-size="11" lengthAdjust="spacing" textLength="59" x="509" y="395.6245">pos_x : int</text><line style="stroke:#A80036;stroke-width:1.5;" x1="490" x2="630" y1="402.2188" y2="402.2188"/><!--MD5=[90937a4d3996b66e767561e2fd7f12fb]
class ScrollBar_Pos_e--><rect codeLine="10" fill="#FEFECE" filter="url(#f8d15pwre7z5q)" height="99.2188" id="ScrollBar_Pos_e" style="stroke:#A80036;stroke-width:1.5;" width="124" x="7" y="311"/><ellipse cx="22" cy="327" fill="#EB937F" rx="11" ry="11" style="stroke:#A80036;stroke-width:1.0;"/><path d="M26.1094,333.5 L18.3906,333.5 L18.3906,320.5 L26.1094,320.5 L26.1094,322.7813 L20.8438,322.7813 L20.8438,325.5 L25.6094,325.5 L25.6094,327.7813 L20.8438,327.7813 L20.8438,331.2344 L26.1094,331.2344 L26.1094,333.5 Z " fill="#000000"/><text fill="#000000" font-family="sans-serif" font-size="12" lengthAdjust="spacing" textLength="92" x="36" y="331.1543">ScrollBar_Pos_e</text><line style="stroke:#A80036;stroke-width:1.5;" x1="8" x2="130" y1="343" y2="343"/><text fill="#000000" font-family="sans-serif" font-size="11" lengthAdjust="spacing" textLength="47" x="13" y="357.2104">TOP = 0</text><text fill="#000000" font-family="sans-serif" font-size="11" lengthAdjust="spacing" textLength="49" x="13" y="370.0151">BOTTOM</text><text fill="#000000" font-family="sans-serif" font-size="11" lengthAdjust="spacing" textLength="26" x="13" y="382.8198">LEFT</text><text fill="#000000" font-family="sans-serif" font-size="11" lengthAdjust="spacing" textLength="35" x="13" y="395.6245">RIGHT</text><line style="stroke:#A80036;stroke-width:1.5;" x1="8" x2="130" y1="402.2188" y2="402.2188"/><!--MD5=[2192880aea5e556e16de6e61165a6950]
class ScrollBar_t--><rect codeLine="17" fill="#FEFECE" filter="url(#f8d15pwre7z5q)" height="235.2656" id="ScrollBar_t" style="stroke:#A80036;stroke-width:1.5;" width="289" x="165.5" y="243"/><ellipse cx="273.75" cy="259" fill="#ADD1B2" rx="11" ry="11" style="stroke:#A80036;stroke-width:1.0;"/><path d="M276.2188,264.875 Q275.6406,265.1875 275,265.3438 Q274.3594,265.5 273.6563,265.5 Q271.1563,265.5 269.8281,263.8281 Q268.5156,262.1563 268.5156,259 Q268.5156,255.8438 269.8281,254.1719 Q271.1563,252.5 273.6563,252.5 Q274.3594,252.5 275,252.6563 Q275.6563,252.8125 276.2188,253.125 L276.2188,255.9219 Q275.5938,255.3594 275,255.0938 Q274.4063,254.8125 273.7813,254.8125 Q272.4375,254.8125 271.75,255.875 Q271.0625,256.9375 271.0625,259 Q271.0625,261.0781 271.75,262.1406 Q272.4375,263.1875 273.7813,263.1875 Q274.4063,263.1875 275,262.9219 Q275.5938,262.6563 276.2188,262.0781 L276.2188,264.875 Z " fill="#000000"/><text fill="#000000" font-family="sans-serif" font-size="12" lengthAdjust="spacing" textLength="64" x="294.25" y="263.1543">ScrollBar_t</text><line style="stroke:#A80036;stroke-width:1.5;" x1="166.5" x2="453.5" y1="275" y2="275"/><ellipse cx="176.5" cy="286" rx="3" ry="3" style="stroke:#038048;stroke-width:1.0;fill:none;"/><text fill="#000000" font-family="sans-serif" font-size="11" lengthAdjust="spacing" textLength="76" x="185.5" y="289.2104">redraw : bool</text><ellipse cx="176.5" cy="298.8047" rx="3" ry="3" style="stroke:#038048;stroke-width:1.0;fill:none;"/><text fill="#000000" font-family="sans-serif" font-size="11" lengthAdjust="spacing" textLength="263" x="185.5" y="302.0151">canvas_properties : const WindowProperty_t *</text><ellipse cx="176.5" cy="311.6094" rx="3" ry="3" style="stroke:#038048;stroke-width:1.0;fill:none;"/><text fill="#000000" font-family="sans-serif" font-size="11" lengthAdjust="spacing" textLength="171" x="185.5" y="314.8198">bar_position : ScrollBar_Pos_e</text><ellipse cx="176.5" cy="324.4141" rx="3" ry="3" style="stroke:#038048;stroke-width:1.0;fill:none;"/><text fill="#000000" font-family="sans-serif" font-size="11" lengthAdjust="spacing" textLength="135" x="185.5" y="327.6245">canvas_panel : PANEL *</text><ellipse cx="176.5" cy="337.2188" rx="3" ry="3" style="stroke:#038048;stroke-width:1.0;fill:none;"/><text fill="#000000" font-family="sans-serif" font-size="11" lengthAdjust="spacing" textLength="137" x="185.5" y="340.4292">canvas_win : WINDOW *</text><line style="stroke:#A80036;stroke-width:1.0;" x1="166.5" x2="453.5" y1="347.0234" y2="347.0234"/><text fill="#000000" font-family="sans-serif" font-size="11" font-weight="bold" lengthAdjust="spacing" textLength="64" x="171.5" y="361.2339">properties</text><line style="stroke:#A80036;stroke-width:1.0;" x1="166.5" x2="453.5" y1="367.8281" y2="367.8281"/><ellipse cx="176.5" cy="378.8281" rx="3" ry="3" style="stroke:#038048;stroke-width:1.0;fill:none;"/><text fill="#000000" font-family="sans-serif" font-size="11" lengthAdjust="spacing" textLength="110" x="185.5" y="382.0386">always_show : bool</text><ellipse cx="176.5" cy="391.6328" rx="3" ry="3" style="stroke:#038048;stroke-width:1.0;fill:none;"/><text fill="#000000" font-family="sans-serif" font-size="11" lengthAdjust="spacing" textLength="104" x="185.5" y="394.8433">bar_length : size_t</text><ellipse cx="176.5" cy="404.4375" rx="3" ry="3" style="stroke:#038048;stroke-width:1.0;fill:none;"/><text fill="#000000" font-family="sans-serif" font-size="11" lengthAdjust="spacing" textLength="115" x="185.5" y="407.6479">scroll_length : size_t</text><ellipse cx="176.5" cy="417.2422" rx="3" ry="3" style="stroke:#038048;stroke-width:1.0;fill:none;"/><text fill="#000000" font-family="sans-serif" font-size="11" lengthAdjust="spacing" textLength="109" x="185.5" y="420.4526">page_count : size_t</text><ellipse cx="176.5" cy="430.0469" rx="3" ry="3" style="stroke:#038048;stroke-width:1.0;fill:none;"/><text fill="#000000" font-family="sans-serif" font-size="11" lengthAdjust="spacing" textLength="141" x="185.5" y="433.2573">page_increments : size_t</text><ellipse cx="176.5" cy="442.8516" rx="3" ry="3" style="stroke:#038048;stroke-width:1.0;fill:none;"/><text fill="#000000" font-family="sans-serif" font-size="11" lengthAdjust="spacing" textLength="123" x="185.5" y="446.062">page_inc_val : double</text><ellipse cx="176.5" cy="455.6563" rx="3" ry="3" style="stroke:#038048;stroke-width:1.0;fill:none;"/><text fill="#000000" font-family="sans-serif" font-size="11" lengthAdjust="spacing" textLength="118" x="185.5" y="458.8667">scroller_pos : double</text><ellipse cx="176.5" cy="468.4609" rx="3" ry="3" style="stroke:#038048;stroke-width:1.0;fill:none;"/><text fill="#000000" font-family="sans-serif" font-size="11" lengthAdjust="spacing" textLength="114" x="185.5" y="471.6714">scroller_size : size_t</text><!--MD5=[d0a9da33539d453c59f47ad9daef1680]
class ScrollBar--><rect codeLine="36" fill="#FEFECE" filter="url(#f8d15pwre7z5q)" height="176.0469" id="ScrollBar" style="stroke:#A80036;stroke-width:1.5;" width="555" x="32.5" y="7"/><ellipse cx="279.25" cy="23" fill="#B4A7E5" rx="11" ry="11" style="stroke:#A80036;stroke-width:1.0;"/><path d="M275.6719,18.7813 L275.6719,16.5 L283.0625,16.5 L283.0625,18.7813 L280.5938,18.7813 L280.5938,27.2344 L283.0625,27.2344 L283.0625,29.5 L275.6719,29.5 L275.6719,27.2344 L278.1406,27.2344 L278.1406,18.7813 L275.6719,18.7813 Z " fill="#000000"/><text fill="#000000" font-family="sans-serif" font-size="12" font-style="italic" lengthAdjust="spacing" textLength="53" x="299.75" y="27.1543">ScrollBar</text><line style="stroke:#A80036;stroke-width:1.5;" x1="33.5" x2="586.5" y1="39" y2="39"/><line style="stroke:#A80036;stroke-width:1.5;" x1="33.5" x2="586.5" y1="47" y2="47"/><ellipse cx="43.5" cy="58" fill="#84BE84" rx="3" ry="3" style="stroke:#038048;stroke-width:1.0;"/><text fill="#000000" font-family="sans-serif" font-size="11" lengthAdjust="spacing" textLength="529" x="52.5" y="61.2104">init( const WindowProperty_t * canvas, ScrollBar_Pos_e pos, bool always_show ) : ScrollBar_t</text><ellipse cx="43.5" cy="70.8047" fill="#84BE84" rx="3" ry="3" style="stroke:#038048;stroke-width:1.0;"/><text fill="#000000" font-family="sans-serif" font-size="11" lengthAdjust="spacing" textLength="236" x="52.5" y="74.0151">setRedraw( ScrollBar_t * scrollbar ) : void</text><ellipse cx="43.5" cy="83.6094" fill="#84BE84" rx="3" ry="3" style="stroke:#038048;stroke-width:1.0;"/><text fill="#000000" font-family="sans-serif" font-size="11" lengthAdjust="spacing" textLength="376" x="52.5" y="86.8198">setScrollLength( ScrollBar_t * scrollbar, size_t content_size ) : void</text><ellipse cx="43.5" cy="96.4141" fill="#84BE84" rx="3" ry="3" style="stroke:#038048;stroke-width:1.0;"/><text fill="#000000" font-family="sans-serif" font-size="11" lengthAdjust="spacing" textLength="343" x="52.5" y="99.6245">setAlwaysShowFlag( ScrollBar_t * scrollbar, bool flag ) : void</text><ellipse cx="43.5" cy="109.2188" fill="#84BE84" rx="3" ry="3" style="stroke:#038048;stroke-width:1.0;"/><text fill="#000000" font-family="sans-serif" font-size="11" lengthAdjust="spacing" textLength="301" x="52.5" y="112.4292">setPosition( ScrollBar_t * scrollbar, size_t pos ) : bool</text><ellipse cx="43.5" cy="122.0234" fill="#84BE84" rx="3" ry="3" style="stroke:#038048;stroke-width:1.0;"/><text fill="#000000" font-family="sans-serif" font-size="11" lengthAdjust="spacing" textLength="327" x="52.5" y="125.2339">getTotalIncrements( const ScrollBar_t * scrollbar ) : size_t</text><ellipse cx="43.5" cy="134.8281" fill="#84BE84" rx="3" ry="3" style="stroke:#038048;stroke-width:1.0;"/><text fill="#000000" font-family="sans-serif" font-size="11" lengthAdjust="spacing" textLength="235" x="52.5" y="138.0386">initCanvas( ScrollBar_t * scrollbar ) : void</text><ellipse cx="43.5" cy="147.6328" fill="#84BE84" rx="3" ry="3" style="stroke:#038048;stroke-width:1.0;"/><text fill="#000000" font-family="sans-serif" font-size="11" lengthAdjust="spacing" textLength="205" x="52.5" y="150.8433">show( ScrollBar_t * scrollbar ) : bool</text><ellipse cx="43.5" cy="160.4375" fill="#84BE84" rx="3" ry="3" style="stroke:#038048;stroke-width:1.0;"/><text fill="#000000" font-family="sans-serif" font-size="11" lengthAdjust="spacing" textLength="200" x="52.5" y="163.6479">hide( ScrollBar_t * scrollbar ) : void</text><ellipse cx="43.5" cy="173.2422" fill="#84BE84" rx="3" ry="3" style="stroke:#038048;stroke-width:1.0;"/><text fill="#000000" font-family="sans-serif" font-size="11" lengthAdjust="spacing" textLength="199" x="52.5" y="176.4526">free( ScrollBar_t * scrollbar ) : void</text><!--MD5=[03ad1d849829f5a0f9edf15b22ea3602]
link ScrollBar to ScrollBar_t--><path codeLine="49" d="M310,183.01 C310,200.55 310,219.29 310,237.76 " fill="none" id="ScrollBar-to-ScrollBar_t" style="stroke:#A80036;stroke-width:1.0;"/><polygon fill="#A80036" points="310,242.97,314,233.97,310,237.97,306,233.97,310,242.97" style="stroke:#A80036;stroke-width:1.0;"/><!--MD5=[408cb389d02a0965d566f7d375e7a209]
link ScrollBar to ScrollBar_Pos_e--><path codeLine="50" d="M206.59,183.05 C186.3,201.98 165.8,222.49 148,243 C131.03,262.55 114.57,285.88 101.11,306.51 " fill="none" id="ScrollBar-to-ScrollBar_Pos_e" style="stroke:#A80036;stroke-width:1.0;"/><polygon fill="#A80036" points="98.28,310.86,106.5245,305.4722,100.9939,306.6606,99.8055,301.13,98.28,310.86" style="stroke:#A80036;stroke-width:1.0;"/><!--MD5=[49b7ba3146cf0288684c26b495610f5d]
link ScrollBar to WindowProperty_t--><path codeLine="51" d="M412.18,183.37 C432.67,202.36 453.55,222.81 472,243 C490.11,262.82 508.31,286.19 523.41,306.77 " fill="none" id="ScrollBar-to-WindowProperty_t" style="stroke:#A80036;stroke-width:1.0;"/><polygon fill="#A80036" points="526.39,310.85,524.3111,301.223,523.4406,306.8125,517.8512,305.942,526.39,310.85" style="stroke:#A80036;stroke-width:1.0;"/><!--MD5=[8ea5de25146481060d812f5208497164]
reverse link ScrollBar_Pos_e to ScrollBar_t--><path codeLine="52" d="M136.21,360.5 C145.93,360.5 155.65,360.5 165.37,360.5 " fill="none" id="ScrollBar_Pos_e-backto-ScrollBar_t" style="stroke:#A80036;stroke-width:1.0;"/><polygon fill="#A80036" points="131.13,360.5,140.13,364.5,136.13,360.5,140.13,356.5,131.13,360.5" style="stroke:#A80036;stroke-width:1.0;"/><!--MD5=[986b1949b6307b5f713a4ea64322a253]
link ScrollBar_t to WindowProperty_t--><path codeLine="53" d="M454.53,360.5 C464.24,360.5 473.94,360.5 483.65,360.5 " fill="none" id="ScrollBar_t-to-WindowProperty_t" style="stroke:#A80036;stroke-width:1.0;"/><polygon fill="#A80036" points="488.73,360.5,479.73,356.5,483.73,360.5,479.73,364.5,488.73,360.5" style="stroke:#A80036;stroke-width:1.0;"/><!--MD5=[a6c46c07b14cc543e65b9201acff9a39]
@startuml
'https://plantuml.com/class-diagram

class WindowProperty_t {
    + rows : int
    + cols : int
    + pos_y : int
    + pos_x : int
}

enum ScrollBar_Pos_e {
    TOP = 0
    BOTTOM
    LEFT
    RIGHT
}

class ScrollBar_t {
    + redraw : bool
    + canvas_properties : const WindowProperty_t *
    + bar_position : ScrollBar_Pos_e
    + canvas_panel : PANEL *
    + canvas_win : WINDOW *
    - - - -
    <b>properties</b>
    - - - -
    + always_show : bool
    + bar_length : size_t
    + scroll_length : size_t
    + page_count : size_t
    + page_increments : size_t
    + page_inc_val : double
    + scroller_pos : double
    + scroller_size : size_t
}

interface ScrollBar {
    + init( const WindowProperty_t * canvas, ScrollBar_Pos_e pos, bool always_show ) : ScrollBar_t
    + setRedraw( ScrollBar_t * scrollbar ) : void
    + setScrollLength( ScrollBar_t * scrollbar, size_t content_size ) : void
    + setAlwaysShowFlag( ScrollBar_t * scrollbar, bool flag ) : void
    + setPosition( ScrollBar_t * scrollbar, size_t pos ) : bool
    + getTotalIncrements( const ScrollBar_t * scrollbar ) : size_t
    + initCanvas( ScrollBar_t * scrollbar ) : void
    + show( ScrollBar_t * scrollbar ) : bool
    + hide( ScrollBar_t * scrollbar ) : void
    + free( ScrollBar_t * scrollbar ) : void
}

ScrollBar - -> ScrollBar_t
ScrollBar - -> ScrollBar_Pos_e
ScrollBar - -> WindowProperty_t
ScrollBar_t -left-> ScrollBar_Pos_e
ScrollBar_t -right-> WindowProperty_t
@enduml

@startuml

class WindowProperty_t {
    + rows : int
    + cols : int
    + pos_y : int
    + pos_x : int
}

enum ScrollBar_Pos_e {
    TOP = 0
    BOTTOM
    LEFT
    RIGHT
}

class ScrollBar_t {
    + redraw : bool
    + canvas_properties : const WindowProperty_t *
    + bar_position : ScrollBar_Pos_e
    + canvas_panel : PANEL *
    + canvas_win : WINDOW *
    - - - -
    <b>properties</b>
    - - - -
    + always_show : bool
    + bar_length : size_t
    + scroll_length : size_t
    + page_count : size_t
    + page_increments : size_t
    + page_inc_val : double
    + scroller_pos : double
    + scroller_size : size_t
}

interface ScrollBar {
    + init( const WindowProperty_t * canvas, ScrollBar_Pos_e pos, bool always_show ) : ScrollBar_t
    + setRedraw( ScrollBar_t * scrollbar ) : void
    + setScrollLength( ScrollBar_t * scrollbar, size_t content_size ) : void
    + setAlwaysShowFlag( ScrollBar_t * scrollbar, bool flag ) : void
    + setPosition( ScrollBar_t * scrollbar, size_t pos ) : bool
    + getTotalIncrements( const ScrollBar_t * scrollbar ) : size_t
    + initCanvas( ScrollBar_t * scrollbar ) : void
    + show( ScrollBar_t * scrollbar ) : bool
    + hide( ScrollBar_t * scrollbar ) : void
    + free( ScrollBar_t * scrollbar ) : void
}

ScrollBar - -> ScrollBar_t
ScrollBar - -> ScrollBar_Pos_e
ScrollBar - -> WindowProperty_t
ScrollBar_t -left-> ScrollBar_Pos_e
ScrollBar_t -right-> WindowProperty_t
@enduml

PlantUML version 1.2021.7(Sun May 23 14:40:07 CEST 2021)
(GPL source distribution)
Java Runtime: OpenJDK Runtime Environment
JVM: OpenJDK 64-Bit Server VM
Default Encoding: UTF-8
Language: en
Country: GB
--></g></svg>