<?xml version="1.0" encoding="UTF-8" standalone="no"?><svg xmlns="http://www.w3.org/2000/svg" xmlns:xlink="http://www.w3.org/1999/xlink" contentScriptType="application/ecmascript" contentStyleType="text/css" height="689px" preserveAspectRatio="none" style="width:529px;height:689px;background:#FFFFFF;" version="1.1" viewBox="0 0 529 689" width="529px" zoomAndPan="magnify"><defs><filter height="300%" id="f93od1j6d2f49" width="300%" x="-1" y="-1"><feGaussianBlur result="blurOut" stdDeviation="2.0"/><feColorMatrix in="blurOut" result="blurOut2" type="matrix" values="0 0 0 0 0 0 0 0 0 0 0 0 0 0 0 0 0 0 .4 0"/><feOffset dx="4.0" dy="4.0" in="blurOut2" result="blurOut3"/><feBlend in="SourceGraphic" in2="blurOut3" mode="normal"/></filter></defs><g><rect fill="#FFD700" height="677.8516" style="stroke:#A80036;stroke-width:1.0;" width="78" x="428" y="6"/><rect fill="#ADD8E6" filter="url(#f93od1j6d2f49)" height="145.6641" style="stroke:#000000;stroke-width:2.0;" width="502" x="10" y="308.2266"/><rect fill="#90EE90" filter="url(#f93od1j6d2f49)" height="88.3984" style="stroke:#000000;stroke-width:2.0;" width="407" x="105" y="467.8906"/><line style="stroke:#A80036;stroke-width:1.0;stroke-dasharray:5.0,5.0;" x1="36" x2="36" y1="45.2969" y2="645.5547"/><line style="stroke:#A80036;stroke-width:1.0;stroke-dasharray:5.0,5.0;" x1="147" x2="147" y1="45.2969" y2="645.5547"/><line style="stroke:#A80036;stroke-width:1.0;stroke-dasharray:5.0,5.0;" x1="467" x2="467" y1="45.2969" y2="645.5547"/><rect fill="#FEFECE" filter="url(#f93od1j6d2f49)" height="30.2969" style="stroke:#A80036;stroke-width:1.5;" width="28" x="20" y="10"/><text fill="#000000" font-family="sans-serif" font-size="14" lengthAdjust="spacing" textLength="14" x="27" y="29.9951">UI</text><rect fill="#FEFECE" filter="url(#f93od1j6d2f49)" height="30.2969" style="stroke:#A80036;stroke-width:1.5;" width="28" x="20" y="644.5547"/><text fill="#000000" font-family="sans-serif" font-size="14" lengthAdjust="spacing" textLength="14" x="27" y="664.5498">UI</text><rect fill="#FEFECE" filter="url(#f93od1j6d2f49)" height="30.2969" style="stroke:#A80036;stroke-width:1.5;" width="60" x="115" y="10"/><text fill="#000000" font-family="sans-serif" font-size="14" lengthAdjust="spacing" textLength="46" x="122" y="29.9951">Dialog</text><rect fill="#FEFECE" filter="url(#f93od1j6d2f49)" height="30.2969" style="stroke:#A80036;stroke-width:1.5;" width="60" x="115" y="644.5547"/><text fill="#000000" font-family="sans-serif" font-size="14" lengthAdjust="spacing" textLength="46" x="122" y="664.5498">Dialog</text><rect fill="#FEFECE" filter="url(#f93od1j6d2f49)" height="30.2969" style="stroke:#A80036;stroke-width:1.5;" width="66" x="432" y="10"/><text fill="#000000" font-family="sans-serif" font-size="14" lengthAdjust="spacing" textLength="52" x="439" y="29.9951">Resizer</text><rect fill="#FEFECE" filter="url(#f93od1j6d2f49)" height="30.2969" style="stroke:#A80036;stroke-width:1.5;" width="66" x="432" y="644.5547"/><text fill="#000000" font-family="sans-serif" font-size="14" lengthAdjust="spacing" textLength="52" x="439" y="664.5498">Resizer</text><rect fill="#EEEEEE" filter="url(#f93od1j6d2f49)" height="3" style="stroke:#EEEEEE;stroke-width:1.0;" width="522" x="0" y="75.8633"/><line style="stroke:#000000;stroke-width:1.0;" x1="0" x2="522" y1="75.8633" y2="75.8633"/><line style="stroke:#000000;stroke-width:1.0;" x1="0" x2="522" y1="78.8633" y2="78.8633"/><rect fill="#EEEEEE" filter="url(#f93od1j6d2f49)" height="23.1328" style="stroke:#000000;stroke-width:2.0;" width="148" x="187" y="65.2969"/><text fill="#000000" font-family="sans-serif" font-size="13" font-weight="bold" lengthAdjust="spacing" textLength="129" x="193" y="81.3638">Preliminary setup</text><polygon fill="#A80036" points="455,115.5625,465,119.5625,455,123.5625,459,119.5625" style="stroke:#A80036;stroke-width:1.0;"/><line style="stroke:#A80036;stroke-width:1.0;" x1="36" x2="461" y1="119.5625" y2="119.5625"/><text fill="#000000" font-family="monospace" font-size="13" lengthAdjust="spacing" textLength="112" x="43" y="114.4966">Resizer.init()</text><polygon fill="#A80036" points="455,144.6953,465,148.6953,455,152.6953,459,148.6953" style="stroke:#A80036;stroke-width:1.0;"/><line style="stroke:#A80036;stroke-width:1.0;" x1="36" x2="461" y1="148.6953" y2="148.6953"/><text fill="#000000" font-family="monospace" font-size="13" lengthAdjust="spacing" textLength="248" x="43" y="143.6294">Resizer.push( UI.resize, NULL )</text><rect fill="#EEEEEE" filter="url(#f93od1j6d2f49)" height="3" style="stroke:#EEEEEE;stroke-width:1.0;" width="522" x="0" y="177.2617"/><line style="stroke:#000000;stroke-width:1.0;" x1="0" x2="522" y1="177.2617" y2="177.2617"/><line style="stroke:#000000;stroke-width:1.0;" x1="0" x2="522" y1="180.2617" y2="180.2617"/><rect fill="#EEEEEE" filter="url(#f93od1j6d2f49)" height="23.1328" style="stroke:#000000;stroke-width:2.0;" width="143" x="189.5" y="166.6953"/><text fill="#000000" font-family="sans-serif" font-size="13" font-weight="bold" lengthAdjust="spacing" textLength="124" x="195.5" y="182.7622">Open new Dialog</text><polygon fill="#A80036" points="455,216.9609,465,220.9609,455,224.9609,459,220.9609" style="stroke:#A80036;stroke-width:1.0;"/><line style="stroke:#A80036;stroke-width:1.0;" x1="147" x2="461" y1="220.9609" y2="220.9609"/><text fill="#000000" font-family="monospace" font-size="13" lengthAdjust="spacing" textLength="224" x="154" y="215.895">Resizer.push( Dialog.resize,</text><text fill="#000000" font-family="monospace" font-size="13" font-style="italic" lengthAdjust="spacing" textLength="48" x="386" y="215.895">dialog</text><text fill="#000000" font-family="monospace" font-size="13" lengthAdjust="spacing" textLength="8" x="442" y="215.895">)</text><rect fill="#EEEEEE" filter="url(#f93od1j6d2f49)" height="3" style="stroke:#EEEEEE;stroke-width:1.0;" width="522" x="0" y="249.5273"/><line style="stroke:#000000;stroke-width:1.0;" x1="0" x2="522" y1="249.5273" y2="249.5273"/><line style="stroke:#000000;stroke-width:1.0;" x1="0" x2="522" y1="252.5273" y2="252.5273"/><rect fill="#EEEEEE" filter="url(#f93od1j6d2f49)" height="23.1328" style="stroke:#000000;stroke-width:2.0;" width="113" x="204.5" y="238.9609"/><text fill="#000000" font-family="sans-serif" font-size="13" font-weight="bold" lengthAdjust="spacing" textLength="94" x="210.5" y="255.0278">Resize event</text><polygon fill="#A80036" points="455,289.2266,465,293.2266,455,297.2266,459,293.2266" style="stroke:#A80036;stroke-width:1.0;"/><line style="stroke:#A80036;stroke-width:1.0;" x1="147" x2="461" y1="293.2266" y2="293.2266"/><text fill="#000000" font-family="monospace" font-size="13" lengthAdjust="spacing" textLength="128" x="154" y="288.1606">Resizer.resize()</text><path d="M10,308.2266 L133,308.2266 L133,315.2266 L123,325.2266 L10,325.2266 L10,308.2266 " fill="#EEEEEE" style="stroke:#000000;stroke-width:1.0;"/><rect fill="none" height="145.6641" style="stroke:#000000;stroke-width:2.0;" width="502" x="10" y="308.2266"/><text fill="#000000" font-family="sans-serif" font-size="13" font-weight="bold" lengthAdjust="spacing" textLength="78" x="25" y="321.2935">UI resizing</text><polygon fill="#A80036" points="47,342.4922,37,346.4922,47,350.4922,43,346.4922" style="stroke:#A80036;stroke-width:1.0;"/><line style="stroke:#A80036;stroke-width:1.0;" x1="41" x2="466" y1="346.4922" y2="346.4922"/><text fill="#000000" font-family="monospace" font-size="13" lengthAdjust="spacing" textLength="136" x="53" y="341.4263">UI.resize( NULL )</text><line style="stroke:#A80036;stroke-width:1.0;" x1="36" x2="78" y1="390.7578" y2="390.7578"/><line style="stroke:#A80036;stroke-width:1.0;" x1="78" x2="78" y1="390.7578" y2="403.7578"/><line style="stroke:#A80036;stroke-width:1.0;" x1="37" x2="78" y1="403.7578" y2="403.7578"/><polygon fill="#A80036" points="47,399.7578,37,403.7578,47,407.7578,43,403.7578" style="stroke:#A80036;stroke-width:1.0;"/><text fill="#000000" font-family="sans-serif" font-size="13" lengthAdjust="spacing" textLength="97" x="43" y="370.5591">re-calculate all</text><text fill="#000000" font-family="sans-serif" font-size="13" lengthAdjust="spacing" textLength="87" x="43" y="385.6919">window sizes</text><line style="stroke:#A80036;stroke-width:1.0;" x1="36" x2="78" y1="432.8906" y2="432.8906"/><line style="stroke:#A80036;stroke-width:1.0;" x1="78" x2="78" y1="432.8906" y2="445.8906"/><line style="stroke:#A80036;stroke-width:1.0;" x1="37" x2="78" y1="445.8906" y2="445.8906"/><polygon fill="#A80036" points="47,441.8906,37,445.8906,47,449.8906,43,445.8906" style="stroke:#A80036;stroke-width:1.0;"/><text fill="#000000" font-family="sans-serif" font-size="13" lengthAdjust="spacing" textLength="64" x="43" y="427.8247">repaint UI</text><path d="M105,467.8906 L258,467.8906 L258,474.8906 L248,484.8906 L105,484.8906 L105,467.8906 " fill="#EEEEEE" style="stroke:#000000;stroke-width:1.0;"/><rect fill="none" height="88.3984" style="stroke:#000000;stroke-width:2.0;" width="407" x="105" y="467.8906"/><text fill="#000000" font-family="sans-serif" font-size="13" font-weight="bold" lengthAdjust="spacing" textLength="108" x="120" y="480.9575">Dialog resizing</text><polygon fill="#A80036" points="158,502.1563,148,506.1563,158,510.1563,154,506.1563" style="stroke:#A80036;stroke-width:1.0;"/><line style="stroke:#A80036;stroke-width:1.0;" x1="152" x2="466" y1="506.1563" y2="506.1563"/><text fill="#000000" font-family="monospace" font-size="13" lengthAdjust="spacing" textLength="112" x="164" y="501.0903">Dialog.resize(</text><text fill="#000000" font-family="monospace" font-size="13" font-style="italic" lengthAdjust="spacing" textLength="48" x="284" y="501.0903">dialog</text><text fill="#000000" font-family="monospace" font-size="13" lengthAdjust="spacing" textLength="8" x="340" y="501.0903">)</text><line style="stroke:#A80036;stroke-width:1.0;" x1="147" x2="189" y1="535.2891" y2="535.2891"/><line style="stroke:#A80036;stroke-width:1.0;" x1="189" x2="189" y1="535.2891" y2="548.2891"/><line style="stroke:#A80036;stroke-width:1.0;" x1="148" x2="189" y1="548.2891" y2="548.2891"/><polygon fill="#A80036" points="158,544.2891,148,548.2891,158,552.2891,154,548.2891" style="stroke:#A80036;stroke-width:1.0;"/><text fill="#000000" font-family="sans-serif" font-size="13" lengthAdjust="spacing" textLength="46" x="154" y="530.2231">repaint</text><text fill="#000000" font-family="sans-serif" font-size="13" font-style="italic" lengthAdjust="spacing" textLength="40" x="204" y="530.2231">dialog</text><rect fill="#EEEEEE" filter="url(#f93od1j6d2f49)" height="3" style="stroke:#EEEEEE;stroke-width:1.0;" width="522" x="0" y="583.8555"/><line style="stroke:#000000;stroke-width:1.0;" x1="0" x2="522" y1="583.8555" y2="583.8555"/><line style="stroke:#000000;stroke-width:1.0;" x1="0" x2="522" y1="586.8555" y2="586.8555"/><rect fill="#EEEEEE" filter="url(#f93od1j6d2f49)" height="23.1328" style="stroke:#000000;stroke-width:2.0;" width="110" x="206" y="573.2891"/><text fill="#000000" font-family="sans-serif" font-size="13" font-weight="bold" lengthAdjust="spacing" textLength="91" x="212" y="589.356">Close Dialog</text><polygon fill="#A80036" points="455,623.5547,465,627.5547,455,631.5547,459,627.5547" style="stroke:#A80036;stroke-width:1.0;"/><line style="stroke:#A80036;stroke-width:1.0;" x1="147" x2="461" y1="627.5547" y2="627.5547"/><text fill="#000000" font-family="monospace" font-size="13" lengthAdjust="spacing" textLength="104" x="154" y="622.4888">Resizer.pop()</text><!--MD5=[0a194247b827d9da919a191af15c5426]
@startuml
'https://plantuml.com/sequence-diagram

participant UI
participant Dialog
box #gold
    participant Resizer
end box
== Preliminary setup ==
UI -> Resizer : ""Resizer.init()""
UI -> Resizer : ""Resizer.push( UI.resize, NULL )""

== Open new Dialog ==
Dialog -> Resizer : ""Resizer.push( Dialog.resize, //dialog// )""

== Resize event ==
Dialog -> Resizer : ""Resizer.resize()""
group #lightblue UI resizing
Resizer -> UI : ""UI.resize( NULL )""
UI -> UI : re-calculate all\nwindow sizes
UI -> UI : repaint UI
end group
group #lightgreen Dialog resizing
Resizer -> Dialog : ""Dialog.resize( //dialog// )""
Dialog -> Dialog : repaint //dialog//
end group

== Close Dialog ==
Dialog -> Resizer : ""Resizer.pop()""
@enduml

@startuml

participant UI
participant Dialog
box #gold
    participant Resizer
end box
== Preliminary setup ==
UI -> Resizer : ""Resizer.init()""
UI -> Resizer : ""Resizer.push( UI.resize, NULL )""

== Open new Dialog ==
Dialog -> Resizer : ""Resizer.push( Dialog.resize, //dialog// )""

== Resize event ==
Dialog -> Resizer : ""Resizer.resize()""
group #lightblue UI resizing
Resizer -> UI : ""UI.resize( NULL )""
UI -> UI : re-calculate all\nwindow sizes
UI -> UI : repaint UI
end group
group #lightgreen Dialog resizing
Resizer -> Dialog : ""Dialog.resize( //dialog// )""
Dialog -> Dialog : repaint //dialog//
end group

== Close Dialog ==
Dialog -> Resizer : ""Resizer.pop()""
@enduml

PlantUML version 1.2021.7(Sun May 23 14:40:07 CEST 2021)
(GPL source distribution)
Java Runtime: OpenJDK Runtime Environment
JVM: OpenJDK 64-Bit Server VM
Default Encoding: UTF-8
Language: en
Country: GB
--></g></svg>