<?xml version="1.0" encoding="UTF-8" standalone="no"?>
<svg
   xmlns:dc="http://purl.org/dc/elements/1.1/"
   xmlns:cc="http://creativecommons.org/ns#"
   xmlns:rdf="http://www.w3.org/1999/02/22-rdf-syntax-ns#"
   xmlns:svg="http://www.w3.org/2000/svg"
   xmlns="http://www.w3.org/2000/svg"
   height="636"
   width="636"
   xml:space="preserve"
   viewBox="0 0 636.00002 636.00002"
   y="0px"
   x="0px"
   id="Layer_1"
   version="1.1"><metadata
   id="metadata93"><rdf:RDF><cc:Work
       rdf:about=""><dc:format>image/svg+xml</dc:format><dc:type
         rdf:resource="http://purl.org/dc/dcmitype/StillImage" /><dc:title></dc:title></cc:Work></rdf:RDF></metadata><defs
   id="defs91" />











<g
   transform="translate(52.565865,156.69759)"
   id="g58">
</g>
<g
   transform="translate(52.565865,156.69759)"
   id="g60">
</g>
<g
   transform="translate(52.565865,156.69759)"
   id="g62">
</g>
<g
   transform="translate(52.565865,156.69759)"
   id="g64">
</g>
<g
   transform="translate(52.565865,156.69759)"
   id="g66">
</g>
<g
   transform="translate(52.565865,156.69759)"
   id="g68">
</g>
<g
   transform="translate(52.565865,156.69759)"
   id="g70">
</g>
<g
   transform="translate(52.565865,156.69759)"
   id="g72">
</g>
<g
   transform="translate(52.565865,156.69759)"
   id="g74">
</g>
<g
   transform="translate(52.565865,156.69759)"
   id="g76">
</g>
<g
   transform="translate(52.565865,156.69759)"
   id="g78">
</g>
<g
   transform="translate(52.565865,156.69759)"
   id="g80">
</g>
<g
   transform="translate(52.565865,156.69759)"
   id="g82">
</g>
<g
   transform="translate(52.565865,156.69759)"
   id="g84">
</g>
<g
   transform="translate(52.565865,156.69759)"
   id="g86">
</g>
<g
   transform="translate(62.0095,156.018)"
   id="g999"><circle
     style="fill:#656d78"
     cx="85.32"
     cy="437.311"
     r="31.999001"
     id="circle2" /><path
     style="fill:#434a54"
     d="m 85.324,479.982 c -23.53,0 -42.67,-19.141 -42.67,-42.67 0,-23.514 19.14,-42.654 42.67,-42.654 23.515,0 42.67,19.141 42.67,42.654 0.001,23.53 -19.154,42.67 -42.67,42.67 z m 0,-63.996 c -11.765,0 -21.327,9.561 -21.327,21.326 0,11.765 9.562,21.344 21.327,21.344 11.766,0 21.328,-9.578 21.328,-21.344 0,-11.766 -9.562,-21.326 -21.328,-21.326 z"
     id="path4" /><circle
     style="fill:#656d78"
     cx="426.64001"
     cy="437.311"
     r="31.999001"
     id="circle6" /><g
     id="g14">
	<path
   style="fill:#434a54"
   d="m 426.64,479.982 c -23.53,0 -42.655,-19.141 -42.655,-42.67 0,-23.514 19.125,-42.654 42.655,-42.654 23.529,0 42.67,19.141 42.67,42.654 0,23.53 -19.14,42.67 -42.67,42.67 z m 0,-63.996 c -11.766,0 -21.327,9.561 -21.327,21.326 0,11.765 9.562,21.344 21.327,21.344 11.764,0 21.342,-9.578 21.342,-21.344 0,-11.766 -9.578,-21.326 -21.342,-21.326 z"
   id="path8" />
	<path
   style="fill:#434a54"
   d="m 77.778,429.781 c -4.156,4.156 -4.156,10.906 0,15.078 4.172,4.172 10.921,4.172 15.093,0 4.156,-4.172 4.156,-10.922 0,-15.078 -4.172,-4.172 -10.921,-4.172 -15.093,0 z"
   id="path10" />
	<path
   style="fill:#434a54"
   d="m 434.185,429.781 c 4.172,4.156 4.172,10.906 0,15.078 -4.172,4.172 -10.92,4.172 -15.092,0 -4.156,-4.172 -4.156,-10.922 0,-15.078 4.172,-4.172 10.92,-4.172 15.092,0 z"
   id="path12" />
</g><g
     id="g20">
	<path
   style="fill:#aab2bc"
   d="M 127.995,383.986 H 74.653 c -5.891,0 -10.656,4.781 -10.656,10.672 v 31.998 c 0,5.891 4.765,10.656 10.656,10.656 h 21.343 c 2.828,0 5.531,-1.125 7.531,-3.125 l 31.999,-31.998 c 3.047,-3.047 3.969,-7.641 2.312,-11.625 -1.657,-3.984 -5.531,-6.578 -9.843,-6.578 z"
   id="path16" />
	<path
   style="fill:#aab2bc"
   d="m 437.31,383.986 h -53.325 c -4.328,0 -8.219,2.594 -9.859,6.578 -1.656,3.984 -0.734,8.578 2.312,11.625 l 32,31.998 c 2,2 4.702,3.125 7.546,3.125 h 21.326 c 5.891,0 10.672,-4.766 10.672,-10.656 v -31.998 c 0,-5.891 -4.781,-10.672 -10.672,-10.672 z"
   id="path18" />
</g><path
     style="fill:#967adc"
     d="M 479.981,106.669 H 31.999 c -5.906,0 -10.672,4.766 -10.672,10.656 v 277.333 c 0,5.891 4.766,10.656 10.672,10.656 h 447.982 c 5.875,0 10.656,-4.766 10.656,-10.656 V 117.324 c 0,-5.89 -4.781,-10.655 -10.656,-10.655 z"
     id="path22" /><g
     style="opacity:0.1"
     id="g44">
	<path
   style="fill:#080808"
   d="m 405.313,138.667 c -5.891,0 -10.672,-4.781 -10.672,-10.671 v -10.671 c 0,-5.89 4.781,-10.656 10.672,-10.656 5.891,0 10.655,4.766 10.655,10.656 v 10.671 c 10e-4,5.891 -4.764,10.671 -10.655,10.671 z"
   id="path24" />
	<path
   style="fill:#080808"
   d="m 447.982,138.667 c -5.906,0 -10.672,-4.781 -10.672,-10.671 v -10.671 c 0,-5.89 4.766,-10.656 10.672,-10.656 5.875,0 10.656,4.766 10.656,10.656 v 10.671 c 0,5.891 -4.781,10.671 -10.656,10.671 z"
   id="path26" />
	<path
   style="fill:#080808"
   d="m 362.641,138.667 c -5.89,0 -10.671,-4.781 -10.671,-10.671 v -10.671 c 0,-5.89 4.781,-10.656 10.671,-10.656 5.891,0 10.672,4.766 10.672,10.656 v 10.671 c 0,5.891 -4.781,10.671 -10.672,10.671 z"
   id="path28" />
	<path
   style="fill:#080808"
   d="m 319.987,138.667 c -5.906,0 -10.671,-4.781 -10.671,-10.671 v -10.671 c 0,-5.89 4.765,-10.656 10.671,-10.656 5.875,0 10.656,4.766 10.656,10.656 v 10.671 c 0,5.891 -4.781,10.671 -10.656,10.671 z"
   id="path30" />
	<path
   style="fill:#080808"
   d="m 277.318,138.667 c -5.891,0 -10.672,-4.781 -10.672,-10.671 v -10.671 c 0,-5.89 4.781,-10.656 10.672,-10.656 5.89,0 10.671,4.766 10.671,10.656 v 10.671 c 0,5.891 -4.781,10.671 -10.671,10.671 z"
   id="path32" />
	<path
   style="fill:#080808"
   d="m 234.647,138.667 c -5.89,0 -10.671,-4.781 -10.671,-10.671 v -10.671 c 0,-5.89 4.781,-10.656 10.671,-10.656 5.891,0 10.672,4.766 10.672,10.656 v 10.671 c 0,5.891 -4.782,10.671 -10.672,10.671 z"
   id="path34" />
	<path
   style="fill:#080808"
   d="m 191.992,138.667 c -5.906,0 -10.672,-4.781 -10.672,-10.671 v -10.671 c 0,-5.89 4.766,-10.656 10.672,-10.656 5.89,0 10.656,4.766 10.656,10.656 v 10.671 c 0,5.891 -4.765,10.671 -10.656,10.671 z"
   id="path36" />
	<path
   style="fill:#080808"
   d="m 149.322,138.667 c -5.89,0 -10.671,-4.781 -10.671,-10.671 v -10.671 c 0,-5.89 4.781,-10.656 10.671,-10.656 5.891,0 10.672,4.766 10.672,10.656 v 10.671 c 0,5.891 -4.781,10.671 -10.672,10.671 z"
   id="path38" />
	<path
   style="fill:#080808"
   d="m 106.652,138.667 c -5.891,0 -10.656,-4.781 -10.656,-10.671 v -10.671 c 0,-5.89 4.765,-10.656 10.656,-10.656 5.891,0 10.671,4.766 10.671,10.656 v 10.671 c 0,5.891 -4.78,10.671 -10.671,10.671 z"
   id="path40" />
	<path
   style="fill:#080808"
   d="m 63.997,138.667 c -5.906,0 -10.671,-4.781 -10.671,-10.671 v -10.671 c 0,-5.89 4.766,-10.656 10.671,-10.656 5.89,0 10.656,4.766 10.656,10.656 v 10.671 c 0,5.891 -4.766,10.671 -10.656,10.671 z"
   id="path42" />
</g><path
     style="fill:#656d78"
     d="M 458.638,32 H 53.326 c -5.89,0 -10.671,4.781 -10.671,10.671 V 74.67 c 0,5.891 4.781,10.656 10.671,10.656 h 405.312 c 5.891,0 10.672,-4.766 10.672,-10.656 V 42.671 C 469.31,36.781 464.529,32 458.638,32 Z"
     id="path46" /><path
     style="fill:#434a54"
     d="M 319.987,85.326 H 191.992 c -5.906,0 -10.672,-4.781 -10.672,-10.671 0,-5.89 4.766,-10.671 10.672,-10.671 h 127.995 c 5.875,0 10.656,4.781 10.656,10.671 0,5.889 -4.781,10.671 -10.656,10.671 z"
     id="path48" /><g
     id="g54">
	<path
   style="opacity:0.1;fill:#080808;enable-background:new"
   d="m 95.996,319.988 c -5.906,0 -10.672,4.781 -10.672,10.672 v 74.654 h 21.328 V 330.66 c 0,-5.891 -4.781,-10.672 -10.656,-10.672 z"
   id="path50" />
	<path
   style="opacity:0.1;fill:#080808;enable-background:new"
   d="m 415.984,319.988 c -5.905,0 -10.671,4.781 -10.671,10.672 v 74.654 H 426.64 V 330.66 c 0,-5.891 -4.781,-10.672 -10.656,-10.672 z"
   id="path52" />
</g><path
     style="fill:#ac92eb"
     d="M 501.308,63.998 H 10.656 C 4.765,63.998 0,68.779 0,74.669 v 42.655 c 0,5.891 4.765,10.671 10.656,10.671 h 490.653 c 5.891,0 10.672,-4.781 10.672,-10.671 V 74.67 C 511.98,68.779 507.199,63.998 501.308,63.998 Z"
     id="path56" /><g
     id="g956"
     transform="matrix(1.1155481,0,0,1.0458043,-27.396051,-3.0697508)"><path
       id="path18-3-1"
       d="m 334.30421,-75.723539 c -16.50136,37.092605 -46.68801,39.929074 -46.68801,39.929074 0,-37.96875 -5.56171,-47.405897 -5.56171,-47.405897 0,29.742195 -29.87579,22.093397 -29.87579,22.093397 -27.054,-27.054 -33.69028,-76.456805 -33.69028,-76.456805 -9.64825,38.086165 -27.64783,18.43926 -39.33629,61.269305 -8.20845,30.078233 8.748,52.164 22.40157,65.8125 0,0 -12.11458,-7.02675 -24.19876,-11.664 6.26738,49.6125 40.72276,87.6015 82.41751,87.6015 46.13457,0 75.28057,-46.384417 75.28057,-104.917047 0,-58.53262 -0.74881,-36.262027 -0.74881,-36.262027 z"
       style="fill:#ebba16;stroke-width:5.0625" /><path
       id="path22-5-0"
       d="m 287.1707,-3.1818345 c 0,16.7771195 -17.89595,31.7874395 -17.89595,31.7874395 0,-13.2435 -6.71287,-26.4920695 -6.71287,-26.4920695 0,10.3730595 -15.65831,10.5958095 -15.65831,10.5958095 -6.99132,-7.5076895 -16.50136,-47.322452 -16.50136,-47.322452 -17.02519,1.77187 -9.05414,30.1048925 -9.05414,45.560712 0,10.92487 3.86775,18.19462 9.89718,22.95843 0,0 -5.35105,-2.45025 -10.692,-4.07025 2.7692,17.30363 17.9972,30.55725 36.41457,30.55725 20.38668,0 36.91068,-14.89893 36.91068,-35.32106 0,-20.4221195 -6.7078,-28.2538095 -6.7078,-28.2538095 z"
       style="fill:#dc691d;stroke-width:5.0625" /></g><g
     id="g960"
     transform="translate(-5.3690182,-14.487102)"><path
       id="path18-3-5"
       d="m 217.85494,-103.14597 c 0,48.093755 -50.47103,102.47607787 -50.47103,102.47607787 C 148.97584,-33.269624 153.73041,-76.91391 153.73041,-76.91391 c -11.81297,29.455445 -11.81297,29.455445 -11.81297,29.455445 -27.054,-27.054 0,-91.125005 0,-91.125005 -38.52563,5.08275 -73.02657,31.64063 -73.02657,75.937505 0,31.32675 8.748,52.164 22.40157,65.812497 0,0 -12.11458,-7.02675 -24.19876,-11.664 6.26738,49.6125 40.72276,87.6015 82.41751,87.6015 46.13457,0 83.53125,-42.71737 83.53125,-101.249997 0,-58.53262 -15.1875,-81.000005 -15.1875,-81.000005 z"
       style="fill:#ebba16;stroke-width:5.0625" /><path
       id="path22-5-5"
       d="M 202.81581,0.45526713 C 186.70876,23.368408 159.01349,42.254102 159.01349,42.254102 c 0,-13.2435 -6.71287,-26.49207 -6.71287,-26.49207 0,10.37306 -15.65831,10.59581 -15.65831,10.59581 -6.99132,-12.876708 -9.97103,-50.496885 -9.97103,-50.496885 -14.72419,18.6459268 -17.11848,33.279325 -15.58447,48.735145 1.079,10.871455 3.86775,18.19462 9.89718,22.95843 0,0 -5.35105,-2.45025 -10.692,-4.07025 2.7692,17.30363 17.9972,30.55725 36.41457,30.55725 20.38668,0 26.09484,-17.998216 36.91068,-35.32106 12.27204,-19.655117 19.19857,-38.26520487 19.19857,-38.26520487 z"
       style="fill:#dc691d;stroke-width:5.0625" /></g><g
     id="g952"
     transform="matrix(-1,0,0,1,771.2801,-5.1774233)"><path
       id="path18-3-56"
       d="m 456.11144,-112.45565 c 0,48.093752 -40.5,81.000002 -40.5,81.000002 0,-37.96875 -12.11949,-44.796914 -12.11949,-44.796914 -6.13602,27.441195 -23.31801,19.484414 -23.31801,19.484414 -27.054,-27.054 0,-91.125002 0,-91.125002 -38.52563,5.08275 -73.02657,31.64063 -73.02657,75.937502 0,31.32675 8.748,52.164 22.40157,65.8124997 0,0 -12.11458,-7.0267497 -24.19876,-11.6639997 6.26738,49.6125 40.72276,87.601501 82.41751,87.601501 46.13457,0 83.53125,-42.717371 83.53125,-101.250001 0,-58.53262 -15.1875,-81.000002 -15.1875,-81.000002 z"
       style="fill:#ebba16;stroke-width:5.0625" /><path
       id="path22-5-9"
       d="m 415.16594,1.1569817 c 0,16.7771203 -17.89595,31.7874403 -17.89595,31.7874403 0,-13.2435 -6.71287,-26.4920703 -6.71287,-26.4920703 0,10.3730603 -15.65831,10.5958103 -15.65831,10.5958103 -6.99132,-7.5076903 0,-28.25381 0,-28.25381 -17.02519,1.7718697 -25.5555,11.03624971 -25.5555,26.49207 0,10.92487 3.86775,18.19462 9.89718,22.95843 0,0 -5.35105,-2.45025 -10.692,-4.07025 2.7692,17.303631 17.9972,30.557251 36.41457,30.557251 20.38668,0 36.91068,-14.89893 36.91068,-35.321061 0,-20.4221203 -6.7078,-28.2538103 -6.7078,-28.2538103 z"
       style="fill:#dc691d;stroke-width:5.0625" /></g></g></svg>