<?xml version="1.0" encoding="UTF-8" standalone="no"?>
<svg
   xmlns:dc="http://purl.org/dc/elements/1.1/"
   xmlns:cc="http://creativecommons.org/ns#"
   xmlns:rdf="http://www.w3.org/1999/02/22-rdf-syntax-ns#"
   xmlns:svg="http://www.w3.org/2000/svg"
   xmlns="http://www.w3.org/2000/svg"
   viewBox="0 0 474.40601 249.39999"
   height="249.39999"
   width="474.40601"
   xml:space="preserve"
   id="svg2"
   version="1.1"><metadata
     id="metadata8"><rdf:RDF><cc:Work
         rdf:about=""><dc:format>image/svg+xml</dc:format><dc:type
           rdf:resource="http://purl.org/dc/dcmitype/StillImage" /><dc:title></dc:title></cc:Work></rdf:RDF></metadata><defs
     id="defs6"><clipPath
       id="clipPath20"
       clipPathUnits="userSpaceOnUse"><path
         id="path18"
         d="m 59.27,179.578 c -7.11,0 -12.895,2.508 -12.895,-4.601 V 12.895 C 46.375,5.785 52.16,0 59.27,0 h 237.203 c 7.109,0 12.89,5.785 12.89,12.895 v 162.082 c 0,7.109 -5.781,4.601 -12.89,4.601 z" /></clipPath><linearGradient
       id="linearGradient28"
       spreadMethod="pad"
       gradientTransform="matrix(0.75,0,0,0.75,-62.0955,-84.9555)"
       gradientUnits="userSpaceOnUse"
       y2="352.25"
       x2="487.73999"
       y1="116.71"
       x1="147.44"><stop
         id="stop24"
         offset="0"
         style="stop-opacity:1;stop-color:#999999" /><stop
         id="stop26"
         offset="1"
         style="stop-opacity:1;stop-color:#4d4d4d" /></linearGradient><clipPath
       id="clipPath38"
       clipPathUnits="userSpaceOnUse"><path
         id="path36"
         d="m 59.27,185.238 c -5.661,0 -10.262,-4.601 -10.262,-10.258 V 12.895 c 0,-5.657 4.601,-10.258 10.262,-10.258 h 237.203 c 5.656,0 10.257,4.601 10.257,10.258 V 174.98 c 0,5.657 -4.601,10.258 -10.257,10.258 z" /></clipPath><linearGradient
       id="linearGradient46"
       spreadMethod="pad"
       gradientTransform="matrix(0.75,0,0,0.75,-62.0955,-84.9555)"
       gradientUnits="userSpaceOnUse"
       y2="195.63"
       x2="154.16"
       y1="282.89999"
       x1="491.5"><stop
         id="stop42"
         offset="0"
         style="stop-opacity:1;stop-color:#999999" /><stop
         id="stop44"
         offset="1"
         style="stop-opacity:1;stop-color:#666666" /></linearGradient><clipPath
       id="clipPath58"
       clipPathUnits="userSpaceOnUse"><path
         id="path56"
         d="m 355.805,181.625 c 0,2.996 -9.2,5.426 -12.707,5.426 H 12.707 C 9.199,187.051 0,184.621 0,181.625 c 0,-2.996 2.844,-5.422 6.352,-5.422 h 343.097 c 3.508,0 6.352,2.43 6.352,5.422 z" /></clipPath><linearGradient
       id="linearGradient72"
       spreadMethod="pad"
       gradientTransform="matrix(0.75,0,0,0.75,-62.0955,-84.9555)"
       gradientUnits="userSpaceOnUse"
       y2="347.67001"
       x2="555.44"
       y1="362.89001"
       x1="85.970001"><stop
         id="stop62"
         offset="0"
         style="stop-opacity:1;stop-color:#666666" /><stop
         id="stop64"
         offset="0.3031"
         style="stop-opacity:1;stop-color:#636363" /><stop
         id="stop66"
         offset="0.5649"
         style="stop-opacity:1;stop-color:#585858" /><stop
         id="stop68"
         offset="0.8107"
         style="stop-opacity:1;stop-color:#464646" /><stop
         id="stop70"
         offset="1"
         style="stop-opacity:1;stop-color:#333333" /></linearGradient><clipPath
       id="clipPath82"
       clipPathUnits="userSpaceOnUse"><path
         id="path80"
         d="m 0.004,170.781 h 355.801 v 10.848 H 0.004 Z" /></clipPath><linearGradient
       id="linearGradient124"
       spreadMethod="pad"
       gradientTransform="matrix(0.75,0,0,0.75,-62.0955,-84.9555)"
       gradientUnits="userSpaceOnUse"
       y2="348.20999"
       x2="557.20001"
       y1="348.20999"
       x1="82.800003"><stop
         id="stop86"
         offset="0"
         style="stop-opacity:1;stop-color:#666666" /><stop
         id="stop88"
         offset="0.002"
         style="stop-opacity:1;stop-color:#777777" /><stop
         id="stop90"
         offset="0.0065"
         style="stop-opacity:1;stop-color:#999999" /><stop
         id="stop92"
         offset="0.0114"
         style="stop-opacity:1;stop-color:#b5b5b5" /><stop
         id="stop94"
         offset="0.0167"
         style="stop-opacity:1;stop-color:#cbcbcb" /><stop
         id="stop96"
         offset="0.0224"
         style="stop-opacity:1;stop-color:#dadada" /><stop
         id="stop98"
         offset="0.0291"
         style="stop-opacity:1;stop-color:#e3e3e3" /><stop
         id="stop100"
         offset="0.0388"
         style="stop-opacity:1;stop-color:#e6e6e6" /><stop
         id="stop102"
         offset="0.0502"
         style="stop-opacity:1;stop-color:#d4d4d4" /><stop
         id="stop104"
         offset="0.0684"
         style="stop-opacity:1;stop-color:#bebebe" /><stop
         id="stop106"
         offset="0.0899"
         style="stop-opacity:1;stop-color:#adadad" /><stop
         id="stop108"
         offset="0.1166"
         style="stop-opacity:1;stop-color:#a2a2a2" /><stop
         id="stop110"
         offset="0.1539"
         style="stop-opacity:1;stop-color:#9b9b9b" /><stop
         id="stop112"
         offset="0.2577"
         style="stop-opacity:1;stop-color:#999999" /><stop
         id="stop114"
         offset="0.9444"
         style="stop-opacity:1;stop-color:#666666" /><stop
         id="stop116"
         offset="0.9518"
         style="stop-opacity:1;stop-color:#7a7a7a" /><stop
         id="stop118"
         offset="0.9668"
         style="stop-opacity:1;stop-color:#afafaf" /><stop
         id="stop120"
         offset="0.9811"
         style="stop-opacity:1;stop-color:#e6e6e6" /><stop
         id="stop122"
         offset="1"
         style="stop-opacity:1;stop-color:#333333" /></linearGradient></defs><g
     transform="matrix(1.3333333,0,0,1.3333333,0,2.2350001e-6)"
     id="g10"><g
       id="g12"><g
         id="g14"><g
           clip-path="url(#clipPath20)"
           id="g16"><g
             id="g22"><path
               id="path30"
               style="fill:url(#linearGradient28);stroke:none"
               d="m 59.27,179.578 c -7.11,0 -12.895,2.508 -12.895,-4.601 V 12.895 C 46.375,5.785 52.16,0 59.27,0 h 237.203 c 7.109,0 12.89,5.785 12.89,12.895 v 162.082 c 0,7.109 -5.781,4.601 -12.89,4.601 z" /></g></g></g><g
         id="g32"><g
           clip-path="url(#clipPath38)"
           id="g34"><g
             id="g40"><path
               id="path48"
               style="fill:url(#linearGradient46);stroke:none"
               d="m 59.27,185.238 c -5.661,0 -10.262,-4.601 -10.262,-10.258 V 12.895 c 0,-5.657 4.601,-10.258 10.262,-10.258 h 237.203 c 5.656,0 10.257,4.601 10.257,10.258 V 174.98 c 0,5.657 -4.601,10.258 -10.257,10.258 z" /></g></g></g><path
         id="path50"
         style="fill:#000000;fill-opacity:1;fill-rule:nonzero;stroke:none"
         d="m 304.977,174.98 c 0,4.696 -3.809,8.504 -8.504,8.504 H 59.27 c -4.7,0 -8.504,-3.808 -8.504,-8.504 V 12.898 c 0,-4.699 3.804,-8.507 8.504,-8.507 h 237.203 c 4.695,0 8.504,3.808 8.504,8.507 z" /><g
         id="g52"><g
           clip-path="url(#clipPath58)"
           id="g54"><g
             id="g60"><path
               id="path74"
               style="fill:url(#linearGradient72);stroke:none"
               d="m 355.805,181.625 c 0,2.996 -9.2,5.426 -12.707,5.426 H 12.707 C 9.199,187.051 0,184.621 0,181.625 c 0,-2.996 2.844,-5.422 6.352,-5.422 h 343.097 c 3.508,0 6.352,2.43 6.352,5.422 z" /></g></g></g><g
         id="g76"><g
           clip-path="url(#clipPath82)"
           id="g78"><g
             id="g84"><path
               id="path126"
               style="fill:url(#linearGradient124);stroke:none"
               d="m 0.004,170.781 h 355.801 v 10.848 H 0.004 Z" /></g></g></g><path
         id="path128"
         style="fill:#484537;fill-opacity:1;fill-rule:nonzero;stroke:none"
         d="M 57.184,11.93 H 298.618 V 158.067 H 57.184 Z" /><path
         id="path130"
         style="fill:#000000;fill-opacity:1;fill-rule:nonzero;stroke:none"
         d="m 338.57,176.352 c 0,0.394 -0.59,0.714 -1.32,0.714 h -6.328 c -0.727,0 -1.317,-0.32 -1.317,-0.714 0,-0.395 0.59,-0.711 1.317,-0.711 h 6.328 c 0.727,0 1.32,0.316 1.32,0.711 z" /><path
         id="path132"
         style="fill:#3e3d3d;fill-opacity:1;fill-rule:nonzero;stroke:none"
         d="m 202.445,174.445 h -49.074 c -1.055,0 -1.914,-0.797 -1.914,-1.781 v -1.785 h 52.898 v 1.785 c 0,0.981 -0.859,1.785 -1.91,1.785 z" /><path
         id="path134"
         style="fill:#1793d1;fill-opacity:1;fill-rule:evenodd;stroke:none"
         d="m 178.766,33.492 c -3.286,8.059 -5.27,13.336 -8.93,21.153 2.246,2.378 5,5.136 9.469,8.261 -4.805,-1.976 -8.082,-3.949 -10.535,-6.011 -4.68,9.773 -12.028,23.675 -26.918,50.425 11.699,-6.754 20.777,-10.914 29.226,-12.504 -0.363,-1.558 -0.562,-3.254 -0.551,-5.015 l 0.012,-0.363 c 0.188,-7.497 4.09,-13.27 8.707,-12.879 4.621,0.39 8.215,6.8 8.027,14.296 -0.035,1.411 -0.191,2.762 -0.468,4.02 8.359,1.637 17.34,5.785 28.875,12.445 -2.274,-4.191 -4.317,-7.957 -6.258,-11.554 -3.055,-2.368 -6.234,-5.45 -12.738,-8.789 4.468,1.164 7.679,2.5 10.171,3.996 C 187.133,54.246 185.531,49.367 178.766,33.492 Z" /><text
         id="text138"
         style="font-variant:normal;font-weight:normal;font-size:2.29009104px;font-family:'DejaVu Sans Mono';-inkscape-font-specification:DejaVuSansMono;writing-mode:lr-tb;fill:#87cdde;fill-opacity:1;fill-rule:nonzero;stroke:none"
         transform="translate(214.18958,101.7832)"><tspan
           id="tspan136"
           y="0"
           x="0 1.3786348">TM</tspan></text>
<path
         id="path140"
         style="fill:#ffffff;fill-opacity:1;fill-rule:evenodd;stroke:none"
         d="m 121.41,112.629 c -2.598,-0.004 -4.754,0.527 -5.586,0.82 l -0.859,4.633 c -0.004,0.016 4.273,-1.141 6.156,-1.07 3.117,0.109 3.402,1.191 3.348,2.648 0.054,0.082 -0.805,-1.316 -3.5,-1.363 -3.403,-0.059 -8.203,1.203 -8.199,6.34 -0.09,5.777 4.316,7.476 7.316,7.508 2.699,-0.051 3.965,-1.024 4.656,-1.543 0.914,-0.954 1.953,-1.911 2.949,-3.059 -0.941,1.707 -1.757,2.887 -2.605,3.793 v 0.762 l 4.102,-0.692 0.027,-11.148 c -0.039,-1.578 0.906,-7.613 -7.805,-7.629 z m -0.59,9.707 c 1.703,0.023 3.653,0.859 3.657,2.879 0.007,1.832 -2.301,2.82 -3.801,2.805 -1.5,-0.016 -3.492,-1.18 -3.5,-2.969 0.027,-1.598 1.879,-2.758 3.644,-2.715 z" /><path
         id="path142"
         style="fill:#ffffff;fill-opacity:1;fill-rule:evenodd;stroke:none"
         d="m 131.922,113.66 -0.027,18.461 4.777,-0.922 0.008,-10.469 c 0,-1.558 2.226,-3.378 5.019,-3.347 0.594,-1.074 1.707,-3.817 1.981,-4.438 -6.242,-0.015 -6.321,1.793 -7.407,2.684 -0.011,-1.699 -0.003,-2.719 -0.003,-2.719 z" /><path
         id="path144"
         style="fill:#ffffff;fill-opacity:1;fill-rule:evenodd;stroke:none"
         d="m 158.812,116.082 c -0.046,-0.023 -2.492,-2.859 -7.41,-2.883 -4.605,-0.078 -9.773,1.707 -9.855,9.434 0.039,6.789 4.961,9.441 9.883,9.492 5.261,0.055 7.355,-3.289 7.48,-3.371 -0.629,-0.547 -2.98,-2.875 -2.98,-2.875 0,0 -1.469,2.09 -4.321,2.117 -2.847,0.027 -5.328,-2.203 -5.363,-5.316 -0.035,-3.114 2.277,-4.801 5.387,-4.934 2.691,-0.004 4.242,1.734 4.242,1.734 z" /><path
         id="path146"
         style="fill:#ffffff;fill-opacity:1;fill-rule:evenodd;stroke:none"
         d="m 164.832,107.195 -4.508,1.063 0.031,24.047 4.446,-0.801 0.051,-11.316 c 0.007,-1.188 1.714,-3.012 4.566,-2.954 2.727,0.028 3.336,1.817 3.328,2.043 l 0.078,13.102 4.383,-0.774 0.016,-13.894 c 0.027,-1.336 -2.93,-4.16 -7.68,-4.18 -2.262,0.004 -3.512,0.516 -4.148,0.891 -1.09,0.844 -2.333,1.648 -3.559,2.68 1.133,-1.454 2.082,-2.457 3.008,-3.207 z" /><path
         id="path148"
         style="fill:#1793d1;fill-opacity:1;fill-rule:evenodd;stroke:none"
         d="m 181.027,107.82 2.035,-0.508 0.098,24.243 -2.066,0.355 z" /><path
         id="path150"
         style="fill:#1793d1;fill-opacity:1;fill-rule:evenodd;stroke:none"
         d="m 186.562,115.059 1.782,-0.797 0.015,17.386 -1.722,0.356 z m -0.425,-6.27 1.437,-1.176 1.196,1.328 -1.438,1.207 z" /><path
         id="path152"
         style="fill:#1793d1;fill-opacity:1;fill-rule:evenodd;stroke:none"
         d="m 191.699,114.738 2.035,-0.414 0.008,3.637 c 0,0.152 1.117,-4.063 6.504,-3.969 5.234,0.031 6.09,4.078 6.063,4.988 l 0.062,12.782 -1.785,0.386 -0.008,-12.625 c 0.02,-0.367 -0.816,-3.484 -4.512,-3.496 -3.699,-0.011 -6.257,2.684 -6.254,4.407 l 0.028,11.121 -2.067,0.539 z" /><path
         id="path154"
         style="fill:#1793d1;fill-opacity:1;fill-rule:evenodd;stroke:none"
         d="m 224.129,131.852 -2.035,0.414 -0.012,-3.633 c 0,-0.156 -1.117,4.058 -6.504,3.965 -5.23,-0.028 -6.09,-4.078 -6.058,-4.985 l -0.067,-12.781 2.164,-0.437 0.031,12.625 c 0,0.343 0.414,3.535 4.114,3.546 3.695,0.012 6.285,-2.226 6.3,-5.593 l -0.023,-9.961 2.012,-0.512 z" /><path
         id="path156"
         style="fill:#1793d1;fill-opacity:1;fill-rule:evenodd;stroke:none"
         d="m 228.117,114.598 -1.429,1.117 5.472,7.156 -5.836,8.274 1.516,1.121 5.484,-7.68 5.66,7.863 1.399,-1.117 -6.067,-8.406 4.84,-6.801 -1.488,-1.258 -4.406,6.293 z" /><text
         id="text160"
         style="font-variant:normal;font-weight:normal;font-size:2.37612796px;font-family:'DejaVu Sans Mono';-inkscape-font-specification:DejaVuSansMono;writing-mode:lr-tb;fill:#87cdde;fill-opacity:1;fill-rule:nonzero;stroke:none"
         transform="translate(242.43307,130.78584)"><tspan
           id="tspan158"
           y="0"
           x="0 1.4304291">TM</tspan></text>
</g></g></svg>