<?xml version="1.0" encoding="UTF-8" standalone="no"?><svg xmlns="http://www.w3.org/2000/svg" xmlns:xlink="http://www.w3.org/1999/xlink" contentScriptType="application/ecmascript" contentStyleType="text/css" height="675px" preserveAspectRatio="none" style="width:1459px;height:675px;background:#FFFFFF;" version="1.1" viewBox="0 0 1459 675" width="1459px" zoomAndPan="magnify"><defs><filter height="300%" id="f1grji50t0beu6" width="300%" x="-1" y="-1"><feGaussianBlur result="blurOut" stdDeviation="2.0"/><feColorMatrix in="blurOut" result="blurOut2" type="matrix" values="0 0 0 0 0 0 0 0 0 0 0 0 0 0 0 0 0 0 .4 0"/><feOffset dx="4.0" dy="4.0" in="blurOut2" result="blurOut3"/><feBlend in="SourceGraphic" in2="blurOut3" mode="normal"/></filter></defs><g><ellipse cx="417.5" cy="20" fill="#000000" filter="url(#f1grji50t0beu6)" rx="10" ry="10" style="stroke:none;stroke-width:1.0;"/><rect fill="#FEFECE" filter="url(#f1grji50t0beu6)" height="33.9688" rx="12.5" ry="12.5" style="stroke:#A80036;stroke-width:1.5;" width="223" x="306" y="50"/><text fill="#000000" font-family="monospace" font-size="12" lengthAdjust="spacing" textLength="203" x="316" y="71.1387">CLI.processArgs( argc, argv )</text><polygon fill="#FEFECE" filter="url(#f1grji50t0beu6)" points="368,103.9688,467,103.9688,479,115.9688,467,127.9688,368,127.9688,356,115.9688,368,103.9688" style="stroke:#A80036;stroke-width:1.5;"/><text fill="#000000" font-family="sans-serif" font-size="11" lengthAdjust="spacing" textLength="0" x="372" y="119.7769"/><text fill="#000000" font-family="monospace" font-size="11" lengthAdjust="spacing" textLength="91" x="372" y="119.7769">parseArgs(..)</text><text fill="#000000" font-family="sans-serif" font-size="11" lengthAdjust="spacing" textLength="0" x="467" y="119.7769"/><text fill="#000000" font-family="sans-serif" font-size="11" lengthAdjust="spacing" textLength="27" x="329" y="113.3745">false</text><text fill="#000000" font-family="sans-serif" font-size="11" lengthAdjust="spacing" textLength="23" x="479" y="113.3745">true</text><rect fill="#FF4500" filter="url(#f1grji50t0beu6)" height="33.9688" style="stroke:#A80036;stroke-width:1.5;" width="108" x="11" y="137.9688"/><line style="stroke:#A80036;stroke-width:1.5;" x1="16" x2="16" y1="137.9688" y2="171.9375"/><line style="stroke:#A80036;stroke-width:1.5;" x1="114" x2="114" y1="137.9688" y2="171.9375"/><text fill="#000000" font-family="monospace" font-size="12" lengthAdjust="spacing" textLength="84" x="21" y="159.1074">CLI_EXIT_ERR</text><text fill="#000000" font-family="sans-serif" font-size="12" lengthAdjust="spacing" textLength="4" x="105" y="159.1074">;</text><ellipse cx="65" cy="202.9375" fill="#FFFFFF" filter="url(#f1grji50t0beu6)" rx="11" ry="11" style="stroke:#000000;stroke-width:1.0;"/><ellipse cx="65" cy="202.9375" fill="#000000" rx="6" ry="6" style="stroke:#7F7F7F;stroke-width:1.0;"/><rect fill="#FEFECE" filter="url(#f1grji50t0beu6)" height="33.9688" rx="12.5" ry="12.5" style="stroke:#A80036;stroke-width:1.5;" width="211" x="674.5" y="194.9688"/><text fill="#000000" font-family="sans-serif" font-size="12" lengthAdjust="spacing" textLength="191" x="684.5" y="216.1074">pack actionable options into list</text><polygon fill="#FEFECE" filter="url(#f1grji50t0beu6)" points="141,248.9375,254,248.9375,266,260.9375,254,272.9375,141,272.9375,129,260.9375,141,248.9375" style="stroke:#A80036;stroke-width:1.5;"/><text fill="#000000" font-family="sans-serif" font-size="11" lengthAdjust="spacing" textLength="20" x="201.5" y="283.1479">yes</text><text fill="#000000" font-family="sans-serif" font-size="11" lengthAdjust="spacing" textLength="0" x="145" y="264.7456"/><text fill="#000000" font-family="monospace" font-size="11" lengthAdjust="spacing" textLength="105" x="145" y="264.7456">CLI_ARG_VERSION</text><text fill="#000000" font-family="sans-serif" font-size="11" lengthAdjust="spacing" textLength="0" x="254" y="264.7456"/><rect fill="#FEFECE" filter="url(#f1grji50t0beu6)" height="33.9688" rx="12.5" ry="12.5" style="stroke:#A80036;stroke-width:1.5;" width="126" x="134.5" y="304.6479"/><text fill="#000000" font-family="sans-serif" font-size="12" lengthAdjust="spacing" textLength="102" x="148.5" y="325.7866">print version info</text><rect fill="#90EE90" filter="url(#f1grji50t0beu6)" height="33.9688" style="stroke:#A80036;stroke-width:1.5;" width="101" x="147" y="373.6167"/><line style="stroke:#A80036;stroke-width:1.5;" x1="152" x2="152" y1="373.6167" y2="407.5854"/><line style="stroke:#A80036;stroke-width:1.5;" x1="243" x2="243" y1="373.6167" y2="407.5854"/><text fill="#000000" font-family="monospace" font-size="12" lengthAdjust="spacing" textLength="77" x="157" y="394.7554">CLI_EXIT_OK</text><text fill="#000000" font-family="sans-serif" font-size="12" lengthAdjust="spacing" textLength="4" x="234" y="394.7554">;</text><ellipse cx="197.5" cy="453.5854" fill="#FFFFFF" filter="url(#f1grji50t0beu6)" rx="11" ry="11" style="stroke:#000000;stroke-width:1.0;"/><ellipse cx="197.5" cy="453.5854" fill="#000000" rx="6" ry="6" style="stroke:#7F7F7F;stroke-width:1.0;"/><polygon fill="#FEFECE" filter="url(#f1grji50t0beu6)" points="298,248.9375,390,248.9375,402,260.9375,390,272.9375,298,272.9375,286,260.9375,298,248.9375" style="stroke:#A80036;stroke-width:1.5;"/><text fill="#000000" font-family="sans-serif" font-size="11" lengthAdjust="spacing" textLength="20" x="348" y="283.1479">yes</text><text fill="#000000" font-family="sans-serif" font-size="11" lengthAdjust="spacing" textLength="0" x="302" y="264.7456"/><text fill="#000000" font-family="monospace" font-size="11" lengthAdjust="spacing" textLength="84" x="302" y="264.7456">CLI_ARG_HELP</text><text fill="#000000" font-family="sans-serif" font-size="11" lengthAdjust="spacing" textLength="0" x="390" y="264.7456"/><rect fill="#FEFECE" filter="url(#f1grji50t0beu6)" height="33.9688" rx="12.5" ry="12.5" style="stroke:#A80036;stroke-width:1.5;" width="89" x="299.5" y="304.6479"/><text fill="#000000" font-family="sans-serif" font-size="12" lengthAdjust="spacing" textLength="69" x="309.5" y="325.7866">print usage</text><rect fill="#90EE90" filter="url(#f1grji50t0beu6)" height="33.9688" style="stroke:#A80036;stroke-width:1.5;" width="101" x="293.5" y="373.6167"/><line style="stroke:#A80036;stroke-width:1.5;" x1="298.5" x2="298.5" y1="373.6167" y2="407.5854"/><line style="stroke:#A80036;stroke-width:1.5;" x1="389.5" x2="389.5" y1="373.6167" y2="407.5854"/><text fill="#000000" font-family="monospace" font-size="12" lengthAdjust="spacing" textLength="77" x="303.5" y="394.7554">CLI_EXIT_OK</text><text fill="#000000" font-family="sans-serif" font-size="12" lengthAdjust="spacing" textLength="4" x="380.5" y="394.7554">;</text><ellipse cx="344" cy="453.5854" fill="#FFFFFF" filter="url(#f1grji50t0beu6)" rx="11" ry="11" style="stroke:#000000;stroke-width:1.0;"/><ellipse cx="344" cy="453.5854" fill="#000000" rx="6" ry="6" style="stroke:#7F7F7F;stroke-width:1.0;"/><polygon fill="#FEFECE" filter="url(#f1grji50t0beu6)" points="445.5,248.9375,544.5,248.9375,556.5,260.9375,544.5,272.9375,445.5,272.9375,433.5,260.9375,445.5,248.9375" style="stroke:#A80036;stroke-width:1.5;"/><text fill="#000000" font-family="sans-serif" font-size="11" lengthAdjust="spacing" textLength="20" x="499" y="283.1479">yes</text><text fill="#000000" font-family="sans-serif" font-size="11" lengthAdjust="spacing" textLength="0" x="449.5" y="264.7456"/><text fill="#000000" font-family="monospace" font-size="11" lengthAdjust="spacing" textLength="91" x="449.5" y="264.7456">CLI_ARG_DEBUG</text><text fill="#000000" font-family="sans-serif" font-size="11" lengthAdjust="spacing" textLength="0" x="544.5" y="264.7456"/><rect fill="#FEFECE" filter="url(#f1grji50t0beu6)" height="33.9688" rx="12.5" ry="12.5" style="stroke:#A80036;stroke-width:1.5;" width="146" x="422" y="304.6479"/><text fill="#000000" font-family="sans-serif" font-size="12" lengthAdjust="spacing" textLength="126" x="432" y="325.7866">add to actionable list</text><polygon fill="#FEFECE" filter="url(#f1grji50t0beu6)" points="600,248.9375,727,248.9375,739,260.9375,727,272.9375,600,272.9375,588,260.9375,600,248.9375" style="stroke:#A80036;stroke-width:1.5;"/><text fill="#000000" font-family="sans-serif" font-size="11" lengthAdjust="spacing" textLength="20" x="667.5" y="283.1479">yes</text><text fill="#000000" font-family="sans-serif" font-size="11" lengthAdjust="spacing" textLength="0" x="604" y="264.7456"/><text fill="#000000" font-family="monospace" font-size="11" lengthAdjust="spacing" textLength="119" x="604" y="264.7456">CLI_ARG_FAVOURITE</text><text fill="#000000" font-family="sans-serif" font-size="11" lengthAdjust="spacing" textLength="0" x="727" y="264.7456"/><rect fill="#FEFECE" filter="url(#f1grji50t0beu6)" height="33.9688" rx="12.5" ry="12.5" style="stroke:#A80036;stroke-width:1.5;" width="146" x="590.5" y="304.6479"/><text fill="#000000" font-family="sans-serif" font-size="12" lengthAdjust="spacing" textLength="126" x="600.5" y="325.7866">add to actionable list</text><polygon fill="#FEFECE" filter="url(#f1grji50t0beu6)" points="786,248.9375,878,248.9375,890,260.9375,878,272.9375,786,272.9375,774,260.9375,786,248.9375" style="stroke:#A80036;stroke-width:1.5;"/><text fill="#000000" font-family="sans-serif" font-size="11" lengthAdjust="spacing" textLength="20" x="836" y="283.1479">yes</text><text fill="#000000" font-family="sans-serif" font-size="11" lengthAdjust="spacing" textLength="0" x="790" y="264.7456"/><text fill="#000000" font-family="monospace" font-size="11" lengthAdjust="spacing" textLength="84" x="790" y="264.7456">CLI_ARG_PLAY</text><text fill="#000000" font-family="sans-serif" font-size="11" lengthAdjust="spacing" textLength="0" x="878" y="264.7456"/><rect fill="#FEFECE" filter="url(#f1grji50t0beu6)" height="33.9688" rx="12.5" ry="12.5" style="stroke:#A80036;stroke-width:1.5;" width="146" x="759" y="304.6479"/><text fill="#000000" font-family="sans-serif" font-size="12" lengthAdjust="spacing" textLength="126" x="769" y="325.7866">add to actionable list</text><polygon fill="#FEFECE" filter="url(#f1grji50t0beu6)" points="937,248.9375,1106,248.9375,1118,260.9375,1106,272.9375,937,272.9375,925,260.9375,937,248.9375" style="stroke:#A80036;stroke-width:1.5;"/><text fill="#000000" font-family="sans-serif" font-size="11" lengthAdjust="spacing" textLength="20" x="1025.5" y="283.1479">yes</text><text fill="#000000" font-family="sans-serif" font-size="11" lengthAdjust="spacing" textLength="0" x="941" y="264.7456"/><text fill="#000000" font-family="monospace" font-size="11" lengthAdjust="spacing" textLength="161" x="941" y="264.7456">CLI_ARG_RESUME_PLAYBACK</text><text fill="#000000" font-family="sans-serif" font-size="11" lengthAdjust="spacing" textLength="0" x="1106" y="264.7456"/><rect fill="#FEFECE" filter="url(#f1grji50t0beu6)" height="33.9688" rx="12.5" ry="12.5" style="stroke:#A80036;stroke-width:1.5;" width="146" x="948.5" y="304.6479"/><text fill="#000000" font-family="sans-serif" font-size="12" lengthAdjust="spacing" textLength="126" x="958.5" y="325.7866">add to actionable list</text><polygon fill="#FEFECE" filter="url(#f1grji50t0beu6)" points="1150,248.9375,1291,248.9375,1303,260.9375,1291,272.9375,1150,272.9375,1138,260.9375,1150,248.9375" style="stroke:#A80036;stroke-width:1.5;"/><text fill="#000000" font-family="sans-serif" font-size="11" lengthAdjust="spacing" textLength="20" x="1224.5" y="283.1479">yes</text><text fill="#000000" font-family="sans-serif" font-size="11" lengthAdjust="spacing" textLength="0" x="1154" y="264.7456"/><text fill="#000000" font-family="monospace" font-size="11" lengthAdjust="spacing" textLength="133" x="1154" y="264.7456">CLI_ARG_SHOW_CURSOR</text><text fill="#000000" font-family="sans-serif" font-size="11" lengthAdjust="spacing" textLength="0" x="1291" y="264.7456"/><rect fill="#FEFECE" filter="url(#f1grji50t0beu6)" height="33.9688" rx="12.5" ry="12.5" style="stroke:#A80036;stroke-width:1.5;" width="146" x="1147.5" y="304.6479"/><text fill="#000000" font-family="sans-serif" font-size="12" lengthAdjust="spacing" textLength="126" x="1157.5" y="325.7866">add to actionable list</text><rect fill="#FF4500" filter="url(#f1grji50t0beu6)" height="33.9688" style="stroke:#A80036;stroke-width:1.5;" width="108" x="1313" y="335.73"/><line style="stroke:#A80036;stroke-width:1.5;" x1="1318" x2="1318" y1="335.73" y2="369.6987"/><line style="stroke:#A80036;stroke-width:1.5;" x1="1416" x2="1416" y1="335.73" y2="369.6987"/><text fill="#000000" font-family="monospace" font-size="12" lengthAdjust="spacing" textLength="84" x="1323" y="356.8687">CLI_EXIT_ERR</text><text fill="#000000" font-family="sans-serif" font-size="12" lengthAdjust="spacing" textLength="4" x="1407" y="356.8687">;</text><ellipse cx="1367" cy="415.6987" fill="#FFFFFF" filter="url(#f1grji50t0beu6)" rx="11" ry="11" style="stroke:#000000;stroke-width:1.0;"/><ellipse cx="1367" cy="415.6987" fill="#000000" rx="6" ry="6" style="stroke:#7F7F7F;stroke-width:1.0;"/><polygon fill="#FEFECE" filter="url(#f1grji50t0beu6)" points="780,137.9688,792,149.9688,780,161.9688,768,149.9688,780,137.9688" style="stroke:#A80036;stroke-width:1.5;"/><polygon fill="#FEFECE" filter="url(#f1grji50t0beu6)" points="738.5,504.5854,821.5,504.5854,833.5,516.5854,821.5,528.5854,738.5,528.5854,726.5,516.5854,738.5,504.5854" style="stroke:#A80036;stroke-width:1.5;"/><text fill="#000000" font-family="sans-serif" font-size="11" lengthAdjust="spacing" textLength="75" x="742.5" y="520.3936">more options</text><polygon fill="#FEFECE" filter="url(#f1grji50t0beu6)" points="710.5,548.5854,849.5,548.5854,861.5,560.5854,849.5,572.5854,710.5,572.5854,698.5,560.5854,710.5,548.5854" style="stroke:#A80036;stroke-width:1.5;"/><text fill="#000000" font-family="sans-serif" font-size="11" lengthAdjust="spacing" textLength="131" x="714.5" y="564.3936">actionable list is empty</text><rect fill="#90EE90" filter="url(#f1grji50t0beu6)" height="33.9688" style="stroke:#A80036;stroke-width:1.5;" width="108" x="634.5" y="582.5854"/><line style="stroke:#A80036;stroke-width:1.5;" x1="639.5" x2="639.5" y1="582.5854" y2="616.5542"/><line style="stroke:#A80036;stroke-width:1.5;" x1="737.5" x2="737.5" y1="582.5854" y2="616.5542"/><text fill="#000000" font-family="monospace" font-size="12" lengthAdjust="spacing" textLength="84" x="644.5" y="603.7241">CLI_CONTINUE</text><text fill="#000000" font-family="sans-serif" font-size="12" lengthAdjust="spacing" textLength="4" x="728.5" y="603.7241">;</text><ellipse cx="688.5" cy="647.5542" fill="#FFFFFF" filter="url(#f1grji50t0beu6)" rx="11" ry="11" style="stroke:#000000;stroke-width:1.0;"/><ellipse cx="688.5" cy="647.5542" fill="#000000" rx="6" ry="6" style="stroke:#7F7F7F;stroke-width:1.0;"/><rect fill="#90EE90" filter="url(#f1grji50t0beu6)" height="33.9688" style="stroke:#A80036;stroke-width:1.5;" width="171" x="786" y="582.5854"/><line style="stroke:#A80036;stroke-width:1.5;" x1="791" x2="791" y1="582.5854" y2="616.5542"/><line style="stroke:#A80036;stroke-width:1.5;" x1="952" x2="952" y1="582.5854" y2="616.5542"/><text fill="#000000" font-family="monospace" font-size="12" lengthAdjust="spacing" textLength="147" x="796" y="603.7241">CLI_CONTINUE_WITH_OPT</text><text fill="#000000" font-family="sans-serif" font-size="12" lengthAdjust="spacing" textLength="4" x="943" y="603.7241">;</text><ellipse cx="871.5" cy="647.5542" fill="#FFFFFF" filter="url(#f1grji50t0beu6)" rx="11" ry="11" style="stroke:#000000;stroke-width:1.0;"/><ellipse cx="871.5" cy="647.5542" fill="#000000" rx="6" ry="6" style="stroke:#7F7F7F;stroke-width:1.0;"/><line style="stroke:#A80036;stroke-width:1.5;" x1="417.5" x2="417.5" y1="30" y2="50"/><polygon fill="#A80036" points="413.5,40,417.5,50,421.5,40,417.5,44" style="stroke:#A80036;stroke-width:1.0;"/><line style="stroke:#A80036;stroke-width:1.5;" x1="65" x2="65" y1="171.9375" y2="191.9375"/><polygon fill="#A80036" points="61,181.9375,65,191.9375,69,181.9375,65,185.9375" style="stroke:#A80036;stroke-width:1.0;"/><line style="stroke:#A80036;stroke-width:1.5;" x1="197.5" x2="197.5" y1="338.6167" y2="373.6167"/><polygon fill="#A80036" points="193.5,363.6167,197.5,373.6167,201.5,363.6167,197.5,367.6167" style="stroke:#A80036;stroke-width:1.0;"/><line style="stroke:#A80036;stroke-width:1.5;" x1="197.5" x2="197.5" y1="407.5854" y2="442.5854"/><polygon fill="#A80036" points="193.5,432.5854,197.5,442.5854,201.5,432.5854,197.5,436.5854" style="stroke:#A80036;stroke-width:1.0;"/><line style="stroke:#A80036;stroke-width:1.5;" x1="344" x2="344" y1="338.6167" y2="373.6167"/><polygon fill="#A80036" points="340,363.6167,344,373.6167,348,363.6167,344,367.6167" style="stroke:#A80036;stroke-width:1.0;"/><line style="stroke:#A80036;stroke-width:1.5;" x1="344" x2="344" y1="407.5854" y2="442.5854"/><polygon fill="#A80036" points="340,432.5854,344,442.5854,348,432.5854,344,436.5854" style="stroke:#A80036;stroke-width:1.0;"/><line style="stroke:#A80036;stroke-width:1.5;" x1="1367" x2="1367" y1="369.6987" y2="404.6987"/><polygon fill="#A80036" points="1363,394.6987,1367,404.6987,1371,394.6987,1367,398.6987" style="stroke:#A80036;stroke-width:1.0;"/><line style="stroke:#A80036;stroke-width:1.5;" x1="197.5" x2="197.5" y1="272.9375" y2="304.6479"/><polygon fill="#A80036" points="193.5,294.6479,197.5,304.6479,201.5,294.6479,197.5,298.6479" style="stroke:#A80036;stroke-width:1.0;"/><line style="stroke:#A80036;stroke-width:1.5;" x1="344" x2="344" y1="272.9375" y2="304.6479"/><polygon fill="#A80036" points="340,294.6479,344,304.6479,348,294.6479,344,298.6479" style="stroke:#A80036;stroke-width:1.0;"/><line style="stroke:#A80036;stroke-width:1.5;" x1="495" x2="495" y1="272.9375" y2="304.6479"/><polygon fill="#A80036" points="491,294.6479,495,304.6479,499,294.6479,495,298.6479" style="stroke:#A80036;stroke-width:1.0;"/><line style="stroke:#A80036;stroke-width:1.5;" x1="495" x2="495" y1="338.6167" y2="484.5854"/><polygon fill="#A80036" points="491,474.5854,495,484.5854,499,474.5854,495,478.5854" style="stroke:#A80036;stroke-width:1.0;"/><line style="stroke:#A80036;stroke-width:1.5;" x1="663.5" x2="663.5" y1="272.9375" y2="304.6479"/><polygon fill="#A80036" points="659.5,294.6479,663.5,304.6479,667.5,294.6479,663.5,298.6479" style="stroke:#A80036;stroke-width:1.0;"/><line style="stroke:#A80036;stroke-width:1.5;" x1="663.5" x2="663.5" y1="338.6167" y2="484.5854"/><polygon fill="#A80036" points="659.5,474.5854,663.5,484.5854,667.5,474.5854,663.5,478.5854" style="stroke:#A80036;stroke-width:1.0;"/><line style="stroke:#A80036;stroke-width:1.5;" x1="832" x2="832" y1="272.9375" y2="304.6479"/><polygon fill="#A80036" points="828,294.6479,832,304.6479,836,294.6479,832,298.6479" style="stroke:#A80036;stroke-width:1.0;"/><line style="stroke:#A80036;stroke-width:1.5;" x1="832" x2="832" y1="338.6167" y2="484.5854"/><polygon fill="#A80036" points="828,474.5854,832,484.5854,836,474.5854,832,478.5854" style="stroke:#A80036;stroke-width:1.0;"/><line style="stroke:#A80036;stroke-width:1.5;" x1="1021.5" x2="1021.5" y1="272.9375" y2="304.6479"/><polygon fill="#A80036" points="1017.5,294.6479,1021.5,304.6479,1025.5,294.6479,1021.5,298.6479" style="stroke:#A80036;stroke-width:1.0;"/><line style="stroke:#A80036;stroke-width:1.5;" x1="1021.5" x2="1021.5" y1="338.6167" y2="484.5854"/><polygon fill="#A80036" points="1017.5,474.5854,1021.5,484.5854,1025.5,474.5854,1021.5,478.5854" style="stroke:#A80036;stroke-width:1.0;"/><line style="stroke:#A80036;stroke-width:1.5;" x1="1220.5" x2="1220.5" y1="272.9375" y2="304.6479"/><polygon fill="#A80036" points="1216.5,294.6479,1220.5,304.6479,1224.5,294.6479,1220.5,298.6479" style="stroke:#A80036;stroke-width:1.0;"/><line style="stroke:#A80036;stroke-width:1.5;" x1="1220.5" x2="1220.5" y1="338.6167" y2="484.5854"/><polygon fill="#A80036" points="1216.5,474.5854,1220.5,484.5854,1224.5,474.5854,1220.5,478.5854" style="stroke:#A80036;stroke-width:1.0;"/><line style="stroke:#A80036;stroke-width:1.5;" x1="266" x2="286" y1="260.9375" y2="260.9375"/><polygon fill="#A80036" points="276,256.9375,286,260.9375,276,264.9375,280,260.9375" style="stroke:#A80036;stroke-width:1.0;"/><line style="stroke:#A80036;stroke-width:1.5;" x1="402" x2="433.5" y1="260.9375" y2="260.9375"/><polygon fill="#A80036" points="423.5,256.9375,433.5,260.9375,423.5,264.9375,427.5,260.9375" style="stroke:#A80036;stroke-width:1.0;"/><line style="stroke:#A80036;stroke-width:1.5;" x1="556.5" x2="588" y1="260.9375" y2="260.9375"/><polygon fill="#A80036" points="578,256.9375,588,260.9375,578,264.9375,582,260.9375" style="stroke:#A80036;stroke-width:1.0;"/><line style="stroke:#A80036;stroke-width:1.5;" x1="739" x2="774" y1="260.9375" y2="260.9375"/><polygon fill="#A80036" points="764,256.9375,774,260.9375,764,264.9375,768,260.9375" style="stroke:#A80036;stroke-width:1.0;"/><line style="stroke:#A80036;stroke-width:1.5;" x1="890" x2="925" y1="260.9375" y2="260.9375"/><polygon fill="#A80036" points="915,256.9375,925,260.9375,915,264.9375,919,260.9375" style="stroke:#A80036;stroke-width:1.0;"/><line style="stroke:#A80036;stroke-width:1.5;" x1="1118" x2="1138" y1="260.9375" y2="260.9375"/><polygon fill="#A80036" points="1128,256.9375,1138,260.9375,1128,264.9375,1132,260.9375" style="stroke:#A80036;stroke-width:1.0;"/><line style="stroke:#A80036;stroke-width:1.5;" x1="780" x2="780" y1="228.9375" y2="233.9375"/><line style="stroke:#A80036;stroke-width:1.5;" x1="780" x2="197.5" y1="233.9375" y2="233.9375"/><line style="stroke:#A80036;stroke-width:1.5;" x1="197.5" x2="197.5" y1="233.9375" y2="248.9375"/><polygon fill="#A80036" points="193.5,238.9375,197.5,248.9375,201.5,238.9375,197.5,242.9375" style="stroke:#A80036;stroke-width:1.0;"/><line style="stroke:#A80036;stroke-width:1.5;" x1="1303" x2="1367" y1="260.9375" y2="260.9375"/><line style="stroke:#A80036;stroke-width:1.5;" x1="1367" x2="1367" y1="260.9375" y2="335.73"/><polygon fill="#A80036" points="1363,325.73,1367,335.73,1371,325.73,1367,329.73" style="stroke:#A80036;stroke-width:1.0;"/><line style="stroke:#A80036;stroke-width:1.5;" x1="495" x2="1220.5" y1="484.5854" y2="484.5854"/><line style="stroke:#A80036;stroke-width:1.5;" x1="780" x2="780" y1="161.9688" y2="194.9688"/><polygon fill="#A80036" points="776,184.9688,780,194.9688,784,184.9688,780,188.9688" style="stroke:#A80036;stroke-width:1.0;"/><line style="stroke:#A80036;stroke-width:1.5;" x1="833.5" x2="1433" y1="516.5854" y2="516.5854"/><polygon fill="#A80036" points="1429,356.73,1433,346.73,1437,356.73,1433,352.73" style="stroke:#A80036;stroke-width:1.5;"/><line style="stroke:#A80036;stroke-width:1.5;" x1="1433" x2="1433" y1="149.9688" y2="516.5854"/><line style="stroke:#A80036;stroke-width:1.5;" x1="1433" x2="792" y1="149.9688" y2="149.9688"/><polygon fill="#A80036" points="802,145.9688,792,149.9688,802,153.9688,798,149.9688" style="stroke:#A80036;stroke-width:1.0;"/><line style="stroke:#A80036;stroke-width:1.5;" x1="780" x2="780" y1="484.5854" y2="504.5854"/><polygon fill="#A80036" points="776,494.5854,780,504.5854,784,494.5854,780,498.5854" style="stroke:#A80036;stroke-width:1.0;"/><line style="stroke:#A80036;stroke-width:1.5;" x1="688.5" x2="688.5" y1="616.5542" y2="636.5542"/><polygon fill="#A80036" points="684.5,626.5542,688.5,636.5542,692.5,626.5542,688.5,630.5542" style="stroke:#A80036;stroke-width:1.0;"/><line style="stroke:#A80036;stroke-width:1.5;" x1="871.5" x2="871.5" y1="616.5542" y2="636.5542"/><polygon fill="#A80036" points="867.5,626.5542,871.5,636.5542,875.5,626.5542,871.5,630.5542" style="stroke:#A80036;stroke-width:1.0;"/><line style="stroke:#A80036;stroke-width:1.5;" x1="698.5" x2="688.5" y1="560.5854" y2="560.5854"/><line style="stroke:#A80036;stroke-width:1.5;" x1="688.5" x2="688.5" y1="560.5854" y2="582.5854"/><polygon fill="#A80036" points="684.5,572.5854,688.5,582.5854,692.5,572.5854,688.5,576.5854" style="stroke:#A80036;stroke-width:1.0;"/><line style="stroke:#A80036;stroke-width:1.5;" x1="861.5" x2="871.5" y1="560.5854" y2="560.5854"/><line style="stroke:#A80036;stroke-width:1.5;" x1="871.5" x2="871.5" y1="560.5854" y2="582.5854"/><polygon fill="#A80036" points="867.5,572.5854,871.5,582.5854,875.5,572.5854,871.5,576.5854" style="stroke:#A80036;stroke-width:1.0;"/><line style="stroke:#A80036;stroke-width:1.5;" x1="780" x2="780" y1="528.5854" y2="548.5854"/><polygon fill="#A80036" points="776,538.5854,780,548.5854,784,538.5854,780,542.5854" style="stroke:#A80036;stroke-width:1.0;"/><line style="stroke:#A80036;stroke-width:1.5;" x1="356" x2="65" y1="115.9688" y2="115.9688"/><line style="stroke:#A80036;stroke-width:1.5;" x1="65" x2="65" y1="115.9688" y2="137.9688"/><polygon fill="#A80036" points="61,127.9688,65,137.9688,69,127.9688,65,131.9688" style="stroke:#A80036;stroke-width:1.0;"/><line style="stroke:#A80036;stroke-width:1.5;" x1="479" x2="780" y1="115.9688" y2="115.9688"/><line style="stroke:#A80036;stroke-width:1.5;" x1="780" x2="780" y1="115.9688" y2="137.9688"/><polygon fill="#A80036" points="776,127.9688,780,137.9688,784,127.9688,780,131.9688" style="stroke:#A80036;stroke-width:1.0;"/><line style="stroke:#A80036;stroke-width:1.5;" x1="417.5" x2="417.5" y1="83.9688" y2="103.9688"/><polygon fill="#A80036" points="413.5,93.9688,417.5,103.9688,421.5,93.9688,417.5,97.9688" style="stroke:#A80036;stroke-width:1.0;"/><!--MD5=[e4ffeb209b0cb946d3b135367e1c6fa4]
@startuml
'https://plantuml.com/activity-diagram-beta
'!pragma useVerticalIf on
!pragma useVerticalSwitch on
'skinparam ConditionEndStyle hline

start
:""CLI.processArgs( argc, argv )"";
if( ""parseArgs(..)"" ) then (false)
    #orangered:""CLI_EXIT_ERR"";|
    stop
else (true)
    repeat
        :pack actionable options into list;
        if( ""CLI_ARG_VERSION"" ) then (yes)
            : print version info;
            #lightgreen:""CLI_EXIT_OK"";|
            stop
        elseif( ""CLI_ARG_HELP"" ) then (yes)
            :print usage;
            #lightgreen:""CLI_EXIT_OK"";|
            stop
        elseif( ""CLI_ARG_DEBUG"" ) then (yes)
            :add to actionable list;
        elseif( ""CLI_ARG_FAVOURITE"" ) then (yes)
            :add to actionable list;
        elseif( ""CLI_ARG_PLAY"" ) then (yes)
            :add to actionable list;
        elseif( ""CLI_ARG_RESUME_PLAYBACK"" ) then (yes)
            :add to actionable list;
        elseif( ""CLI_ARG_SHOW_CURSOR"" ) then (yes)
            :add to actionable list;
        else
            #orangered:""CLI_EXIT_ERR"";|
            stop
        endif
    repeat while( more options )
    if( actionable list is empty )
        #lightgreen:""CLI_CONTINUE"";|
        stop
    else
        #lightgreen:""CLI_CONTINUE_WITH_OPT"";|
        stop
    endif
@enduml

@startuml
!pragma useVerticalSwitch on

start
:""CLI.processArgs( argc, argv )"";
if( ""parseArgs(..)"" ) then (false)
    #orangered:""CLI_EXIT_ERR"";|
    stop
else (true)
    repeat
        :pack actionable options into list;
        if( ""CLI_ARG_VERSION"" ) then (yes)
            : print version info;
            #lightgreen:""CLI_EXIT_OK"";|
            stop
        elseif( ""CLI_ARG_HELP"" ) then (yes)
            :print usage;
            #lightgreen:""CLI_EXIT_OK"";|
            stop
        elseif( ""CLI_ARG_DEBUG"" ) then (yes)
            :add to actionable list;
        elseif( ""CLI_ARG_FAVOURITE"" ) then (yes)
            :add to actionable list;
        elseif( ""CLI_ARG_PLAY"" ) then (yes)
            :add to actionable list;
        elseif( ""CLI_ARG_RESUME_PLAYBACK"" ) then (yes)
            :add to actionable list;
        elseif( ""CLI_ARG_SHOW_CURSOR"" ) then (yes)
            :add to actionable list;
        else
            #orangered:""CLI_EXIT_ERR"";|
            stop
        endif
    repeat while( more options )
    if( actionable list is empty )
        #lightgreen:""CLI_CONTINUE"";|
        stop
    else
        #lightgreen:""CLI_CONTINUE_WITH_OPT"";|
        stop
    endif
@enduml

PlantUML version 1.2021.7(Sun May 23 14:40:07 CEST 2021)
(GPL source distribution)
Java Runtime: OpenJDK Runtime Environment
JVM: Dynamic Code Evolution 64-Bit Server VM
Default Encoding: UTF-8
Language: en
Country: GB
--></g></svg>