<?xml version="1.0" encoding="UTF-8" standalone="no"?><svg xmlns="http://www.w3.org/2000/svg" xmlns:xlink="http://www.w3.org/1999/xlink" contentScriptType="application/ecmascript" contentStyleType="text/css" height="575px" preserveAspectRatio="none" style="width:458px;height:575px;background:#FFFFFF;" version="1.1" viewBox="0 0 458 575" width="458px" zoomAndPan="magnify"><defs><filter height="300%" id="f5lkdp1r5ydje" width="300%" x="-1" y="-1"><feGaussianBlur result="blurOut" stdDeviation="2.0"/><feColorMatrix in="blurOut" result="blurOut2" type="matrix" values="0 0 0 0 0 0 0 0 0 0 0 0 0 0 0 0 0 0 .4 0"/><feOffset dx="4.0" dy="4.0" in="blurOut2" result="blurOut3"/><feBlend in="SourceGraphic" in2="blurOut3" mode="normal"/></filter></defs><g><rect fill="#FFFFFF" filter="url(#f5lkdp1r5ydje)" height="473.125" style="stroke:#A80036;stroke-width:1.0;" width="10" x="46" y="50.2969"/><rect fill="#FFFFFF" filter="url(#f5lkdp1r5ydje)" height="426.8594" style="stroke:#A80036;stroke-width:1.0;" width="10" x="160" y="95.5625"/><rect fill="#FFFFFF" filter="url(#f5lkdp1r5ydje)" height="473.125" style="stroke:#A80036;stroke-width:1.0;" width="10" x="402" y="50.2969"/><rect fill="#FFFFFF" filter="url(#f5lkdp1r5ydje)" height="162.7969" style="stroke:#000000;stroke-width:2.0;" width="434.5" x="10" y="57.2969"/><rect fill="#FFFFFF" filter="url(#f5lkdp1r5ydje)" height="75.3984" style="stroke:#000000;stroke-width:2.0;" width="434.5" x="10" y="234.0938"/><rect fill="#FFFFFF" filter="url(#f5lkdp1r5ydje)" height="191.9297" style="stroke:#000000;stroke-width:2.0;" width="434.5" x="10" y="323.4922"/><line style="stroke:#A80036;stroke-width:1.0;stroke-dasharray:5.0,5.0;" x1="51" x2="51" y1="40.2969" y2="532.4219"/><line style="stroke:#A80036;stroke-width:1.0;stroke-dasharray:5.0,5.0;" x1="165" x2="165" y1="40.2969" y2="532.4219"/><line style="stroke:#A80036;stroke-width:1.0;stroke-dasharray:5.0,5.0;" x1="406.5" x2="406.5" y1="40.2969" y2="532.4219"/><rect fill="#FEFECE" filter="url(#f5lkdp1r5ydje)" height="30.2969" style="stroke:#A80036;stroke-width:1.5;" width="58" x="20" y="5"/><text fill="#000000" font-family="sans-serif" font-size="14" lengthAdjust="spacing" textLength="44" x="27" y="24.9951">cTune</text><rect fill="#FEFECE" filter="url(#f5lkdp1r5ydje)" height="30.2969" style="stroke:#A80036;stroke-width:1.5;" width="58" x="20" y="531.4219"/><text fill="#000000" font-family="sans-serif" font-size="14" lengthAdjust="spacing" textLength="44" x="27" y="551.417">cTune</text><rect fill="#FEFECE" filter="url(#f5lkdp1r5ydje)" height="30.2969" style="stroke:#A80036;stroke-width:1.5;" width="58" x="134" y="5"/><text fill="#000000" font-family="sans-serif" font-size="14" lengthAdjust="spacing" textLength="44" x="141" y="24.9951">plugin</text><rect fill="#FEFECE" filter="url(#f5lkdp1r5ydje)" height="30.2969" style="stroke:#A80036;stroke-width:1.5;" width="58" x="134" y="531.4219"/><text fill="#000000" font-family="sans-serif" font-size="14" lengthAdjust="spacing" textLength="44" x="141" y="551.417">plugin</text><rect fill="#FEFECE" filter="url(#f5lkdp1r5ydje)" height="30.2969" style="stroke:#A80036;stroke-width:1.5;" width="51" x="379.5" y="5"/><text fill="#000000" font-family="sans-serif" font-size="14" lengthAdjust="spacing" textLength="37" x="386.5" y="24.9951">ALSA</text><rect fill="#FEFECE" filter="url(#f5lkdp1r5ydje)" height="30.2969" style="stroke:#A80036;stroke-width:1.5;" width="51" x="379.5" y="531.4219"/><text fill="#000000" font-family="sans-serif" font-size="14" lengthAdjust="spacing" textLength="37" x="386.5" y="551.417">ALSA</text><rect fill="#FFFFFF" filter="url(#f5lkdp1r5ydje)" height="473.125" style="stroke:#A80036;stroke-width:1.0;" width="10" x="46" y="50.2969"/><rect fill="#FFFFFF" filter="url(#f5lkdp1r5ydje)" height="426.8594" style="stroke:#A80036;stroke-width:1.0;" width="10" x="160" y="95.5625"/><rect fill="#FFFFFF" filter="url(#f5lkdp1r5ydje)" height="473.125" style="stroke:#A80036;stroke-width:1.0;" width="10" x="402" y="50.2969"/><path d="M10,57.2969 L117,57.2969 L117,64.2969 L107,74.2969 L10,74.2969 L10,57.2969 " fill="#EEEEEE" style="stroke:#000000;stroke-width:1.0;"/><rect fill="none" height="162.7969" style="stroke:#000000;stroke-width:2.0;" width="434.5" x="10" y="57.2969"/><text fill="#000000" font-family="sans-serif" font-size="13" font-weight="bold" lengthAdjust="spacing" textLength="62" x="25" y="70.3638">Initialise</text><polygon fill="#A80036" points="148,91.5625,158,95.5625,148,99.5625,152,95.5625" style="stroke:#A80036;stroke-width:1.0;"/><line style="stroke:#A80036;stroke-width:1.0;" x1="56" x2="154" y1="95.5625" y2="95.5625"/><text fill="#000000" font-family="monospace" font-size="13" lengthAdjust="spacing" textLength="64" x="63" y="90.4966">init(..)</text><polygon fill="#A80036" points="390,120.6953,400,124.6953,390,128.6953,394,124.6953" style="stroke:#A80036;stroke-width:1.0;"/><line style="stroke:#A80036;stroke-width:1.0;" x1="170" x2="396" y1="124.6953" y2="124.6953"/><text fill="#000000" font-family="monospace" font-size="13" lengthAdjust="spacing" textLength="128" x="177" y="119.6294">snd_pcm_open(..)</text><polygon fill="#A80036" points="390,149.8281,400,153.8281,390,157.8281,394,153.8281" style="stroke:#A80036;stroke-width:1.0;"/><line style="stroke:#A80036;stroke-width:1.0;" x1="170" x2="396" y1="153.8281" y2="153.8281"/><text fill="#000000" font-family="sans-serif" font-size="13" lengthAdjust="spacing" textLength="127" x="177" y="148.7622">Set HW parameters</text><polygon fill="#A80036" points="390,178.9609,400,182.9609,390,186.9609,394,182.9609" style="stroke:#A80036;stroke-width:1.0;"/><line style="stroke:#A80036;stroke-width:1.0;" x1="170" x2="396" y1="182.9609" y2="182.9609"/><text fill="#000000" font-family="sans-serif" font-size="13" lengthAdjust="spacing" textLength="123" x="177" y="177.895">Initialise the mixer</text><polygon fill="#A80036" points="390,208.0938,400,212.0938,390,216.0938,394,212.0938" style="stroke:#A80036;stroke-width:1.0;"/><line style="stroke:#A80036;stroke-width:1.0;" x1="170" x2="396" y1="212.0938" y2="212.0938"/><text fill="#000000" font-family="monospace" font-size="13" lengthAdjust="spacing" textLength="152" x="177" y="207.0278">snd_pcm_prepare(..)</text><path d="M10,234.0938 L197,234.0938 L197,241.0938 L187,251.0938 L10,251.0938 L10,234.0938 " fill="#EEEEEE" style="stroke:#000000;stroke-width:1.0;"/><rect fill="none" height="75.3984" style="stroke:#000000;stroke-width:2.0;" width="434.5" x="10" y="234.0938"/><text fill="#000000" font-family="sans-serif" font-size="13" font-weight="bold" lengthAdjust="spacing" textLength="142" x="25" y="247.1606">Playback PCM data</text><polygon fill="#A80036" points="148,268.3594,158,272.3594,148,276.3594,152,272.3594" style="stroke:#A80036;stroke-width:1.0;"/><line style="stroke:#A80036;stroke-width:1.0;" x1="56" x2="154" y1="272.3594" y2="272.3594"/><text fill="#000000" font-family="monospace" font-size="13" lengthAdjust="spacing" textLength="72" x="63" y="267.2935">write(..)</text><polygon fill="#A80036" points="390,297.4922,400,301.4922,390,305.4922,394,301.4922" style="stroke:#A80036;stroke-width:1.0;"/><line style="stroke:#A80036;stroke-width:1.0;" x1="170" x2="396" y1="301.4922" y2="301.4922"/><text fill="#000000" font-family="monospace" font-size="13" lengthAdjust="spacing" textLength="144" x="177" y="296.4263">snd_pcm_writei(..)</text><path d="M10,323.4922 L127,323.4922 L127,330.4922 L117,340.4922 L10,340.4922 L10,323.4922 " fill="#EEEEEE" style="stroke:#000000;stroke-width:1.0;"/><rect fill="none" height="191.9297" style="stroke:#000000;stroke-width:2.0;" width="434.5" x="10" y="323.4922"/><text fill="#000000" font-family="sans-serif" font-size="13" font-weight="bold" lengthAdjust="spacing" textLength="72" x="25" y="336.5591">Shutdown</text><polygon fill="#A80036" points="148,357.7578,158,361.7578,148,365.7578,152,361.7578" style="stroke:#A80036;stroke-width:1.0;"/><line style="stroke:#A80036;stroke-width:1.0;" x1="56" x2="154" y1="361.7578" y2="361.7578"/><text fill="#000000" font-family="monospace" font-size="13" lengthAdjust="spacing" textLength="80" x="63" y="356.6919">shutdown()</text><polygon fill="#A80036" points="390,386.8906,400,390.8906,390,394.8906,394,390.8906" style="stroke:#A80036;stroke-width:1.0;"/><line style="stroke:#A80036;stroke-width:1.0;" x1="170" x2="396" y1="390.8906" y2="390.8906"/><text fill="#000000" font-family="monospace" font-size="13" lengthAdjust="spacing" textLength="136" x="177" y="385.8247">snd_pcm_drain(..)</text><polygon fill="#A80036" points="390,416.0234,400,420.0234,390,424.0234,394,420.0234" style="stroke:#A80036;stroke-width:1.0;"/><line style="stroke:#A80036;stroke-width:1.0;" x1="170" x2="396" y1="420.0234" y2="420.0234"/><text fill="#000000" font-family="monospace" font-size="13" lengthAdjust="spacing" textLength="136" x="177" y="414.9575">snd_pcm_close(..)</text><polygon fill="#A80036" points="390,445.1563,400,449.1563,390,453.1563,394,449.1563" style="stroke:#A80036;stroke-width:1.0;"/><line style="stroke:#A80036;stroke-width:1.0;" x1="170" x2="396" y1="449.1563" y2="449.1563"/><text fill="#000000" font-family="monospace" font-size="13" lengthAdjust="spacing" textLength="152" x="177" y="444.0903">snd_pcm_hw_free(..)</text><polygon fill="#A80036" points="390,474.2891,400,478.2891,390,482.2891,394,478.2891" style="stroke:#A80036;stroke-width:1.0;"/><line style="stroke:#A80036;stroke-width:1.0;" x1="170" x2="396" y1="478.2891" y2="478.2891"/><text fill="#000000" font-family="monospace" font-size="13" lengthAdjust="spacing" textLength="208" x="177" y="473.2231">snd_pcm_hw_params_free(..)</text><polygon fill="#A80036" points="390,503.4219,400,507.4219,390,511.4219,394,507.4219" style="stroke:#A80036;stroke-width:1.0;"/><line style="stroke:#A80036;stroke-width:1.0;" x1="170" x2="396" y1="507.4219" y2="507.4219"/><text fill="#000000" font-family="monospace" font-size="13" lengthAdjust="spacing" textLength="152" x="177" y="502.356">snd_mixer_close(..)</text><!--MD5=[e5438e270c39756313702ff724b4d23d]
@startuml
'https://plantuml.com/sequence-diagram

'autonumber

participant cTune
participant plugin
participant ALSA

activate cTune
activate ALSA

group Initialise
    cTune -> plugin : ""init(..)""
    activate plugin
    plugin -> ALSA : ""snd_pcm_open(..)""
    plugin -> ALSA : Set HW parameters
    plugin -> ALSA : Initialise the mixer
    plugin -> ALSA : ""snd_pcm_prepare(..)""
end group

group Playback PCM data
    cTune -> plugin : ""write(..)""
    plugin -> ALSA : ""snd_pcm_writei(..)""
end group

group Shutdown
    cTune  -> plugin : ""shutdown()""
    plugin -> ALSA : ""snd_pcm_drain(..)""
    plugin -> ALSA : ""snd_pcm_close(..)""
    plugin -> ALSA : ""snd_pcm_hw_free(..)""
    plugin -> ALSA : ""snd_pcm_hw_params_free(..)""
    plugin -> ALSA : ""snd_mixer_close(..)""
end group

deactivate plugin

@enduml

@startuml


participant cTune
participant plugin
participant ALSA

activate cTune
activate ALSA

group Initialise
    cTune -> plugin : ""init(..)""
    activate plugin
    plugin -> ALSA : ""snd_pcm_open(..)""
    plugin -> ALSA : Set HW parameters
    plugin -> ALSA : Initialise the mixer
    plugin -> ALSA : ""snd_pcm_prepare(..)""
end group

group Playback PCM data
    cTune -> plugin : ""write(..)""
    plugin -> ALSA : ""snd_pcm_writei(..)""
end group

group Shutdown
    cTune  -> plugin : ""shutdown()""
    plugin -> ALSA : ""snd_pcm_drain(..)""
    plugin -> ALSA : ""snd_pcm_close(..)""
    plugin -> ALSA : ""snd_pcm_hw_free(..)""
    plugin -> ALSA : ""snd_pcm_hw_params_free(..)""
    plugin -> ALSA : ""snd_mixer_close(..)""
end group

deactivate plugin

@enduml

PlantUML version 1.2021.7(Sun May 23 14:40:07 CEST 2021)
(GPL source distribution)
Java Runtime: OpenJDK Runtime Environment
JVM: Dynamic Code Evolution 64-Bit Server VM
Default Encoding: UTF-8
Language: en
Country: GB
--></g></svg>