<?xml version="1.0" encoding="UTF-8" standalone="no"?><svg xmlns="http://www.w3.org/2000/svg" xmlns:xlink="http://www.w3.org/1999/xlink" contentScriptType="application/ecmascript" contentStyleType="text/css" height="570px" preserveAspectRatio="none" style="width:501px;height:570px;background:#FFFFFF;" version="1.1" viewBox="0 0 501 570" width="501px" zoomAndPan="magnify"><defs><filter height="300%" id="f1hqn7kgm0kyqc" width="300%" x="-1" y="-1"><feGaussianBlur result="blurOut" stdDeviation="2.0"/><feColorMatrix in="blurOut" result="blurOut2" type="matrix" values="0 0 0 0 0 0 0 0 0 0 0 0 0 0 0 0 0 0 .4 0"/><feOffset dx="4.0" dy="4.0" in="blurOut2" result="blurOut3"/><feBlend in="SourceGraphic" in2="blurOut3" mode="normal"/></filter></defs><g><!--MD5=[7910ace1cc7a97c35374d08f90b7d3fe]
cluster player plugins--><polygon fill="#FFFFFF" filter="url(#f1hqn7kgm0kyqc)" points="16,476,135,476,142,498.2969,145,498.2969,145,563,16,563,16,476" style="stroke:#000000;stroke-width:1.5;"/><line style="stroke:#000000;stroke-width:1.5;" x1="16" x2="142" y1="498.2969" y2="498.2969"/><text fill="#000000" font-family="sans-serif" font-size="14" font-weight="bold" lengthAdjust="spacing" textLength="113" x="20" y="490.9951">player plugins</text><!--MD5=[2dd40a3973260850c49d4b5ecf3210ef]
cluster output plugins--><polygon fill="#FFFFFF" filter="url(#f1hqn7kgm0kyqc)" points="169,476,292,476,299,498.2969,479,498.2969,479,563,169,563,169,476" style="stroke:#000000;stroke-width:1.5;"/><line style="stroke:#000000;stroke-width:1.5;" x1="169" x2="299" y1="498.2969" y2="498.2969"/><text fill="#000000" font-family="sans-serif" font-size="14" font-weight="bold" lengthAdjust="spacing" textLength="117" x="173" y="490.9951">output plugins</text><!--MD5=[0176c2906baf4b0d96aa62b184160f60]
entity pl_ffmpeg--><polygon fill="#FEFECE" filter="url(#f1hqn7kgm0kyqc)" points="37.5,511,37.5,547.2969,128.5,547.2969,128.5,521,118.5,511,37.5,511" style="stroke:#000000;stroke-width:1.5;"/><path d="M118.5,511 L118.5,521 L128.5,521 " fill="#FEFECE" style="stroke:#000000;stroke-width:1.5;"/><text fill="#000000" font-family="sans-serif" font-size="14" lengthAdjust="spacing" textLength="71" x="47.5" y="533.9951">ffmpeg.so</text><!--MD5=[1ae5dddce08b22c4e56229b185fcff7a]
entity pl_pulse--><polygon fill="#FEFECE" filter="url(#f1hqn7kgm0kyqc)" points="385,511,385,547.2969,463,547.2969,463,521,453,511,385,511" style="stroke:#000000;stroke-width:1.5;"/><path d="M453,511 L453,521 L463,521 " fill="#FEFECE" style="stroke:#000000;stroke-width:1.5;"/><text fill="#000000" font-family="sans-serif" font-size="14" lengthAdjust="spacing" textLength="58" x="395" y="533.9951">pulse.so</text><!--MD5=[1ea1281f0b9e3a22def1e2d64cec7861]
entity pl_sld--><polygon fill="#FEFECE" filter="url(#f1hqn7kgm0kyqc)" points="290,511,290,547.2969,350,547.2969,350,521,340,511,290,511" style="stroke:#000000;stroke-width:1.5;"/><path d="M340,511 L340,521 L350,521 " fill="#FEFECE" style="stroke:#000000;stroke-width:1.5;"/><text fill="#000000" font-family="sans-serif" font-size="14" lengthAdjust="spacing" textLength="40" x="300" y="533.9951">sdl.so</text><!--MD5=[c5f77854de1d65ef17ff0ab41c3c487b]
entity pl_alsa--><polygon fill="#FEFECE" filter="url(#f1hqn7kgm0kyqc)" points="185.5,511,185.5,547.2969,254.5,547.2969,254.5,521,244.5,511,185.5,511" style="stroke:#000000;stroke-width:1.5;"/><path d="M244.5,511 L244.5,521 L254.5,521 " fill="#FEFECE" style="stroke:#000000;stroke-width:1.5;"/><text fill="#000000" font-family="sans-serif" font-size="14" lengthAdjust="spacing" textLength="49" x="195.5" y="533.9951">alsa.so</text><!--MD5=[fb0932da17f9982e4848347a102654e2]
class Settings--><rect codeLine="5" fill="#FEFECE" filter="url(#f1hqn7kgm0kyqc)" height="246.4609" id="Settings" style="stroke:#A80036;stroke-width:1.5;" width="283" x="128.5" y="7"/><ellipse cx="240.75" cy="23" fill="#ADD1B2" rx="11" ry="11" style="stroke:#A80036;stroke-width:1.0;"/><path d="M243.2188,28.875 Q242.6406,29.1875 242,29.3438 Q241.3594,29.5 240.6563,29.5 Q238.1563,29.5 236.8281,27.8281 Q235.5156,26.1563 235.5156,23 Q235.5156,19.8438 236.8281,18.1719 Q238.1563,16.5 240.6563,16.5 Q241.3594,16.5 242,16.6563 Q242.6563,16.8125 243.2188,17.125 L243.2188,19.9219 Q242.5938,19.3594 242,19.0938 Q241.4063,18.8125 240.7813,18.8125 Q239.4375,18.8125 238.75,19.875 Q238.0625,20.9375 238.0625,23 Q238.0625,25.0781 238.75,26.1406 Q239.4375,27.1875 240.7813,27.1875 Q241.4063,27.1875 242,26.9219 Q242.5938,26.6563 243.2188,26.0781 L243.2188,28.875 Z " fill="#000000"/><text fill="#000000" font-family="sans-serif" font-size="12" lengthAdjust="spacing" textLength="50" x="261.25" y="27.1543">Settings</text><line style="stroke:#A80036;stroke-width:1.5;" x1="129.5" x2="410.5" y1="39" y2="39"/><text fill="#000000" font-family="sans-serif" font-size="11" lengthAdjust="spacing" textLength="40" x="134.5" y="53.2104">/* ... */</text><line style="stroke:#A80036;stroke-width:1.0;" x1="129.5" x2="410.5" y1="59.8047" y2="59.8047"/><rect fill="none" height="6" style="stroke:#C82930;stroke-width:1.0;" width="6" x="136.5" y="67.8047"/><text fill="#000000" font-family="sans-serif" font-size="11" lengthAdjust="spacing" textLength="193" x="148.5" y="74.0151">io_libs.sys_lib_path : const char *;</text><rect fill="none" height="6" style="stroke:#C82930;stroke-width:1.0;" width="6" x="136.5" y="80.6094"/><text fill="#000000" font-family="sans-serif" font-size="11" lengthAdjust="spacing" textLength="213" x="148.5" y="86.8198">io_libs.player.dir_name : const char *</text><rect fill="none" height="6" style="stroke:#C82930;stroke-width:1.0;" width="6" x="136.5" y="93.4141"/><text fill="#000000" font-family="sans-serif" font-size="11" lengthAdjust="spacing" textLength="216" x="148.5" y="99.6245">io_libs.player.dflt_name : const char *</text><rect fill="none" height="6" style="stroke:#C82930;stroke-width:1.0;" width="6" x="136.5" y="106.2188"/><text fill="#000000" font-family="sans-serif" font-size="11" lengthAdjust="spacing" textLength="166" x="148.5" y="112.4292">io_libs.player.name : String_t</text><rect fill="none" height="6" style="stroke:#C82930;stroke-width:1.0;" width="6" x="136.5" y="119.0234"/><text fill="#000000" font-family="sans-serif" font-size="11" lengthAdjust="spacing" textLength="254" x="148.5" y="125.2339">io_libs.sound_server.dir_name : const char *</text><rect fill="none" height="6" style="stroke:#C82930;stroke-width:1.0;" width="6" x="136.5" y="131.8281"/><text fill="#000000" font-family="sans-serif" font-size="11" lengthAdjust="spacing" textLength="257" x="148.5" y="138.0386">io_libs.sound_server.dflt_name : const char *</text><rect fill="none" height="6" style="stroke:#C82930;stroke-width:1.0;" width="6" x="136.5" y="144.6328"/><text fill="#000000" font-family="sans-serif" font-size="11" lengthAdjust="spacing" textLength="207" x="148.5" y="150.8433">io_libs.sound_server.name : String_t</text><line style="stroke:#A80036;stroke-width:1.0;" x1="129.5" x2="410.5" y1="157.4375" y2="157.4375"/><line style="stroke:#A80036;stroke-width:1.0;" x1="129.5" x2="410.5" y1="159.4375" y2="159.4375"/><text fill="#000000" font-family="sans-serif" font-size="11" lengthAdjust="spacing" textLength="40" x="134.5" y="171.6479">/* ... */</text><line style="stroke:#A80036;stroke-width:1.0;" x1="129.5" x2="410.5" y1="178.2422" y2="178.2422"/><text fill="#000000" font-family="sans-serif" font-size="11" font-weight="bold" lengthAdjust="spacing" textLength="47" x="134.5" y="192.4526">Plugins</text><line style="stroke:#A80036;stroke-width:1.0;" x1="129.5" x2="410.5" y1="199.0469" y2="199.0469"/><ellipse cx="139.5" cy="210.0469" fill="#84BE84" rx="3" ry="3" style="stroke:#038048;stroke-width:1.0;"/><text fill="#000000" font-family="sans-serif" font-size="11" lengthAdjust="spacing" textLength="246" x="148.5" y="213.2573">plugins.getAudioServer( void ) : AudioOut_t</text><ellipse cx="139.5" cy="222.8516" fill="#84BE84" rx="3" ry="3" style="stroke:#038048;stroke-width:1.0;"/><text fill="#000000" font-family="sans-serif" font-size="11" lengthAdjust="spacing" textLength="192" x="148.5" y="226.062">plugins.getPlayer void ) : Player_t</text><line style="stroke:#A80036;stroke-width:1.0;" x1="129.5" x2="410.5" y1="232.6563" y2="232.6563"/><text fill="#000000" font-family="sans-serif" font-size="11" lengthAdjust="spacing" textLength="40" x="134.5" y="246.8667">/* ... */</text><!--MD5=[b628511dd50102041730ee0512f882c8]
class Plugin--><rect codeLine="26" fill="#FEFECE" filter="url(#f1hqn7kgm0kyqc)" height="137.6328" id="Plugin" style="stroke:#A80036;stroke-width:1.5;" width="434" x="53" y="313"/><ellipse cx="247.25" cy="329" fill="#ADD1B2" rx="11" ry="11" style="stroke:#A80036;stroke-width:1.0;"/><path d="M249.7188,334.875 Q249.1406,335.1875 248.5,335.3438 Q247.8594,335.5 247.1563,335.5 Q244.6563,335.5 243.3281,333.8281 Q242.0156,332.1563 242.0156,329 Q242.0156,325.8438 243.3281,324.1719 Q244.6563,322.5 247.1563,322.5 Q247.8594,322.5 248.5,322.6563 Q249.1563,322.8125 249.7188,323.125 L249.7188,325.9219 Q249.0938,325.3594 248.5,325.0938 Q247.9063,324.8125 247.2813,324.8125 Q245.9375,324.8125 245.25,325.875 Q244.5625,326.9375 244.5625,329 Q244.5625,331.0781 245.25,332.1406 Q245.9375,333.1875 247.2813,333.1875 Q247.9063,333.1875 248.5,332.9219 Q249.0938,332.6563 249.7188,332.0781 L249.7188,334.875 Z " fill="#000000"/><text fill="#000000" font-family="sans-serif" font-size="12" lengthAdjust="spacing" textLength="37" x="267.75" y="333.1543">Plugin</text><line style="stroke:#A80036;stroke-width:1.5;" x1="54" x2="486" y1="345" y2="345"/><rect fill="none" height="6" style="stroke:#C82930;stroke-width:1.0;" width="6" x="61" y="353"/><text fill="#000000" font-family="sans-serif" font-size="11" lengthAdjust="spacing" textLength="169" x="73" y="359.2104">audio_server_initialised : bool</text><rect fill="none" height="6" style="stroke:#C82930;stroke-width:1.0;" width="6" x="61" y="365.8047"/><text fill="#000000" font-family="sans-serif" font-size="11" lengthAdjust="spacing" textLength="148" x="73" y="372.0151">audio_server : AudioOut_t</text><rect fill="none" height="6" style="stroke:#C82930;stroke-width:1.0;" width="6" x="61" y="378.6094"/><text fill="#000000" font-family="sans-serif" font-size="11" lengthAdjust="spacing" textLength="131" x="73" y="384.8198">player_initialised : bool</text><rect fill="none" height="6" style="stroke:#C82930;stroke-width:1.0;" width="6" x="61" y="391.4141"/><text fill="#000000" font-family="sans-serif" font-size="11" lengthAdjust="spacing" textLength="94" x="73" y="397.6245">player : Player_t</text><line style="stroke:#A80036;stroke-width:1.0;" x1="54" x2="486" y1="404.2188" y2="404.2188"/><line style="stroke:#A80036;stroke-width:1.0;" x1="54" x2="486" y1="406.2188" y2="406.2188"/><ellipse cx="64" cy="415.2188" fill="#84BE84" rx="3" ry="3" style="stroke:#038048;stroke-width:1.0;"/><text fill="#000000" font-family="sans-serif" font-size="11" lengthAdjust="spacing" textLength="408" x="73" y="418.4292">loadAudioOut( const char * dir_path, const char * name ) : AudioOut_t *</text><ellipse cx="64" cy="428.0234" fill="#84BE84" rx="3" ry="3" style="stroke:#038048;stroke-width:1.0;"/><text fill="#000000" font-family="sans-serif" font-size="11" lengthAdjust="spacing" textLength="376" x="73" y="431.2339">loadPlayer( const char * dir_path, const char * name ) : Player_t *</text><ellipse cx="64" cy="440.8281" fill="#84BE84" rx="3" ry="3" style="stroke:#038048;stroke-width:1.0;"/><text fill="#000000" font-family="sans-serif" font-size="11" lengthAdjust="spacing" textLength="99" x="73" y="444.0386">free( void ) : void</text><!--MD5=[fb8e1d109dc6581bd65943e25a5a10bb]
link Plugin to pl_sld--><path codeLine="47" d="M293.54,451.25 C300.36,471.05 307.34,491.27 312.41,505.99 " fill="none" id="Plugin-to-pl_sld" style="stroke:#4169E1;stroke-width:1.0;stroke-dasharray:7.0,7.0;"/><polygon fill="#4169E1" points="314.05,510.76,314.9012,500.948,312.4218,506.0325,307.3373,503.5531,314.05,510.76" style="stroke:#4169E1;stroke-width:1.0;"/><!--MD5=[2d1aab1816588c661b015069564b5b1d]
link Plugin to pl_pulse--><path codeLine="48" d="M350.06,451.2 C356.2,456.81 362.24,462.45 368,468 C380.99,480.53 394.84,495.35 405.51,507.13 " fill="none" id="Plugin-to-pl_pulse" style="stroke:#4169E1;stroke-width:1.0;stroke-dasharray:7.0,7.0;"/><polygon fill="#4169E1" points="409.01,511,405.9426,501.641,405.6573,507.2906,400.0076,507.0053,409.01,511" style="stroke:#4169E1;stroke-width:1.0;"/><!--MD5=[6c23d8f7e8f351d3371c61a2aa672c19]
link Plugin to pl_alsa--><path codeLine="49" d="M246.46,451.25 C239.64,471.05 232.66,491.27 227.59,505.99 " fill="none" id="Plugin-to-pl_alsa" style="stroke:#4169E1;stroke-width:1.0;stroke-dasharray:7.0,7.0;"/><polygon fill="#4169E1" points="225.95,510.76,232.6627,503.5531,227.5782,506.0325,225.0988,500.948,225.95,510.76" style="stroke:#4169E1;stroke-width:1.0;"/><!--MD5=[ac8970b5386ba2ebd8d1bb52b6d3d951]
link Plugin to pl_ffmpeg--><path codeLine="50" d="M182.25,451.04 C155.61,471.7 128.34,492.84 109.14,507.73 " fill="none" id="Plugin-to-pl_ffmpeg" style="stroke:#4169E1;stroke-width:1.0;stroke-dasharray:7.0,7.0;"/><polygon fill="#4169E1" points="104.93,511,114.4935,508.6464,108.8814,507.9362,109.5915,502.3241,104.93,511" style="stroke:#4169E1;stroke-width:1.0;"/><!--MD5=[7e008308df4ef163c9809a8e50db708d]
link Settings to Plugin--><path codeLine="52" d="M270,253.07 C270,271.72 270,290.45 270,307.61 " fill="none" id="Settings-to-Plugin" style="stroke:#A80036;stroke-width:1.0;"/><polygon fill="#A80036" points="270,312.88,274,303.88,270,307.88,266,303.88,270,312.88" style="stroke:#A80036;stroke-width:1.0;"/><!--MD5=[e79b5c006659ba76bddae3d296989ea3]
@startuml
'https://plantuml.com/class-diagram

allowmixing

class Settings {
    /* ... */
    - - - -
    - io_libs.sys_lib_path : const char *;
    - io_libs.player.dir_name : const char *
    - io_libs.player.dflt_name : const char *
    - io_libs.player.name : String_t
    - io_libs.sound_server.dir_name : const char *
    - io_libs.sound_server.dflt_name : const char *
    - io_libs.sound_server.name : String_t
    ====
    /* ... */
    - - - -
    <b>Plugins</b>
    - - - -
    + plugins.getAudioServer( void ) : AudioOut_t
    + plugins.getPlayer void ) : Player_t
    - - - -
    /* ... */
}

class Plugin {
    - audio_server_initialised : bool
    - audio_server : AudioOut_t
    - player_initialised : bool
    - player : Player_t
    ====
    + loadAudioOut( const char * dir_path, const char * name ) : AudioOut_t *
    + loadPlayer( const char * dir_path, const char * name ) : Player_t *
    + free( void ) : void
}

package "player plugins" #white {
    file "ffmpeg.so" as pl_ffmpeg
}

package "output plugins" #white {
    file "pulse.so" as pl_pulse
    file "sdl.so" as pl_sld
    file "alsa.so" as pl_alsa
}

Plugin .[#RoyalBlue].> pl_sld
Plugin .[#RoyalBlue].> pl_pulse
Plugin .[#RoyalBlue].> pl_alsa
Plugin .[#RoyalBlue].> pl_ffmpeg

Settings - -> Plugin




@enduml

@startuml

allowmixing

class Settings {
    /* ... */
    - - - -
    - io_libs.sys_lib_path : const char *;
    - io_libs.player.dir_name : const char *
    - io_libs.player.dflt_name : const char *
    - io_libs.player.name : String_t
    - io_libs.sound_server.dir_name : const char *
    - io_libs.sound_server.dflt_name : const char *
    - io_libs.sound_server.name : String_t
    ====
    /* ... */
    - - - -
    <b>Plugins</b>
    - - - -
    + plugins.getAudioServer( void ) : AudioOut_t
    + plugins.getPlayer void ) : Player_t
    - - - -
    /* ... */
}

class Plugin {
    - audio_server_initialised : bool
    - audio_server : AudioOut_t
    - player_initialised : bool
    - player : Player_t
    ====
    + loadAudioOut( const char * dir_path, const char * name ) : AudioOut_t *
    + loadPlayer( const char * dir_path, const char * name ) : Player_t *
    + free( void ) : void
}

package "player plugins" #white {
    file "ffmpeg.so" as pl_ffmpeg
}

package "output plugins" #white {
    file "pulse.so" as pl_pulse
    file "sdl.so" as pl_sld
    file "alsa.so" as pl_alsa
}

Plugin .[#RoyalBlue].> pl_sld
Plugin .[#RoyalBlue].> pl_pulse
Plugin .[#RoyalBlue].> pl_alsa
Plugin .[#RoyalBlue].> pl_ffmpeg

Settings - -> Plugin




@enduml

PlantUML version 1.2021.7(Sun May 23 14:40:07 CEST 2021)
(GPL source distribution)
Java Runtime: OpenJDK Runtime Environment
JVM: Dynamic Code Evolution 64-Bit Server VM
Default Encoding: UTF-8
Language: en
Country: GB
--></g></svg>