<?xml version="1.0" encoding="UTF-8" standalone="no"?><svg xmlns="http://www.w3.org/2000/svg" xmlns:xlink="http://www.w3.org/1999/xlink" contentScriptType="application/ecmascript" contentStyleType="text/css" height="336px" preserveAspectRatio="none" style="width:426px;height:336px;background:#FFFFFF;" version="1.1" viewBox="0 0 426 336" width="426px" zoomAndPan="magnify"><defs><filter height="300%" id="fgm8jeuqqdwii" width="300%" x="-1" y="-1"><feGaussianBlur result="blurOut" stdDeviation="2.0"/><feColorMatrix in="blurOut" result="blurOut2" type="matrix" values="0 0 0 0 0 0 0 0 0 0 0 0 0 0 0 0 0 0 .4 0"/><feOffset dx="4.0" dy="4.0" in="blurOut2" result="blurOut3"/><feBlend in="SourceGraphic" in2="blurOut3" mode="normal"/></filter></defs><g><!--MD5=[42603eecb267091c13893a16d8c379fb]
cluster player--><polygon fill="#D3D3D3" filter="url(#fgm8jeuqqdwii)" points="16,6,72,6,79,28.2969,409,28.2969,409,329,16,329,16,6" style="stroke:#000000;stroke-width:1.5;"/><line style="stroke:#000000;stroke-width:1.5;" x1="16" x2="79" y1="28.2969" y2="28.2969"/><text fill="#000000" font-family="sans-serif" font-size="14" font-weight="bold" lengthAdjust="spacing" textLength="50" x="20" y="20.9951">player</text><!--MD5=[0015618b095ddb59eb88a6c6643322a2]
entity iAudioOut--><ellipse cx="294" cy="177" fill="#FEFECE" filter="url(#fgm8jeuqqdwii)" rx="8" ry="8" style="stroke:#A80036;stroke-width:1.5;"/><text fill="#000000" font-family="sans-serif" font-size="14" lengthAdjust="spacing" textLength="134" x="203" y="206.9951">AudioOut interface</text><!--MD5=[b1eafec5714c1c2e1739ec2f4e32653b]
entity iPlayer--><ellipse cx="96" cy="177" fill="#FEFECE" filter="url(#fgm8jeuqqdwii)" rx="8" ry="8" style="stroke:#A80036;stroke-width:1.5;"/><text fill="#000000" font-family="sans-serif" font-size="14" lengthAdjust="spacing" textLength="112" x="40" y="206.9951">Player interface</text><!--MD5=[e8907a2785b2ea9784e1231cc1aa4a14]
entity RadioPlayer--><rect fill="#FEFECE" filter="url(#fgm8jeuqqdwii)" height="46.2969" style="stroke:#A80036;stroke-width:1.5;" width="125" x="132.5" y="41"/><rect fill="#FEFECE" height="10" style="stroke:#A80036;stroke-width:1.5;" width="15" x="237.5" y="46"/><rect fill="#FEFECE" height="2" style="stroke:#A80036;stroke-width:1.5;" width="4" x="235.5" y="48"/><rect fill="#FEFECE" height="2" style="stroke:#A80036;stroke-width:1.5;" width="4" x="235.5" y="52"/><text fill="#000000" font-family="sans-serif" font-size="14" lengthAdjust="spacing" textLength="85" x="147.5" y="73.9951">RadioPlayer</text><!--MD5=[ef74ef138f147deee19c983e4add5a85]
entity FFMpeg--><rect fill="#FEFECE" filter="url(#fgm8jeuqqdwii)" height="46.2969" style="stroke:#A80036;stroke-width:1.5;" width="95" x="58.5" y="267"/><rect fill="#FEFECE" height="10" style="stroke:#A80036;stroke-width:1.5;" width="15" x="133.5" y="272"/><rect fill="#FEFECE" height="2" style="stroke:#A80036;stroke-width:1.5;" width="4" x="131.5" y="274"/><rect fill="#FEFECE" height="2" style="stroke:#A80036;stroke-width:1.5;" width="4" x="131.5" y="278"/><text fill="#000000" font-family="sans-serif" font-size="14" lengthAdjust="spacing" textLength="55" x="73.5" y="299.9951">FFMpeg</text><!--MD5=[ea7232234d7e06393d4815c65d0eaa7d]
entity SDL--><rect fill="#FEFECE" filter="url(#fgm8jeuqqdwii)" height="46.2969" style="stroke:#A80036;stroke-width:1.5;" width="68" x="256" y="267"/><rect fill="#FEFECE" height="10" style="stroke:#A80036;stroke-width:1.5;" width="15" x="304" y="272"/><rect fill="#FEFECE" height="2" style="stroke:#A80036;stroke-width:1.5;" width="4" x="302" y="274"/><rect fill="#FEFECE" height="2" style="stroke:#A80036;stroke-width:1.5;" width="4" x="302" y="278"/><text fill="#000000" font-family="sans-serif" font-size="14" lengthAdjust="spacing" textLength="28" x="271" y="299.9951">SDL</text><!--MD5=[77fc73022587df38fd9c9577d98809c4]
link iAudioOut to SDL--><path d="M293.7,186.34 C293.09,203.28 291.69,242.2 290.79,266.95 " fill="none" id="iAudioOut-SDL" style="stroke:#A80036;stroke-width:1.0;"/><!--MD5=[084b46f7369d2c3f3c4ab77921e79d79]
link iPlayer to FFMpeg--><path d="M96.75,186.34 C98.28,203.28 101.78,242.2 104.01,266.95 " fill="none" id="iPlayer-FFMpeg" style="stroke:#A80036;stroke-width:1.0;"/><!--MD5=[d824fa6e977ef5b8837aacf1ad844209]
link RadioPlayer to iAudioOut--><path d="M214.8,87.2 C234.16,108.91 263.16,141.42 280.17,160.49 " fill="none" id="RadioPlayer-to-iAudioOut" style="stroke:#A80036;stroke-width:1.0;"/><path d="M291.1266,160.0756 A9,9 0 0 0 278.4979 171.3279" style="stroke:#A80036;stroke-width:1.5;fill:none;"/><!--MD5=[ebfdea7c3e23c2b547eee06f86a8c877]
link RadioPlayer to iPlayer--><path d="M175.2,87.2 C155.84,108.91 126.84,141.42 109.83,160.49 " fill="none" id="RadioPlayer-to-iPlayer" style="stroke:#A80036;stroke-width:1.0;"/><path d="M111.5021,171.3279 A9,9 0 0 0 98.8734 160.0756" style="stroke:#A80036;stroke-width:1.5;fill:none;"/><!--MD5=[cea3fe78720643dafebc0ab614482822]
link FFMpeg to SDL--><path d="M153.86,290 C183.94,290 222.25,290 250.57,290 " fill="none" id="FFMpeg-to-SDL" style="stroke:#000000;stroke-width:1.0;stroke-dasharray:7.0,7.0;"/><polygon fill="#000000" points="255.74,290,246.74,286,250.74,290,246.74,294,255.74,290" style="stroke:#000000;stroke-width:1.0;"/><text fill="#000000" font-family="sans-serif" font-size="13" lengthAdjust="spacing" textLength="61" x="174.25" y="283.0669">PCM data</text><!--MD5=[bf0e1dd0e6e0b3c855b21009097697bd]
@startuml
'https://plantuml.com/component-diagram

package player #lightgrey {
    interface "AudioOut interface            " as iAudioOut
    interface "Player interface" as iPlayer
    component RadioPlayer
    component FFMpeg
    component SDL

    iAudioOut - - SDL
    iPlayer   - - FFMpeg
    RadioPlayer - -( iAudioOut
    RadioPlayer - -( iPlayer
}

FFMpeg .[#black]right..> SDL : PCM data

@enduml

@startuml

package player #lightgrey {
    interface "AudioOut interface            " as iAudioOut
    interface "Player interface" as iPlayer
    component RadioPlayer
    component FFMpeg
    component SDL

    iAudioOut - - SDL
    iPlayer   - - FFMpeg
    RadioPlayer - -( iAudioOut
    RadioPlayer - -( iPlayer
}

FFMpeg .[#black]right..> SDL : PCM data

@enduml

PlantUML version 1.2021.7(Sun May 23 14:40:07 CEST 2021)
(GPL source distribution)
Java Runtime: OpenJDK Runtime Environment
JVM: Dynamic Code Evolution 64-Bit Server VM
Default Encoding: UTF-8
Language: en
Country: GB
--></g></svg>