<?xml version="1.0" encoding="UTF-8" standalone="no"?>
<svg
   xmlns:dc="http://purl.org/dc/elements/1.1/"
   xmlns:cc="http://creativecommons.org/ns#"
   xmlns:rdf="http://www.w3.org/1999/02/22-rdf-syntax-ns#"
   xmlns:svg="http://www.w3.org/2000/svg"
   xmlns="http://www.w3.org/2000/svg"
   xmlns:sodipodi="http://sodipodi.sourceforge.net/DTD/sodipodi-0.dtd"
   xmlns:inkscape="http://www.inkscape.org/namespaces/inkscape"
   viewBox="0 0 127.2 46.119122"
   version="1.1"
   id="svg6"
   sodipodi:docname="jetbrains-plain.svg"
   width="127.2"
   height="46.119122"
   inkscape:version="0.92.2 5c3e80d, 2017-08-06">
  <metadata
     id="metadata12">
    <rdf:RDF>
      <cc:Work
         rdf:about="">
        <dc:format>image/svg+xml</dc:format>
        <dc:type
           rdf:resource="http://purl.org/dc/dcmitype/StillImage" />
        <dc:title></dc:title>
      </cc:Work>
    </rdf:RDF>
  </metadata>
  <defs
     id="defs10" />
  <sodipodi:namedview
     pagecolor="#ffffff"
     bordercolor="#666666"
     borderopacity="1"
     objecttolerance="10"
     gridtolerance="10"
     guidetolerance="10"
     inkscape:pageopacity="0"
     inkscape:pageshadow="2"
     inkscape:window-width="696"
     inkscape:window-height="480"
     id="namedview8"
     showgrid="false"
     fit-margin-top="0"
     fit-margin-left="0"
     fit-margin-right="0"
     fit-margin-bottom="0"
     inkscape:zoom="1.84375"
     inkscape:cx="63.7"
     inkscape:cy="21.235494"
     inkscape:window-x="0"
     inkscape:window-y="28"
     inkscape:window-maximized="0"
     inkscape:current-layer="svg6" />
  <g
     id="g4"
     style="fill:#f68b1f"
     transform="translate(-0.3,-39.116371)">
    <path
       d="m 119.2,54.2 c 0,-1.2 0.8,-1.9 2.3,-1.9 1.6,0 2.5,0.5 5.5,2 v -4.5 c -3,-1.3 -3.8,-1.8 -5.8,-1.8 -4.3,0 -6,2.6 -6,6.6 0,8.3 8.2,6.9 8.2,10.7 0,1.4 -0.9,2.2 -2.4,2.2 -2,0 -3,-0.8 -6,-3 v 5 c 2,1.2 3.3,2.3 5.8,2.3 4.1,0 6.7,-2.6 6.7,-7.1 0,-8 -8.3,-7 -8.3,-10.5 z m -54.6,6.3 c 2.1,-1.2 3.2,-3.3 3.2,-5.8 0,-3.5 -1.7,-6.8 -5.5,-6.8 H 55 v 23 h 4 v -9 l 6.2,9 h 4.5 L 63.3,60.7 c 0.5,0 0.8,0.1 1.3,-0.2 z M 61.1,58 H 59 v -6 h 2 c 1.7,0 2.7,1.2 2.7,3 -0.1,2 -1.3,3 -2.6,3 z m 16,-10 -6.9,23 h 4.3 l 1.4,-4 h 7.2 l 1.5,4 H 89 L 81.4,48 Z m 0.1,15 2.2,-9 2.4,9 z M 90,48 h 4 V 71 H 90 Z M 109,62.4 101,48 h -4 v 23 h 4 V 56.5 l 9,14.5 h 3 V 48 h -4 z M 49.3,58.6 c 1.6,-1 2.6,-2.6 2.6,-4.6 0,-1 -0.2,-2.1 -0.7,-3.1 -1.5,1.3 -3.1,2.8 -3.6,3.2 0.1,0.3 0.1,0.3 0.1,0.6 0,1.2 -0.7,2.3 -2.3,2.3 H 44 v -5.2 l 4.8,-3.3 C 48.1,48.2 47.2,47.9 46.2,47.9 H 40 v 23 h 6.7 c 5.4,0 6.6,-3.9 6.6,-6.6 0,-2.6 -1.3,-4.8 -4,-5.7 z M 45.4,67 H 44 v -5 h 2.1 c 1.6,0 2.8,0.7 2.8,2.4 0,2 -0.9,2.6 -3.5,2.6 z M 50,48.5 49.5,49 45,52.2 v 3.6 c 1,-0.7 1.6,-1.4 2.2,-1.9 l 3.5,-3.1 c 0,0 1.7,-1.6 2.7,-2.5 L 53.7,48 c 0.3,-0.2 0.4,-0.4 0.4,-0.6 0,-0.1 1.1,-1.6 1,-1.7 -0.3,-0.3 -3.3,1.5 -5.1,2.8 z M 33.5,58.9 c 0.1,-0.5 0.1,-0.9 0.1,-0.9 0.4,-3 0.8,-6 0.8,-8.1 0,-1 -0.1,-1.7 -0.3,-2.1 -0.2,-0.3 -0.4,-0.4 -0.7,-0.5 -0.4,-0.1 -0.8,0.1 -1.2,0.4 -1.3,0.9 -2,3.6 -2,8.2 0,1.5 0.1,3.2 0.2,5.1 -0.2,0.1 -0.9,0.8 -0.9,0.8 l -1.3,1.2 -0.1,0.1 c -1.2,1.1 -2,1.7 -2.3,1.8 -0.4,0.1 -0.7,0.2 -1,0.2 1.7,-1.2 3,-3.9 3,-5.4 0,-0.2 0,-0.3 -0.1,-0.5 -0.3,-1.1 -0.8,-1.9 -1.6,-2.3 -0.7,-0.4 -1.6,-0.4 -2.7,0 L 23,57.1 c -1.8,0.8 -7.5,4 -9.2,5 0.2,-2.5 1.2,-13.7 1.5,-19.6 0.2,-3.8 0,-1.5 0,-2.2 0,-2.8 -3.5,0 -5.4,1.9 -0.8,0.8 -3.3,3.1 -2.4,4.9 1,1.9 2,1.3 2.6,4.5 1,5.7 0.2,11.6 0.2,12 -0.3,0.1 -2.7,1.3 -2.7,1.3 -4.1,1.9 -7.3,3.4 -7.3,5.8 0,0.4 0.1,0.8 0.2,1.2 3.4,9 8.1,13.8 10,13.3 2.7,-0.7 2.8,-4.2 3,-9.6 0.1,-2.7 0.2,-5.7 0.6,-9 0.2,-0.1 4.7,-3.5 5.6,-4 -0.4,0.8 -0.4,1.6 -0.4,2 0,1.1 0.2,1.9 0.4,2.4 0.4,0.8 0.7,1.3 1.5,1.7 1.1,0.5 2,0.6 3.8,-0.1 0.8,-0.3 2.2,-1.3 3.7,-2.6 0.3,0.5 1.6,2.8 1.6,2.8 l 1.2,2.1 c 0.5,1 1.4,1.3 2.4,0.8 0.7,-0.4 1.2,-0.7 1.4,-1.2 v -0.3 c 0,-0.3 0.1,-0.6 -0.1,-0.9 -1.4,-2.5 -1.3,-4.7 -1.3,-6.3 v -0.3 c 0,-0.2 2.4,-1.9 2.4,-1.9 l 2.6,-2 v -3.6 l -2.5,1.7 c 0.1,-0.1 -2.1,1.4 -2.9,2 z M 9,77.7 C 7.9,76.8 7.4,76.1 6.6,74.1 5.2,70.8 7.1,69.8 10.5,67.9 10.1,71.3 9.8,78.5 9,77.7 Z M 22.6,63.6 c 0,-1.2 -0.3,-2.8 1.3,-3.7 0.6,-0.3 1,-0.1 1.2,0.1 0.4,0.5 -0.6,2.4 -2.5,3.6 z"
       id="path2"
       inkscape:connector-curvature="0" />
  </g>
</svg>
