<?xml version="1.0" encoding="UTF-8"?><svg xmlns="http://www.w3.org/2000/svg" xmlns:xlink="http://www.w3.org/1999/xlink" fill-opacity="1" color-rendering="auto" color-interpolation="auto" text-rendering="auto" stroke="black" stroke-linecap="square" width="870" stroke-miterlimit="10" shape-rendering="auto" stroke-opacity="1" fill="black" stroke-dasharray="none" font-weight="normal" stroke-width="1" height="477" font-family="'Dialog'" font-style="normal" stroke-linejoin="miter" font-size="12px" stroke-dashoffset="0" image-rendering="auto">
  <!--Generated by ySVG 2.5-->
  <defs id="genericDefs"/>
  <g>
    <defs id="defs1">
      <clipPath clipPathUnits="userSpaceOnUse" id="clipPath1">
        <path d="M0 0 L870 0 L870 477 L0 477 L0 0 Z"/>
      </clipPath>
      <clipPath clipPathUnits="userSpaceOnUse" id="clipPath2">
        <path d="M-446 62 L424 62 L424 539 L-446 539 L-446 62 Z"/>
      </clipPath>
    </defs>
    <g fill="white" text-rendering="geometricPrecision" shape-rendering="geometricPrecision" transform="translate(446,-62)" stroke="white">
      <rect x="-446" width="870" height="477" y="62" clip-path="url(#clipPath2)" stroke="none"/>
    </g>
    <g fill="rgb(255,204,0)" text-rendering="geometricPrecision" shape-rendering="geometricPrecision" transform="matrix(1,0,0,1,446,-62)" stroke="rgb(255,204,0)">
      <circle r="15" clip-path="url(#clipPath2)" cx="-392.4536" cy="153.25" stroke="none"/>
    </g>
    <g text-rendering="geometricPrecision" stroke-miterlimit="1.45" shape-rendering="geometricPrecision" transform="matrix(1,0,0,1,446,-62)" stroke-linecap="butt">
      <circle fill="none" r="15" clip-path="url(#clipPath2)" cx="-392.4536" cy="153.25"/>
      <text x="-396.2622" xml:space="preserve" y="157.4043" clip-path="url(#clipPath2)" font-family="sans-serif" stroke="none">b</text>
    </g>
    <g fill="rgb(255,204,0)" text-rendering="geometricPrecision" shape-rendering="geometricPrecision" transform="matrix(1,0,0,1,446,-62)" stroke="rgb(255,204,0)">
      <circle r="15" clip-path="url(#clipPath2)" cx="-392.4536" cy="427.4" stroke="none"/>
    </g>
    <g text-rendering="geometricPrecision" stroke-miterlimit="1.45" shape-rendering="geometricPrecision" transform="matrix(1,0,0,1,446,-62)" stroke-linecap="butt">
      <circle fill="none" r="15" clip-path="url(#clipPath2)" cx="-392.4536" cy="427.4"/>
      <text x="-396.2563" xml:space="preserve" y="431.5543" clip-path="url(#clipPath2)" font-family="sans-serif" stroke="none">h</text>
    </g>
    <g fill="rgb(104,176,227)" text-rendering="geometricPrecision" shape-rendering="geometricPrecision" transform="matrix(1,0,0,1,446,-62)" stroke="rgb(104,176,227)">
      <path d="M-430.4536 105.075 L-430.4536 462.3418 L-354.4536 462.3418 L-354.4536 105.075 ZM-429.4536 127.075 L-429.4536 461.3418 L-355.4536 461.3418 L-355.4536 127.075 Z" fill-rule="evenodd" clip-path="url(#clipPath2)" stroke="none"/>
    </g>
    <g stroke-linecap="butt" transform="matrix(1,0,0,1,446,-62)" fill="white" text-rendering="geometricPrecision" font-family="sans-serif" shape-rendering="geometricPrecision" stroke="white" stroke-miterlimit="1.45">
      <text x="-428.4536" xml:space="preserve" y="118.2137" clip-path="url(#clipPath2)" stroke="none">grove</text>
    </g>
    <g fill="rgb(255,204,0)" text-rendering="geometricPrecision" shape-rendering="geometricPrecision" transform="matrix(1,0,0,1,446,-62)" stroke="rgb(255,204,0)">
      <circle r="15" clip-path="url(#clipPath2)" cx="-308.2" cy="427.4" stroke="none"/>
    </g>
    <g text-rendering="geometricPrecision" stroke-miterlimit="1.45" shape-rendering="geometricPrecision" transform="matrix(1,0,0,1,446,-62)" stroke-linecap="butt">
      <circle fill="none" r="15" clip-path="url(#clipPath2)" cx="-308.2" cy="427.4"/>
      <text x="-311.8914" xml:space="preserve" y="431.5543" clip-path="url(#clipPath2)" font-family="sans-serif" stroke="none">e</text>
    </g>
    <g fill="rgb(255,204,0)" text-rendering="geometricPrecision" shape-rendering="geometricPrecision" transform="matrix(1,0,0,1,446,-62)" stroke="rgb(255,204,0)">
      <circle r="15" clip-path="url(#clipPath2)" cx="-223.9464" cy="427.4" stroke="none"/>
    </g>
    <g text-rendering="geometricPrecision" stroke-miterlimit="1.45" shape-rendering="geometricPrecision" transform="matrix(1,0,0,1,446,-62)" stroke-linecap="butt">
      <circle fill="none" r="15" clip-path="url(#clipPath2)" cx="-223.9464" cy="427.4"/>
      <text x="-225.6134" xml:space="preserve" y="431.5543" clip-path="url(#clipPath2)" font-family="sans-serif" stroke="none">l</text>
    </g>
    <g fill="rgb(255,204,0)" text-rendering="geometricPrecision" shape-rendering="geometricPrecision" transform="matrix(1,0,0,1,446,-62)" stroke="rgb(255,204,0)">
      <circle r="15" clip-path="url(#clipPath2)" cx="-139.6928" cy="346.9" stroke="none"/>
    </g>
    <g text-rendering="geometricPrecision" stroke-miterlimit="1.45" shape-rendering="geometricPrecision" transform="matrix(1,0,0,1,446,-62)" stroke-linecap="butt">
      <circle fill="none" r="15" clip-path="url(#clipPath2)" cx="-139.6928" cy="346.9"/>
      <text x="-141.3598" xml:space="preserve" y="351.0543" clip-path="url(#clipPath2)" font-family="sans-serif" stroke="none">l</text>
    </g>
    <g fill="rgb(255,204,0)" text-rendering="geometricPrecision" shape-rendering="geometricPrecision" transform="matrix(1,0,0,1,446,-62)" stroke="rgb(255,204,0)">
      <circle r="15" clip-path="url(#clipPath2)" cx="-55.4392" cy="266.875" stroke="none"/>
    </g>
    <g text-rendering="geometricPrecision" stroke-miterlimit="1.45" shape-rendering="geometricPrecision" transform="matrix(1,0,0,1,446,-62)" stroke-linecap="butt">
      <circle fill="none" r="15" clip-path="url(#clipPath2)" cx="-55.4392" cy="266.875"/>
      <text x="-59.1101" xml:space="preserve" y="271.0293" clip-path="url(#clipPath2)" font-family="sans-serif" stroke="none">o</text>
    </g>
    <g fill="rgb(255,204,0)" text-rendering="geometricPrecision" shape-rendering="geometricPrecision" transform="matrix(1,0,0,1,446,-62)" stroke="rgb(255,204,0)">
      <circle r="15" clip-path="url(#clipPath2)" cx="-139.6928" cy="427.4" stroke="none"/>
    </g>
    <g text-rendering="geometricPrecision" stroke-miterlimit="1.45" shape-rendering="geometricPrecision" transform="matrix(1,0,0,1,446,-62)" stroke-linecap="butt">
      <circle fill="none" r="15" clip-path="url(#clipPath2)" cx="-139.6928" cy="427.4"/>
      <text x="-143.5014" xml:space="preserve" y="431.5543" clip-path="url(#clipPath2)" font-family="sans-serif" stroke="none">p</text>
    </g>
    <g fill="rgb(255,204,0)" text-rendering="geometricPrecision" shape-rendering="geometricPrecision" transform="matrix(1,0,0,1,446,-62)" stroke="rgb(255,204,0)">
      <circle r="15" clip-path="url(#clipPath2)" cx="-308.2" cy="153.25" stroke="none"/>
    </g>
    <g text-rendering="geometricPrecision" stroke-miterlimit="1.45" shape-rendering="geometricPrecision" transform="matrix(1,0,0,1,446,-62)" stroke-linecap="butt">
      <circle fill="none" r="15" clip-path="url(#clipPath2)" cx="-308.2" cy="153.25"/>
      <text x="-309.867" xml:space="preserve" y="157.4043" clip-path="url(#clipPath2)" font-family="sans-serif" stroke="none">l</text>
    </g>
    <g fill="rgb(255,204,0)" text-rendering="geometricPrecision" shape-rendering="geometricPrecision" transform="matrix(1,0,0,1,446,-62)" stroke="rgb(255,204,0)">
      <circle r="15" clip-path="url(#clipPath2)" cx="-55.4392" cy="346.9" stroke="none"/>
    </g>
    <g text-rendering="geometricPrecision" stroke-miterlimit="1.45" shape-rendering="geometricPrecision" transform="matrix(1,0,0,1,446,-62)" stroke-linecap="butt">
      <circle fill="none" r="15" clip-path="url(#clipPath2)" cx="-55.4392" cy="346.9"/>
      <text x="-57.906" xml:space="preserve" y="351.0543" clip-path="url(#clipPath2)" font-family="sans-serif" stroke="none">r</text>
    </g>
    <g fill="rgb(255,204,0)" text-rendering="geometricPrecision" shape-rendering="geometricPrecision" transform="matrix(1,0,0,1,446,-62)" stroke="rgb(255,204,0)">
      <circle r="15" clip-path="url(#clipPath2)" cx="28.8144" cy="346.9" stroke="none"/>
    </g>
    <g text-rendering="geometricPrecision" stroke-miterlimit="1.45" shape-rendering="geometricPrecision" transform="matrix(1,0,0,1,446,-62)" stroke-linecap="butt">
      <circle fill="none" r="15" clip-path="url(#clipPath2)" cx="28.8144" cy="346.9"/>
      <text x="25.1376" xml:space="preserve" y="351.0543" clip-path="url(#clipPath2)" font-family="sans-serif" stroke="none">a</text>
    </g>
    <g fill="rgb(255,204,0)" text-rendering="geometricPrecision" shape-rendering="geometricPrecision" transform="matrix(1,0,0,1,446,-62)" stroke="rgb(255,204,0)">
      <circle r="15" clip-path="url(#clipPath2)" cx="113.068" cy="346.9" stroke="none"/>
    </g>
    <g text-rendering="geometricPrecision" stroke-miterlimit="1.45" shape-rendering="geometricPrecision" transform="matrix(1,0,0,1,446,-62)" stroke-linecap="butt">
      <circle fill="none" r="15" clip-path="url(#clipPath2)" cx="113.068" cy="346.9"/>
      <text x="111.401" xml:space="preserve" y="351.0543" clip-path="url(#clipPath2)" font-family="sans-serif" stroke="none">i</text>
    </g>
    <g fill="rgb(255,204,0)" text-rendering="geometricPrecision" shape-rendering="geometricPrecision" transform="matrix(1,0,0,1,446,-62)" stroke="rgb(255,204,0)">
      <circle r="15" clip-path="url(#clipPath2)" cx="197.3216" cy="346.9" stroke="none"/>
    </g>
    <g text-rendering="geometricPrecision" stroke-miterlimit="1.45" shape-rendering="geometricPrecision" transform="matrix(1,0,0,1,446,-62)" stroke-linecap="butt">
      <circle fill="none" r="15" clip-path="url(#clipPath2)" cx="197.3216" cy="346.9"/>
      <text x="194.1956" xml:space="preserve" y="351.0543" clip-path="url(#clipPath2)" font-family="sans-serif" stroke="none">s</text>
    </g>
    <g fill="rgb(255,204,0)" text-rendering="geometricPrecision" shape-rendering="geometricPrecision" transform="matrix(1,0,0,1,446,-62)" stroke="rgb(255,204,0)">
      <circle r="15" clip-path="url(#clipPath2)" cx="281.5751" cy="346.9" stroke="none"/>
    </g>
    <g text-rendering="geometricPrecision" stroke-miterlimit="1.45" shape-rendering="geometricPrecision" transform="matrix(1,0,0,1,446,-62)" stroke-linecap="butt">
      <circle fill="none" r="15" clip-path="url(#clipPath2)" cx="281.5751" cy="346.9"/>
      <text x="277.8837" xml:space="preserve" y="351.0543" clip-path="url(#clipPath2)" font-family="sans-serif" stroke="none">e</text>
    </g>
    <g fill="rgb(255,204,0)" text-rendering="geometricPrecision" shape-rendering="geometricPrecision" transform="matrix(1,0,0,1,446,-62)" stroke="rgb(255,204,0)">
      <circle r="15" clip-path="url(#clipPath2)" cx="365.8287" cy="346.9" stroke="none"/>
    </g>
    <g text-rendering="geometricPrecision" stroke-miterlimit="1.45" shape-rendering="geometricPrecision" transform="matrix(1,0,0,1,446,-62)" stroke-linecap="butt">
      <circle fill="none" r="15" clip-path="url(#clipPath2)" cx="365.8287" cy="346.9"/>
      <text x="363.3619" xml:space="preserve" y="351.0543" clip-path="url(#clipPath2)" font-family="sans-serif" stroke="none">r</text>
    </g>
    <g fill="rgb(255,204,0)" text-rendering="geometricPrecision" shape-rendering="geometricPrecision" transform="matrix(1,0,0,1,446,-62)" stroke="rgb(255,204,0)">
      <circle r="15" clip-path="url(#clipPath2)" cx="-223.9464" cy="153.25" stroke="none"/>
    </g>
    <g text-rendering="geometricPrecision" stroke-miterlimit="1.45" shape-rendering="geometricPrecision" transform="matrix(1,0,0,1,446,-62)" stroke-linecap="butt">
      <circle fill="none" r="15" clip-path="url(#clipPath2)" cx="-223.9464" cy="153.25"/>
      <text x="-227.6173" xml:space="preserve" y="157.4043" clip-path="url(#clipPath2)" font-family="sans-serif" stroke="none">o</text>
    </g>
    <g fill="rgb(255,204,0)" text-rendering="geometricPrecision" shape-rendering="geometricPrecision" transform="matrix(1,0,0,1,446,-62)" stroke="rgb(255,204,0)">
      <circle r="15" clip-path="url(#clipPath2)" cx="-139.6928" cy="153.25" stroke="none"/>
    </g>
    <g text-rendering="geometricPrecision" stroke-miterlimit="1.45" shape-rendering="geometricPrecision" transform="matrix(1,0,0,1,446,-62)" stroke-linecap="butt">
      <circle fill="none" r="15" clip-path="url(#clipPath2)" cx="-139.6928" cy="153.25"/>
      <text x="-143.5014" xml:space="preserve" y="157.4043" clip-path="url(#clipPath2)" font-family="sans-serif" stroke="none">g</text>
    </g>
    <g fill="rgb(255,204,0)" text-rendering="geometricPrecision" shape-rendering="geometricPrecision" transform="matrix(1,0,0,1,446,-62)" stroke="rgb(255,204,0)">
      <circle r="15" clip-path="url(#clipPath2)" cx="-55.4392" cy="153.25" stroke="none"/>
    </g>
    <g text-rendering="geometricPrecision" stroke-miterlimit="1.45" shape-rendering="geometricPrecision" transform="matrix(1,0,0,1,446,-62)" stroke-linecap="butt">
      <circle fill="none" r="15" clip-path="url(#clipPath2)" cx="-55.4392" cy="153.25"/>
      <text x="-59.116" xml:space="preserve" y="157.4043" clip-path="url(#clipPath2)" font-family="sans-serif" stroke="none">a</text>
    </g>
    <g fill="rgb(255,204,0)" text-rendering="geometricPrecision" shape-rendering="geometricPrecision" transform="matrix(1,0,0,1,446,-62)" stroke="rgb(255,204,0)">
      <circle r="15" clip-path="url(#clipPath2)" cx="28.8144" cy="153.25" stroke="none"/>
    </g>
    <g text-rendering="geometricPrecision" stroke-miterlimit="1.45" shape-rendering="geometricPrecision" transform="matrix(1,0,0,1,446,-62)" stroke-linecap="butt">
      <circle fill="none" r="15" clip-path="url(#clipPath2)" cx="28.8144" cy="153.25"/>
      <text x="26.4618" xml:space="preserve" y="157.4043" clip-path="url(#clipPath2)" font-family="sans-serif" stroke="none">t</text>
    </g>
    <g fill="rgb(255,204,0)" text-rendering="geometricPrecision" shape-rendering="geometricPrecision" transform="matrix(1,0,0,1,446,-62)" stroke="rgb(255,204,0)">
      <circle r="15" clip-path="url(#clipPath2)" cx="113.068" cy="153.25" stroke="none"/>
    </g>
    <g text-rendering="geometricPrecision" stroke-miterlimit="1.45" shape-rendering="geometricPrecision" transform="matrix(1,0,0,1,446,-62)" stroke-linecap="butt">
      <circle fill="none" r="15" clip-path="url(#clipPath2)" cx="113.068" cy="153.25"/>
      <text x="109.3971" xml:space="preserve" y="157.4043" clip-path="url(#clipPath2)" font-family="sans-serif" stroke="none">o</text>
    </g>
    <g fill="rgb(255,204,0)" text-rendering="geometricPrecision" shape-rendering="geometricPrecision" transform="matrix(1,0,0,1,446,-62)" stroke="rgb(255,204,0)">
      <circle r="15" clip-path="url(#clipPath2)" cx="197.3216" cy="153.25" stroke="none"/>
    </g>
    <g text-rendering="geometricPrecision" stroke-miterlimit="1.45" shape-rendering="geometricPrecision" transform="matrix(1,0,0,1,446,-62)" stroke-linecap="butt">
      <circle fill="none" r="15" clip-path="url(#clipPath2)" cx="197.3216" cy="153.25"/>
      <text x="194.8548" xml:space="preserve" y="157.4043" clip-path="url(#clipPath2)" font-family="sans-serif" stroke="none">r</text>
    </g>
    <g fill="white" text-rendering="geometricPrecision" shape-rendering="geometricPrecision" transform="matrix(1,0,0,1,446,-62)" stroke="white">
      <rect x="-182.1928" width="85" height="30" y="492.9" clip-path="url(#clipPath2)" stroke="none"/>
    </g>
    <g stroke-linecap="butt" transform="matrix(1,0,0,1,446,-62)" fill="green" text-rendering="geometricPrecision" shape-rendering="geometricPrecision" stroke="green" stroke-miterlimit="1.45">
      <rect fill="none" x="-182.1928" width="85" height="30" y="492.9" clip-path="url(#clipPath2)"/>
      <text x="-173.2026" y="505.0699" clip-path="url(#clipPath2)" fill="black" font-family="sans-serif" stroke="none" xml:space="preserve">articles: {}</text>
      <text x="-171.8491" y="519.0387" clip-path="url(#clipPath2)" fill="black" font-family="sans-serif" stroke="none" xml:space="preserve">tags: { .. }</text>
    </g>
    <g fill="white" text-rendering="geometricPrecision" shape-rendering="geometricPrecision" transform="matrix(1,0,0,1,446,-62)" stroke="white">
      <rect x="-97.9392" width="85" height="30" y="191.875" clip-path="url(#clipPath2)" stroke="none"/>
    </g>
    <g stroke-linecap="butt" transform="matrix(1,0,0,1,446,-62)" fill="green" text-rendering="geometricPrecision" shape-rendering="geometricPrecision" stroke="green" stroke-miterlimit="1.45">
      <rect fill="none" x="-97.9392" width="85" height="30" y="191.875" clip-path="url(#clipPath2)"/>
      <text x="-96.5779" y="204.0449" clip-path="url(#clipPath2)" fill="black" font-family="sans-serif" stroke="none" xml:space="preserve">articles: { .. }</text>
      <text x="-79.9666" y="218.0137" clip-path="url(#clipPath2)" fill="black" font-family="sans-serif" stroke="none" xml:space="preserve">tags: {}</text>
    </g>
    <g fill="white" text-rendering="geometricPrecision" shape-rendering="geometricPrecision" transform="matrix(1,0,0,1,446,-62)" stroke="white">
      <rect x="-182.1928" width="85" height="30" y="251.875" clip-path="url(#clipPath2)" stroke="none"/>
    </g>
    <g stroke-linecap="butt" transform="matrix(1,0,0,1,446,-62)" fill="green" text-rendering="geometricPrecision" shape-rendering="geometricPrecision" stroke="green" stroke-miterlimit="1.45">
      <rect fill="none" x="-182.1928" width="85" height="30" y="251.875" clip-path="url(#clipPath2)"/>
      <text x="-180.8315" y="264.0449" clip-path="url(#clipPath2)" fill="black" font-family="sans-serif" stroke="none" xml:space="preserve">articles: { .. }</text>
      <text x="-171.8491" y="278.0137" clip-path="url(#clipPath2)" fill="black" font-family="sans-serif" stroke="none" xml:space="preserve">tags: { .. }</text>
    </g>
    <g fill="white" text-rendering="geometricPrecision" shape-rendering="geometricPrecision" transform="matrix(1,0,0,1,446,-62)" stroke="white">
      <rect x="323.3287" width="85" height="30" y="251.875" clip-path="url(#clipPath2)" stroke="none"/>
    </g>
    <g stroke-linecap="butt" transform="matrix(1,0,0,1,446,-62)" fill="green" text-rendering="geometricPrecision" shape-rendering="geometricPrecision" stroke="green" stroke-miterlimit="1.45">
      <rect fill="none" x="323.3287" width="85" height="30" y="251.875" clip-path="url(#clipPath2)"/>
      <text x="324.6901" y="264.0449" clip-path="url(#clipPath2)" fill="black" font-family="sans-serif" stroke="none" xml:space="preserve">articles: { .. }</text>
      <text x="341.3014" y="278.0137" clip-path="url(#clipPath2)" fill="black" font-family="sans-serif" stroke="none" xml:space="preserve">tags: {}</text>
    </g>
    <g fill="white" text-rendering="geometricPrecision" shape-rendering="geometricPrecision" transform="matrix(1,0,0,1,446,-62)" stroke="white">
      <rect x="-182.1928" width="85" height="30" y="78.25" clip-path="url(#clipPath2)" stroke="none"/>
    </g>
    <g stroke-linecap="butt" transform="matrix(1,0,0,1,446,-62)" fill="green" text-rendering="geometricPrecision" shape-rendering="geometricPrecision" stroke="green" stroke-miterlimit="1.45">
      <rect fill="none" x="-182.1928" width="85" height="30" y="78.25" clip-path="url(#clipPath2)"/>
      <text x="-173.2026" y="90.4199" clip-path="url(#clipPath2)" fill="black" font-family="sans-serif" stroke="none" xml:space="preserve">articles: {}</text>
      <text x="-171.8491" y="104.3887" clip-path="url(#clipPath2)" fill="black" font-family="sans-serif" stroke="none" xml:space="preserve">tags: { .. }</text>
    </g>
    <g fill="white" text-rendering="geometricPrecision" shape-rendering="geometricPrecision" transform="matrix(1,0,0,1,446,-62)" stroke="white">
      <rect x="154.8216" width="85" height="30" y="78.25" clip-path="url(#clipPath2)" stroke="none"/>
    </g>
    <g stroke-linecap="butt" transform="matrix(1,0,0,1,446,-62)" fill="green" text-rendering="geometricPrecision" shape-rendering="geometricPrecision" stroke="green" stroke-miterlimit="1.45">
      <rect fill="none" x="154.8216" width="85" height="30" y="78.25" clip-path="url(#clipPath2)"/>
      <text x="156.1829" y="90.4199" clip-path="url(#clipPath2)" fill="black" font-family="sans-serif" stroke="none" xml:space="preserve">articles: { .. }</text>
      <text x="172.7942" y="104.3887" clip-path="url(#clipPath2)" fill="black" font-family="sans-serif" stroke="none" xml:space="preserve">tags: {}</text>
      <path fill="none" d="M-377.4536 427.4 L-331.2 427.4" clip-path="url(#clipPath2)" stroke="black"/>
      <path fill="black" d="M-323.2 427.4 L-335.2 422.4 L-332.2 427.4 L-335.2 432.4 Z" clip-path="url(#clipPath2)" stroke="none"/>
      <path fill="none" d="M-293.2 427.4 L-246.9464 427.4" clip-path="url(#clipPath2)" stroke="black"/>
      <path fill="black" d="M-238.9464 427.4 L-250.9464 422.4 L-247.9464 427.4 L-250.9464 432.4 Z" clip-path="url(#clipPath2)" stroke="none"/>
      <path fill="none" d="M-213.101 417.0378 L-156.3225 362.7888" clip-path="url(#clipPath2)" stroke="black"/>
      <path fill="black" d="M-150.5383 357.2623 L-162.6687 361.9369 L-157.0455 363.4796 L-155.7605 369.1672 Z" clip-path="url(#clipPath2)" stroke="none"/>
      <path fill="none" d="M-128.8168 336.5698 L-72.1158 282.7146" clip-path="url(#clipPath2)" stroke="black"/>
      <path fill="black" d="M-66.3152 277.2052 L-78.4594 281.8439 L-72.8409 283.4033 L-71.5727 289.0946 Z" clip-path="url(#clipPath2)" stroke="none"/>
      <path fill="none" d="M-208.9464 427.4 L-162.6928 427.4" clip-path="url(#clipPath2)" stroke="black"/>
      <path fill="black" d="M-154.6928 427.4 L-166.6928 422.4 L-163.6928 427.4 L-166.6928 432.4 Z" clip-path="url(#clipPath2)" stroke="none"/>
      <path fill="none" d="M-377.4536 153.25 L-331.2 153.25" clip-path="url(#clipPath2)" stroke="black"/>
      <path fill="black" d="M-323.2 153.25 L-335.2 148.25 L-332.2 153.25 L-335.2 158.25 Z" clip-path="url(#clipPath2)" stroke="none"/>
      <path fill="none" d="M-124.6928 346.9 L-78.4392 346.9" clip-path="url(#clipPath2)" stroke="black"/>
      <path fill="black" d="M-70.4392 346.9 L-82.4392 341.9 L-79.4392 346.9 L-82.4392 351.9 Z" clip-path="url(#clipPath2)" stroke="none"/>
      <path fill="none" d="M-40.4392 346.9 L5.8144 346.9" clip-path="url(#clipPath2)" stroke="black"/>
      <path fill="black" d="M13.8144 346.9 L1.8144 341.9 L4.8144 346.9 L1.8144 351.9 Z" clip-path="url(#clipPath2)" stroke="none"/>
      <path fill="none" d="M43.8144 346.9 L90.068 346.9" clip-path="url(#clipPath2)" stroke="black"/>
      <path fill="black" d="M98.068 346.9 L86.068 341.9 L89.068 346.9 L86.068 351.9 Z" clip-path="url(#clipPath2)" stroke="none"/>
      <path fill="none" d="M128.068 346.9 L174.3215 346.9" clip-path="url(#clipPath2)" stroke="black"/>
      <path fill="black" d="M182.3215 346.9 L170.3215 341.9 L173.3215 346.9 L170.3215 351.9 Z" clip-path="url(#clipPath2)" stroke="none"/>
      <path fill="none" d="M212.3215 346.9 L258.5751 346.9" clip-path="url(#clipPath2)" stroke="black"/>
      <path fill="black" d="M266.5751 346.9 L254.5751 341.9 L257.5751 346.9 L254.5751 351.9 Z" clip-path="url(#clipPath2)" stroke="none"/>
      <path fill="none" d="M296.5751 346.9 L342.8287 346.9" clip-path="url(#clipPath2)" stroke="black"/>
      <path fill="black" d="M350.8287 346.9 L338.8287 341.9 L341.8287 346.9 L338.8287 351.9 Z" clip-path="url(#clipPath2)" stroke="none"/>
      <path fill="none" d="M-293.2 153.25 L-246.9464 153.25" clip-path="url(#clipPath2)" stroke="black"/>
      <path fill="black" d="M-238.9464 153.25 L-250.9464 148.25 L-247.9464 153.25 L-250.9464 158.25 Z" clip-path="url(#clipPath2)" stroke="none"/>
      <path fill="none" d="M-208.9464 153.25 L-162.6928 153.25" clip-path="url(#clipPath2)" stroke="black"/>
      <path fill="black" d="M-154.6928 153.25 L-166.6928 148.25 L-163.6928 153.25 L-166.6928 158.25 Z" clip-path="url(#clipPath2)" stroke="none"/>
      <path fill="none" d="M-124.6928 153.25 L-78.4392 153.25" clip-path="url(#clipPath2)" stroke="black"/>
      <path fill="black" d="M-70.4392 153.25 L-82.4392 148.25 L-79.4392 153.25 L-82.4392 158.25 Z" clip-path="url(#clipPath2)" stroke="none"/>
      <path fill="none" d="M-40.4392 153.25 L5.8144 153.25" clip-path="url(#clipPath2)" stroke="black"/>
      <path fill="black" d="M13.8144 153.25 L1.8144 148.25 L4.8144 153.25 L1.8144 158.25 Z" clip-path="url(#clipPath2)" stroke="none"/>
      <path fill="none" d="M43.8144 153.25 L90.068 153.25" clip-path="url(#clipPath2)" stroke="black"/>
      <path fill="black" d="M98.068 153.25 L86.068 148.25 L89.068 153.25 L86.068 158.25 Z" clip-path="url(#clipPath2)" stroke="none"/>
      <path fill="none" d="M128.068 153.25 L174.3215 153.25" clip-path="url(#clipPath2)" stroke="black"/>
      <path fill="black" d="M182.3215 153.25 L170.3215 148.25 L173.3215 153.25 L170.3215 158.25 Z" clip-path="url(#clipPath2)" stroke="none"/>
      <path fill="none" stroke-dasharray="6,2" d="M-139.6928 442.4 L-139.6928 492.9" clip-path="url(#clipPath2)" stroke="teal"/>
      <path fill="none" stroke-dasharray="6,2" d="M-55.4392 251.875 L-55.4392 221.875" clip-path="url(#clipPath2)" stroke="teal"/>
      <path fill="none" stroke-dasharray="6,2" d="M-139.6928 331.9 L-139.6928 281.875" clip-path="url(#clipPath2)" stroke="teal"/>
      <path fill="none" stroke-dasharray="6,2" d="M365.8287 331.9 L365.8287 281.875" clip-path="url(#clipPath2)" stroke="teal"/>
      <path fill="none" stroke-dasharray="6,2" d="M-139.6928 138.25 L-139.6928 108.25" clip-path="url(#clipPath2)" stroke="teal"/>
      <path fill="none" stroke-dasharray="6,2" d="M197.3215 138.25 L197.3215 108.25" clip-path="url(#clipPath2)" stroke="teal"/>
    </g>
  </g>
</svg>
