<?xml version="1.0" encoding="UTF-8" standalone="no"?>
<svg
   xmlns:dc="http://purl.org/dc/elements/1.1/"
   xmlns:cc="http://creativecommons.org/ns#"
   xmlns:rdf="http://www.w3.org/1999/02/22-rdf-syntax-ns#"
   xmlns:svg="http://www.w3.org/2000/svg"
   xmlns="http://www.w3.org/2000/svg"
   xmlns:sodipodi="http://sodipodi.sourceforge.net/DTD/sodipodi-0.dtd"
   xmlns:inkscape="http://www.inkscape.org/namespaces/inkscape"
   width="94.622292mm"
   height="266.56177mm"
   viewBox="0 0 94.622292 266.56177"
   version="1.1"
   id="svg8"
   sodipodi:docname="ISO8859.svg"
   inkscape:version="1.0 (4035a4fb49, 2020-05-01)">
  <defs
     id="defs2" />
  <sodipodi:namedview
     id="base"
     pagecolor="#ffffff"
     bordercolor="#666666"
     borderopacity="1.0"
     inkscape:pageopacity="0.0"
     inkscape:pageshadow="2"
     inkscape:zoom="0.69958383"
     inkscape:cx="-305.86887"
     inkscape:cy="590.90395"
     inkscape:document-units="mm"
     inkscape:current-layer="layer1"
     inkscape:document-rotation="0"
     showgrid="false"
     fit-margin-left="1"
     fit-margin-right="1"
     fit-margin-top="1"
     fit-margin-bottom="1"
     inkscape:window-width="1920"
     inkscape:window-height="1141"
     inkscape:window-x="0"
     inkscape:window-y="30"
     inkscape:window-maximized="1" />
  <metadata
     id="metadata5">
    <rdf:RDF>
      <cc:Work
         rdf:about="">
        <dc:format>image/svg+xml</dc:format>
        <dc:type
           rdf:resource="http://purl.org/dc/dcmitype/StillImage" />
        <dc:title />
      </cc:Work>
    </rdf:RDF>
  </metadata>
  <g
     inkscape:label="Layer 1"
     inkscape:groupmode="layer"
     id="layer1"
     transform="translate(-54.440648,58.240983)">
    <g
       aria-label="0"
       id="text837"
       style="font-style:normal;font-weight:normal;font-size:10.5833px;line-height:1.25;font-family:sans-serif;letter-spacing:0px;word-spacing:0px;fill:#000000;fill-opacity:1;stroke:none;stroke-width:0.264583">
      <path
         d="m 71.532635,-55.432262 q -0.806149,0 -1.214392,0.795815 -0.403075,0.790647 -0.403075,2.382276 0,1.586461 0.403075,2.382276 0.408243,0.790647 1.214392,0.790647 0.811318,0 1.214393,-0.790647 0.408242,-0.795815 0.408242,-2.382276 0,-1.591629 -0.408242,-2.382276 -0.403075,-0.795815 -1.214393,-0.795815 z m 0,-0.82682 q 1.297075,0 1.979202,1.028358 0.687294,1.02319 0.687294,2.976553 0,1.948195 -0.687294,2.976553 -0.682127,1.02319 -1.979202,1.02319 -1.297074,0 -1.984368,-1.02319 -0.682127,-1.028358 -0.682127,-2.976553 0,-1.953363 0.682127,-2.976553 0.687294,-1.028358 1.984368,-1.028358 z"
         style="stroke-width:0.264583"
         id="path1012" />
    </g>
    <g
       aria-label="127"
       id="text841"
       style="font-style:normal;font-weight:normal;font-size:10.5833px;line-height:1.25;font-family:sans-serif;letter-spacing:0px;word-spacing:0px;fill:#000000;fill-opacity:1;stroke:none;stroke-width:0.264583">
      <path
         d="m 56.215795,74.355825 h 1.705316 v -5.885927 l -1.855178,0.372069 v -0.950843 l 1.844843,-0.372069 h 1.043861 v 6.83677 h 1.705317 v 0.878497 h -4.444159 z"
         style="stroke-width:0.264583"
         id="path1015" />
      <path
         d="m 63.667512,74.355825 h 3.643177 v 0.878497 h -4.89891 v -0.878497 q 0.594277,-0.614948 1.617467,-1.648473 1.028358,-1.038693 1.291907,-1.338415 0.50126,-0.563272 0.697629,-0.950844 0.201538,-0.392739 0.201538,-0.769976 0,-0.614948 -0.434081,-1.00252 -0.428913,-0.387572 -1.121375,-0.387572 -0.490924,0 -1.038693,0.170532 -0.542601,0.170532 -1.162716,0.516763 v -1.054196 q 0.630451,-0.253214 1.178219,-0.382404 0.547768,-0.129191 1.00252,-0.129191 1.198889,0 1.912022,0.599445 0.713132,0.599444 0.713132,1.601964 0,0.475422 -0.180867,0.904335 -0.175699,0.423745 -0.645953,1.002519 -0.129191,0.149861 -0.821653,0.868161 -0.692462,0.713133 -1.953363,1.999872 z"
         style="stroke-width:0.264583"
         id="path1017" />
      <path
         d="m 69.238214,67.519055 h 4.960921 v 0.444416 l -2.800853,7.270851 h -1.09037 l 2.63549,-6.836771 h -3.705188 z"
         style="stroke-width:0.264583"
         id="path1019" />
    </g>
    <g
       aria-label="128"
       id="text845"
       style="font-style:normal;font-weight:normal;font-size:10.5833px;line-height:1.25;font-family:sans-serif;letter-spacing:0px;word-spacing:0px;fill:#000000;fill-opacity:1;stroke:none;stroke-width:0.264583">
      <path
         d="m 56.034928,84.280744 h 1.705317 v -5.885927 l -1.855178,0.372069 v -0.950843 l 1.844843,-0.372069 h 1.04386 v 6.83677 h 1.705317 v 0.878497 h -4.444159 z"
         style="stroke-width:0.264583"
         id="path1022" />
      <path
         d="m 63.486646,84.280744 h 3.643177 v 0.878497 h -4.89891 v -0.878497 q 0.594277,-0.614947 1.617467,-1.648473 1.028358,-1.038693 1.291906,-1.338415 0.50126,-0.563271 0.69763,-0.950843 0.201538,-0.39274 0.201538,-0.769977 0,-0.614947 -0.434081,-1.002519 -0.428913,-0.387572 -1.121375,-0.387572 -0.490925,0 -1.038693,0.170531 -0.542601,0.170532 -1.162716,0.516763 v -1.054196 q 0.63045,-0.253214 1.178219,-0.382404 0.547768,-0.129191 1.002519,-0.129191 1.19889,0 1.912022,0.599445 0.713133,0.599444 0.713133,1.601964 0,0.475422 -0.180867,0.904335 -0.175699,0.423745 -0.645954,1.002519 -0.12919,0.149861 -0.821652,0.868162 -0.692462,0.713132 -1.953363,1.999871 z"
         style="stroke-width:0.264583"
         id="path1024" />
      <path
         d="m 71.553311,81.495393 q -0.744138,0 -1.173051,0.397908 -0.423746,0.397907 -0.423746,1.095536 0,0.69763 0.423746,1.095537 0.428913,0.397908 1.173051,0.397908 0.744138,0 1.173051,-0.397908 0.428913,-0.403075 0.428913,-1.095537 0,-0.697629 -0.428913,-1.095536 -0.423745,-0.397908 -1.173051,-0.397908 z m -1.04386,-0.444416 q -0.671792,-0.165364 -1.049029,-0.625282 -0.372069,-0.459919 -0.372069,-1.121375 0,-0.925006 0.656289,-1.462439 0.661456,-0.537433 1.808669,-0.537433 1.152381,0 1.808669,0.537433 0.656289,0.537433 0.656289,1.462439 0,0.661456 -0.377237,1.121375 -0.372069,0.459918 -1.038693,0.625282 0.754474,0.1757 1.173052,0.687295 0.423745,0.511595 0.423745,1.250565 0,1.121375 -0.687294,1.72082 -0.682127,0.599445 -1.958531,0.599445 -1.276404,0 -1.963698,-0.599445 -0.682127,-0.599445 -0.682127,-1.72082 0,-0.73897 0.423746,-1.250565 0.423745,-0.511595 1.178219,-0.687295 z m -0.382405,-1.648473 q 0,0.599445 0.372069,0.935341 0.377237,0.335896 1.054196,0.335896 0.671792,0 1.049028,-0.335896 0.382405,-0.335896 0.382405,-0.935341 0,-0.599444 -0.382405,-0.93534 -0.377236,-0.335896 -1.049028,-0.335896 -0.676959,0 -1.054196,0.335896 -0.372069,0.335896 -0.372069,0.93534 z"
         style="stroke-width:0.264583"
         id="path1026" />
    </g>
    <g
       aria-label="256"
       id="text849"
       style="font-style:normal;font-weight:normal;font-size:10.5833px;line-height:1.25;font-family:sans-serif;letter-spacing:0px;word-spacing:0px;fill:#000000;fill-opacity:1;stroke:none;stroke-width:0.264583">
      <path
         d="m 56.696382,205.82057 h 3.643177 v 0.8785 h -4.898911 v -0.8785 q 0.594278,-0.61495 1.617468,-1.64847 1.028357,-1.0387 1.291906,-1.33842 0.50126,-0.56327 0.69763,-0.95084 0.201537,-0.39274 0.201537,-0.76998 0,-0.61495 -0.43408,-1.00252 -0.428913,-0.38757 -1.121375,-0.38757 -0.490925,0 -1.038693,0.17053 -0.542601,0.17053 -1.162716,0.51676 v -1.05419 q 0.63045,-0.25322 1.178219,-0.38241 0.547768,-0.12919 1.002519,-0.12919 1.19889,0 1.912022,0.59945 0.713133,0.59944 0.713133,1.60196 0,0.47542 -0.180867,0.90434 -0.1757,0.42374 -0.645954,1.00252 -0.12919,0.14986 -0.821652,0.86816 -0.692462,0.71313 -1.953363,1.99987 z"
         style="stroke-width:0.264583"
         id="path1043" />
      <path
         d="m 62.540967,198.9838 h 4.097929 v 0.8785 h -3.141918 v 1.89135 q 0.227376,-0.0775 0.454752,-0.11369 0.227375,-0.0413 0.454751,-0.0413 1.291906,0 2.04638,0.70796 0.754473,0.70797 0.754473,1.91719 0,1.2454 -0.775144,1.93786 -0.775144,0.6873 -2.185906,0.6873 -0.485757,0 -0.992184,-0.0827 -0.50126,-0.0827 -1.038693,-0.24805 v -1.04903 q 0.465086,0.25321 0.961179,0.37724 0.496092,0.12402 1.049028,0.12402 0.893999,0 1.41593,-0.47025 0.52193,-0.47026 0.52193,-1.27641 0,-0.80615 -0.52193,-1.2764 -0.521931,-0.47025 -1.41593,-0.47025 -0.418578,0 -0.837156,0.093 -0.41341,0.093 -0.847491,0.28939 z"
         style="stroke-width:0.264583"
         id="path1045" />
      <path
         d="m 71.625655,202.42544 q -0.702797,0 -1.116207,0.48059 -0.408243,0.48059 -0.408243,1.31774 0,0.83199 0.408243,1.31775 0.41341,0.48059 1.116207,0.48059 0.702797,0 1.11104,-0.48059 0.41341,-0.48576 0.41341,-1.31775 0,-0.83715 -0.41341,-1.31774 -0.408243,-0.48059 -1.11104,-0.48059 z m 2.072219,-3.27111 v 0.95084 q -0.39274,-0.18603 -0.795815,-0.28422 -0.397907,-0.0982 -0.790647,-0.0982 -1.033525,0 -1.581294,0.69763 -0.542601,0.69763 -0.620115,2.10839 0.30489,-0.44958 0.764809,-0.68729 0.459919,-0.24288 1.012855,-0.24288 1.162716,0 1.834507,0.70796 0.676959,0.7028 0.676959,1.91719 0,1.18856 -0.702797,1.90686 -0.702797,0.7183 -1.870681,0.7183 -1.338415,0 -2.04638,-1.02319 -0.707965,-1.02836 -0.707965,-2.97656 0,-1.82934 0.868161,-2.91454 0.868162,-1.09037 2.3306,-1.09037 0.39274,0 0.790647,0.0775 0.403075,0.0775 0.837156,0.23254 z"
         style="stroke-width:0.264583"
         id="path1047" />
    </g>
    <rect
       style="fill:#8e8aff;fill-opacity:1;stroke:#000000;stroke-width:0.544619;stroke-opacity:1"
       id="rect851"
       width="69.259338"
       height="132.08466"
       x="78.531296"
       y="-56.968674" />
    <rect
       style="fill:#3fb353;fill-opacity:1;stroke:#000000;stroke-width:0.273339;stroke-opacity:1"
       id="rect853"
       width="69.275604"
       height="42.856186"
       x="78.51503"
       y="75.115974" />
    <g
       style="font-style:normal;font-weight:normal;font-size:10.5833px;line-height:1.25;font-family:sans-serif;letter-spacing:0px;word-spacing:0px;fill:#000000;fill-opacity:1;stroke:none;stroke-width:0.264583"
       id="text882"
       aria-label="C1 
Ctrl codes">
      <path
         id="path886"
         style="text-align:center;text-anchor:middle;stroke-width:0.264583"
         d="m 111.18654,86.660977 v 1.100705 q -0.5271,-0.490925 -1.12654,-0.733803 -0.59428,-0.242878 -1.26607,-0.242878 -1.32291,0 -2.02571,0.811317 -0.7028,0.80615 -0.7028,2.335767 0,1.52445 0.7028,2.335768 0.7028,0.806149 2.02571,0.806149 0.67179,0 1.26607,-0.242878 0.59944,-0.242879 1.12654,-0.733803 v 1.090369 q -0.54777,0.372069 -1.16271,0.558104 -0.60978,0.186034 -1.29191,0.186034 -1.75183,0 -2.75951,-1.069698 -1.00769,-1.074867 -1.00769,-2.930045 0,-1.860345 1.00769,-2.930044 1.00768,-1.074867 2.75951,-1.074867 0.69246,0 1.30224,0.186035 0.61495,0.180867 1.15238,0.547768 z" />
      <path
         id="path888"
         style="text-align:center;text-anchor:middle;stroke-width:0.264583"
         d="m 113.07273,92.903471 h 1.70531 v -5.885927 l -1.85518,0.372069 V 86.43877 l 1.84485,-0.37207 h 1.04386 v 6.836771 h 1.70531 v 0.878496 h -4.44415 z" />
      <path
         id="path890"
         style="text-align:center;text-anchor:middle;stroke-width:0.264583"
         d="m 93.314305,99.890102 v 1.100708 q -0.527098,-0.49093 -1.126543,-0.73381 -0.594277,-0.24287 -1.266068,-0.24287 -1.322913,0 -2.02571,0.81131 -0.702797,0.80615 -0.702797,2.33577 0,1.52445 0.702797,2.33577 0.702797,0.80615 2.02571,0.80615 0.671791,0 1.266068,-0.24288 0.599445,-0.24288 1.126543,-0.7338 v 1.09036 q -0.547768,0.37207 -1.162716,0.55811 -0.60978,0.18603 -1.291907,0.18603 -1.751825,0 -2.759512,-1.0697 -1.007688,-1.07486 -1.007688,-2.93004 0,-1.86035 1.007688,-2.93004 1.007687,-1.074871 2.759512,-1.074871 0.692462,0 1.302242,0.186035 0.614948,0.180867 1.152381,0.547768 z" />
      <path
         id="path892"
         style="text-align:center;text-anchor:middle;stroke-width:0.264583"
         d="m 95.825772,99.580044 v 1.643306 h 1.95853 v 0.73897 h -1.95853 v 3.14192 q 0,0.70796 0.191202,0.9095 0.19637,0.20154 0.790647,0.20154 h 0.976681 v 0.79581 h -0.976681 q -1.100705,0 -1.519283,-0.40824 -0.418577,-0.41341 -0.418577,-1.49861 v -3.14192 h -0.69763 v -0.73897 h 0.69763 v -1.643306 z" />
      <path
         id="path894"
         style="text-align:center;text-anchor:middle;stroke-width:0.264583"
         d="m 102.38866,102.11218 q -0.1602,-0.093 -0.3514,-0.13436 -0.18604,-0.0465 -0.41341,-0.0465 -0.80615,0 -1.24023,0.5271 -0.428915,0.52193 -0.428915,1.50378 v 3.0489 h -0.956011 v -5.78774 h 0.956011 v 0.89917 q 0.299725,-0.5271 0.780315,-0.78031 0.48059,-0.25839 1.16788,-0.25839 0.0982,0 0.21704,0.0155 0.11886,0.0103 0.26355,0.0362 z" />
      <path
         id="path896"
         style="text-align:center;text-anchor:middle;stroke-width:0.264583"
         d="m 103.38601,98.970264 h 0.95084 v 8.040826 h -0.95084 z" />
      <path
         id="path898"
         style="text-align:center;text-anchor:middle;stroke-width:0.264583"
         d="m 113.85562,101.44556 v 0.88883 q -0.40307,-0.22221 -0.81132,-0.33073 -0.40307,-0.11369 -0.81648,-0.11369 -0.92501,0 -1.4366,0.58911 -0.5116,0.58394 -0.5116,1.64331 0,1.05936 0.5116,1.64847 0.51159,0.58394 1.4366,0.58394 0.41341,0 0.81648,-0.10852 0.40825,-0.11368 0.81132,-0.33589 v 0.87849 q -0.39791,0.18604 -0.82682,0.27906 -0.42374,0.093 -0.90433,0.093 -1.30741,0 -2.07739,-0.82165 -0.76998,-0.82165 -0.76998,-2.21691 0,-1.41593 0.77515,-2.22725 0.78031,-0.81132 2.13423,-0.81132 0.43925,0 0.85782,0.093 0.41858,0.0879 0.81132,0.26872 z" />
      <path
         id="path900"
         style="text-align:center;text-anchor:middle;stroke-width:0.264583"
         d="m 117.75201,101.88997 q -0.76481,0 -1.20922,0.59945 -0.44442,0.59428 -0.44442,1.63297 0,1.03869 0.43925,1.63814 0.44442,0.59427 1.21439,0.59427 0.75964,0 1.20406,-0.59944 0.44441,-0.59945 0.44441,-1.63297 0,-1.02836 -0.44441,-1.6278 -0.44442,-0.60462 -1.20406,-0.60462 z m 0,-0.80615 q 1.24023,0 1.9482,0.80615 0.70796,0.80615 0.70796,2.23242 0,1.4211 -0.70796,2.23241 -0.70797,0.80615 -1.9482,0.80615 -1.2454,0 -1.95336,-0.80615 -0.7028,-0.81131 -0.7028,-2.23241 0,-1.42627 0.7028,-2.23242 0.70796,-0.80615 1.95336,-0.80615 z" />
      <path
         id="path902"
         style="text-align:center;text-anchor:middle;stroke-width:0.264583"
         d="m 125.79284,102.10185 v -3.131586 h 0.95084 v 8.040826 h -0.95084 v -0.86816 q -0.29973,0.51676 -0.75964,0.76998 -0.45476,0.24804 -1.09554,0.24804 -1.04903,0 -1.71049,-0.83715 -0.65628,-0.83716 -0.65628,-2.20141 0,-1.36426 0.65628,-2.20141 0.66146,-0.83716 1.71049,-0.83716 0.64078,0 1.09554,0.25322 0.45991,0.24804 0.75964,0.76481 z m -3.2401,2.02054 q 0,1.04903 0.42891,1.64847 0.43408,0.59428 1.18855,0.59428 0.75448,0 1.18856,-0.59428 0.43408,-0.59944 0.43408,-1.64847 0,-1.04903 -0.43408,-1.64331 -0.43408,-0.59944 -1.18856,-0.59944 -0.75447,0 -1.18855,0.59944 -0.42891,0.59428 -0.42891,1.64331 z" />
      <path
         id="path904"
         style="text-align:center;text-anchor:middle;stroke-width:0.264583"
         d="m 133.6528,103.87951 v 0.46509 h -4.37181 q 0.062,0.98185 0.5891,1.49861 0.53227,0.51159 1.47795,0.51159 0.54776,0 1.05936,-0.13436 0.51676,-0.13435 1.02319,-0.40307 v 0.89917 q -0.5116,0.21704 -1.04903,0.33073 -0.53743,0.11368 -1.09037,0.11368 -1.38492,0 -2.19624,-0.80615 -0.80615,-0.80615 -0.80615,-2.18074 0,-1.42109 0.76481,-2.25308 0.76998,-0.83716 2.07222,-0.83716 1.16788,0 1.84484,0.75448 0.68213,0.7493 0.68213,2.04121 z m -0.95085,-0.27905 q -0.0103,-0.78031 -0.43924,-1.2454 -0.42375,-0.46509 -1.12655,-0.46509 -0.79581,0 -1.2764,0.44959 -0.47542,0.44958 -0.54777,1.26607 z" />
      <path
         id="path906"
         style="text-align:center;text-anchor:middle;stroke-width:0.264583"
         d="m 138.90311,101.39388 v 0.89917 q -0.40308,-0.20671 -0.83716,-0.31006 -0.43408,-0.10335 -0.89916,-0.10335 -0.70797,0 -1.06454,0.21704 -0.35139,0.21704 -0.35139,0.65112 0,0.33073 0.25321,0.52193 0.25321,0.18603 1.01802,0.35657 l 0.32556,0.0723 q 1.01286,0.21704 1.4366,0.61495 0.42892,0.39274 0.42892,1.10071 0,0.80614 -0.64079,1.2764 -0.63562,0.47025 -1.75183,0.47025 -0.46508,0 -0.97151,-0.093 -0.50126,-0.0878 -1.05936,-0.26872 v -0.98185 q 0.52709,0.27388 1.03869,0.41341 0.51159,0.13436 1.01285,0.13436 0.6718,0 1.03353,-0.22738 0.36173,-0.23254 0.36173,-0.65112 0,-0.38757 -0.26354,-0.59428 -0.25839,-0.2067 -1.14205,-0.3979 l -0.33073,-0.0775 q -0.88366,-0.18603 -1.2764,-0.56844 -0.39274,-0.38757 -0.39274,-1.05936 0,-0.81648 0.57877,-1.2609 0.57878,-0.44442 1.64331,-0.44442 0.5271,0 0.99218,0.0775 0.46509,0.0775 0.85783,0.23254 z" />
    </g>
    <g
       aria-label="ASCII"
       id="text869"
       style="font-style:normal;font-weight:normal;font-size:10.5833px;line-height:1.25;font-family:sans-serif;letter-spacing:0px;word-spacing:0px;fill:#000000;fill-opacity:1;stroke:none;stroke-width:0.264583">
      <path
         d="m 103.46133,6.2392108 -1.41593,3.8395462 h 2.83703 z M 102.87222,5.210853 h 1.18339 l 2.94038,7.715267 h -1.0852 l -0.7028,-1.979201 h -3.47781 l -0.7028,1.979201 h -1.100704 z"
         style="stroke-width:0.264583"
         id="path1086" />
      <path
         d="m 112.74756,5.4640667 v 1.0180225 q -0.59428,-0.2842195 -1.12138,-0.4237454 -0.52709,-0.1395259 -1.01802,-0.1395259 -0.85266,0 -1.31774,0.3307281 -0.45992,0.3307281 -0.45992,0.9405081 0,0.511595 0.30489,0.775144 0.31005,0.2583813 1.16788,0.4185778 l 0.63045,0.1291906 q 1.16789,0.222208 1.72082,0.7854793 0.5581,0.5581037 0.5581,1.4986122 0,1.121375 -0.75447,1.700149 -0.7493,0.578774 -2.20141,0.578774 -0.54777,0 -1.16788,-0.124023 -0.61495,-0.124023 -1.27641,-0.366902 V 11.51019 q 0.63562,0.356566 1.2454,0.537433 0.60978,0.180867 1.19889,0.180867 0.894,0 1.37976,-0.351398 0.48576,-0.351399 0.48576,-1.00252 0,-0.568439 -0.3514,-0.8888318 -0.34623,-0.3203929 -1.14205,-0.4805893 l -0.63562,-0.1240231 q -1.16788,-0.2325432 -1.68981,-0.7286353 -0.52193,-0.4960922 -0.52193,-1.3797564 0,-1.0231901 0.7183,-1.6122995 0.72347,-0.5891095 1.98954,-0.5891095 0.5426,0 1.10587,0.098185 0.56327,0.098185 1.15238,0.2945547 z"
         style="stroke-width:0.264583"
         id="path1088" />
      <path
         d="m 120.61785,5.8051301 v 1.1007045 q -0.52709,-0.4909245 -1.12654,-0.733803 -0.59428,-0.2428785 -1.26607,-0.2428785 -1.32291,0 -2.02571,0.8113175 -0.70279,0.8061497 -0.70279,2.3357673 0,1.5244501 0.70279,2.3357671 0.7028,0.80615 2.02571,0.80615 0.67179,0 1.26607,-0.242879 0.59945,-0.242878 1.12654,-0.733803 v 1.09037 q -0.54776,0.372069 -1.16271,0.558103 -0.60978,0.186035 -1.29191,0.186035 -1.75182,0 -2.75951,-1.069699 -1.00769,-1.074866 -1.00769,-2.9300441 0,-1.8603457 1.00769,-2.9300444 1.00769,-1.0748664 2.75951,-1.0748664 0.69246,0 1.30224,0.1860346 0.61495,0.1808669 1.15238,0.5477684 z"
         style="stroke-width:0.264583"
         id="path1090" />
      <path
         d="m 122.23015,5.210853 h 1.04386 v 7.715267 h -1.04386 z"
         style="stroke-width:0.264583"
         id="path1092" />
      <path
         d="m 125.3514,5.210853 h 1.04386 v 7.715267 h -1.04386 z"
         style="stroke-width:0.264583"
         id="path1094" />
    </g>
    <rect
       style="fill:#efaa25;fill-opacity:1;stroke:#000000;stroke-width:0.395299;stroke-opacity:1"
       id="rect879"
       width="69.144661"
       height="89.085495"
       x="78.580498"
       y="118.03763" />
    <g
       aria-label="ISO 8859-X"
       id="text887"
       style="font-style:normal;font-weight:normal;font-size:10.5833px;line-height:1.25;font-family:sans-serif;letter-spacing:0px;word-spacing:0px;fill:#000000;fill-opacity:1;stroke:none;stroke-width:0.264583">
      <path
         d="m 84.332974,158.71758 h 1.043861 v 7.71527 h -1.043861 z"
         style="stroke-width:0.264583"
         id="path1050" />
      <path
         d="m 92.079247,158.97079 v 1.01803 q -0.594278,-0.28422 -1.121375,-0.42375 -0.527098,-0.13953 -1.018023,-0.13953 -0.852658,0 -1.317745,0.33073 -0.459919,0.33073 -0.459919,0.94051 0,0.5116 0.30489,0.77514 0.310058,0.25839 1.167884,0.41858 l 0.630451,0.12919 q 1.167883,0.22221 1.720819,0.78548 0.558104,0.55811 0.558104,1.49861 0,1.12138 -0.754474,1.70015 -0.749305,0.57878 -2.201409,0.57878 -0.547768,0 -1.167883,-0.12403 -0.614948,-0.12402 -1.276404,-0.3669 v -1.07486 q 0.635618,0.35656 1.245398,0.53743 0.60978,0.18087 1.198889,0.18087 0.894,0 1.379757,-0.3514 0.485757,-0.3514 0.485757,-1.00252 0,-0.56844 -0.351399,-0.88883 -0.346231,-0.3204 -1.142045,-0.48059 l -0.635619,-0.12403 q -1.167883,-0.23254 -1.689813,-0.72863 -0.521931,-0.49609 -0.521931,-1.37976 0,-1.02319 0.7183,-1.6123 0.723468,-0.58911 1.989537,-0.58911 0.5426,0 1.105872,0.0982 0.563271,0.0982 1.152381,0.29455 z"
         style="stroke-width:0.264583"
         id="path1052" />
      <path
         d="m 97.303717,159.42554 q -1.136878,0 -1.80867,0.84749 -0.666623,0.8475 -0.666623,2.30993 0,1.45727 0.666623,2.30477 0.671792,0.84749 1.80867,0.84749 1.136878,0 1.798334,-0.84749 0.666624,-0.8475 0.666624,-2.30477 0,-1.46243 -0.666624,-2.30993 -0.661456,-0.84749 -1.798334,-0.84749 z m 0,-0.84749 q 1.622635,0 2.594148,1.09037 0.971515,1.0852 0.971515,2.91454 0,1.82418 -0.971515,2.91455 -0.971513,1.0852 -2.594148,1.0852 -1.627803,0 -2.604484,-1.0852 -0.971514,-1.08521 -0.971514,-2.91455 0,-1.82934 0.971514,-2.91454 0.976681,-1.09037 2.604484,-1.09037 z"
         style="stroke-width:0.264583"
         id="path1054" />
      <path
         d="m 108.19191,162.769 q -0.74414,0 -1.17305,0.39791 -0.42375,0.3979 -0.42375,1.09553 0,0.69763 0.42375,1.09554 0.42891,0.39791 1.17305,0.39791 0.74413,0 1.17305,-0.39791 0.42891,-0.40308 0.42891,-1.09554 0,-0.69763 -0.42891,-1.09553 -0.42375,-0.39791 -1.17305,-0.39791 z m -1.04386,-0.44442 q -0.6718,-0.16536 -1.04903,-0.62528 -0.37207,-0.45992 -0.37207,-1.12138 0,-0.925 0.65629,-1.46243 0.66145,-0.53744 1.80867,-0.53744 1.15238,0 1.80867,0.53744 0.65628,0.53743 0.65628,1.46243 0,0.66146 -0.37723,1.12138 -0.37207,0.45992 -1.0387,0.62528 0.75448,0.1757 1.17306,0.6873 0.42374,0.51159 0.42374,1.25056 0,1.12138 -0.68729,1.72082 -0.68213,0.59945 -1.95853,0.59945 -1.27641,0 -1.9637,-0.59945 -0.68213,-0.59944 -0.68213,-1.72082 0,-0.73897 0.42375,-1.25056 0.42374,-0.5116 1.17822,-0.6873 z m -0.38241,-1.64847 q 0,0.59944 0.37207,0.93534 0.37724,0.3359 1.0542,0.3359 0.67179,0 1.04902,-0.3359 0.38241,-0.3359 0.38241,-0.93534 0,-0.59944 -0.38241,-0.93534 -0.37723,-0.3359 -1.04902,-0.3359 -0.67696,0 -1.0542,0.3359 -0.37207,0.3359 -0.37207,0.93534 z"
         style="stroke-width:0.264583"
         id="path1056" />
      <path
         d="m 114.92532,162.769 q -0.74413,0 -1.17305,0.39791 -0.42374,0.3979 -0.42374,1.09553 0,0.69763 0.42374,1.09554 0.42892,0.39791 1.17305,0.39791 0.74414,0 1.17306,-0.39791 0.42891,-0.40308 0.42891,-1.09554 0,-0.69763 -0.42891,-1.09553 -0.42375,-0.39791 -1.17306,-0.39791 z m -1.04386,-0.44442 q -0.67179,-0.16536 -1.04902,-0.62528 -0.37207,-0.45992 -0.37207,-1.12138 0,-0.925 0.65628,-1.46243 0.66146,-0.53744 1.80867,-0.53744 1.15238,0 1.80867,0.53744 0.65629,0.53743 0.65629,1.46243 0,0.66146 -0.37723,1.12138 -0.37207,0.45992 -1.0387,0.62528 0.75448,0.1757 1.17305,0.6873 0.42375,0.51159 0.42375,1.25056 0,1.12138 -0.6873,1.72082 -0.68212,0.59945 -1.95853,0.59945 -1.2764,0 -1.96369,-0.59945 -0.68213,-0.59944 -0.68213,-1.72082 0,-0.73897 0.42374,-1.25056 0.42375,-0.5116 1.17822,-0.6873 z m -0.3824,-1.64847 q 0,0.59944 0.37207,0.93534 0.37724,0.3359 1.05419,0.3359 0.6718,0 1.04903,-0.3359 0.38241,-0.3359 0.38241,-0.93534 0,-0.59944 -0.38241,-0.93534 -0.37723,-0.3359 -1.04903,-0.3359 -0.67695,0 -1.05419,0.3359 -0.37207,0.3359 -0.37207,0.93534 z"
         style="stroke-width:0.264583"
         id="path1058" />
      <path
         d="m 119.43666,158.71758 h 4.09793 v 0.8785 h -3.14192 v 1.89135 q 0.22738,-0.0775 0.45475,-0.11369 0.22738,-0.0413 0.45476,-0.0413 1.2919,0 2.04638,0.70796 0.75447,0.70797 0.75447,1.91719 0,1.2454 -0.77514,1.93786 -0.77515,0.6873 -2.18591,0.6873 -0.48576,0 -0.99219,-0.0827 -0.50126,-0.0827 -1.03869,-0.24805 v -1.04903 q 0.46509,0.25321 0.96118,0.37724 0.49609,0.12402 1.04903,0.12402 0.894,0 1.41593,-0.47025 0.52193,-0.47026 0.52193,-1.27641 0,-0.80615 -0.52193,-1.2764 -0.52193,-0.47026 -1.41593,-0.47026 -0.41858,0 -0.83716,0.093 -0.41341,0.093 -0.84749,0.28939 z"
         style="stroke-width:0.264583"
         id="path1060" />
      <path
         d="m 126.19075,166.27265 v -0.95084 q 0.39274,0.18603 0.79581,0.28422 0.40308,0.0982 0.79065,0.0982 1.03353,0 1.57613,-0.69246 0.54777,-0.69763 0.62528,-2.11356 -0.29972,0.44442 -0.75964,0.68213 -0.45992,0.23771 -1.01802,0.23771 -1.15755,0 -1.83451,-0.69763 -0.67179,-0.7028 -0.67179,-1.91719 0,-1.18856 0.7028,-1.90686 0.70279,-0.7183 1.87068,-0.7183 1.33841,0 2.04121,1.02836 0.70796,1.02319 0.70796,2.97655 0,1.82418 -0.86816,2.91455 -0.86299,1.0852 -2.32543,1.0852 -0.39274,0 -0.79581,-0.0775 -0.40308,-0.0775 -0.83716,-0.23254 z m 2.07739,-3.27111 q 0.70279,0 1.11104,-0.48059 0.41341,-0.48059 0.41341,-1.31774 0,-0.83199 -0.41341,-1.31258 -0.40825,-0.48576 -1.11104,-0.48576 -0.7028,0 -1.11621,0.48576 -0.40824,0.48059 -0.40824,1.31258 0,0.83715 0.40824,1.31774 0.41341,0.48059 1.11621,0.48059 z"
         style="stroke-width:0.264583"
         id="path1062" />
      <path
         d="m 132.27821,163.11006 h 2.78536 v 0.84749 h -2.78536 z"
         style="stroke-width:0.264583"
         id="path1064" />
      <path
         d="m 135.71985,158.71758 h 1.12138 l 1.91719,2.86803 1.92752,-2.86803 h 1.12138 l -2.48046,3.70519 2.64582,4.01008 h -1.12137 l -2.17041,-3.28145 -2.1859,3.28145 h -1.12654 l 2.75434,-4.1186 z"
         style="stroke-width:0.264583"
         id="path1066" />
    </g>
    <g
       aria-label="159"
       id="text891"
       style="font-style:normal;font-weight:normal;font-size:10.5833px;line-height:1.25;font-family:sans-serif;letter-spacing:0px;word-spacing:0px;fill:#000000;fill-opacity:1;stroke:none;stroke-width:0.264583">
      <path
         d="m 56.055596,115.83932 h 1.705317 v -5.88593 l -1.855178,0.37207 v -0.95085 l 1.844843,-0.37207 h 1.04386 v 6.83678 h 1.705317 v 0.87849 h -4.444159 z"
         style="stroke-width:0.264583"
         id="path1029" />
      <path
         d="m 62.618482,109.00254 h 4.097928 v 0.8785 h -3.141917 v 1.89135 q 0.227376,-0.0775 0.454751,-0.11369 0.227376,-0.0413 0.454751,-0.0413 1.291907,0 2.046381,0.70797 0.754473,0.70796 0.754473,1.91719 0,1.2454 -0.775144,1.93786 -0.775144,0.68729 -2.185906,0.68729 -0.485757,0 -0.992184,-0.0827 -0.50126,-0.0827 -1.038693,-0.24805 v -1.04902 q 0.465086,0.25321 0.961178,0.37723 0.496092,0.12403 1.049028,0.12403 0.894,0 1.41593,-0.47026 0.521931,-0.47025 0.521931,-1.2764 0,-0.80615 -0.521931,-1.27641 -0.52193,-0.47025 -1.41593,-0.47025 -0.418577,0 -0.837155,0.093 -0.41341,0.093 -0.847491,0.28938 z"
         style="stroke-width:0.264583"
         id="path1031" />
      <path
         d="m 69.37257,116.55762 v -0.95085 q 0.39274,0.18604 0.795815,0.28422 0.403075,0.0982 0.790647,0.0982 1.033525,0 1.576126,-0.69247 0.547768,-0.69763 0.625283,-2.11356 -0.299723,0.44442 -0.759642,0.68213 -0.459918,0.23771 -1.018022,0.23771 -1.157548,0 -1.834508,-0.69763 -0.671791,-0.70279 -0.671791,-1.91719 0,-1.18855 0.702797,-1.90685 0.702797,-0.7183 1.870681,-0.7183 1.338415,0 2.041213,1.02836 0.707965,1.02319 0.707965,2.97655 0,1.82417 -0.868162,2.91454 -0.862993,1.0852 -2.325432,1.0852 -0.392739,0 -0.795814,-0.0775 -0.403075,-0.0775 -0.837156,-0.23254 z m 2.077386,-3.27111 q 0.702797,0 1.11104,-0.48059 0.41341,-0.48059 0.41341,-1.31775 0,-0.83198 -0.41341,-1.31257 -0.408243,-0.48576 -1.11104,-0.48576 -0.702797,0 -1.116207,0.48576 -0.408243,0.48059 -0.408243,1.31257 0,0.83716 0.408243,1.31775 0.41341,0.48059 1.116207,0.48059 z"
         style="stroke-width:0.264583"
         id="path1033" />
    </g>
    <g
       aria-label="160"
       id="text895"
       style="font-style:normal;font-weight:normal;font-size:10.5833px;line-height:1.25;font-family:sans-serif;letter-spacing:0px;word-spacing:0px;fill:#000000;fill-opacity:1;stroke:none;stroke-width:0.264583">
      <path
         d="m 56.014256,126.49867 h 1.705317 v -5.88593 l -1.855178,0.37207 v -0.95084 l 1.844843,-0.37207 h 1.043861 v 6.83677 h 1.705316 v 0.8785 h -4.444159 z"
         style="stroke-width:0.264583"
         id="path1036" />
      <path
         d="m 64.928412,123.10354 q -0.702797,0 -1.116207,0.48059 -0.408242,0.48059 -0.408242,1.31774 0,0.83199 0.408242,1.31775 0.41341,0.48059 1.116207,0.48059 0.702798,0 1.11104,-0.48059 0.41341,-0.48576 0.41341,-1.31775 0,-0.83715 -0.41341,-1.31774 -0.408242,-0.48059 -1.11104,-0.48059 z m 2.072219,-3.27111 v 0.95084 q -0.39274,-0.18603 -0.795815,-0.28421 -0.397907,-0.0982 -0.790647,-0.0982 -1.033525,0 -1.581293,0.69763 -0.542601,0.69763 -0.620116,2.10839 0.30489,-0.44958 0.764809,-0.68729 0.459919,-0.24288 1.012855,-0.24288 1.162716,0 1.834507,0.70796 0.67696,0.7028 0.67696,1.91719 0,1.18856 -0.702798,1.90686 -0.702797,0.7183 -1.870681,0.7183 -1.338415,0 -2.04638,-1.02319 -0.707965,-1.02836 -0.707965,-2.97656 0,-1.82934 0.868162,-2.91454 0.868161,-1.09037 2.330599,-1.09037 0.39274,0 0.790647,0.0775 0.403075,0.0775 0.837156,0.23254 z"
         style="stroke-width:0.264583"
         id="path1038" />
      <path
         d="m 71.532639,120.34919 q -0.806149,0 -1.214392,0.79582 -0.403075,0.79065 -0.403075,2.38227 0,1.58647 0.403075,2.38228 0.408243,0.79065 1.214392,0.79065 0.811318,0 1.214393,-0.79065 0.408242,-0.79581 0.408242,-2.38228 0,-1.59162 -0.408242,-2.38227 -0.403075,-0.79582 -1.214393,-0.79582 z m 0,-0.82682 q 1.297075,0 1.979201,1.02836 0.687295,1.02319 0.687295,2.97655 0,1.9482 -0.687295,2.97656 -0.682126,1.02319 -1.979201,1.02319 -1.297074,0 -1.984368,-1.02319 -0.682127,-1.02836 -0.682127,-2.97656 0,-1.95336 0.682127,-2.97655 0.687294,-1.02836 1.984368,-1.02836 z"
         style="stroke-width:0.264583"
         id="path1040" />
    </g>
  </g>
</svg>
