<?xml version="1.0" encoding="UTF-8" standalone="no"?>
<svg
   xmlns:dc="http://purl.org/dc/elements/1.1/"
   xmlns:cc="http://creativecommons.org/ns#"
   xmlns:rdf="http://www.w3.org/1999/02/22-rdf-syntax-ns#"
   xmlns:svg="http://www.w3.org/2000/svg"
   xmlns="http://www.w3.org/2000/svg"
   id="svg36"
   version="1.1"
   height="276.36395"
   width="274.08493">
  <metadata
     id="metadata42">
    <rdf:RDF>
      <cc:Work
         rdf:about="">
        <dc:format>image/svg+xml</dc:format>
        <dc:type
           rdf:resource="http://purl.org/dc/dcmitype/StillImage" />
        <dc:title></dc:title>
      </cc:Work>
    </rdf:RDF>
  </metadata>
  <defs
     id="defs40" />
  <path
     style="fill:#02ff00;fill-opacity:1"
     d="m 80.879033,218.7358 c -3.3462,-1.6111 -9.047,-3.7179 -17.35,-6.0726 -4.3376,-1.2393 -6.1966,-2.6026 -5.7009,-3.9658 0.2479,-1.859 3.5941,-3.3461 9.9145,-4.3376 6.4445,0 13.013,0.24786 19.457,0.61965 5.4529,0.3718 9.9145,0.99145 13.260997,1.6111 3.594,0.74359 5.5769,2.1068 6.3205,3.7179 0.6197,1.1154 0.6197,3.0983 0,5.7008 l -0.2479,4.4615 0.2479,38.171 c 0,3.594 1.2393,5.9487 3.4701,7.5598 2.2307,1.4872 6.0726,2.3547 11.526,2.7265 l 56.513,-0.61966 c 4.3376,-0.37179 8.0556,-1.2393 10.906,-2.1068 1.859,-0.37179 3.8419,-1.2393 5.7008,-2.4786 3.0983,-1.859 5.8248,-3.0983 8.5513,-3.4701 4.5854,-1.1154 11.774,-1.3632 21.316,-0.99145 4.5854,0.24786 8.5512,1.2393 11.526,3.0983 2.6025,1.6111 4.3376,3.7179 4.8333,6.0726 0.3718,2.1068 -0.1239,3.8419 -1.6111,5.329 -1.6111,1.6111 -3.9658,2.4786 -6.6923,2.6026 h -111.79 c -11.154,-0.24786 -19.209,-1.859 -24.166997,-4.8333 -5.7008,-3.2222 -8.6752,-8.5512 -9.047,-15.739 l -1.1154,-30.239 c 0,-2.4786 -1.9829,-4.9572 -5.8247,-6.8162 z"
     id="path2" />
  <path
     d="m 60.179033,40.5158 c -3.7179,-2.2308 -7.6837,-5.0812 -11.773,-8.6752 -2.9744,-2.6026 -4.0898,-4.3376 -3.718,-5.453 0.3718,-1.2393 3.8419,-1.2393 9.9145,0.24787 6.4445,0.74358 12.765,1.3632 18.59,1.6111 8.3034,0.3718 20.944,0.49573 37.674997,0.24787 4.3376,0.24786 7.6838,1.2393 9.9145,2.7265 2.2308,1.4872 3.3462,3.2222 3.0983,5.2051 -0.2479,1.859 -1.735,3.594 -4.4615,4.8333 -3.0983,1.4872 -7.188,2.2308 -12.517,2.4786 l -36.311997,0.99145 c -2.8505,-0.24786 -6.1966,-1.735 -10.41,-4.2137 z"
     id="path10"
     style="fill:#ff0000" />
  <path
     d="m 129.97903,68.2858 c 1.2394,-0.61965 2.7265,-1.4872 4.4616,-2.4786 2.2307,-1.4872 4.3376,-2.4786 6.6923,-3.0983 3.594,-0.74359 8.6751,-1.2393 15.491,-1.2393 4.8333,0 8.7991,0.99145 11.773,2.7265 2.4787,1.4872 3.8419,3.3462 3.9658,5.453 0.2479,2.1068 -0.7436,3.8419 -3.0982,5.329 -2.4787,1.6111 -5.7009,2.3547 -9.6667,2.3547 -16.855,0.24787 -29.496,0.49573 -37.799,0.86752 -12.889,0.3718 -22.678997,1.1154 -30.238997,1.859 3.5941,4.0897 5.453,7.0641 6.0727,8.923 0.6196,1.2393 0.4957,2.6026 -0.2479,4.3376 l -0.6196,3.4701 c 17.225997,2.2308 30.362997,8.1795 39.533997,17.97 8.0556,9.047 11.526,19.209 10.534,30.611 -1.2393,11.402 -6.8162,21.068 -16.731,28.752 -10.782,8.5512 -24.167,12.889 -40.649997,12.889 -16.979,0 -31.107,-4.3376 -42.013,-12.889 -9.9145,-7.6837 -15.491,-17.35 -16.979,-28.752 -1.4871,-11.402 2.1069,-21.688 10.41,-30.239 9.2948,-9.9145 22.679,-15.987 40.773,-18.342 2.4787,-2.1068 3.5941,-4.4615 3.0983,-7.5598 -0.3718,-2.9744 -1.9829,-5.5769 -4.4615,-8.1795 -5.453,0 -11.402,0.24786 -17.474,0.99145 -6.1966,0.3718 -13.261,1.2393 -21.192,2.1068 -1.6112,0.24787 -3.0983,0.49573 -4.3376,0.86752 -0.7436,0.3718 -1.7351,0.99145 -2.7265,1.6111 -2.6026,1.2393 -5.2051,1.6111 -7.5598,0.86752 -3.594,-1.1154 -9.9145,-4.3376 -19.8289997,-9.7906 -5.3291,-3.0983 -7.68379997,-5.329 -7.06409997,-6.6923 0.6196,-1.4872 4.21359997,-1.6111 10.65799967,-0.24786 13.013,2.1068 27.265,3.2222 43.004,3.2222 14.996,0 37.675,-1.1154 68.037997,-3.2222 3.3461,-0.99145 5.9487,-1.6111 8.1794,-2.4786 z m -71.755997,48.457 c -6.6922,6.1966 -10.038,14.128 -10.038,23.299 0,9.1709 3.4701,16.855 10.038,23.299 7.312,7.188 17.35,10.782 30.239,10.782 12.640997,0 22.555997,-3.594 30.238997,-10.782 6.6923,-6.4444 10.038,-14.252 10.038,-23.299 0,-9.4188 -3.47,-17.103 -10.038,-23.299 -7.5598,-7.188 -17.474,-10.782 -30.238997,-10.782 -13.013,0 -22.927,3.4701 -30.239,10.782 z"
     id="path12"
     style="fill:#ff0000" />
  <path
     d="m 185.17903,18.4658 c -4.4616,-3.3461 -10.906,-6.6923 -19.457,-9.9145 -5.4529,-2.1068 -7.9316,-3.9658 -7.3119,-5.453 0.3718,-1.859 4.2137,-2.9744 11.278,-3.0983 5.7009,0.24787 11.65,1.2393 17.97,2.7265 3.7179,1.1154 9.047,2.6026 16.111,4.8333 l 0.6197,0.24786 c 4.0897,1.2393 6.6923,2.7265 7.6837,4.4615 0.6197,1.1154 0.6197,3.0983 0,6.0726 l -0.2478,5.453 -0.2479,109.31 16.111,-0.99145 c 2.4786,-0.3718 4.4615,-1.1154 6.0726,-1.859 1.1154,-0.3718 2.3547,-1.2393 3.9658,-2.4786 2.2308,-1.4872 4.4615,-2.4786 6.6923,-3.0983 3.9658,-1.1154 9.2949,-1.3632 16.483,-0.86752 3.9658,0.24786 7.064,1.2393 9.4187,2.7265 2.2308,1.4872 3.594,3.2222 3.718,5.2051 0.2478,2.1068 -0.4957,3.8419 -2.1069,5.2051 -1.8589,1.859 -4.3375,3.0983 -7.3119,3.4701 l -53.043,0.86752 c -0.2478,19.953 -0.7436,34.949 -1.859,45.111 -0.7435,8.3034 -2.1068,14.996 -3.7179,20.201 -3.0983,6.6923 -5.8248,10.162 -8.5512,10.658 -3.3462,0.37179 -4.8334,-4.3376 -4.8334,-13.88 v -175.61 c -0.4957,-2.8504 -2.9743,-6.1966 -7.4358,-9.2948 z"
     id="path16"
     style="fill:#0000ff" />
</svg>
