<?xml version="1.0" encoding="UTF-8" standalone="no"?>
<svg
   xmlns:dc="http://purl.org/dc/elements/1.1/"
   xmlns:cc="http://creativecommons.org/ns#"
   xmlns:rdf="http://www.w3.org/1999/02/22-rdf-syntax-ns#"
   xmlns:svg="http://www.w3.org/2000/svg"
   xmlns="http://www.w3.org/2000/svg"
   viewBox="0 0 793.77863 1123.576"
   height="1123.5759"
   width="793.77863"
   xml:space="preserve"
   id="svg2"
   version="1.1"><metadata
     id="metadata8"><rdf:RDF><cc:Work
         rdf:about=""><dc:format>image/svg+xml</dc:format><dc:type
           rdf:resource="http://purl.org/dc/dcmitype/StillImage" /><dc:title></dc:title></cc:Work></rdf:RDF></metadata><defs
     id="defs6" /><g
     transform="matrix(1.3333333,0,0,-1.3333333,0,1123.576)"
     id="g10"><g
       transform="scale(0.1)"
       id="g12"><path
         id="path338"
         style="fill:#c57278;fill-opacity:1;fill-rule:nonzero;stroke:none"
         d="m 5949.17,8422.65 c -240.78,0 -456.79,0 -456.79,0 126.47,-126.47 292.3,-292.3 456.79,-456.79 v 456.79" /><path
         id="path340"
         style="fill:#c57278;fill-opacity:1;fill-rule:nonzero;stroke:none"
         d="m 5949.17,8422.65 v 4.17 c -120.39,0 -234.59,0 -318.69,0 -42.05,0 -76.57,0 -100.59,0 -24.01,0 -37.47,0 -37.51,0 h -10.05 l 7.1,-7.11 c 126.48,-126.48 292.31,-292.31 456.8,-456.8 l 7.11,-7.11 v 471.02 h -4.17 v -4.17 h -4.16 v -456.79 h 4.16 l 2.95,2.94 c -164.49,164.49 -330.32,330.32 -456.8,456.79 l -2.94,-2.94 v -4.16 c 0.04,0 13.5,0 37.51,0 72.04,0 238.7,0 419.28,0 v 4.16 h -4.16 4.16" /><path
         id="path342"
         style="fill:#d0837f;fill-opacity:1;fill-rule:nonzero;stroke:none"
         d="m 5949.17,7965.86 c -164.49,164.49 -330.32,330.32 -456.79,456.79 h -221.15 c 0,-376.65 0,-1102.3 0,-1102.3 0,0 341.76,0 677.94,0 v 645.51" /><path
         id="path344"
         style="fill:#d0837f;fill-opacity:1;fill-rule:nonzero;stroke:none"
         d="m 5949.17,7965.86 2.95,2.94 c -164.49,164.49 -330.32,330.32 -456.8,456.79 l -1.22,1.23 h -227.04 v -4.17 c 0,-376.65 0,-1102.3 0,-1102.3 v -4.17 h 4.17 c 0.05,0 21.36,0 58.65,0 111.88,0 367.16,0 619.29,0 h 4.17 v 651.4 l -1.22,1.22 -2.95,-2.94 h -4.16 v -645.51 h 4.16 v 4.16 c -168.09,0 -337.57,0 -465.04,0 -63.73,0 -116.96,0 -154.25,0 -37.29,0 -58.6,0 -58.65,0 v -4.16 h 4.16 c 0,0 0,725.65 0,1102.3 h -4.16 v -4.16 h 221.15 v 4.16 l -2.95,-2.94 c 126.48,-126.48 292.31,-292.31 456.8,-456.8 l 2.94,2.95 h -4.16 4.16" /><path
         id="path346"
         style="fill:#cf978a;fill-opacity:1;fill-rule:nonzero;stroke:none"
         d="m 5949.17,7320.35 c -336.18,0 -677.94,0 -677.94,0 0,0 341.76,-341.77 677.94,-677.95 v 677.95" /><path
         id="path348"
         style="fill:#cf978a;fill-opacity:1;fill-rule:nonzero;stroke:none"
         d="m 5949.17,7320.35 v 4.16 c -168.09,0 -337.57,0 -465.04,0 -63.73,0 -116.96,0 -154.25,0 -37.29,0 -58.6,0 -58.65,0 h -10.06 l 7.11,-7.11 c 0,0 341.77,-341.76 677.95,-677.95 l 7.11,-7.11 v 692.17 h -4.17 v -4.16 h -4.16 V 6642.4 h 4.16 l 2.95,2.94 c -168.09,168.09 -337.58,337.58 -465.04,465.04 -63.74,63.74 -116.96,116.96 -154.26,154.26 -18.64,18.64 -33.31,33.31 -43.31,43.31 -10,10 -15.33,15.33 -15.34,15.34 l -2.94,-2.94 v -4.17 c 0.05,0 21.36,0 58.65,0 111.88,0 367.16,0 619.29,0 v 4.17 h -4.16 4.16" /><path
         id="path350"
         style="fill:#d5ac92;fill-opacity:1;fill-rule:nonzero;stroke:none"
         d="m 5949.17,6642.4 c -336.18,336.18 -677.94,677.95 -677.94,677.95 V 5996.89 c 0,0 341.76,0 677.94,0 v 645.51" /><path
         id="path352"
         style="fill:#d5ac92;fill-opacity:1;fill-rule:nonzero;stroke:none"
         d="m 5949.17,6642.4 2.95,2.94 c -168.09,168.09 -337.58,337.58 -465.04,465.04 -63.74,63.74 -116.96,116.96 -154.26,154.26 -18.64,18.64 -33.31,33.31 -43.31,43.31 -10,10 -15.33,15.33 -15.34,15.34 l -7.11,7.11 V 5992.73 h 4.17 c 0.05,0 21.36,0 58.65,0 111.88,0 367.16,0 619.29,0 h 4.17 v 651.39 l -1.22,1.22 -2.95,-2.94 h -4.16 v -645.51 h 4.16 v 4.16 c -168.09,0 -337.57,0 -465.04,0 -63.73,0 -116.96,0 -154.25,0 -37.29,0 -58.6,0 -58.65,0 v -4.16 h 4.16 v 1323.46 h -4.16 l -2.95,-2.95 c 0,0 341.77,-341.76 677.95,-677.95 l 2.94,2.95 h -4.16 4.16" /><path
         id="path354"
         style="fill:#cac1a1;fill-opacity:1;fill-rule:nonzero;stroke:none"
         d="m 5949.17,5996.89 c -336.18,0 -677.94,0 -677.94,0 0,0 341.76,-341.77 677.94,-677.95 v 677.95" /><path
         id="path356"
         style="fill:#cac1a1;fill-opacity:1;fill-rule:nonzero;stroke:none"
         d="m 5949.17,5996.89 v 4.16 c -168.09,0 -337.57,0 -465.04,0 -63.73,0 -116.96,0 -154.25,0 -37.29,0 -58.6,0 -58.65,0 h -10.06 l 7.11,-7.1 c 0,0 341.77,-341.77 677.95,-677.95 l 7.11,-7.11 v 692.16 h -4.17 v -4.16 h -4.16 v -677.95 h 4.16 l 2.95,2.94 c -168.09,168.1 -337.58,337.58 -465.04,465.05 -63.74,63.73 -116.96,116.96 -154.26,154.25 -18.64,18.65 -33.31,33.31 -43.31,43.31 -10,10 -15.33,15.33 -15.34,15.34 l -2.94,-2.94 v -4.16 c 0.05,0 21.36,0 58.65,0 111.88,0 367.16,0 619.29,0 v 4.16 h -4.16 4.16" /><path
         id="path358"
         style="fill:#d1d6b0;fill-opacity:1;fill-rule:nonzero;stroke:none"
         d="m 5949.17,5318.94 c -336.18,336.18 -677.94,677.95 -677.94,677.95 V 4673.43 c 0,0 341.76,0 677.94,0 v 645.51" /><path
         id="path360"
         style="fill:#d1d6b0;fill-opacity:1;fill-rule:nonzero;stroke:none"
         d="m 5949.17,5318.94 2.95,2.94 c -168.09,168.1 -337.58,337.58 -465.04,465.05 -63.74,63.73 -116.96,116.96 -154.26,154.25 -18.64,18.65 -33.31,33.31 -43.31,43.31 -10,10 -15.33,15.33 -15.34,15.34 l -7.11,7.11 V 4669.27 h 4.17 c 0.05,0 21.36,0 58.65,0 111.88,0 367.16,0 619.29,0 h 4.17 v 651.4 l -1.22,1.21 -2.95,-2.94 h -4.16 v -645.51 h 4.16 v 4.17 c -168.09,0 -337.57,0 -465.04,0 -63.73,0 -116.96,0 -154.25,0 -37.29,0 -58.6,0 -58.65,0 v -4.17 h 4.16 v 1323.46 h -4.16 l -2.95,-2.94 c 0,0 341.77,-341.77 677.95,-677.95 l 2.94,2.94 h -4.16 4.16" /><path
         id="path362"
         style="fill:#c9dfc4;fill-opacity:1;fill-rule:nonzero;stroke:none"
         d="m 5949.17,4673.43 c -336.18,0 -677.94,0 -677.94,0 0,0 341.76,-341.76 677.94,-677.94 v 677.94" /><path
         id="path364"
         style="fill:#c9dfc4;fill-opacity:1;fill-rule:nonzero;stroke:none"
         d="m 5949.17,4673.43 v 4.17 c -168.09,0 -337.57,0 -465.04,0 -63.73,0 -116.96,0 -154.25,0 -37.29,0 -58.6,0 -58.65,0 h -10.06 l 7.11,-7.11 c 0,0 341.77,-341.76 677.95,-677.95 l 7.11,-7.1 v 692.16 h -4.17 v -4.17 h -4.16 v -677.94 h 4.16 l 2.95,2.94 c -168.09,168.09 -337.58,337.58 -465.04,465.04 -63.74,63.73 -116.96,116.96 -154.26,154.25 -18.64,18.65 -33.31,33.31 -43.31,43.32 -10,10 -15.33,15.32 -15.34,15.34 l -2.94,-2.95 v -4.16 c 0.05,0 21.36,0 58.65,0 111.88,0 367.16,0 619.29,0 v 4.16 h -4.16 4.16" /><path
         id="path366"
         style="fill:#cee8d2;fill-opacity:1;fill-rule:nonzero;stroke:none"
         d="m 5949.17,3995.49 c -336.18,336.18 -677.94,677.94 -677.94,677.94 V 3349.98 c 0,0 341.76,0 677.94,0 v 645.51" /><path
         id="path368"
         style="fill:#cee8d2;fill-opacity:1;fill-rule:nonzero;stroke:none"
         d="m 5949.17,3995.49 2.95,2.94 c -168.09,168.09 -337.58,337.58 -465.04,465.04 -63.74,63.73 -116.96,116.96 -154.26,154.25 -18.64,18.65 -33.31,33.31 -43.31,43.32 -10,10 -15.33,15.32 -15.34,15.34 l -7.11,7.1 V 3345.82 h 4.17 c 0.05,0 21.36,0 58.65,0 111.88,0 367.16,0 619.29,0 h 4.17 v 651.39 l -1.22,1.22 -2.95,-2.94 h -4.16 v -645.51 h 4.16 v 4.16 c -168.09,0 -337.57,0 -465.04,0 -63.73,0 -116.96,0 -154.25,0 -37.29,0 -58.6,0 -58.65,0 v -4.16 h 4.16 v 1323.45 h -4.16 l -2.95,-2.94 c 0,0 341.77,-341.76 677.95,-677.95 l 2.94,2.95 h -4.16 4.16" /><path
         id="path370"
         style="fill:#b9ddec;fill-opacity:1;fill-rule:nonzero;stroke:none"
         d="m 5949.17,3349.98 c -336.18,0 -677.94,0 -677.94,0 0,0 341.76,-341.76 677.94,-677.95 v 677.95" /><path
         id="path372"
         style="fill:#b9ddec;fill-opacity:1;fill-rule:nonzero;stroke:none"
         d="m 5949.17,3349.98 v 4.16 c -168.09,0 -337.57,0 -465.04,0 -63.73,0 -116.96,0 -154.25,0 -37.29,0 -58.6,0 -58.65,0 h -10.06 l 7.11,-7.1 c 0,0 341.77,-341.76 677.95,-677.95 l 7.11,-7.11 v 692.16 h -4.17 v -4.16 h -4.16 v -677.95 h 4.16 l 2.95,2.95 c -168.09,168.09 -337.58,337.58 -465.04,465.04 -63.74,63.73 -116.96,116.96 -154.26,154.25 -18.64,18.65 -33.31,33.31 -43.31,43.31 -10,10 -15.33,15.33 -15.34,15.34 l -2.94,-2.94 v -4.16 c 0.05,0 21.36,0 58.65,0 111.88,0 367.16,0 619.29,0 v 4.16 h -4.16 4.16" /><path
         id="path374"
         style="fill:#b5deeb;fill-opacity:1;fill-rule:nonzero;stroke:none"
         d="m 5949.17,2672.03 c -336.18,336.19 -677.94,677.95 -677.94,677.95 V 2026.52 c 0,0 341.76,0 677.94,0 v 645.51" /><path
         id="path376"
         style="fill:#b5deeb;fill-opacity:1;fill-rule:nonzero;stroke:none"
         d="m 5949.17,2672.03 2.95,2.95 c -168.09,168.09 -337.58,337.58 -465.04,465.04 -63.74,63.73 -116.96,116.96 -154.26,154.25 -18.64,18.65 -33.31,33.31 -43.31,43.31 -10,10 -15.33,15.33 -15.34,15.34 l -7.11,7.11 V 2022.36 h 4.17 c 0.05,0 21.36,0 58.65,0 111.88,0 367.16,0 619.29,0 h 4.17 v 651.4 l -1.22,1.22 -2.95,-2.95 h -4.16 v -645.51 h 4.16 v 4.17 c -168.09,0 -337.57,0 -465.04,0 -63.73,0 -116.96,0 -154.25,0 -37.29,0 -58.6,0 -58.65,0 v -4.17 h 4.16 v 1323.46 h -4.16 l -2.95,-2.94 c 0,0 341.77,-341.76 677.95,-677.95 l 2.94,2.94 h -4.16 4.16" /><path
         id="path378"
         style="fill:#98c9e1;fill-opacity:1;fill-rule:nonzero;stroke:none"
         d="m 5949.17,2026.52 c -336.18,0 -677.94,0 -677.94,0 0,0 341.76,-341.75 677.94,-677.93 v 677.93" /><path
         id="path380"
         style="fill:#98c9e1;fill-opacity:1;fill-rule:nonzero;stroke:none"
         d="m 5949.17,2026.52 v 4.17 c -168.09,0 -337.57,0 -465.04,0 -63.73,0 -116.96,0 -154.25,0 -37.29,0 -58.6,0 -58.65,0 h -10.06 l 7.11,-7.11 c 0.02,-0.02 5.34,-5.34 15.34,-15.34 70.02,-70.01 368.45,-368.44 662.61,-662.59 l 7.11,-7.11 v 692.15 h -4.17 v -4.17 h -4.16 v -677.93 h 4.16 l 2.95,2.95 c -168.09,168.08 -337.58,337.57 -465.04,465.03 -63.74,63.73 -116.96,116.95 -154.26,154.25 -18.64,18.64 -33.31,33.3 -43.31,43.31 -10,10 -15.33,15.32 -15.34,15.34 l -2.94,-2.95 v -4.16 c 0.05,0 21.36,0 58.65,0 111.88,0 367.16,0 619.29,0 v 4.16 h -4.16 4.16" /><path
         id="path382"
         style="fill:#95c5df;fill-opacity:1;fill-rule:nonzero;stroke:none"
         d="m 5949.17,1348.59 c -336.18,336.18 -677.94,677.93 -677.94,677.93 V 703.09 c 0,0 341.76,0 677.94,0 v 645.5" /><path
         id="path384"
         style="fill:#95c5df;fill-opacity:1;fill-rule:nonzero;stroke:none"
         d="m 5949.17,1348.59 2.95,2.95 c -168.09,168.08 -337.58,337.57 -465.04,465.03 -63.74,63.73 -116.96,116.95 -154.26,154.25 -18.64,18.64 -33.31,33.3 -43.31,43.31 -10,10 -15.33,15.32 -15.34,15.34 l -7.11,7.1 V 698.922 h 4.17 c 0.05,0 21.36,0 58.65,0 111.88,0 367.16,0 619.29,0 h 4.17 v 651.398 l -1.22,1.22 -2.95,-2.95 h -4.16 v -645.5 h 4.16 v 4.16 c -168.09,0 -337.57,0 -465.04,0 -63.73,0 -116.96,0 -154.25,0 -37.29,0 -58.6,0 -58.65,0 v -4.16 h 4.16 v 1323.43 h -4.16 l -2.95,-2.94 c 0.02,-0.02 5.34,-5.34 15.34,-15.34 70.02,-70.01 368.45,-368.44 662.61,-662.59 l 2.94,2.94 h -4.16 4.16" /><path
         id="path386"
         style="fill:#77a5d2;fill-opacity:1;fill-rule:nonzero;stroke:none"
         d="m 5949.17,703.09 c -336.18,0 -677.94,0 -677.94,0 0,0 341.76,-341.781 677.94,-677.9494 V 703.09" /><path
         id="path388"
         style="fill:#77a5d2;fill-opacity:1;fill-rule:nonzero;stroke:none"
         d="m 5949.17,703.09 v 4.16 c -168.09,0 -337.57,0 -465.04,0 -63.73,0 -116.96,0 -154.25,0 -37.29,0 -58.6,0 -58.65,0 h -10.06 l 7.11,-7.109 c 0,0 341.77,-341.77 677.95,-677.9496 l 7.11,-7.1094 V 707.25 h -4.17 v -4.16 h -4.16 V 25.1406 h 4.16 l 2.95,2.9414 c -168.09,168.09 -337.58,337.57 -465.04,465.039 -63.74,63.731 -116.96,116.961 -154.26,154.25 -18.64,18.649 -33.31,33.32 -43.31,43.32 -10,10 -15.33,15.329 -15.34,15.34 l -2.94,-2.941 v -4.168 c 0.05,0 21.36,0 58.65,0 111.88,0 367.16,0 619.29,0 v 4.168 h -4.16 4.16" /><path
         id="path390"
         style="fill:#759ed0;fill-opacity:1;fill-rule:nonzero;stroke:none"
         d="m 5949.17,4.16016 c 0,13.44144 0,20.98044 0,20.98044 C 5612.99,361.309 5271.23,703.09 5271.23,703.09 c 0,0 0,-356.16 0,-698.92984 h 677.94" /><path
         id="path392"
         style="fill:#759ed0;fill-opacity:1;fill-rule:nonzero;stroke:none"
         d="m 5949.17,4.16016 h 4.17 c 0,13.44144 0,20.96094 0,20.98044 v 1.7188 l -1.22,1.2226 c -168.09,168.09 -337.58,337.57 -465.04,465.039 -63.74,63.731 -116.96,116.961 -154.26,154.25 -18.64,18.649 -33.31,33.32 -43.31,43.32 -10,10 -15.33,15.329 -15.34,15.34 l -7.11,7.11 V 703.09 c 0,-0.059 0,-22.258 0,-61.008 0,-116.23 0,-380.844 0,-637.92184 V 0 h 686.28 v 4.16016 h -4.17 V 8.32031 H 5271.23 V 4.16016 h 4.16 c 0,171.39084 0,346.12084 0,477.99984 0,65.949 0,121.18 0,159.922 0,38.75 0,60.949 0,61.008 h -4.16 l -2.95,-2.949 c 0,0 341.77,-341.77 677.95,-677.9496 l 2.94,2.9492 h -4.16 c 0,-0.0195 0,-7.539 0,-20.98044 h 4.16 V 8.32031 4.16016" /><path
         id="path394"
         style="fill:#d9807d;fill-opacity:1;fill-rule:nonzero;stroke:none"
         d="m 4168.92,8422.65 c 376.65,-376.65 1102.31,-1102.3 1102.31,-1102.3 0,0 0,725.65 0,1102.3 H 4168.92" /><path
         id="path396"
         style="fill:#d9807d;fill-opacity:1;fill-rule:nonzero;stroke:none"
         d="m 4168.92,8422.65 -2.94,-2.94 C 4542.63,8043.06 5268.28,7317.4 5268.28,7317.4 l 7.11,-7.11 v 10.06 c 0,0 0,725.65 0,1102.3 v 4.17 H 4158.87 l 7.11,-7.11 2.94,2.94 v -4.16 h 1102.31 v 4.16 h -4.17 c 0,-376.65 0,-1102.3 0,-1102.3 h 4.17 l 2.94,2.94 c 0,0 -725.65,725.66 -1102.31,1102.3 l -2.94,-2.94 v -4.16 4.16" /><path
         id="path398"
         style="fill:#e59186;fill-opacity:1;fill-rule:nonzero;stroke:none"
         d="m 3947.77,8422.65 c 0,-376.65 0,-1102.3 0,-1102.3 h 1323.46 c 0,0 -725.66,725.65 -1102.31,1102.3 h -221.15" /><path
         id="path400"
         style="fill:#e59186;fill-opacity:1;fill-rule:nonzero;stroke:none"
         d="m 3947.77,8422.65 h -4.16 c 0,-376.65 0,-1102.3 0,-1102.3 v -4.17 h 1337.67 l -7.11,7.11 c 0,0 -725.65,725.66 -1102.31,1102.3 l -1.22,1.23 h -227.03 v -4.17 h 4.16 v -4.16 h 221.15 v 4.16 l -2.94,-2.94 C 4542.63,8043.06 5268.28,7317.4 5268.28,7317.4 l 2.95,2.95 v 4.16 H 3947.77 v -4.16 h 4.16 c 0,0 0,725.65 0,1102.3 h -4.16 v -4.16 4.16" /><path
         id="path402"
         style="fill:#e3a790;fill-opacity:1;fill-rule:nonzero;stroke:none"
         d="M 5271.23,7320.35 H 3947.77 L 5271.23,5996.89 Z" /><path
         id="path404"
         style="fill:#e3a790;fill-opacity:1;fill-rule:nonzero;stroke:none"
         d="m 5271.23,7320.35 v 4.16 H 3937.72 L 5275.39,5986.84 v 1337.67 h -4.16 v -4.16 h -4.17 V 6006.94 L 3957.82,7316.18 h 1313.41 v 4.17 h -4.17 4.17" /><path
         id="path406"
         style="fill:#e9ba98;fill-opacity:1;fill-rule:nonzero;stroke:none"
         d="M 3947.77,7320.35 V 5996.89 h 1323.46 z" /><path
         id="path408"
         style="fill:#e9ba98;fill-opacity:1;fill-rule:nonzero;stroke:none"
         d="m 3947.77,7320.35 h -4.16 V 5992.73 H 5281.28 L 3943.61,7330.4 v -10.05 h 4.16 l -2.95,-2.95 1316.35,-1316.35 H 3951.93 v 1319.3 h -4.16 l -2.95,-2.95 2.95,2.95" /><path
         id="path410"
         style="fill:#e1d3aa;fill-opacity:1;fill-rule:nonzero;stroke:none"
         d="M 5271.23,5996.89 H 3947.77 L 5271.23,4673.43 Z" /><path
         id="path412"
         style="fill:#e1d3aa;fill-opacity:1;fill-rule:nonzero;stroke:none"
         d="m 5271.23,5996.89 v 4.16 H 3937.72 L 5275.39,4663.38 v 1337.67 h -4.16 v -4.16 h -4.17 V 4683.48 L 3957.82,5992.73 h 1313.41 v 4.16 h -4.17 4.17" /><path
         id="path414"
         style="fill:#e5e3b6;fill-opacity:1;fill-rule:nonzero;stroke:none"
         d="M 3947.77,5996.89 V 4673.43 h 1323.46 z" /><path
         id="path416"
         style="fill:#e5e3b6;fill-opacity:1;fill-rule:nonzero;stroke:none"
         d="m 3947.77,5996.89 h -4.16 V 4669.27 H 5281.28 L 3943.61,6006.94 v -10.05 h 4.16 l -2.95,-2.94 L 5261.17,4677.6 H 3951.93 v 1319.29 h -4.16 l -2.95,-2.94 2.95,2.94" /><path
         id="path418"
         style="fill:#deefca;fill-opacity:1;fill-rule:nonzero;stroke:none"
         d="M 5271.23,4673.43 H 3947.77 L 5271.23,3349.98 Z" /><path
         id="path420"
         style="fill:#deefca;fill-opacity:1;fill-rule:nonzero;stroke:none"
         d="m 5271.23,4673.43 v 4.17 H 3937.72 L 5275.39,3339.93 V 4677.6 h -4.16 v -4.17 h -4.17 V 3360.03 L 3957.82,4669.27 h 1313.41 v 4.16 h -4.17 4.17" /><path
         id="path422"
         style="fill:#e2f4da;fill-opacity:1;fill-rule:nonzero;stroke:none"
         d="M 3947.76,4673.45 V 3350 H 5271.21 L 3947.76,4673.45" /><path
         id="path424"
         style="fill:#e2f4da;fill-opacity:1;fill-rule:nonzero;stroke:none"
         d="m 3947.76,4673.45 h -4.14 V 3345.86 H 5281.29 L 3943.62,4683.44 v -9.99 h 4.14 l -2.97,-2.97 1316.34,-1316.34 H 3951.9 v 1319.31 h -4.14 l -2.97,-2.97 2.97,2.97" /><path
         id="path426"
         style="fill:#a3d1e5;fill-opacity:1;fill-rule:nonzero;stroke:none"
         d="M 3947.77,703.09 H 5271.23 V 2026.52 Z" /><path
         id="path428"
         style="fill:#a3d1e5;fill-opacity:1;fill-rule:nonzero;stroke:none"
         d="m 3947.77,703.09 v -4.168 H 5275.39 V 2036.57 L 3937.72,698.922 h 10.05 v 4.168 l 2.94,-2.949 1316.35,1316.329 V 707.25 H 3947.77 v -4.16 l 2.94,-2.949 -2.94,2.949" /><path
         id="path430"
         style="fill:#b5deec;fill-opacity:1;fill-rule:nonzero;stroke:none"
         d="M 3947.77,2026.52 V 703.09 l 1323.46,1323.43 z" /><path
         id="path432"
         style="fill:#b5deec;fill-opacity:1;fill-rule:nonzero;stroke:none"
         d="m 3947.77,2026.52 h -4.16 V 693.039 L 5281.28,2030.69 H 3943.61 v -4.17 h 4.16 v -4.16 h 1313.4 L 3951.93,713.141 V 2026.52 h -4.16 v -4.16 4.16" /><path
         id="path434"
         style="fill:#ceedf4;fill-opacity:1;fill-rule:nonzero;stroke:none"
         d="M 5271.23,3349.98 H 3947.77 L 5271.23,2026.52 Z" /><path
         id="path436"
         style="fill:#ceedf4;fill-opacity:1;fill-rule:nonzero;stroke:none"
         d="m 5271.23,3349.98 v 4.16 H 3937.72 L 5275.39,2016.47 v 1337.67 h -4.16 v -4.16 h -4.17 V 2036.57 L 3957.82,3345.82 h 1313.41 v 4.16 h -4.17 4.17" /><path
         id="path438"
         style="fill:#caebf3;fill-opacity:1;fill-rule:nonzero;stroke:none"
         d="M 3947.77,3349.98 V 2026.52 h 1323.46 z" /><path
         id="path440"
         style="fill:#caebf3;fill-opacity:1;fill-rule:nonzero;stroke:none"
         d="m 3947.77,3349.98 h -4.16 V 2022.36 H 5281.28 L 3943.61,3360.03 v -10.05 h 4.16 l -2.95,-2.94 1316.35,-1316.35 H 3951.93 v 1319.29 h -4.16 l -2.95,-2.94 2.95,2.94" /><path
         id="path442"
         style="fill:#8fb7dc;fill-opacity:1;fill-rule:nonzero;stroke:none"
         d="m 5271.23,4.16016 c 0,342.76984 0,698.92984 0,698.92984 H 3947.77 c 0,0 356.14,-356.16 698.92,-698.92984 h 624.54" /><path
         id="path444"
         style="fill:#8fb7dc;fill-opacity:1;fill-rule:nonzero;stroke:none"
         d="m 5271.23,4.16016 h 4.16 c 0,171.39084 0,346.12084 0,477.99984 0,65.949 0,121.18 0,159.922 0,38.75 0,60.949 0,61.008 v 4.16 H 3937.72 l 7.1,-7.109 c 0.02,-0.012 5.57,-5.559 15.98,-15.969 72.85,-72.863 383.02,-383.031 682.95,-682.95325 L 4644.97,0 h 630.42 v 4.16016 h -4.16 V 8.32031 H 4646.69 V 4.16016 l 2.95,2.9414 C 4478.25,178.492 4303.52,353.223 4171.63,485.109 c -65.94,65.942 -121.17,121.172 -159.91,159.922 -19.38,19.367 -34.63,34.617 -45.04,45.028 -10.4,10.41 -15.95,15.953 -15.97,15.972 l -2.94,-2.941 v -4.168 h 1323.46 v 4.168 h -4.17 c 0,-0.059 0,-22.258 0,-61.008 0,-116.23 0,-380.844 0,-637.92184 h 4.17 V 8.32031 4.16016" /><path
         id="path446"
         style="fill:#8dabd8;fill-opacity:1;fill-rule:nonzero;stroke:none"
         d="M 4646.69,4.16016 C 4303.91,346.93 3947.77,703.09 3947.77,703.09 c 0,0 0,-356.16 0,-698.92984 h 698.92" /><path
         id="path448"
         style="fill:#8dabd8;fill-opacity:1;fill-rule:nonzero;stroke:none"
         d="m 4646.69,4.16016 2.95,2.9414 C 4478.25,178.492 4303.52,353.223 4171.63,485.109 c -65.94,65.942 -121.17,121.172 -159.91,159.922 -19.38,19.367 -34.63,34.617 -45.04,45.028 -10.4,10.41 -15.95,15.953 -15.97,15.972 l -7.1,7.11 V 703.09 c 0,-0.059 0,-22.258 0,-61.008 0,-116.23 0,-380.844 0,-637.92184 V 0 h 713.14 l -7.11,7.10156 -2.95,-2.9414 V 8.32031 H 3947.77 V 4.16016 h 4.16 c 0,171.39084 0,346.12084 0,477.99984 0,65.949 0,121.18 0,159.922 0,38.75 0,60.949 0,61.008 h -4.16 l -2.95,-2.949 c 0.02,-0.012 5.57,-5.559 15.98,-15.969 72.85,-72.863 383.02,-383.031 682.95,-682.95325 l 2.94,2.94141 V 8.32031 4.16016" /><path
         id="path450"
         style="fill:#f6af93;fill-opacity:1;fill-rule:nonzero;stroke:none"
         d="M 3947.77,7320.35 H 2624.31 L 3947.77,5996.89 Z" /><path
         id="path452"
         style="fill:#f6af93;fill-opacity:1;fill-rule:nonzero;stroke:none"
         d="m 3947.77,7320.35 v 4.16 H 2614.26 L 3951.93,5986.84 v 1337.67 h -4.16 v -4.16 h -4.16 V 6006.94 L 2634.36,7316.18 h 1313.41 v 4.17 h -4.16 4.16" /><path
         id="path454"
         style="fill:#f9c390;fill-opacity:1;fill-rule:nonzero;stroke:none"
         d="M 2624.31,7320.35 V 5996.89 h 1323.46 z" /><path
         id="path456"
         style="fill:#f9c390;fill-opacity:1;fill-rule:nonzero;stroke:none"
         d="m 2624.31,7320.35 h -4.16 V 5992.73 H 3957.82 L 2620.15,7330.4 v -10.05 h 4.16 l -2.94,-2.95 1316.35,-1316.35 H 2628.47 v 1319.3 h -4.16 l -2.94,-2.95 2.94,2.95" /><path
         id="path458"
         style="fill:#f4dcac;fill-opacity:1;fill-rule:nonzero;stroke:none"
         d="M 3947.77,5996.89 H 2624.31 L 3947.77,4673.43 Z" /><path
         id="path460"
         style="fill:#f4dcac;fill-opacity:1;fill-rule:nonzero;stroke:none"
         d="m 3947.77,5996.89 v 4.16 H 2614.26 L 3951.93,4663.38 v 1337.67 h -4.16 v -4.16 h -4.16 V 4683.48 L 2634.36,5992.73 h 1313.41 v 4.16 h -4.16 4.16" /><path
         id="path462"
         style="fill:#f6ecad;fill-opacity:1;fill-rule:nonzero;stroke:none"
         d="M 2624.31,5996.89 V 4673.43 h 1323.46 z" /><path
         id="path464"
         style="fill:#f6ecad;fill-opacity:1;fill-rule:nonzero;stroke:none"
         d="m 2624.31,5996.89 h -4.16 V 4669.27 H 3957.82 L 2620.15,6006.94 v -10.05 h 4.16 l -2.94,-2.94 L 3937.72,4677.6 H 2628.47 v 1319.29 h -4.16 l -2.94,-2.94 2.94,2.94" /><path
         id="path466"
         style="fill:#f3f9cf;fill-opacity:1;fill-rule:nonzero;stroke:none"
         d="M 3947.76,4673.45 H 2624.31 L 3947.76,3350 v 1323.45" /><path
         id="path468"
         style="fill:#f3f9cf;fill-opacity:1;fill-rule:nonzero;stroke:none"
         d="m 3947.76,4673.45 v 4.14 H 2614.23 L 3951.9,3339.92 v 1337.67 h -4.14 v -4.14 h -4.14 V 3359.99 L 2634.39,4669.31 h 1313.37 v 4.14 h -4.14 4.14" /><path
         id="path470"
         style="fill:#f3f9d2;fill-opacity:1;fill-rule:nonzero;stroke:none"
         d="M 2624.31,4673.45 V 3350 H 3947.76 L 2624.31,4673.45" /><path
         id="path472"
         style="fill:#f3f9d2;fill-opacity:1;fill-rule:nonzero;stroke:none"
         d="m 2624.31,4673.45 h -4.14 V 3345.86 H 3957.84 L 2620.17,4683.44 v -9.99 h 4.14 l -2.97,-2.97 1316.34,-1316.34 H 2628.45 v 1319.31 h -4.14 l -2.97,-2.97 2.97,2.97" /><path
         id="path474"
         style="fill:#e4f6f9;fill-opacity:1;fill-rule:nonzero;stroke:none"
         d="M 3947.77,3349.98 H 2624.31 L 3947.77,2026.52 Z" /><path
         id="path476"
         style="fill:#e4f6f9;fill-opacity:1;fill-rule:nonzero;stroke:none"
         d="m 3947.77,3349.98 v 4.16 H 2614.26 L 3951.93,2016.47 v 1337.67 h -4.16 v -4.16 h -4.16 V 2036.57 L 2634.36,3345.82 h 1313.41 v 4.16 h -4.16 4.16" /><path
         id="path478"
         style="fill:#ddf3ec;fill-opacity:1;fill-rule:nonzero;stroke:none"
         d="M 2624.31,3349.98 V 2026.52 h 1323.46 z" /><path
         id="path480"
         style="fill:#ddf3ec;fill-opacity:1;fill-rule:nonzero;stroke:none"
         d="m 2624.31,3349.98 h -4.16 V 2022.36 H 3957.82 L 2620.15,3360.03 v -10.05 h 4.16 l -2.94,-2.94 1316.35,-1316.35 H 2628.47 v 1319.29 h -4.16 l -2.94,-2.94 2.94,2.94" /><path
         id="path482"
         style="fill:#9cb3da;fill-opacity:1;fill-rule:nonzero;stroke:none"
         d="m 3947.77,4.16016 c 0,342.76984 0,698.92984 0,698.92984 0,0 -356.13,-356.16 -698.93,-698.92984 h 698.93" /><path
         id="path484"
         style="fill:#9cb3da;fill-opacity:1;fill-rule:nonzero;stroke:none"
         d="m 3947.77,4.16016 h 4.16 c 0,171.39084 0,346.12084 0,477.99984 0,65.949 0,121.18 0,159.922 0,38.75 0,60.949 0,61.008 v 10.051 l -7.11,-7.11 c 0,0 -356.13,-356.152 -698.92,-698.92944 L 3238.79,0 h 713.14 v 4.16016 h -4.16 V 8.32031 H 3248.84 V 4.16016 l 2.95,-2.94141 C 3594.58,343.992 3950.71,700.141 3950.71,700.141 l -2.94,2.949 h -4.16 c 0,-0.059 0,-22.258 0,-61.008 0,-116.23 0,-380.844 0,-637.92184 h 4.16 V 8.32031 4.16016" /><path
         id="path486"
         style="fill:#aac3d5;fill-opacity:1;fill-rule:nonzero;stroke:none"
         d="M 3248.84,4.16016 C 3591.64,346.93 3947.77,703.09 3947.77,703.09 H 2624.31 c 0,0 0,-356.16 0,-698.92984 h 624.53" /><path
         id="path488"
         style="fill:#aac3d5;fill-opacity:1;fill-rule:nonzero;stroke:none"
         d="m 3248.84,4.16016 2.95,-2.94141 C 3594.58,343.992 3950.71,700.141 3950.71,700.141 l 7.11,7.109 H 2620.15 v -4.16 c 0,-0.059 0,-22.258 0,-61.008 0,-116.23 0,-380.844 0,-637.92184 V 0 h 630.42 l 1.22,1.21875 -2.95,2.94141 V 8.32031 H 2624.31 V 4.16016 h 4.16 c 0,171.39084 0,346.12084 0,477.99984 0,65.949 0,121.18 0,159.922 0,38.75 0,60.949 0,61.008 h -4.16 v -4.168 h 1323.46 v 4.168 l -2.95,2.941 c 0,0 -356.13,-356.152 -698.92,-698.92944 l 2.94,-2.9414 V 8.32031 4.16016" /><path
         id="path490"
         style="fill:#c3e4ef;fill-opacity:1;fill-rule:nonzero;stroke:none"
         d="M 3947.77,2026.52 H 2624.31 L 3947.77,703.09 Z" /><path
         id="path492"
         style="fill:#c3e4ef;fill-opacity:1;fill-rule:nonzero;stroke:none"
         d="m 3947.77,2026.52 v 4.17 H 2614.26 L 3951.93,693.031 V 2030.69 h -4.16 v -4.17 h -4.16 V 713.141 L 2634.36,2022.36 h 1313.41 v 4.16 h -4.16 4.16" /><path
         id="path494"
         style="fill:#bddee1;fill-opacity:1;fill-rule:nonzero;stroke:none"
         d="M 2624.31,2026.52 V 703.09 h 1323.46 z" /><path
         id="path496"
         style="fill:#bddee1;fill-opacity:1;fill-rule:nonzero;stroke:none"
         d="m 2624.31,2026.52 h -4.16 V 698.922 H 3957.82 L 2620.15,2036.57 v -10.05 h 4.16 l -2.94,-2.94 L 3937.72,707.25 H 2628.47 v 1319.27 h -4.16 l -2.94,-2.94 2.94,2.94" /><path
         id="path498"
         style="fill:#f29686;fill-opacity:1;fill-rule:nonzero;stroke:none"
         d="M 3726.62,8422.65 C 3349.97,8046 2624.31,7320.35 2624.31,7320.35 h 1323.46 c 0,0 0,725.65 0,1102.3 h -221.15" /><path
         id="path500"
         style="fill:#f29686;fill-opacity:1;fill-rule:nonzero;stroke:none"
         d="m 3726.62,8422.65 -2.95,2.94 c -376.65,-376.64 -1102.3,-1102.3 -1102.3,-1102.3 l -7.11,-7.11 h 1337.67 v 4.17 c 0,0 0,725.65 0,1102.3 v 4.17 h -227.04 l -1.22,-1.23 2.95,-2.94 v -4.16 h 221.15 v 4.16 h -4.16 c 0,-376.65 0,-1102.3 0,-1102.3 h 4.16 v 4.16 H 2624.31 v -4.16 l 2.95,-2.95 c 0,0 725.65,725.66 1102.3,1102.31 l -2.94,2.94 v -4.16 4.16" /><path
         id="path502"
         style="fill:#f08d77;fill-opacity:1;fill-rule:nonzero;stroke:none"
         d="m 2624.31,8422.65 c 0,-376.65 0,-1102.3 0,-1102.3 0,0 725.66,725.65 1102.31,1102.3 H 2624.31" /><path
         id="path504"
         style="fill:#f08d77;fill-opacity:1;fill-rule:nonzero;stroke:none"
         d="m 2624.31,8422.65 h -4.16 c 0,-376.65 0,-1102.3 0,-1102.3 v -10.05 l 7.11,7.1 c 0,0 725.65,725.66 1102.3,1102.31 l 7.11,7.11 H 2620.15 v -4.17 h 4.16 v -4.16 h 1102.31 v 4.16 l -2.95,2.94 c -376.65,-376.64 -1102.3,-1102.3 -1102.3,-1102.3 l 2.94,-2.94 h 4.16 c 0,0 0,725.65 0,1102.3 h -4.16 v -4.16 4.16" /><path
         id="path506"
         style="fill:#fab674;fill-opacity:1;fill-rule:nonzero;stroke:none"
         d="M 2624.31,7320.35 H 1300.86 L 2624.31,5996.89 Z" /><path
         id="path508"
         style="fill:#fab674;fill-opacity:1;fill-rule:nonzero;stroke:none"
         d="m 2624.31,7320.35 v 4.16 H 1290.81 L 2628.47,5986.84 v 1337.67 h -4.16 v -4.16 h -4.16 V 6006.94 L 1310.91,7316.18 h 1313.4 v 4.17 h -4.16 4.16" /><path
         id="path510"
         style="fill:#fbc672;fill-opacity:1;fill-rule:nonzero;stroke:none"
         d="M 1300.86,7320.35 V 5996.89 h 1323.45 z" /><path
         id="path512"
         style="fill:#fbc672;fill-opacity:1;fill-rule:nonzero;stroke:none"
         d="m 1300.86,7320.35 h -4.16 V 5992.73 H 2634.36 L 1296.7,7330.4 v -10.05 h 4.16 l -2.94,-2.95 1316.34,-1316.35 H 1305.02 v 1319.3 h -4.16 l -2.94,-2.95 2.94,2.95" /><path
         id="path514"
         style="fill:#fbe28c;fill-opacity:1;fill-rule:nonzero;stroke:none"
         d="M 2624.31,5996.89 H 1300.86 L 2624.31,4673.43 Z" /><path
         id="path516"
         style="fill:#fbe28c;fill-opacity:1;fill-rule:nonzero;stroke:none"
         d="m 2624.31,5996.89 v 4.16 H 1290.81 L 2628.47,4663.38 v 1337.67 h -4.16 v -4.16 h -4.16 V 4683.48 L 1310.91,5992.73 h 1313.4 v 4.16 h -4.16 4.16" /><path
         id="path518"
         style="fill:#fbee8e;fill-opacity:1;fill-rule:nonzero;stroke:none"
         d="M 1300.86,5996.89 V 4673.43 h 1323.45 z" /><path
         id="path520"
         style="fill:#fbee8e;fill-opacity:1;fill-rule:nonzero;stroke:none"
         d="m 1300.86,5996.89 h -4.16 V 4669.27 H 2634.36 L 1296.7,6006.94 v -10.05 h 4.16 l -2.94,-2.94 L 2614.26,4677.6 H 1305.02 v 1319.29 h -4.16 l -2.94,-2.94 2.94,2.94" /><path
         id="path522"
         style="fill:#faf9b0;fill-opacity:1;fill-rule:nonzero;stroke:none"
         d="M 2624.31,4673.45 H 1300.86 L 2624.31,3350 v 1323.45" /><path
         id="path524"
         style="fill:#faf9b0;fill-opacity:1;fill-rule:nonzero;stroke:none"
         d="m 2624.31,4673.45 v 4.14 H 1290.78 L 2628.45,3339.92 v 1337.67 h -4.14 v -4.14 h -4.14 V 3359.99 L 1310.94,4669.31 h 1313.37 v 4.14 h -4.14 4.14" /><path
         id="path526"
         style="fill:#fafab5;fill-opacity:1;fill-rule:nonzero;stroke:none"
         d="M 1300.86,4673.43 V 3349.98 h 1323.45 z" /><path
         id="path528"
         style="fill:#fafab5;fill-opacity:1;fill-rule:nonzero;stroke:none"
         d="m 1300.86,4673.43 h -4.16 V 3345.82 H 2634.36 L 1296.7,4683.48 v -10.05 h 4.16 l -2.94,-2.94 1316.34,-1316.35 H 1305.02 v 1319.29 h -4.16 l -2.94,-2.94 2.94,2.94" /><path
         id="path530"
         style="fill:#f0f8db;fill-opacity:1;fill-rule:nonzero;stroke:none"
         d="M 2624.31,3349.98 H 1300.86 L 2624.31,2026.52 Z" /><path
         id="path532"
         style="fill:#f0f8db;fill-opacity:1;fill-rule:nonzero;stroke:none"
         d="m 2624.31,3349.98 v 4.16 H 1290.81 L 2628.47,2016.47 v 1337.67 h -4.16 v -4.16 h -4.16 V 2036.58 L 1310.91,3345.82 h 1313.4 v 4.16 h -4.16 4.16" /><path
         id="path534"
         style="fill:#e6f5cd;fill-opacity:1;fill-rule:nonzero;stroke:none"
         d="M 1300.86,3349.98 V 2026.52 h 1323.45 z" /><path
         id="path536"
         style="fill:#e6f5cd;fill-opacity:1;fill-rule:nonzero;stroke:none"
         d="m 1300.86,3349.98 h -4.16 V 2022.36 H 2634.36 L 1296.7,3360.03 v -10.05 h 4.16 l -2.94,-2.94 1316.34,-1316.35 H 1305.02 v 1319.29 h -4.16 l -2.94,-2.94 2.94,2.94" /><path
         id="path538"
         style="fill:#cfead0;fill-opacity:1;fill-rule:nonzero;stroke:none"
         d="M 2624.31,2026.52 H 1300.86 L 2624.31,703.09 Z" /><path
         id="path540"
         style="fill:#cfead0;fill-opacity:1;fill-rule:nonzero;stroke:none"
         d="m 2624.31,2026.52 v 4.17 H 1290.81 L 2628.47,693.039 V 2030.69 h -4.16 v -4.17 h -4.16 V 713.141 L 1310.91,2022.36 h 1313.4 v 4.16 h -4.16 4.16" /><path
         id="path542"
         style="fill:#c7dfc3;fill-opacity:1;fill-rule:nonzero;stroke:none"
         d="M 1300.86,2026.52 V 703.09 h 1323.45 z" /><path
         id="path544"
         style="fill:#c7dfc3;fill-opacity:1;fill-rule:nonzero;stroke:none"
         d="m 1300.86,2026.52 h -4.16 V 698.922 H 2634.36 L 1296.7,2036.58 v -10.06 h 4.16 l -2.94,-2.94 L 2614.26,707.25 H 1305.02 v 1319.27 h -4.16 l -2.94,-2.94 2.94,2.94" /><path
         id="path546"
         style="fill:#b2c6c3;fill-opacity:1;fill-rule:nonzero;stroke:none"
         d="m 2624.31,4.16016 c 0,342.76984 0,698.92984 0,698.92984 H 1300.86 c 0,0 356.14,-356.16 698.93,-698.92984 h 624.52" /><path
         id="path548"
         style="fill:#b2c6c3;fill-opacity:1;fill-rule:nonzero;stroke:none"
         d="m 2624.31,4.16016 h 4.16 c 0,171.39084 0,346.12084 0,477.99984 0,65.949 0,121.18 0,159.922 0,38.75 0,60.949 0,61.008 v 4.16 H 1290.81 l 7.11,-7.109 c 0.01,-0.012 5.56,-5.559 15.97,-15.969 72.85,-72.863 383.01,-383.031 682.95,-682.95325 L 1998.06,0 h 630.41 v 4.16016 h -4.16 V 8.32031 H 1999.79 V 4.16016 l 2.94,2.9414 C 1831.33,178.492 1656.6,353.223 1524.72,485.109 c -65.94,65.942 -121.17,121.172 -159.91,159.922 -19.38,19.367 -34.63,34.617 -45.03,45.028 -10.41,10.41 -15.96,15.953 -15.98,15.972 l -2.94,-2.941 v -4.168 h 1323.45 v 4.168 h -4.16 c 0,-0.059 0,-22.258 0,-61.008 0,-116.23 0,-380.844 0,-637.92184 h 4.16 V 8.32031 4.16016" /><path
         id="path550"
         style="fill:#abb5b6;fill-opacity:1;fill-rule:nonzero;stroke:none"
         d="M 1999.79,4.16016 C 1657,346.93 1300.86,703.09 1300.86,703.09 c 0,0 0,-356.16 0,-698.92984 h 698.93" /><path
         id="path552"
         style="fill:#abb5b6;fill-opacity:1;fill-rule:nonzero;stroke:none"
         d="m 1999.79,4.16016 2.94,2.9414 C 1831.33,178.492 1656.6,353.223 1524.72,485.109 c -65.94,65.942 -121.17,121.172 -159.91,159.922 -19.38,19.367 -34.63,34.617 -45.03,45.028 -10.41,10.41 -15.96,15.953 -15.98,15.972 l -7.1,7.11 V 703.09 c 0,-0.059 0,-22.258 0,-61.008 0,-116.23 0,-380.844 0,-637.92184 V 0 h 713.14 l -7.11,7.10156 -2.94,-2.9414 V 8.32031 H 1300.86 V 4.16016 h 4.16 c 0,171.39084 0,346.12084 0,477.99984 0,65.949 0,121.18 0,159.922 0,38.75 0,60.949 0,61.008 h -4.16 l -2.94,-2.949 c 0.01,-0.012 5.56,-5.559 15.97,-15.969 72.85,-72.863 383.01,-383.031 682.95,-682.95325 l 2.95,2.94141 V 8.32031 4.16016" /><path
         id="path554"
         style="fill:#f89d68;fill-opacity:1;fill-rule:nonzero;stroke:none"
         d="M 2403.16,8422.65 C 2026.51,8046 1300.86,7320.35 1300.86,7320.35 h 1323.45 c 0,0 0,725.65 0,1102.3 h -221.15" /><path
         id="path556"
         style="fill:#f89d68;fill-opacity:1;fill-rule:nonzero;stroke:none"
         d="m 2403.16,8422.65 -2.94,2.94 c -376.65,-376.64 -1102.3,-1102.3 -1102.3,-1102.3 l -7.11,-7.11 h 1337.66 v 4.17 c 0,0 0,725.65 0,1102.3 v 4.17 h -227.04 l -1.21,-1.23 2.94,-2.94 v -4.16 h 221.15 v 4.16 h -4.16 c 0,-376.65 0,-1102.3 0,-1102.3 h 4.16 v 4.16 H 1300.86 v -4.16 l 2.94,-2.95 c 0,0 725.66,725.66 1102.3,1102.31 l -2.94,2.94 v -4.16 4.16" /><path
         id="path558"
         style="fill:#f49159;fill-opacity:1;fill-rule:nonzero;stroke:none"
         d="m 1300.86,8422.65 c 0,-376.65 0,-1102.3 0,-1102.3 0,0 725.65,725.65 1102.3,1102.3 h -1102.3" /><path
         id="path560"
         style="fill:#f49159;fill-opacity:1;fill-rule:nonzero;stroke:none"
         d="m 1300.86,8422.65 h -4.16 c 0,-376.65 0,-1102.3 0,-1102.3 v -10.05 l 7.1,7.1 c 0,0 725.66,725.66 1102.3,1102.31 l 7.11,7.11 H 1296.7 v -4.17 h 4.16 v -4.16 h 1102.3 v 4.16 l -2.94,2.94 c -376.65,-376.64 -1102.3,-1102.3 -1102.3,-1102.3 l 2.94,-2.94 h 4.16 c 0,0 0,725.65 0,1102.3 h -4.16 v -4.16 4.16" /><path
         id="path562"
         style="fill:#c8d4b5;fill-opacity:1;fill-rule:nonzero;stroke:none"
         d="m 4.16406,703.09 c 187.47694,0 1296.69594,0 1296.69594,0 v 1323.43 c 0,0 -1109.219,-1109.2 -1296.69594,-1296.68 v -26.75" /><path
         id="path564"
         style="fill:#c8d4b5;fill-opacity:1;fill-rule:nonzero;stroke:none"
         d="m 4.16406,703.09 v -4.168 c 187.47694,0 1296.69594,0 1296.69594,0 h 4.16 V 2036.58 l -7.1,-7.11 c 0,0 -1109.225,-1109.2 -1296.69734,-1296.681 L 0,731.57 v -32.648 h 4.16406 v 4.168 h 4.16407 v 26.75 H 4.16406 l 2.94532,-2.942 C 194.586,914.379 1303.8,2023.58 1303.8,2023.58 l -2.94,2.94 h -4.16 V 703.09 h 4.16 v 4.16 c 0,0 -1109.219,0 -1296.69594,0 v -4.16 H 8.32813 4.16406" /><path
         id="path566"
         style="fill:#d3d9b2;fill-opacity:1;fill-rule:nonzero;stroke:none"
         d="M 4.16406,729.84 C 191.641,917.32 1300.86,2026.52 1300.86,2026.52 c 0,0 -1109.219,0 -1296.69594,0 V 729.84" /><path
         id="path568"
         style="fill:#d3d9b2;fill-opacity:1;fill-rule:nonzero;stroke:none"
         d="m 4.16406,729.84 2.94532,-2.942 C 194.586,914.379 1303.8,2023.58 1303.8,2023.58 l 7.11,7.11 h -10.05 c 0,0 -1109.219,0 -1296.69594,0 L 0,2030.69 V 719.789 l 7.10938,7.109 -2.94532,2.942 H 8.32813 V 2026.52 H 4.16406 v -4.16 c 187.47694,0 1296.69594,0 1296.69594,0 v 4.16 l -2.94,2.95 c 0,0 -1109.225,-1109.2 -1296.69734,-1296.681 l 2.9414,-2.949 H 8.32813 4.16406" /><path
         id="path570"
         style="fill:#f3864e;fill-opacity:1;fill-rule:nonzero;stroke:none"
         d="M 198.559,8422.65 C 575.211,8046 1300.86,7320.35 1300.86,7320.35 c 0,0 0,725.65 0,1102.3 H 198.559" /><path
         id="path572"
         style="fill:#f3864e;fill-opacity:1;fill-rule:nonzero;stroke:none"
         d="m 198.559,8422.65 -2.942,-2.94 C 572.266,8043.06 1297.91,7317.4 1297.92,7317.4 l 7.1,-7.1 v 10.05 c 0,0 0,725.65 0,1102.3 v 4.17 H 188.508 l 7.109,-7.11 2.942,2.94 v -4.16 H 1300.86 v 4.16 h -4.16 c 0,-376.65 0,-1102.3 0,-1102.3 h 4.16 l 2.94,2.94 c 0,0 -725.648,725.66 -1102.296,1102.3 l -2.945,-2.94 v -4.16 4.16" /><path
         id="path574"
         style="fill:#f68e4e;fill-opacity:1;fill-rule:nonzero;stroke:none"
         d="m 4.16406,8422.65 c 0,-361.83 0,-1102.3 0,-1102.3 187.47694,0 1296.69594,0 1296.69594,0 0,0 -725.649,725.65 -1102.301,1102.3 H 4.16406" /><path
         id="path576"
         style="fill:#f68e4e;fill-opacity:1;fill-rule:nonzero;stroke:none"
         d="M 4.16406,8422.65 H 0 c 0,-361.83 0,-1102.3 0,-1102.3 v -4.17 h 4.16406 c 187.47694,0 1296.69594,0 1296.69594,0 h 10.05 l -7.11,7.11 c 0,0 -725.648,725.66 -1102.296,1102.3 l -1.219,1.23 H 0 v -4.17 h 4.16406 v -4.16 H 198.559 v 4.16 l -2.942,-2.94 C 572.266,8043.06 1297.91,7317.4 1297.92,7317.4 l 2.94,2.95 v 4.16 c 0,0 -1109.219,0 -1296.69594,0 v -4.16 h 4.16407 c 0,0 0,740.47 0,1102.3 H 4.16406 v -4.16 4.16" /><path
         id="path578"
         style="fill:#f9ab5f;fill-opacity:1;fill-rule:nonzero;stroke:none"
         d="M 4.16406,7293.59 C 191.641,7106.11 1300.86,5996.89 1300.86,5996.89 v 1323.46 c 0,0 -1109.219,0 -1296.69594,0 v -26.76" /><path
         id="path580"
         style="fill:#f9ab5f;fill-opacity:1;fill-rule:nonzero;stroke:none"
         d="m 4.16406,7293.59 -2.9414,-2.94 C 188.695,7103.16 1297.91,5993.95 1297.92,5993.95 l 7.1,-7.11 v 1337.67 h -4.16 c 0,0 -1109.219,0 -1296.69594,0 H 0 v -32.65 l 1.22266,-1.21 2.9414,2.94 h 4.16407 v 26.76 H 4.16406 v -4.17 c 187.47694,0 1296.69594,0 1296.69594,0 v 4.17 h -4.16 V 5996.89 h 4.16 l 2.94,2.94 c 0,0 -1109.214,1109.22 -1296.69062,1296.7 l -2.94532,-2.94 H 8.32813 4.16406" /><path
         id="path582"
         style="fill:#fab65c;fill-opacity:1;fill-rule:nonzero;stroke:none"
         d="m 4.16406,5996.89 c 187.47694,0 1296.69594,0 1296.69594,0 0,0 -1109.219,1109.22 -1296.69594,1296.7 v -1296.7" /><path
         id="path584"
         style="fill:#fab65c;fill-opacity:1;fill-rule:nonzero;stroke:none"
         d="m 4.16406,5996.89 v -4.16 c 187.47694,0 1296.69594,0 1296.69594,0 h 10.05 l -7.11,7.1 c 0,0 -1109.214,1109.22 -1296.69062,1296.7 L 0,7303.64 V 5992.73 h 4.16406 v 4.16 h 4.16407 v 1296.7 H 4.16406 l -2.9414,-2.94 C 188.695,7103.16 1297.91,5993.95 1297.92,5993.95 l 2.94,2.94 v 4.16 c 0,0 -1109.219,0 -1296.69594,0 v -4.16 H 8.32813 4.16406" /><path
         id="path586"
         style="fill:#fbd675;fill-opacity:1;fill-rule:nonzero;stroke:none"
         d="M 4.16406,5970.13 C 191.641,5782.65 1300.86,4673.43 1300.86,4673.43 v 1323.46 c 0,0 -1109.219,0 -1296.69594,0 v -26.76" /><path
         id="path588"
         style="fill:#fbd675;fill-opacity:1;fill-rule:nonzero;stroke:none"
         d="m 4.16406,5970.13 -2.9414,-2.94 C 188.695,5779.71 1297.91,4670.49 1297.92,4670.49 l 7.1,-7.11 v 1337.67 h -4.16 c 0,0 -1109.219,0 -1296.69594,0 H 0 v -32.64 l 1.22266,-1.22 2.9414,2.94 h 4.16407 v 26.76 H 4.16406 v -4.16 c 187.47694,0 1296.69594,0 1296.69594,0 v 4.16 h -4.16 V 4673.43 h 4.16 l 2.94,2.95 c 0,0 -1109.214,1109.22 -1296.69062,1296.7 l -2.94532,-2.95 H 8.32813 4.16406" /><path
         id="path590"
         style="fill:#fae077;fill-opacity:1;fill-rule:nonzero;stroke:none"
         d="m 4.16406,4673.43 c 187.47694,0 1296.69594,0 1296.69594,0 0,0 -1109.219,1109.22 -1296.69594,1296.7 v -1296.7" /><path
         id="path592"
         style="fill:#fae077;fill-opacity:1;fill-rule:nonzero;stroke:none"
         d="m 4.16406,4673.43 v -4.16 c 187.47694,0 1296.69594,0 1296.69594,0 h 10.05 l -7.11,7.11 c 0,0 -1109.214,1109.22 -1296.69062,1296.7 L 0,5980.18 V 4669.27 h 4.16406 v 4.16 h 4.16407 v 1296.7 H 4.16406 l -2.9414,-2.94 C 188.695,5779.71 1297.91,4670.49 1297.92,4670.49 l 2.94,2.94 v 4.17 c 0,0 -1109.219,0 -1296.69594,0 v -4.17 H 8.32813 4.16406" /><path
         id="path594"
         style="fill:#e7ecbf;fill-opacity:1;fill-rule:nonzero;stroke:none"
         d="m 4.16406,2026.52 c 187.47694,0 1296.69594,0 1296.69594,0 v 1323.46 c 0,0 -1109.219,-1109.22 -1296.69594,-1296.7 v -26.76" /><path
         id="path596"
         style="fill:#e7ecbf;fill-opacity:1;fill-rule:nonzero;stroke:none"
         d="m 4.16406,2026.52 v -4.16 c 187.47694,0 1296.69594,0 1296.69594,0 h 4.16 v 1337.67 l -7.1,-7.11 c 0,0 -1109.225,-1109.21 -1296.69734,-1296.69 L 0,2055.01 v -32.65 h 4.16406 v 4.16 h 4.16407 v 26.76 H 4.16406 l 2.94532,-2.94 C 194.586,2237.82 1303.8,3347.04 1303.8,3347.04 l -2.94,2.94 h -4.16 V 2026.52 h 4.16 v 4.17 c 0,0 -1109.219,0 -1296.69594,0 v -4.17 H 8.32813 4.16406" /><path
         id="path598"
         style="fill:#f1ebba;fill-opacity:1;fill-rule:nonzero;stroke:none"
         d="M 4.16406,2053.28 C 191.641,2240.76 1300.86,3349.98 1300.86,3349.98 c 0,0 -1109.219,0 -1296.69594,0 v -1296.7" /><path
         id="path600"
         style="fill:#f1ebba;fill-opacity:1;fill-rule:nonzero;stroke:none"
         d="m 4.16406,2053.28 2.94532,-2.94 C 194.586,2237.82 1303.8,3347.04 1303.8,3347.04 l 7.11,7.1 h -10.05 c 0,0 -1109.219,0 -1296.69594,0 H 0 V 2043.23 l 7.10938,7.11 -2.94532,2.94 h 4.16407 v 1296.7 H 4.16406 v -4.16 c 187.47694,0 1296.69594,0 1296.69594,0 v 4.16 l -2.94,2.94 c 0,0 -1109.225,-1109.21 -1296.69734,-1296.69 l 2.9414,-2.95 H 8.32813 4.16406" /><path
         id="path602"
         style="fill:#fdf495;fill-opacity:1;fill-rule:nonzero;stroke:none"
         d="M 4.16406,4646.67 C 191.641,4459.2 1300.86,3349.98 1300.86,3349.98 v 1323.45 c 0,0 -1109.219,0 -1296.69594,0 v -26.76" /><path
         id="path604"
         style="fill:#fdf495;fill-opacity:1;fill-rule:nonzero;stroke:none"
         d="m 4.16406,4646.67 -2.9414,-2.94 C 188.695,4456.26 1297.91,3347.04 1297.92,3347.04 l 7.1,-7.11 V 4677.6 h -4.16 c 0,0 -1109.219,0 -1296.69594,0 H 0 v -32.65 l 1.22266,-1.22 2.9414,2.94 h 4.16407 v 26.76 H 4.16406 v -4.16 c 187.47694,0 1296.69594,0 1296.69594,0 v 4.16 h -4.16 V 3349.98 h 4.16 l 2.94,2.94 c 0,0 -1109.214,1109.22 -1296.69062,1296.7 l -2.94532,-2.95 H 8.32813 4.16406" /><path
         id="path606"
         style="fill:#faf09c;fill-opacity:1;fill-rule:nonzero;stroke:none"
         d="m 4.16406,3349.98 c 187.47694,0 1296.69594,0 1296.69594,0 0,0 -1109.219,1109.22 -1296.69594,1296.69 V 3349.98" /><path
         id="path608"
         style="fill:#faf09c;fill-opacity:1;fill-rule:nonzero;stroke:none"
         d="m 4.16406,3349.98 v -4.16 c 187.47694,0 1296.69594,0 1296.69594,0 h 10.05 l -7.11,7.1 c 0,0 -1109.214,1109.22 -1296.69062,1296.7 L 0,4656.73 V 3345.82 h 4.16406 v 4.16 H 8.32813 V 4646.67 H 4.16406 l -2.9414,-2.94 C 188.695,4456.26 1297.91,3347.04 1297.92,3347.04 l 2.94,2.94 v 4.16 c 0,0 -1109.219,0 -1296.69594,0 v -4.16 H 8.32813 4.16406" /><path
         id="path610"
         style="fill:#b5b9ac;fill-opacity:1;fill-rule:nonzero;stroke:none"
         d="m 1300.86,4.16016 c 0,342.76984 0,698.92984 0,698.92984 0,0 -1109.219,0 -1296.69594,0 V 676.332 C 93.0898,587.398 389.387,291.09 676.328,4.16016 h 624.532" /><path
         id="path612"
         style="fill:#b5b9ac;fill-opacity:1;fill-rule:nonzero;stroke:none"
         d="m 1300.86,4.16016 h 4.16 c 0,171.39084 0,346.12084 0,477.99984 0,65.949 0,121.18 0,159.922 0,38.75 0,60.949 0,61.008 v 4.16 h -4.16 c 0,0 -1109.219,0 -1296.69594,0 H 0 v -32.648 l 1.22266,-1.223 C 90.1484,584.461 386.441,288.152 673.383,1.21875 L 674.605,0 h 630.415 v 4.16016 h -4.16 V 8.32031 H 676.328 V 4.16016 l 2.945,2.9414 C 392.328,294.039 96.0352,590.352 7.10938,679.27 L 4.16406,676.332 H 8.32813 V 703.09 H 4.16406 v -4.168 c 187.47694,0 1296.69594,0 1296.69594,0 v 4.168 h -4.16 c 0,-0.059 0,-22.258 0,-61.008 0,-116.23 0,-380.844 0,-637.92184 h 4.16 V 8.32031 4.16016" /><path
         id="path614"
         style="fill:#aca7a1;fill-opacity:1;fill-rule:nonzero;stroke:none"
         d="M 676.328,4.16016 C 389.387,291.09 93.0898,587.398 4.16406,676.332 c 0,0 0,-340.262 0,-672.17184 H 676.328" /><path
         id="path616"
         style="fill:#aca7a1;fill-opacity:1;fill-rule:nonzero;stroke:none"
         d="m 676.328,4.16016 2.945,2.9414 C 392.328,294.039 96.0352,590.352 7.10938,679.27 L 0,686.379 V 676.332 C 0,676.27 0,655.059 0,617.98 0,506.719 0,253.102 0,4.16016 V 0 h 686.383 l -7.11,7.10156 -2.945,-2.9414 V 8.32031 H 4.16406 V 4.16016 h 4.16407 c 0,165.96084 0,333.99984 0,460.55084 0,63.281 0,116.18 0,153.269 0,37.079 0,58.29 0,58.352 H 4.16406 l -2.9414,-2.953 C 90.1484,584.461 386.441,288.152 673.383,1.21875 l 2.945,2.94141 V 8.32031 4.16016" /><path
         id="path682"
         style="fill:#8b9278;fill-opacity:1;fill-rule:nonzero;stroke:none"
         d="m 3271,4032.65 -18.03,18.03 v 0 l 18.03,-18.02 c 0,-0.01 0,-0.01 0,-0.01" /><path
         id="path696"
         style="fill:#8b9278;fill-opacity:1;fill-rule:nonzero;stroke:none"
         d="m 3289,4014.65 -2.44,2.45 v 0 l 2.44,-2.45" /></g></g></svg>