<?xml version="1.0" encoding="UTF-8" standalone="no"?><svg xmlns="http://www.w3.org/2000/svg" xmlns:xlink="http://www.w3.org/1999/xlink" contentScriptType="application/ecmascript" contentStyleType="text/css" height="421px" preserveAspectRatio="none" style="width:729px;height:421px;background:#FFFFFF;" version="1.1" viewBox="0 0 729 421" width="729px" zoomAndPan="magnify"><defs><filter height="300%" id="fbbzykkl159jz" width="300%" x="-1" y="-1"><feGaussianBlur result="blurOut" stdDeviation="2.0"/><feColorMatrix in="blurOut" result="blurOut2" type="matrix" values="0 0 0 0 0 0 0 0 0 0 0 0 0 0 0 0 0 0 .4 0"/><feOffset dx="4.0" dy="4.0" in="blurOut2" result="blurOut3"/><feBlend in="SourceGraphic" in2="blurOut3" mode="normal"/></filter></defs><g><!--MD5=[e8c3a4e0805c0c458244a8168557ab11]
class KeyEntryType_e--><rect codeLine="6" fill="#FEFECE" filter="url(#fbbzykkl159jz)" height="32" id="KeyEntryType_e" style="stroke:#A80036;stroke-width:1.5;" width="129" x="204.5" y="375"/><ellipse cx="219.5" cy="391" fill="#EB937F" rx="11" ry="11" style="stroke:#A80036;stroke-width:1.0;"/><path d="M223.6094,397.5 L215.8906,397.5 L215.8906,384.5 L223.6094,384.5 L223.6094,386.7813 L218.3438,386.7813 L218.3438,389.5 L223.1094,389.5 L223.1094,391.7813 L218.3438,391.7813 L218.3438,395.2344 L223.6094,395.2344 L223.6094,397.5 Z " fill="#000000"/><text fill="#000000" font-family="sans-serif" font-size="12" lengthAdjust="spacing" textLength="97" x="233.5" y="395.1543">KeyEntryType_e</text><!--MD5=[8bad01fcd105161511cb664df104e821]
class ActionID_e--><rect codeLine="7" fill="#FEFECE" filter="url(#fbbzykkl159jz)" height="32" id="ActionID_e" style="stroke:#A80036;stroke-width:1.5;" width="96" x="73" y="375"/><ellipse cx="88" cy="391" fill="#EB937F" rx="11" ry="11" style="stroke:#A80036;stroke-width:1.0;"/><path d="M92.1094,397.5 L84.3906,397.5 L84.3906,384.5 L92.1094,384.5 L92.1094,386.7813 L86.8438,386.7813 L86.8438,389.5 L91.6094,389.5 L91.6094,391.7813 L86.8438,391.7813 L86.8438,395.2344 L92.1094,395.2344 L92.1094,397.5 Z " fill="#000000"/><text fill="#000000" font-family="sans-serif" font-size="12" lengthAdjust="spacing" textLength="64" x="102" y="395.1543">ActionID_e</text><!--MD5=[f858945e8f2cf5e164c0b564e75bcc04]
class Context_e--><rect codeLine="8" fill="#FEFECE" filter="url(#fbbzykkl159jz)" height="32" id="Context_e" style="stroke:#A80036;stroke-width:1.5;" width="92" x="404" y="249.5"/><ellipse cx="419" cy="265.5" fill="#EB937F" rx="11" ry="11" style="stroke:#A80036;stroke-width:1.0;"/><path d="M423.1094,272 L415.3906,272 L415.3906,259 L423.1094,259 L423.1094,261.2813 L417.8438,261.2813 L417.8438,264 L422.6094,264 L422.6094,266.2813 L417.8438,266.2813 L417.8438,269.7344 L423.1094,269.7344 L423.1094,272 Z " fill="#000000"/><text fill="#000000" font-family="sans-serif" font-size="12" lengthAdjust="spacing" textLength="60" x="433" y="269.6543">Context_e</text><!--MD5=[da1ec989ae0bbc5d72a1520beaa1b179]
class KeyboardKey_e--><rect codeLine="9" fill="#FEFECE" filter="url(#fbbzykkl159jz)" height="32" id="KeyboardKey_e" style="stroke:#A80036;stroke-width:1.5;" width="124" x="488" y="375"/><ellipse cx="503" cy="391" fill="#EB937F" rx="11" ry="11" style="stroke:#A80036;stroke-width:1.0;"/><path d="M507.1094,397.5 L499.3906,397.5 L499.3906,384.5 L507.1094,384.5 L507.1094,386.7813 L501.8438,386.7813 L501.8438,389.5 L506.6094,389.5 L506.6094,391.7813 L501.8438,391.7813 L501.8438,395.2344 L507.1094,395.2344 L507.1094,397.5 Z " fill="#000000"/><text fill="#000000" font-family="sans-serif" font-size="12" lengthAdjust="spacing" textLength="92" x="517" y="395.1543">KeyboardKey_e</text><!--MD5=[6eb289ab5c8d09cf37709d77f80249c1]
class TextID_e--><rect codeLine="10" fill="#FEFECE" filter="url(#fbbzykkl159jz)" height="32" id="TextID_e" style="stroke:#A80036;stroke-width:1.5;" width="84" x="369" y="375"/><ellipse cx="384" cy="391" fill="#EB937F" rx="11" ry="11" style="stroke:#A80036;stroke-width:1.0;"/><path d="M388.1094,397.5 L380.3906,397.5 L380.3906,384.5 L388.1094,384.5 L388.1094,386.7813 L382.8438,386.7813 L382.8438,389.5 L387.6094,389.5 L387.6094,391.7813 L382.8438,391.7813 L382.8438,395.2344 L388.1094,395.2344 L388.1094,397.5 Z " fill="#000000"/><text fill="#000000" font-family="sans-serif" font-size="12" lengthAdjust="spacing" textLength="52" x="398" y="395.1543">TextID_e</text><!--MD5=[6d0b29f264e1ef50e93ab7655050bb92]
class iKeyBinding--><rect codeLine="12" fill="#FEFECE" filter="url(#fbbzykkl159jz)" height="148.8281" id="iKeyBinding" style="stroke:#A80036;stroke-width:1.5;" width="708" x="7" y="7"/><ellipse cx="294.25" cy="23" fill="#B4A7E5" rx="11" ry="11" style="stroke:#A80036;stroke-width:1.0;"/><path d="M290.6719,18.7813 L290.6719,16.5 L298.0625,16.5 L298.0625,18.7813 L295.5938,18.7813 L295.5938,27.2344 L298.0625,27.2344 L298.0625,29.5 L290.6719,29.5 L290.6719,27.2344 L293.1406,27.2344 L293.1406,18.7813 L290.6719,18.7813 Z " fill="#000000"/><text fill="#000000" font-family="sans-serif" font-size="12" font-style="italic" lengthAdjust="spacing" textLength="125" x="314.75" y="27.1543">KeyBinding interface</text><line style="stroke:#A80036;stroke-width:1.5;" x1="8" x2="714" y1="39" y2="39"/><ellipse cx="18" cy="50" fill="#84BE84" rx="3" ry="3" style="stroke:#038048;stroke-width:1.0;"/><text fill="#000000" font-family="sans-serif" font-size="11" lengthAdjust="spacing" textLength="93" x="27" y="53.2104">init( void ) : bool</text><line style="stroke:#A80036;stroke-width:1.0;" x1="8" x2="714" y1="59.8047" y2="59.8047"/><text fill="#000000" font-family="sans-serif" font-size="11" font-weight="bold" lengthAdjust="spacing" textLength="56" x="13" y="74.0151">UI global</text><line style="stroke:#A80036;stroke-width:1.0;" x1="8" x2="714" y1="80.6094" y2="80.6094"/><ellipse cx="18" cy="91.6094" fill="#84BE84" rx="3" ry="3" style="stroke:#038048;stroke-width:1.0;"/><text fill="#000000" font-family="sans-serif" font-size="11" lengthAdjust="spacing" textLength="314" x="27" y="94.8198">getAction( Context_e ctx, int ncurses_key ) : ActionID_e</text><line style="stroke:#A80036;stroke-width:1.0;" x1="8" x2="714" y1="101.4141" y2="101.4141"/><text fill="#000000" font-family="sans-serif" font-size="11" font-weight="bold" lengthAdjust="spacing" textLength="133" x="13" y="115.6245">Used for ContextHelp</text><line style="stroke:#A80036;stroke-width:1.0;" x1="8" x2="714" y1="122.2188" y2="122.2188"/><ellipse cx="18" cy="133.2188" fill="#84BE84" rx="3" ry="3" style="stroke:#038048;stroke-width:1.0;"/><text fill="#000000" font-family="sans-serif" font-size="11" lengthAdjust="spacing" textLength="284" x="27" y="136.4292">getKeyText( KeyboardKey_e keyID ) : const char *</text><ellipse cx="18" cy="146.0234" fill="#84BE84" rx="3" ry="3" style="stroke:#038048;stroke-width:1.0;"/><text fill="#000000" font-family="sans-serif" font-size="11" lengthAdjust="spacing" textLength="682" x="27" y="149.2339">processEntries( Context_e ctx, void * userdata, void (* callback)( const KeyBinding_t * binding, void * userdata ) ) : bool</text><!--MD5=[edec457a1fa0f5161a31b9782ac0d286]
class KeyBinding_t--><rect codeLine="25" fill="#FEFECE" filter="url(#fbbzykkl159jz)" height="99.2188" id="KeyBinding_t" style="stroke:#A80036;stroke-width:1.5;" width="191" x="177.5" y="216"/><ellipse cx="229.25" cy="232" fill="#ADD1B2" rx="11" ry="11" style="stroke:#A80036;stroke-width:1.0;"/><path d="M231.7188,237.875 Q231.1406,238.1875 230.5,238.3438 Q229.8594,238.5 229.1563,238.5 Q226.6563,238.5 225.3281,236.8281 Q224.0156,235.1563 224.0156,232 Q224.0156,228.8438 225.3281,227.1719 Q226.6563,225.5 229.1563,225.5 Q229.8594,225.5 230.5,225.6563 Q231.1563,225.8125 231.7188,226.125 L231.7188,228.9219 Q231.0938,228.3594 230.5,228.0938 Q229.9063,227.8125 229.2813,227.8125 Q227.9375,227.8125 227.25,228.875 Q226.5625,229.9375 226.5625,232 Q226.5625,234.0781 227.25,235.1406 Q227.9375,236.1875 229.2813,236.1875 Q229.9063,236.1875 230.5,235.9219 Q231.0938,235.6563 231.7188,235.0781 L231.7188,237.875 Z " fill="#000000"/><text fill="#000000" font-family="sans-serif" font-size="12" lengthAdjust="spacing" textLength="79" x="249.75" y="236.1543">KeyBinding_t</text><line style="stroke:#A80036;stroke-width:1.5;" x1="178.5" x2="367.5" y1="248" y2="248"/><ellipse cx="188.5" cy="259" rx="3" ry="3" style="stroke:#038048;stroke-width:1.0;fill:none;"/><text fill="#000000" font-family="sans-serif" font-size="11" lengthAdjust="spacing" textLength="165" x="197.5" y="262.2104">entry_type : KeyEntryType_e</text><ellipse cx="188.5" cy="271.8047" rx="3" ry="3" style="stroke:#038048;stroke-width:1.0;fill:none;"/><text fill="#000000" font-family="sans-serif" font-size="11" lengthAdjust="spacing" textLength="105" x="197.5" y="275.0151">action : ActionID_e</text><ellipse cx="188.5" cy="284.6094" rx="3" ry="3" style="stroke:#038048;stroke-width:1.0;fill:none;"/><text fill="#000000" font-family="sans-serif" font-size="11" lengthAdjust="spacing" textLength="123" x="197.5" y="287.8198">description : TextID_e</text><ellipse cx="188.5" cy="297.4141" rx="3" ry="3" style="stroke:#038048;stroke-width:1.0;fill:none;"/><text fill="#000000" font-family="sans-serif" font-size="11" lengthAdjust="spacing" textLength="120" x="197.5" y="300.6245">key : KeyboardKey_e</text><line style="stroke:#A80036;stroke-width:1.5;" x1="178.5" x2="367.5" y1="307.2188" y2="307.2188"/><!--MD5=[c0189372d227c6ed3575557d3ad68c79]
link iKeyBinding to KeyBinding_t--><path codeLine="32" d="M273,156.07 C273,156.07 273,210.86 273,210.86 " fill="none" id="iKeyBinding-to-KeyBinding_t" style="stroke:#A80036;stroke-width:1.0;"/><polygon fill="#A80036" points="273,215.86,277,206.86,273,210.86,269,206.86,273,215.86" style="stroke:#A80036;stroke-width:1.0;"/><!--MD5=[6049e55a005b65b404202961a50ef807]
link iKeyBinding to Context_e--><path codeLine="33" d="M450,156.07 C450,156.07 450,244.32 450,244.32 " fill="none" id="iKeyBinding-to-Context_e" style="stroke:#A80036;stroke-width:1.0;"/><polygon fill="#A80036" points="450,249.32,454,240.32,450,244.32,446,240.32,450,249.32" style="stroke:#A80036;stroke-width:1.0;"/><!--MD5=[7c587cc8e78929f07727c818989f7d3e]
link iKeyBinding to KeyboardKey_e--><path codeLine="34" d="M554,156.03 C554,156.03 554,369.89 554,369.89 " fill="none" id="iKeyBinding-to-KeyboardKey_e" style="stroke:#A80036;stroke-width:1.0;"/><polygon fill="#A80036" points="554,374.89,558,365.89,554,369.89,550,365.89,554,374.89" style="stroke:#A80036;stroke-width:1.0;"/><!--MD5=[c430450c0ce510a225b1b479d9fe6f3a]
link iKeyBinding to ActionID_e--><path codeLine="35" d="M121,156.03 C121,156.03 121,369.89 121,369.89 " fill="none" id="iKeyBinding-to-ActionID_e" style="stroke:#A80036;stroke-width:1.0;"/><polygon fill="#A80036" points="121,374.89,125,365.89,121,369.89,117,365.89,121,374.89" style="stroke:#A80036;stroke-width:1.0;"/><!--MD5=[f7fa53f24173abf58bf231bb91e73ec6]
link KeyBinding_t to TextID_e--><path codeLine="37" d="M351,315.1 C351,350.18 351,391 351,391 C351,391 363.68,391 363.68,391 " fill="none" id="KeyBinding_t-to-TextID_e" style="stroke:#A80036;stroke-width:1.0;"/><polygon fill="#A80036" points="368.68,391,359.68,387,363.68,391,359.68,395,368.68,391" style="stroke:#A80036;stroke-width:1.0;"/><!--MD5=[1af079af30f694a94da7ebd6393063d0]
link KeyBinding_t to KeyEntryType_e--><path codeLine="38" d="M269,315.1 C269,315.1 269,369.8 269,369.8 " fill="none" id="KeyBinding_t-to-KeyEntryType_e" style="stroke:#A80036;stroke-width:1.0;"/><polygon fill="#A80036" points="269,374.8,273,365.8,269,369.8,265,365.8,269,374.8" style="stroke:#A80036;stroke-width:1.0;"/><!--MD5=[88019c74a346bd003d937a24f2e3ea21]
link KeyBinding_t to ActionID_e--><path codeLine="39" d="M191,315.1 C191,350.18 191,391 191,391 C191,391 174.24,391 174.24,391 " fill="none" id="KeyBinding_t-to-ActionID_e" style="stroke:#A80036;stroke-width:1.0;"/><polygon fill="#A80036" points="169.24,391,178.24,395,174.24,391,178.24,387,169.24,391" style="stroke:#A80036;stroke-width:1.0;"/><!--MD5=[b56a8da3c3b1aa0187bf1fc4f1bd31ba]
link KeyBinding_t to KeyboardKey_e--><path codeLine="40" d="M368.74,299 C427.67,299 492,299 492,299 C492,299 492,369.97 492,369.97 " fill="none" id="KeyBinding_t-to-KeyboardKey_e" style="stroke:#A80036;stroke-width:1.0;"/><polygon fill="#A80036" points="492,374.97,496,365.97,492,369.97,488,365.97,492,374.97" style="stroke:#A80036;stroke-width:1.0;"/><!--MD5=[896abab8bf31ba70d99ad04627788b1b]
@startuml
'https://plantuml.com/class-diagram

skinparam linetype ortho
hide enum members

enum KeyEntryType_e
enum ActionID_e
enum Context_e
enum KeyboardKey_e
enum TextID_e

interface "KeyBinding interface" as iKeyBinding {
    + init( void ) : bool
    - - - -
    <b>UI global</b>
    - - - -
    + getAction( Context_e ctx, int ncurses_key ) : ActionID_e
    - - - -
    <b>Used for ContextHelp</b>
    - - - -
    + getKeyText( KeyboardKey_e keyID ) : const char *
    + processEntries( Context_e ctx, void * userdata, void (* callback)( const KeyBinding_t * binding, void * userdata ) ) : bool
}

class KeyBinding_t {
    + entry_type : KeyEntryType_e
    + action : ActionID_e
    + description : TextID_e
    + key : KeyboardKey_e
}

iKeyBinding - -> KeyBinding_t
iKeyBinding - -> Context_e
iKeyBinding - -> KeyboardKey_e
iKeyBinding - -> ActionID_e

KeyBinding_t - -> TextID_e
KeyBinding_t - -> KeyEntryType_e
KeyBinding_t -down-> ActionID_e
KeyBinding_t - -> KeyboardKey_e

@enduml

@startuml

skinparam linetype ortho
hide enum members

enum KeyEntryType_e
enum ActionID_e
enum Context_e
enum KeyboardKey_e
enum TextID_e

interface "KeyBinding interface" as iKeyBinding {
    + init( void ) : bool
    - - - -
    <b>UI global</b>
    - - - -
    + getAction( Context_e ctx, int ncurses_key ) : ActionID_e
    - - - -
    <b>Used for ContextHelp</b>
    - - - -
    + getKeyText( KeyboardKey_e keyID ) : const char *
    + processEntries( Context_e ctx, void * userdata, void (* callback)( const KeyBinding_t * binding, void * userdata ) ) : bool
}

class KeyBinding_t {
    + entry_type : KeyEntryType_e
    + action : ActionID_e
    + description : TextID_e
    + key : KeyboardKey_e
}

iKeyBinding - -> KeyBinding_t
iKeyBinding - -> Context_e
iKeyBinding - -> KeyboardKey_e
iKeyBinding - -> ActionID_e

KeyBinding_t - -> TextID_e
KeyBinding_t - -> KeyEntryType_e
KeyBinding_t -down-> ActionID_e
KeyBinding_t - -> KeyboardKey_e

@enduml

PlantUML version 1.2021.7(Sun May 23 14:40:07 CEST 2021)
(GPL source distribution)
Java Runtime: OpenJDK Runtime Environment
JVM: Dynamic Code Evolution 64-Bit Server VM
Default Encoding: UTF-8
Language: en
Country: GB
--></g></svg>