<?xml version="1.0" encoding="UTF-8" standalone="no"?><svg xmlns="http://www.w3.org/2000/svg" xmlns:xlink="http://www.w3.org/1999/xlink" contentScriptType="application/ecmascript" contentStyleType="text/css" height="703.2px" preserveAspectRatio="none" style="width:723px;height:703px;background:#FFFFFF;" version="1.1" viewBox="0 0 723 703" width="723.2px" zoomAndPan="magnify"><defs><filter height="300%" id="fhbatxlx83l35" width="300%" x="-1" y="-1"><feGaussianBlur result="blurOut" stdDeviation="1.6000000000000003"/><feColorMatrix in="blurOut" result="blurOut2" type="matrix" values="0 0 0 0 0 0 0 0 0 0 0 0 0 0 0 0 0 0 .4 0"/><feOffset dx="3.2000000000000006" dy="3.2000000000000006" in="blurOut2" result="blurOut3"/><feBlend in="SourceGraphic" in2="blurOut3" mode="normal"/></filter></defs><g><!--MD5=[2192880aea5e556e16de6e61165a6950]
class ScrollBar_t--><rect codeLine="3" fill="#FEFECE" filter="url(#fhbatxlx83l35)" height="25.6" id="ScrollBar_t" style="stroke:#A80036;stroke-width:1.2000000000000002;" width="76.8" x="174.8" y="566"/><ellipse cx="186.8" cy="578.8" fill="#ADD1B2" rx="8.8" ry="8.8" style="stroke:#A80036;stroke-width:0.8000000000000002;"/><path d="M188.775,583.5 Q188.3125,583.75 187.8,583.875 Q187.2875,584 186.725,584 Q184.725,584 183.6625,582.6625 Q182.6125,581.325 182.6125,578.8 Q182.6125,576.275 183.6625,574.9375 Q184.725,573.6 186.725,573.6 Q187.2875,573.6 187.8,573.725 Q188.325,573.85 188.775,574.1 L188.775,576.3375 Q188.275,575.8875 187.8,575.675 Q187.325,575.45 186.825,575.45 Q185.75,575.45 185.2,576.3 Q184.65,577.15 184.65,578.8 Q184.65,580.4625 185.2,581.3125 Q185.75,582.15 186.825,582.15 Q187.325,582.15 187.8,581.9375 Q188.275,581.725 188.775,581.2625 L188.775,583.5 Z " fill="#000000"/><text fill="#000000" font-family="sans-serif" font-size="9.6" lengthAdjust="spacing" textLength="51.2" x="198" y="582.1234">ScrollBar_t</text><!--MD5=[e0ea4300c5c62ebe09d9a6abed3f5a6a]
class Vector_t--><rect codeLine="4" fill="#FEFECE" filter="url(#fhbatxlx83l35)" height="25.6" id="Vector_t" style="stroke:#A80036;stroke-width:1.2000000000000002;" width="65.6" x="321.2" y="666.4"/><ellipse cx="333.2" cy="679.2" fill="#ADD1B2" rx="8.8" ry="8.8" style="stroke:#A80036;stroke-width:0.8000000000000002;"/><path d="M335.175,683.9 Q334.7125,684.15 334.2,684.275 Q333.6875,684.4 333.125,684.4 Q331.125,684.4 330.0625,683.0625 Q329.0125,681.725 329.0125,679.2 Q329.0125,676.675 330.0625,675.3375 Q331.125,674 333.125,674 Q333.6875,674 334.2,674.125 Q334.725,674.25 335.175,674.5 L335.175,676.7375 Q334.675,676.2875 334.2,676.075 Q333.725,675.85 333.225,675.85 Q332.15,675.85 331.6,676.7 Q331.05,677.55 331.05,679.2 Q331.05,680.8625 331.6,681.7125 Q332.15,682.55 333.225,682.55 Q333.725,682.55 334.2,682.3375 Q334.675,682.125 335.175,681.6625 L335.175,683.9 Z " fill="#000000"/><text fill="#000000" font-family="sans-serif" font-size="9.6" lengthAdjust="spacing" textLength="40" x="344.4" y="682.5234">Vector_t</text><!--MD5=[61f76a7476a1828dd321dc6a98e78fa5]
class String_t--><rect codeLine="5" fill="#FEFECE" filter="url(#fhbatxlx83l35)" height="25.6" id="String_t" style="stroke:#A80036;stroke-width:1.2000000000000002;" width="64" x="473.2" y="566"/><ellipse cx="485.2" cy="578.8" fill="#ADD1B2" rx="8.8" ry="8.8" style="stroke:#A80036;stroke-width:0.8000000000000002;"/><path d="M487.175,583.5 Q486.7125,583.75 486.2,583.875 Q485.6875,584 485.125,584 Q483.125,584 482.0625,582.6625 Q481.0125,581.325 481.0125,578.8 Q481.0125,576.275 482.0625,574.9375 Q483.125,573.6 485.125,573.6 Q485.6875,573.6 486.2,573.725 Q486.725,573.85 487.175,574.1 L487.175,576.3375 Q486.675,575.8875 486.2,575.675 Q485.725,575.45 485.225,575.45 Q484.15,575.45 483.6,576.3 Q483.05,577.15 483.05,578.8 Q483.05,580.4625 483.6,581.3125 Q484.15,582.15 485.225,582.15 Q485.725,582.15 486.2,581.9375 Q486.675,581.725 487.175,581.2625 L487.175,583.5 Z " fill="#000000"/><text fill="#000000" font-family="sans-serif" font-size="9.6" lengthAdjust="spacing" textLength="38.4" x="496.4" y="582.1234">String_t</text><!--MD5=[605ddada9486cd68ea3cb33d81299a4c]
class WindowProperty_t--><rect codeLine="10" fill="#FEFECE" filter="url(#fhbatxlx83l35)" height="79.375" id="WindowProperty_t" style="stroke:#A80036;stroke-width:1.2000000000000002;" width="113.6" x="24.4" y="539.2"/><ellipse cx="36.4" cy="552" fill="#ADD1B2" rx="8.8" ry="8.8" style="stroke:#A80036;stroke-width:0.8000000000000002;"/><path d="M38.375,556.7 Q37.9125,556.95 37.4,557.075 Q36.8875,557.2 36.325,557.2 Q34.325,557.2 33.2625,555.8625 Q32.2125,554.525 32.2125,552 Q32.2125,549.475 33.2625,548.1375 Q34.325,546.8 36.325,546.8 Q36.8875,546.8 37.4,546.925 Q37.925,547.05 38.375,547.3 L38.375,549.5375 Q37.875,549.0875 37.4,548.875 Q36.925,548.65 36.425,548.65 Q35.35,548.65 34.8,549.5 Q34.25,550.35 34.25,552 Q34.25,553.6625 34.8,554.5125 Q35.35,555.35 36.425,555.35 Q36.925,555.35 37.4,555.1375 Q37.875,554.925 38.375,554.4625 L38.375,556.7 Z " fill="#000000"/><text fill="#000000" font-family="sans-serif" font-size="9.6" lengthAdjust="spacing" textLength="88" x="47.6" y="555.3234">WindowProperty_t</text><line style="stroke:#A80036;stroke-width:1.2000000000000002;" x1="25.2" x2="137.2" y1="564.8" y2="564.8"/><ellipse cx="33.2" cy="573.6" rx="2.4" ry="2.4" style="stroke:#038048;stroke-width:0.8000000000000002;fill:none;"/><text fill="#000000" font-family="sans-serif" font-size="8.8" lengthAdjust="spacing" textLength="42.4" x="40.4" y="576.1684">rows : int</text><ellipse cx="33.2" cy="583.8438" rx="2.4" ry="2.4" style="stroke:#038048;stroke-width:0.8000000000000002;fill:none;"/><text fill="#000000" font-family="sans-serif" font-size="8.8" lengthAdjust="spacing" textLength="38.4" x="40.4" y="586.4121">cols : int</text><ellipse cx="33.2" cy="594.0875" rx="2.4" ry="2.4" style="stroke:#038048;stroke-width:0.8000000000000002;fill:none;"/><text fill="#000000" font-family="sans-serif" font-size="8.8" lengthAdjust="spacing" textLength="47.2" x="40.4" y="596.6559">pos_y : int</text><ellipse cx="33.2" cy="604.3313" rx="2.4" ry="2.4" style="stroke:#038048;stroke-width:0.8000000000000002;fill:none;"/><text fill="#000000" font-family="sans-serif" font-size="8.8" lengthAdjust="spacing" textLength="47.2" x="40.4" y="606.8996">pos_x : int</text><line style="stroke:#A80036;stroke-width:1.2000000000000002;" x1="25.2" x2="137.2" y1="612.175" y2="612.175"/><!--MD5=[4581ea3cf2c3da73c7a96b976f66a1d8]
class SlideMenu_t--><rect codeLine="17" fill="#FEFECE" filter="url(#fhbatxlx83l35)" height="188.2125" id="SlideMenu_t" style="stroke:#A80036;stroke-width:1.2000000000000002;" width="196.8" x="114.8" y="303.2"/><ellipse cx="180.6" cy="316" fill="#ADD1B2" rx="8.8" ry="8.8" style="stroke:#A80036;stroke-width:0.8000000000000002;"/><path d="M182.575,320.7 Q182.1125,320.95 181.6,321.075 Q181.0875,321.2 180.525,321.2 Q178.525,321.2 177.4625,319.8625 Q176.4125,318.525 176.4125,316 Q176.4125,313.475 177.4625,312.1375 Q178.525,310.8 180.525,310.8 Q181.0875,310.8 181.6,310.925 Q182.125,311.05 182.575,311.3 L182.575,313.5375 Q182.075,313.0875 181.6,312.875 Q181.125,312.65 180.625,312.65 Q179.55,312.65 179,313.5 Q178.45,314.35 178.45,316 Q178.45,317.6625 179,318.5125 Q179.55,319.35 180.625,319.35 Q181.125,319.35 181.6,319.1375 Q182.075,318.925 182.575,318.4625 L182.575,320.7 Z " fill="#000000"/><text fill="#000000" font-family="sans-serif" font-size="9.6" lengthAdjust="spacing" textLength="58.4" x="197" y="319.3234">SlideMenu_t</text><line style="stroke:#A80036;stroke-width:1.2000000000000002;" x1="115.6" x2="310.8" y1="328.8" y2="328.8"/><ellipse cx="123.6" cy="337.6" rx="2.4" ry="2.4" style="stroke:#038048;stroke-width:0.8000000000000002;fill:none;"/><text fill="#000000" font-family="sans-serif" font-size="8.8" lengthAdjust="spacing" textLength="60.8" x="130.8" y="340.1684">redraw : bool</text><ellipse cx="123.6" cy="347.8438" rx="2.4" ry="2.4" style="stroke:#038048;stroke-width:0.8000000000000002;fill:none;"/><text fill="#000000" font-family="sans-serif" font-size="8.8" lengthAdjust="spacing" textLength="65.6" x="130.8" y="350.4121">in_focus : bool</text><ellipse cx="123.6" cy="358.0875" rx="2.4" ry="2.4" style="stroke:#038048;stroke-width:0.8000000000000002;fill:none;"/><text fill="#000000" font-family="sans-serif" font-size="8.8" lengthAdjust="spacing" textLength="110.4" x="130.8" y="360.6559">root : SlideMenu_Menu_t</text><ellipse cx="123.6" cy="368.3313" rx="2.4" ry="2.4" style="stroke:#038048;stroke-width:0.8000000000000002;fill:none;"/><text fill="#000000" font-family="sans-serif" font-size="8.8" lengthAdjust="spacing" textLength="176" x="130.8" y="370.8996">canvas_property : WindowProperty_t *</text><ellipse cx="123.6" cy="378.575" rx="2.4" ry="2.4" style="stroke:#038048;stroke-width:0.8000000000000002;fill:none;"/><text fill="#000000" font-family="sans-serif" font-size="8.8" lengthAdjust="spacing" textLength="108" x="130.8" y="381.1434">canvas_panel : PANEL *</text><ellipse cx="123.6" cy="388.8188" rx="2.4" ry="2.4" style="stroke:#038048;stroke-width:0.8000000000000002;fill:none;"/><text fill="#000000" font-family="sans-serif" font-size="8.8" lengthAdjust="spacing" textLength="109.6" x="130.8" y="391.3871">canvas_win : WINDOW *</text><ellipse cx="123.6" cy="399.0625" rx="2.4" ry="2.4" style="stroke:#038048;stroke-width:0.8000000000000002;fill:none;"/><text fill="#000000" font-family="sans-serif" font-size="8.8" lengthAdjust="spacing" textLength="104" x="130.8" y="401.6309">update_scrollbar : bool</text><ellipse cx="123.6" cy="409.3063" rx="2.4" ry="2.4" style="stroke:#038048;stroke-width:0.8000000000000002;fill:none;"/><text fill="#000000" font-family="sans-serif" font-size="8.8" lengthAdjust="spacing" textLength="97.6" x="130.8" y="411.8746">scrollbar : ScrollBar_t</text><line style="stroke:#A80036;stroke-width:0.8000000000000002;" x1="115.6" x2="310.8" y1="417.15" y2="417.15"/><text fill="#000000" font-family="sans-serif" font-size="8.8" font-weight="bold" lengthAdjust="spacing" textLength="66.4" x="119.6" y="428.5184">Row property</text><line style="stroke:#A80036;stroke-width:0.8000000000000002;" x1="115.6" x2="310.8" y1="433.7938" y2="433.7938"/><ellipse cx="123.6" cy="442.5938" rx="2.4" ry="2.4" style="stroke:#038048;stroke-width:0.8000000000000002;fill:none;"/><text fill="#000000" font-family="sans-serif" font-size="8.8" lengthAdjust="spacing" textLength="168.8" x="130.8" y="445.1621">row.curr_menu : SlideMenu_Menu_t *</text><ellipse cx="123.6" cy="452.8375" rx="2.4" ry="2.4" style="stroke:#038048;stroke-width:0.8000000000000002;fill:none;"/><text fill="#000000" font-family="sans-serif" font-size="8.8" lengthAdjust="spacing" textLength="80.8" x="130.8" y="455.4059">row.depth : size_t</text><ellipse cx="123.6" cy="463.0813" rx="2.4" ry="2.4" style="stroke:#038048;stroke-width:0.8000000000000002;fill:none;"/><text fill="#000000" font-family="sans-serif" font-size="8.8" lengthAdjust="spacing" textLength="116" x="130.8" y="465.6496">row.first_on_page : size_t</text><ellipse cx="123.6" cy="473.325" rx="2.4" ry="2.4" style="stroke:#038048;stroke-width:0.8000000000000002;fill:none;"/><text fill="#000000" font-family="sans-serif" font-size="8.8" lengthAdjust="spacing" textLength="114.4" x="130.8" y="475.8934">row.last_on_page : size_t</text><ellipse cx="123.6" cy="483.5688" rx="2.4" ry="2.4" style="stroke:#038048;stroke-width:0.8000000000000002;fill:none;"/><text fill="#000000" font-family="sans-serif" font-size="8.8" lengthAdjust="spacing" textLength="92.8" x="130.8" y="486.1371">row.selected : size_t</text><!--MD5=[2973b0c6af47a0ceb245fcb90a295739]
class SlideMenu_ItemType_e--><rect codeLine="36" fill="#FEFECE" filter="url(#fhbatxlx83l35)" height="69.1313" id="SlideMenu_ItemType_e" style="stroke:#A80036;stroke-width:1.2000000000000002;" width="136" x="576.4" y="544.4"/><ellipse cx="588.4" cy="557.2" fill="#EB937F" rx="8.8" ry="8.8" style="stroke:#A80036;stroke-width:0.8000000000000002;"/><path d="M591.6875,562.4 L585.5125,562.4 L585.5125,552 L591.6875,552 L591.6875,553.825 L587.475,553.825 L587.475,556 L591.2875,556 L591.2875,557.825 L587.475,557.825 L587.475,560.5875 L591.6875,560.5875 L591.6875,562.4 Z " fill="#000000"/><text fill="#000000" font-family="sans-serif" font-size="9.6" lengthAdjust="spacing" textLength="110.4" x="599.6" y="560.5234">SlideMenu_ItemType_e</text><line style="stroke:#A80036;stroke-width:1.2000000000000002;" x1="577.2" x2="711.6" y1="570" y2="570"/><text fill="#000000" font-family="sans-serif" font-size="8.8" lengthAdjust="spacing" textLength="91.2" x="581.2" y="581.3684">SLIDEMENU_PARENT</text><text fill="#000000" font-family="sans-serif" font-size="8.8" lengthAdjust="spacing" textLength="80.8" x="581.2" y="591.6121">SLIDEMENU_MENU</text><text fill="#000000" font-family="sans-serif" font-size="8.8" lengthAdjust="spacing" textLength="76.8" x="581.2" y="601.8559">SLIDEMENU_LEAF</text><line style="stroke:#A80036;stroke-width:1.2000000000000002;" x1="577.2" x2="711.6" y1="607.1313" y2="607.1313"/><!--MD5=[fd9a8579ffc29389814076f5703c2533]
class SlideMenu_Item_t--><rect codeLine="42" fill="#FEFECE" filter="url(#fhbatxlx83l35)" height="120.35" id="SlideMenu_Item_t" style="stroke:#A80036;stroke-width:1.2000000000000002;" width="217.6" x="396.4" y="337.2"/><ellipse cx="459" cy="350" fill="#ADD1B2" rx="8.8" ry="8.8" style="stroke:#A80036;stroke-width:0.8000000000000002;"/><path d="M460.975,354.7 Q460.5125,354.95 460,355.075 Q459.4875,355.2 458.925,355.2 Q456.925,355.2 455.8625,353.8625 Q454.8125,352.525 454.8125,350 Q454.8125,347.475 455.8625,346.1375 Q456.925,344.8 458.925,344.8 Q459.4875,344.8 460,344.925 Q460.525,345.05 460.975,345.3 L460.975,347.5375 Q460.475,347.0875 460,346.875 Q459.525,346.65 459.025,346.65 Q457.95,346.65 457.4,347.5 Q456.85,348.35 456.85,350 Q456.85,351.6625 457.4,352.5125 Q457.95,353.35 459.025,353.35 Q459.525,353.35 460,353.1375 Q460.475,352.925 460.975,352.4625 L460.975,354.7 Z " fill="#000000"/><text fill="#000000" font-family="sans-serif" font-size="9.6" lengthAdjust="spacing" textLength="85.6" x="475.4" y="353.3234">SlideMenu_Item_t</text><line style="stroke:#A80036;stroke-width:1.2000000000000002;" x1="397.2" x2="613.2" y1="362.8" y2="362.8"/><ellipse cx="405.2" cy="371.6" rx="2.4" ry="2.4" style="stroke:#038048;stroke-width:0.8000000000000002;fill:none;"/><text fill="#000000" font-family="sans-serif" font-size="8.8" lengthAdjust="spacing" textLength="60" x="412.4" y="374.1684">index : size_t</text><ellipse cx="405.2" cy="381.8438" rx="2.4" ry="2.4" style="stroke:#038048;stroke-width:0.8000000000000002;fill:none;"/><text fill="#000000" font-family="sans-serif" font-size="8.8" lengthAdjust="spacing" textLength="61.6" x="412.4" y="384.4121">text : String_t</text><ellipse cx="405.2" cy="392.0875" rx="2.4" ry="2.4" style="stroke:#038048;stroke-width:0.8000000000000002;fill:none;"/><text fill="#000000" font-family="sans-serif" font-size="8.8" lengthAdjust="spacing" textLength="146.4" x="412.4" y="394.6559">sub_menu : SlideMenu_Menu_t *</text><ellipse cx="405.2" cy="402.3313" rx="2.4" ry="2.4" style="stroke:#038048;stroke-width:0.8000000000000002;fill:none;"/><text fill="#000000" font-family="sans-serif" font-size="8.8" lengthAdjust="spacing" textLength="132.8" x="412.4" y="404.8996">type : SlideMenu_ItemType_e</text><ellipse cx="405.2" cy="412.575" rx="2.4" ry="2.4" style="stroke:#038048;stroke-width:0.8000000000000002;fill:none;"/><text fill="#000000" font-family="sans-serif" font-size="8.8" lengthAdjust="spacing" textLength="160" x="412.4" y="415.1434">parent_menu : SlideMenu_Menu_t *</text><ellipse cx="405.2" cy="422.8188" rx="2.4" ry="2.4" style="stroke:#038048;stroke-width:0.8000000000000002;fill:none;"/><text fill="#000000" font-family="sans-serif" font-size="8.8" lengthAdjust="spacing" textLength="56.8" x="412.4" y="425.3871">data : void *</text><ellipse cx="405.2" cy="433.0625" rx="2.4" ry="2.4" style="stroke:#038048;stroke-width:0.8000000000000002;fill:none;"/><text fill="#000000" font-family="sans-serif" font-size="8.8" lengthAdjust="spacing" textLength="78.4" x="412.4" y="435.6309">ctrl_trigger : bool</text><line style="stroke:#A80036;stroke-width:1.2000000000000002;" x1="397.2" x2="613.2" y1="440.9063" y2="440.9063"/><ellipse cx="405.2" cy="449.7063" fill="#84BE84" rx="2.4" ry="2.4" style="stroke:#038048;stroke-width:0.8000000000000002;"/><text fill="#000000" font-family="sans-serif" font-size="8.8" lengthAdjust="spacing" textLength="196.8" x="412.4" y="452.2746">ctrl_fn : bool (*)( SlideMenu_Item_t * item );</text><!--MD5=[92e24ea279331eef2a0cd8782c7dbca0]
class SlideMenu_Menu_t--><rect codeLine="53" fill="#FEFECE" filter="url(#fhbatxlx83l35)" height="69.1313" id="SlideMenu_Menu_t" style="stroke:#A80036;stroke-width:1.2000000000000002;" width="139.2" x="284.4" y="544.4"/><ellipse cx="307.2" cy="557.2" fill="#ADD1B2" rx="8.8" ry="8.8" style="stroke:#A80036;stroke-width:0.8000000000000002;"/><path d="M309.175,561.9 Q308.7125,562.15 308.2,562.275 Q307.6875,562.4 307.125,562.4 Q305.125,562.4 304.0625,561.0625 Q303.0125,559.725 303.0125,557.2 Q303.0125,554.675 304.0625,553.3375 Q305.125,552 307.125,552 Q307.6875,552 308.2,552.125 Q308.725,552.25 309.175,552.5 L309.175,554.7375 Q308.675,554.2875 308.2,554.075 Q307.725,553.85 307.225,553.85 Q306.15,553.85 305.6,554.7 Q305.05,555.55 305.05,557.2 Q305.05,558.8625 305.6,559.7125 Q306.15,560.55 307.225,560.55 Q307.725,560.55 308.2,560.3375 Q308.675,560.125 309.175,559.6625 L309.175,561.9 Z " fill="#000000"/><text fill="#000000" font-family="sans-serif" font-size="9.6" lengthAdjust="spacing" textLength="89.6" x="320.8" y="560.5234">SlideMenu_Menu_t</text><line style="stroke:#A80036;stroke-width:1.2000000000000002;" x1="285.2" x2="422.8" y1="570" y2="570"/><text fill="#000000" font-family="sans-serif" font-size="8.8" lengthAdjust="spacing" textLength="72" x="289.2" y="581.3684">items : Vector_t</text><text fill="#000000" font-family="sans-serif" font-size="8.8" lengthAdjust="spacing" textLength="129.6" x="289.2" y="591.6121">parent : SlideMenu_Menu_t *</text><text fill="#000000" font-family="sans-serif" font-size="8.8" lengthAdjust="spacing" textLength="72" x="289.2" y="601.8559">parent_i : size_t</text><line style="stroke:#A80036;stroke-width:1.2000000000000002;" x1="285.2" x2="422.8" y1="607.1313" y2="607.1313"/><!--MD5=[73e68b97c42c1f8dad62df7096207def]
class SlideMenu--><rect codeLine="59" fill="#FEFECE" filter="url(#fhbatxlx83l35)" height="249.675" id="SlideMenu" style="stroke:#A80036;stroke-width:1.2000000000000002;" width="696.8" x="5.6" y="5.6"/><ellipse cx="325.8" cy="18.4" fill="#B4A7E5" rx="8.8" ry="8.8" style="stroke:#A80036;stroke-width:0.8000000000000002;"/><path d="M322.9375,15.025 L322.9375,13.2 L328.85,13.2 L328.85,15.025 L326.875,15.025 L326.875,21.7875 L328.85,21.7875 L328.85,23.6 L322.9375,23.6 L322.9375,21.7875 L324.9125,21.7875 L324.9125,15.025 L322.9375,15.025 Z " fill="#000000"/><text fill="#000000" font-family="sans-serif" font-size="9.6" font-style="italic" lengthAdjust="spacing" textLength="49.6" x="342.2" y="21.7234">SlideMenu</text><line style="stroke:#A80036;stroke-width:1.2000000000000002;" x1="6.4" x2="701.6" y1="31.2" y2="31.2"/><ellipse cx="14.4" cy="40" fill="#84BE84" rx="2.4" ry="2.4" style="stroke:#038048;stroke-width:0.8000000000000002;"/><text fill="#000000" font-family="sans-serif" font-size="8.8" lengthAdjust="spacing" textLength="286.4" x="21.6" y="42.5684">init( const WindowProperty_t * canvas_property ) : SlideMenu_t</text><ellipse cx="14.4" cy="50.2438" fill="#84BE84" rx="2.4" ry="2.4" style="stroke:#038048;stroke-width:0.8000000000000002;"/><text fill="#000000" font-family="sans-serif" font-size="8.8" lengthAdjust="spacing" textLength="531.2" x="21.6" y="52.8121">createMenu( SlideMenu_Menu_t ** menu_ptr, SlideMenu_Menu_t * parent, size_t parent_index ) : SlideMenu_Menu_t *</text><ellipse cx="14.4" cy="60.4875" fill="#84BE84" rx="2.4" ry="2.4" style="stroke:#038048;stroke-width:0.8000000000000002;"/><text fill="#000000" font-family="sans-serif" font-size="8.8" lengthAdjust="spacing" textLength="676" x="21.6" y="63.0559">createMenuItem( SlideMenu_Menu_t * menu, SlideMenu_ItemType_e type, const char * text, void * data, bool (* ctrl_fn)( SlideMenu_Item_t * ) ) : bool</text><ellipse cx="14.4" cy="70.7313" fill="#84BE84" rx="2.4" ry="2.4" style="stroke:#038048;stroke-width:0.8000000000000002;"/><text fill="#000000" font-family="sans-serif" font-size="8.8" lengthAdjust="spacing" textLength="180" x="21.6" y="73.2996">setRedraw( SlideMenu_t * menu ) : void</text><ellipse cx="14.4" cy="80.975" fill="#84BE84" rx="2.4" ry="2.4" style="stroke:#038048;stroke-width:0.8000000000000002;"/><text fill="#000000" font-family="sans-serif" font-size="8.8" lengthAdjust="spacing" textLength="224" x="21.6" y="83.5434">setFocus( SlideMenu_t * menu, bool focus ) : void</text><ellipse cx="14.4" cy="91.2188" fill="#84BE84" rx="2.4" ry="2.4" style="stroke:#038048;stroke-width:0.8000000000000002;"/><text fill="#000000" font-family="sans-serif" font-size="8.8" lengthAdjust="spacing" textLength="155.2" x="21.6" y="93.7871">reset( SlideMenu_t * menu ) : void</text><ellipse cx="14.4" cy="101.4625" fill="#84BE84" rx="2.4" ry="2.4" style="stroke:#038048;stroke-width:0.8000000000000002;"/><text fill="#000000" font-family="sans-serif" font-size="8.8" lengthAdjust="spacing" textLength="159.2" x="21.6" y="104.0309">resize( SlideMenu_t * menu ) : void</text><ellipse cx="14.4" cy="111.7063" fill="#84BE84" rx="2.4" ry="2.4" style="stroke:#038048;stroke-width:0.8000000000000002;"/><text fill="#000000" font-family="sans-serif" font-size="8.8" lengthAdjust="spacing" textLength="188.8" x="21.6" y="114.2746">bool (* show( SlideMenu_t * menu ) : bool</text><ellipse cx="14.4" cy="121.95" fill="#84BE84" rx="2.4" ry="2.4" style="stroke:#038048;stroke-width:0.8000000000000002;"/><text fill="#000000" font-family="sans-serif" font-size="8.8" lengthAdjust="spacing" textLength="151.2" x="21.6" y="124.5184">hide( SlideMenu_t * menu ) : void</text><ellipse cx="14.4" cy="132.1938" fill="#84BE84" rx="2.4" ry="2.4" style="stroke:#038048;stroke-width:0.8000000000000002;"/><text fill="#000000" font-family="sans-serif" font-size="8.8" lengthAdjust="spacing" textLength="150.4" x="21.6" y="134.7621">free( SlideMenu_t * menu ) : void</text><line style="stroke:#A80036;stroke-width:0.8000000000000002;" x1="6.4" x2="701.6" y1="140.0375" y2="140.0375"/><text fill="#000000" font-family="sans-serif" font-size="8.8" font-weight="bold" lengthAdjust="spacing" textLength="53.6" x="10.4" y="151.4059">Navigation</text><line style="stroke:#A80036;stroke-width:0.8000000000000002;" x1="6.4" x2="701.6" y1="156.6813" y2="156.6813"/><ellipse cx="14.4" cy="165.4813" fill="#84BE84" rx="2.4" ry="2.4" style="stroke:#038048;stroke-width:0.8000000000000002;"/><text fill="#000000" font-family="sans-serif" font-size="8.8" lengthAdjust="spacing" textLength="189.6" x="21.6" y="168.0496">navKeyEnter( SlideMenu_t * menu ) : void</text><ellipse cx="14.4" cy="175.725" fill="#84BE84" rx="2.4" ry="2.4" style="stroke:#038048;stroke-width:0.8000000000000002;"/><text fill="#000000" font-family="sans-serif" font-size="8.8" lengthAdjust="spacing" textLength="177.6" x="21.6" y="178.2934">navKeyUp( SlideMenu_t * menu ) : void</text><ellipse cx="14.4" cy="185.9688" fill="#84BE84" rx="2.4" ry="2.4" style="stroke:#038048;stroke-width:0.8000000000000002;"/><text fill="#000000" font-family="sans-serif" font-size="8.8" lengthAdjust="spacing" textLength="190.4" x="21.6" y="188.5371">navKeyDown( SlideMenu_t * menu ) : void</text><ellipse cx="14.4" cy="196.2125" fill="#84BE84" rx="2.4" ry="2.4" style="stroke:#038048;stroke-width:0.8000000000000002;"/><text fill="#000000" font-family="sans-serif" font-size="8.8" lengthAdjust="spacing" textLength="188.8" x="21.6" y="198.7809">navKeyRight( SlideMenu_t * menu ) : void</text><ellipse cx="14.4" cy="206.4563" fill="#84BE84" rx="2.4" ry="2.4" style="stroke:#038048;stroke-width:0.8000000000000002;"/><text fill="#000000" font-family="sans-serif" font-size="8.8" lengthAdjust="spacing" textLength="182.4" x="21.6" y="209.0246">navKeyLeft( SlideMenu_t * menu ) : void</text><ellipse cx="14.4" cy="216.7" fill="#84BE84" rx="2.4" ry="2.4" style="stroke:#038048;stroke-width:0.8000000000000002;"/><text fill="#000000" font-family="sans-serif" font-size="8.8" lengthAdjust="spacing" textLength="200" x="21.6" y="219.2684">navKeyPageUp( SlideMenu_t * menu ) : void</text><ellipse cx="14.4" cy="226.9438" fill="#84BE84" rx="2.4" ry="2.4" style="stroke:#038048;stroke-width:0.8000000000000002;"/><text fill="#000000" font-family="sans-serif" font-size="8.8" lengthAdjust="spacing" textLength="212.8" x="21.6" y="229.5121">navKeyPageDown( SlideMenu_t * menu ) : void</text><ellipse cx="14.4" cy="237.1875" fill="#84BE84" rx="2.4" ry="2.4" style="stroke:#038048;stroke-width:0.8000000000000002;"/><text fill="#000000" font-family="sans-serif" font-size="8.8" lengthAdjust="spacing" textLength="184.8" x="21.6" y="239.7559">navKeyFirst( SlideMenu_t * menu ) : void</text><ellipse cx="14.4" cy="247.4313" fill="#84BE84" rx="2.4" ry="2.4" style="stroke:#038048;stroke-width:0.8000000000000002;"/><text fill="#000000" font-family="sans-serif" font-size="8.8" lengthAdjust="spacing" textLength="184" x="21.6" y="249.9996">navKeyLast( SlideMenu_t * menu ) : void</text><!--MD5=[5fe18b2ad24c95c528630170d465cf5f]
link SlideMenu to SlideMenu_t--><path codeLine="84" d="M288.136,255.256 C280.28,270.048 272.352,284.976 264.744,299.312 " fill="none" id="SlideMenu-to-SlideMenu_t" style="stroke:#A80036;stroke-width:0.8000000000000002;"/><polygon fill="#A80036" points="262.816,302.944,269.018,298.0844,264.6912,299.4108,263.3648,295.0841,262.816,302.944" style="stroke:#A80036;stroke-width:0.8000000000000002;"/><!--MD5=[3b63c17fa95cb45e045c29e5e3272b0d]
link SlideMenu to WindowProperty_t--><path codeLine="85" d="M136.88,255.424 C122.832,269.992 110.352,285.912 100.4,303.2 C58.576,375.856 65.032,477.856 73.248,534.944 " fill="none" id="SlideMenu-to-WindowProperty_t" style="stroke:#A80036;stroke-width:0.8000000000000002;"/><polygon fill="#A80036" points="73.848,538.976,75.9639,531.3863,73.2647,535.0188,69.6323,532.3196,73.848,538.976" style="stroke:#A80036;stroke-width:0.8000000000000002;"/><!--MD5=[4ecf0ba2ad2593c94870e38cffa787cb]
link SlideMenu to SlideMenu_Menu_t--><path codeLine="86" d="M354,255.36 C354,351.384 354,478.104 354,540.288 " fill="none" id="SlideMenu-to-SlideMenu_Menu_t" style="stroke:#A80036;stroke-width:0.8000000000000002;"/><polygon fill="#A80036" points="354,544.288,357.2,537.088,354,540.288,350.8,537.088,354,544.288" style="stroke:#A80036;stroke-width:0.8000000000000002;"/><!--MD5=[6255f700047fb966d0602bd59c4d374f]
link SlideMenu to SlideMenu_ItemType_e--><path codeLine="87" d="M590.8,255.36 C605.248,269.864 618.088,285.784 628.4,303.2 C672.504,377.696 662.2,484.36 652.408,540.368 " fill="none" id="SlideMenu-to-SlideMenu_ItemType_e" style="stroke:#A80036;stroke-width:0.8000000000000002;"/><polygon fill="#A80036" points="651.704,544.312,656.1271,537.7915,652.4115,540.3751,649.828,536.6595,651.704,544.312" style="stroke:#A80036;stroke-width:0.8000000000000002;"/><!--MD5=[108f0b1b5a150aee740537b34fb4eb16]
link SlideMenu to SlideMenu_Item_t--><path codeLine="88" d="M424.728,255.256 C440.12,282.256 455.784,309.736 469.152,333.176 " fill="none" id="SlideMenu-to-SlideMenu_Item_t" style="stroke:#A80036;stroke-width:0.8000000000000002;"/><polygon fill="#A80036" points="471.28,336.904,470.4806,329.0656,469.293,333.4324,464.9261,332.2448,471.28,336.904" style="stroke:#A80036;stroke-width:0.8000000000000002;"/><!--MD5=[f0acca33ec8ab6daeb4f2f1207746fde]
link SlideMenu_t to WindowProperty_t--><path codeLine="90" d="M144.688,491.424 C133.288,506.976 121.984,522.384 112.152,535.8 " fill="none" id="SlideMenu_t-to-WindowProperty_t" style="stroke:#A80036;stroke-width:0.8000000000000002;"/><polygon fill="#A80036" points="109.68,539.16,116.5201,535.2494,112.0469,535.9355,111.3609,531.4623,109.68,539.16" style="stroke:#A80036;stroke-width:0.8000000000000002;"/><!--MD5=[36cc95ae973c09a2e7a935c8dff760dc]
link SlideMenu_t to SlideMenu_Menu_t--><path codeLine="91" d="M286.28,491.424 C300.04,509.016 313.656,526.432 325.04,540.976 " fill="none" id="SlideMenu_t-to-SlideMenu_Menu_t" style="stroke:#A80036;stroke-width:0.8000000000000002;"/><polygon fill="#A80036" points="327.584,544.224,325.6703,536.5808,325.1203,541.0728,320.6284,540.5227,327.584,544.224" style="stroke:#A80036;stroke-width:0.8000000000000002;"/><!--MD5=[44376467a15d559a0e287c1830ac9e52]
link SlideMenu_t to ScrollBar_t--><path codeLine="92" d="M213.2,491.424 C213.2,518.616 213.2,545.384 213.2,561.8 " fill="none" id="SlideMenu_t-to-ScrollBar_t" style="stroke:#A80036;stroke-width:0.8000000000000002;"/><polygon fill="#A80036" points="213.2,565.944,216.4,558.744,213.2,561.944,210,558.744,213.2,565.944" style="stroke:#A80036;stroke-width:0.8000000000000002;"/><!--MD5=[de7cb7e963f4863f169c700b5b66adf8]
link SlideMenu_Menu_t to Vector_t--><path codeLine="94" d="M354,613.328 C354,629.8 354,648.864 354,662.088 " fill="none" id="SlideMenu_Menu_t-to-Vector_t" style="stroke:#A80036;stroke-width:0.8000000000000002;"/><polygon fill="#A80036" points="354,666.328,357.2,659.128,354,662.328,350.8,659.128,354,666.328" style="stroke:#A80036;stroke-width:0.8000000000000002;"/><!--MD5=[568a13579eb3196be6b9df1f0cfd3e19]
link SlideMenu_Item_t to String_t--><path codeLine="96" d="M505.2,457.44 C505.2,494.072 505.2,538.368 505.2,561.736 " fill="none" id="SlideMenu_Item_t-to-String_t" style="stroke:#A80036;stroke-width:0.8000000000000002;"/><polygon fill="#A80036" points="505.2,565.848,508.4,558.648,505.2,561.848,502,558.648,505.2,565.848" style="stroke:#A80036;stroke-width:0.8000000000000002;"/><!--MD5=[2ce53f09728b0a206671402731ed9c87]
link SlideMenu_Item_t to SlideMenu_Menu_t--><path codeLine="97" d="M455.272,457.44 C432.056,485.072 405.176,517.072 384.944,541.16 " fill="none" id="SlideMenu_Item_t-to-SlideMenu_Menu_t" style="stroke:#A80036;stroke-width:0.8000000000000002;"/><polygon fill="#A80036" points="382.264,544.352,389.3443,540.8953,384.836,541.2885,384.4427,536.7801,382.264,544.352" style="stroke:#A80036;stroke-width:0.8000000000000002;"/><!--MD5=[ad6720af05b9f8328418fc651fdbae39]
link SlideMenu_Item_t to SlideMenu_ItemType_e--><path codeLine="98" d="M551.168,457.44 C572.536,485.072 597.28,517.072 615.912,541.16 " fill="none" id="SlideMenu_Item_t-to-SlideMenu_ItemType_e" style="stroke:#A80036;stroke-width:0.8000000000000002;"/><polygon fill="#A80036" points="618.376,544.352,616.5065,536.6979,615.9305,541.1866,611.4419,540.6107,618.376,544.352" style="stroke:#A80036;stroke-width:0.8000000000000002;"/><!--MD5=[802de13228beac868f16a4e3d36763c4]
@startuml
'https://plantuml.com/class-diagram

class ScrollBar_t
class Vector_t
class String_t
hide ScrollBar_t members
hide Vector_t members
hide String_t members

class WindowProperty_t {
    + rows : int
    + cols : int
    + pos_y : int
    + pos_x : int
}

class SlideMenu_t {
    + redraw : bool
    + in_focus : bool
    + root : SlideMenu_Menu_t
    + canvas_property : WindowProperty_t *
    + canvas_panel : PANEL *
    + canvas_win : WINDOW *
    + update_scrollbar : bool
    + scrollbar : ScrollBar_t
    - - - -
    <b>Row property</b>
    - - - -
    + row.curr_menu : SlideMenu_Menu_t *
    + row.depth : size_t
    + row.first_on_page : size_t
    + row.last_on_page : size_t
    + row.selected : size_t
}

enum SlideMenu_ItemType_e {
    SLIDEMENU_PARENT
    SLIDEMENU_MENU
    SLIDEMENU_LEAF
}

class SlideMenu_Item_t {
    + index : size_t
    + text : String_t
    + sub_menu : SlideMenu_Menu_t *
    + type : SlideMenu_ItemType_e
    + parent_menu : SlideMenu_Menu_t *
    + data : void *
    + ctrl_trigger : bool
    + ctrl_fn : bool (*)( SlideMenu_Item_t * item );
}

class SlideMenu_Menu_t {
    items : Vector_t
    parent : SlideMenu_Menu_t *
    parent_i : size_t
}

interface SlideMenu {
    + init( const WindowProperty_t * canvas_property ) : SlideMenu_t
    + createMenu( SlideMenu_Menu_t ** menu_ptr, SlideMenu_Menu_t * parent, size_t parent_index ) : SlideMenu_Menu_t *
    + createMenuItem( SlideMenu_Menu_t * menu, SlideMenu_ItemType_e type, const char * text, void * data, bool (* ctrl_fn)( SlideMenu_Item_t * ) ) : bool
    + setRedraw( SlideMenu_t * menu ) : void
    + setFocus( SlideMenu_t * menu, bool focus ) : void
    + reset( SlideMenu_t * menu ) : void
    + resize( SlideMenu_t * menu ) : void
    + bool (* show( SlideMenu_t * menu ) : bool
    + hide( SlideMenu_t * menu ) : void
    + free( SlideMenu_t * menu ) : void
    - - - -
    <b>Navigation</b>
    - - - -
    + navKeyEnter( SlideMenu_t * menu ) : void
    + navKeyUp( SlideMenu_t * menu ) : void
    + navKeyDown( SlideMenu_t * menu ) : void
    + navKeyRight( SlideMenu_t * menu ) : void
    + navKeyLeft( SlideMenu_t * menu ) : void
    + navKeyPageUp( SlideMenu_t * menu ) : void
    + navKeyPageDown( SlideMenu_t * menu ) : void
    + navKeyFirst( SlideMenu_t * menu ) : void
    + navKeyLast( SlideMenu_t * menu ) : void
}

SlideMenu - -> SlideMenu_t
SlideMenu - -> WindowProperty_t
SlideMenu - -> SlideMenu_Menu_t
SlideMenu - -> SlideMenu_ItemType_e
SlideMenu - -> SlideMenu_Item_t

SlideMenu_t - -> WindowProperty_t
SlideMenu_t - -> SlideMenu_Menu_t
SlideMenu_t - -> ScrollBar_t

SlideMenu_Menu_t - -> Vector_t

SlideMenu_Item_t - -> String_t
SlideMenu_Item_t - -> SlideMenu_Menu_t
SlideMenu_Item_t - -> SlideMenu_ItemType_e

@enduml

@startuml

class ScrollBar_t
class Vector_t
class String_t
hide ScrollBar_t members
hide Vector_t members
hide String_t members

class WindowProperty_t {
    + rows : int
    + cols : int
    + pos_y : int
    + pos_x : int
}

class SlideMenu_t {
    + redraw : bool
    + in_focus : bool
    + root : SlideMenu_Menu_t
    + canvas_property : WindowProperty_t *
    + canvas_panel : PANEL *
    + canvas_win : WINDOW *
    + update_scrollbar : bool
    + scrollbar : ScrollBar_t
    - - - -
    <b>Row property</b>
    - - - -
    + row.curr_menu : SlideMenu_Menu_t *
    + row.depth : size_t
    + row.first_on_page : size_t
    + row.last_on_page : size_t
    + row.selected : size_t
}

enum SlideMenu_ItemType_e {
    SLIDEMENU_PARENT
    SLIDEMENU_MENU
    SLIDEMENU_LEAF
}

class SlideMenu_Item_t {
    + index : size_t
    + text : String_t
    + sub_menu : SlideMenu_Menu_t *
    + type : SlideMenu_ItemType_e
    + parent_menu : SlideMenu_Menu_t *
    + data : void *
    + ctrl_trigger : bool
    + ctrl_fn : bool (*)( SlideMenu_Item_t * item );
}

class SlideMenu_Menu_t {
    items : Vector_t
    parent : SlideMenu_Menu_t *
    parent_i : size_t
}

interface SlideMenu {
    + init( const WindowProperty_t * canvas_property ) : SlideMenu_t
    + createMenu( SlideMenu_Menu_t ** menu_ptr, SlideMenu_Menu_t * parent, size_t parent_index ) : SlideMenu_Menu_t *
    + createMenuItem( SlideMenu_Menu_t * menu, SlideMenu_ItemType_e type, const char * text, void * data, bool (* ctrl_fn)( SlideMenu_Item_t * ) ) : bool
    + setRedraw( SlideMenu_t * menu ) : void
    + setFocus( SlideMenu_t * menu, bool focus ) : void
    + reset( SlideMenu_t * menu ) : void
    + resize( SlideMenu_t * menu ) : void
    + bool (* show( SlideMenu_t * menu ) : bool
    + hide( SlideMenu_t * menu ) : void
    + free( SlideMenu_t * menu ) : void
    - - - -
    <b>Navigation</b>
    - - - -
    + navKeyEnter( SlideMenu_t * menu ) : void
    + navKeyUp( SlideMenu_t * menu ) : void
    + navKeyDown( SlideMenu_t * menu ) : void
    + navKeyRight( SlideMenu_t * menu ) : void
    + navKeyLeft( SlideMenu_t * menu ) : void
    + navKeyPageUp( SlideMenu_t * menu ) : void
    + navKeyPageDown( SlideMenu_t * menu ) : void
    + navKeyFirst( SlideMenu_t * menu ) : void
    + navKeyLast( SlideMenu_t * menu ) : void
}

SlideMenu - -> SlideMenu_t
SlideMenu - -> WindowProperty_t
SlideMenu - -> SlideMenu_Menu_t
SlideMenu - -> SlideMenu_ItemType_e
SlideMenu - -> SlideMenu_Item_t

SlideMenu_t - -> WindowProperty_t
SlideMenu_t - -> SlideMenu_Menu_t
SlideMenu_t - -> ScrollBar_t

SlideMenu_Menu_t - -> Vector_t

SlideMenu_Item_t - -> String_t
SlideMenu_Item_t - -> SlideMenu_Menu_t
SlideMenu_Item_t - -> SlideMenu_ItemType_e

@enduml

PlantUML version 1.2021.7(Sun May 23 14:40:07 CEST 2021)
(GPL source distribution)
Java Runtime: OpenJDK Runtime Environment
JVM: OpenJDK 64-Bit Server VM
Default Encoding: UTF-8
Language: en
Country: GB
--></g></svg>