<?xml version="1.0" encoding="UTF-8" standalone="no"?><svg xmlns="http://www.w3.org/2000/svg" xmlns:xlink="http://www.w3.org/1999/xlink" contentScriptType="application/ecmascript" contentStyleType="text/css" height="719px" preserveAspectRatio="none" style="width:732px;height:719px;background:#FFFFFF;" version="1.1" viewBox="0 0 732 719" width="732px" zoomAndPan="magnify"><defs><filter height="300%" id="fz5il2ih3hl9g" width="300%" x="-1" y="-1"><feGaussianBlur result="blurOut" stdDeviation="2.0"/><feColorMatrix in="blurOut" result="blurOut2" type="matrix" values="0 0 0 0 0 0 0 0 0 0 0 0 0 0 0 0 0 0 .4 0"/><feOffset dx="4.0" dy="4.0" in="blurOut2" result="blurOut3"/><feBlend in="SourceGraphic" in2="blurOut3" mode="normal"/></filter></defs><g><!--MD5=[9681dc6e01e10c6b4fe06895ae94f592]
cluster UI--><polygon fill="#D3D3D3" filter="url(#fz5il2ih3hl9g)" points="349.5,6,371.5,6,378.5,28.2969,715.5,28.2969,715.5,712.5,349.5,712.5,349.5,6" style="stroke:#000000;stroke-width:1.5;"/><line style="stroke:#000000;stroke-width:1.5;" x1="349.5" x2="378.5" y1="28.2969" y2="28.2969"/><text fill="#000000" font-family="sans-serif" font-size="14" font-weight="bold" lengthAdjust="spacing" textLength="16" x="353.5" y="20.9951">UI</text><!--MD5=[d56ea5b386379e67468db9a003947636]
cluster definitions--><polygon fill="#FFFFFF" filter="url(#fz5il2ih3hl9g)" points="373.5,49,465.5,49,472.5,71.2969,691.5,71.2969,691.5,688.5,373.5,688.5,373.5,49" style="stroke:#000000;stroke-width:1.5;"/><line style="stroke:#000000;stroke-width:1.5;" x1="373.5" x2="472.5" y1="71.2969" y2="71.2969"/><text fill="#000000" font-family="sans-serif" font-size="14" font-weight="bold" lengthAdjust="spacing" textLength="86" x="377.5" y="63.9951">definitions</text><!--MD5=[a2cfa066705bc117d2d11d5215a6a3c6]
class ThemeItem_e--><rect codeLine="46" fill="#FEFECE" filter="url(#fz5il2ih3hl9g)" height="419.3359" id="ThemeItem_e" style="stroke:#A80036;stroke-width:1.5;" width="285" x="390" y="253.5"/><ellipse cx="487.25" cy="269.5" fill="#EB937F" rx="11" ry="11" style="stroke:#A80036;stroke-width:1.0;"/><path d="M491.3594,276 L483.6406,276 L483.6406,263 L491.3594,263 L491.3594,265.2813 L486.0938,265.2813 L486.0938,268 L490.8594,268 L490.8594,270.2813 L486.0938,270.2813 L486.0938,273.7344 L491.3594,273.7344 L491.3594,276 Z " fill="#000000"/><text fill="#000000" font-family="sans-serif" font-size="12" lengthAdjust="spacing" textLength="82" x="507.75" y="273.6543">ThemeItem_e</text><line style="stroke:#A80036;stroke-width:1.5;" x1="391" x2="674" y1="285.5" y2="285.5"/><text fill="#000000" font-family="sans-serif" font-size="11" lengthAdjust="spacing" textLength="62" x="396" y="299.7104">ITEM_TITLE</text><text fill="#000000" font-family="sans-serif" font-size="11" lengthAdjust="spacing" textLength="113" x="396" y="312.5151">ITEM_STATUS_BAR1</text><text fill="#000000" font-family="sans-serif" font-size="11" lengthAdjust="spacing" textLength="113" x="396" y="325.3198">ITEM_STATUS_BAR2</text><text fill="#000000" font-family="sans-serif" font-size="11" lengthAdjust="spacing" textLength="113" x="396" y="338.1245">ITEM_STATUS_BAR3</text><text fill="#000000" font-family="sans-serif" font-size="11" lengthAdjust="spacing" textLength="87" x="396" y="350.9292">ITEM_MSG_LINE</text><text fill="#000000" font-family="sans-serif" font-size="11" lengthAdjust="spacing" textLength="78" x="396" y="363.7339">ITEM_TAB_BG</text><text fill="#000000" font-family="sans-serif" font-size="11" lengthAdjust="spacing" textLength="93" x="396" y="376.5386">ITEM_TAB_CURR</text><text fill="#000000" font-family="sans-serif" font-size="11" lengthAdjust="spacing" textLength="103" x="396" y="389.3433">ITEM_DIALOG_WIN</text><text fill="#000000" font-family="sans-serif" font-size="11" lengthAdjust="spacing" textLength="60" x="396" y="402.1479">ITEM_ROW</text><text fill="#000000" font-family="sans-serif" font-size="11" lengthAdjust="spacing" textLength="182" x="396" y="414.9526">ITEM_ROW_SELECTED_FOCUSED</text><text fill="#000000" font-family="sans-serif" font-size="11" lengthAdjust="spacing" textLength="198" x="396" y="427.7573">ITEM_ROW_SELECTED_UNFOCUSED</text><text fill="#000000" font-family="sans-serif" font-size="11" lengthAdjust="spacing" textLength="125" x="396" y="440.562">ITEM_TXT_FAV_LOCAL</text><text fill="#000000" font-family="sans-serif" font-size="11" lengthAdjust="spacing" textLength="247" x="396" y="453.3667">ITEM_TXT_SELECTED_FOCUSED_FAV_LOCAL</text><text fill="#000000" font-family="sans-serif" font-size="11" lengthAdjust="spacing" textLength="263" x="396" y="466.1714">ITEM_TXT_SELECTED_UNFOCUSED_FAV_LOCAL</text><text fill="#000000" font-family="sans-serif" font-size="11" lengthAdjust="spacing" textLength="135" x="396" y="478.9761">ITEM_TXT_FAV_REMOTE</text><text fill="#000000" font-family="sans-serif" font-size="11" lengthAdjust="spacing" textLength="257" x="396" y="491.7808">ITEM_TXT_SELECTED_FOCUSED_FAV_REMOTE</text><text fill="#000000" font-family="sans-serif" font-size="11" lengthAdjust="spacing" textLength="273" x="396" y="504.5854">ITEM_TXT_SELECTED_UNFOCUSED_FAV_REMOTE</text><text fill="#000000" font-family="sans-serif" font-size="11" lengthAdjust="spacing" textLength="145" x="396" y="517.3901">ITEM_TXT_HELP_HEADING</text><text fill="#000000" font-family="sans-serif" font-size="11" lengthAdjust="spacing" textLength="144" x="396" y="530.1948">ITEM_SCROLL_INDICATOR</text><text fill="#000000" font-family="sans-serif" font-size="11" lengthAdjust="spacing" textLength="114" x="396" y="542.9995">ITEM_PLAYBACK_ON</text><text fill="#000000" font-family="sans-serif" font-size="11" lengthAdjust="spacing" textLength="118" x="396" y="555.8042">ITEM_PLAYBACK_OFF</text><text fill="#000000" font-family="sans-serif" font-size="11" lengthAdjust="spacing" textLength="79" x="396" y="568.6089">ITEM_QUEUED</text><text fill="#000000" font-family="sans-serif" font-size="11" lengthAdjust="spacing" textLength="163" x="396" y="581.4136">ITEM_QUEUED_INV_FOCUSED</text><text fill="#000000" font-family="sans-serif" font-size="11" lengthAdjust="spacing" textLength="179" x="396" y="594.2183">ITEM_QUEUED_INV_UNFOCUSED</text><text fill="#000000" font-family="sans-serif" font-size="11" lengthAdjust="spacing" textLength="95" x="396" y="607.0229">ITEM_FIELD_DFLT</text><text fill="#000000" font-family="sans-serif" font-size="11" lengthAdjust="spacing" textLength="112" x="396" y="619.8276">ITEM_FIELD_INVALID</text><text fill="#000000" font-family="sans-serif" font-size="11" lengthAdjust="spacing" textLength="112" x="396" y="632.6323">ITEM_BUTTON_DFLT</text><text fill="#000000" font-family="sans-serif" font-size="11" lengthAdjust="spacing" textLength="118" x="396" y="645.437">ITEM_BUTTON_VALID</text><text fill="#000000" font-family="sans-serif" font-size="11" lengthAdjust="spacing" textLength="129" x="396" y="658.2417">ITEM_BUTTON_INVALID</text><line style="stroke:#A80036;stroke-width:1.5;" x1="391" x2="674" y1="664.8359" y2="664.8359"/><!--MD5=[fe9712d3df161feabd0ad7f200ac2064]
class iTheme--><rect codeLine="78" fill="#FEFECE" filter="url(#fz5il2ih3hl9g)" height="94.4141" id="iTheme" style="stroke:#A80036;stroke-width:1.5;" width="257" x="397" y="84"/><ellipse cx="472.25" cy="100" fill="#B4A7E5" rx="11" ry="11" style="stroke:#A80036;stroke-width:1.0;"/><path d="M468.6719,95.7813 L468.6719,93.5 L476.0625,93.5 L476.0625,95.7813 L473.5938,95.7813 L473.5938,104.2344 L476.0625,104.2344 L476.0625,106.5 L468.6719,106.5 L468.6719,104.2344 L471.1406,104.2344 L471.1406,95.7813 L468.6719,95.7813 Z " fill="#000000"/><text fill="#000000" font-family="sans-serif" font-size="12" font-style="italic" lengthAdjust="spacing" textLength="98" x="492.75" y="104.1543">Theme interface</text><line style="stroke:#A80036;stroke-width:1.5;" x1="398" x2="653" y1="116" y2="116"/><ellipse cx="408" cy="127" fill="#84BE84" rx="3" ry="3" style="stroke:#038048;stroke-width:1.0;"/><text fill="#000000" font-family="sans-serif" font-size="11" lengthAdjust="spacing" textLength="231" x="417" y="130.2104">init( struct ColourTheme * theme ) : void</text><line style="stroke:#A80036;stroke-width:1.0;" x1="398" x2="653" y1="136.8047" y2="136.8047"/><text fill="#000000" font-family="sans-serif" font-size="11" font-weight="bold" lengthAdjust="spacing" textLength="56" x="403" y="151.0151">UI global</text><line style="stroke:#A80036;stroke-width:1.0;" x1="398" x2="653" y1="157.6094" y2="157.6094"/><ellipse cx="408" cy="168.6094" fill="#84BE84" rx="3" ry="3" style="stroke:#038048;stroke-width:1.0;"/><text fill="#000000" font-family="sans-serif" font-size="11" lengthAdjust="spacing" textLength="176" x="417" y="171.8198">color( ThemeItem_e item ) : int</text><!--MD5=[d6ecc4a0a67785043e55cffa43c1fbeb]
class UIConfig_t--><rect codeLine="5" fill="#FEFECE" filter="url(#fz5il2ih3hl9g)" height="124.8281" id="UIConfig_t" style="stroke:#A80036;stroke-width:1.5;" width="327" x="7" y="68.5"/><ellipse cx="135.25" cy="84.5" fill="#ADD1B2" rx="11" ry="11" style="stroke:#A80036;stroke-width:1.0;"/><path d="M137.7188,90.375 Q137.1406,90.6875 136.5,90.8438 Q135.8594,91 135.1563,91 Q132.6563,91 131.3281,89.3281 Q130.0156,87.6563 130.0156,84.5 Q130.0156,81.3438 131.3281,79.6719 Q132.6563,78 135.1563,78 Q135.8594,78 136.5,78.1563 Q137.1563,78.3125 137.7188,78.625 L137.7188,81.4219 Q137.0938,80.8594 136.5,80.5938 Q135.9063,80.3125 135.2813,80.3125 Q133.9375,80.3125 133.25,81.375 Q132.5625,82.4375 132.5625,84.5 Q132.5625,86.5781 133.25,87.6406 Q133.9375,88.6875 135.2813,88.6875 Q135.9063,88.6875 136.5,88.4219 Q137.0938,88.1563 137.7188,87.5781 L137.7188,90.375 Z " fill="#000000"/><text fill="#000000" font-family="sans-serif" font-size="12" lengthAdjust="spacing" textLength="62" x="155.75" y="88.6543">UIConfig_t</text><line style="stroke:#A80036;stroke-width:1.5;" x1="8" x2="333" y1="100.5" y2="100.5"/><ellipse cx="18" cy="111.5" rx="3" ry="3" style="stroke:#038048;stroke-width:1.0;fill:none;"/><text fill="#000000" font-family="sans-serif" font-size="11" lengthAdjust="spacing" textLength="182" x="27" y="114.7104">fav_tab.hide_fav_theming : bool</text><ellipse cx="18" cy="124.3047" rx="3" ry="3" style="stroke:#038048;stroke-width:1.0;fill:none;"/><text fill="#000000" font-family="sans-serif" font-size="11" lengthAdjust="spacing" textLength="144" x="27" y="127.5151">fav_tab.large_rows : bool</text><ellipse cx="18" cy="137.1094" rx="3" ry="3" style="stroke:#038048;stroke-width:1.0;fill:none;"/><text fill="#000000" font-family="sans-serif" font-size="11" lengthAdjust="spacing" textLength="164" x="27" y="140.3198">search_tab.large_rows : bool</text><ellipse cx="18" cy="149.9141" rx="3" ry="3" style="stroke:#038048;stroke-width:1.0;fill:none;"/><text fill="#000000" font-family="sans-serif" font-size="11" lengthAdjust="spacing" textLength="167" x="27" y="153.1245">browse_tab.large_rows : bool</text><ellipse cx="18" cy="162.7188" rx="3" ry="3" style="stroke:#038048;stroke-width:1.0;fill:none;"/><text fill="#000000" font-family="sans-serif" font-size="11" lengthAdjust="spacing" textLength="160" x="27" y="165.9292">theme : struct ColourTheme</text><line style="stroke:#A80036;stroke-width:1.0;" x1="8" x2="333" y1="172.5234" y2="172.5234"/><line style="stroke:#A80036;stroke-width:1.0;" x1="8" x2="333" y1="174.5234" y2="174.5234"/><ellipse cx="18" cy="183.5234" fill="#84BE84" rx="3" ry="3" style="stroke:#038048;stroke-width:1.0;"/><text fill="#000000" font-family="sans-serif" font-size="11" lengthAdjust="spacing" textLength="301" x="27" y="186.7339">copy( const UIConfig_t * from, UIConfig_t * to ) : bool</text><!--MD5=[0c7ba851b0a13bf1752d48de0bd7758a]
class ColourTheme--><rect codeLine="15" fill="#FEFECE" filter="url(#fz5il2ih3hl9g)" height="348.8984" id="ColourTheme" style="stroke:#A80036;stroke-width:1.5;" width="229" x="80" y="288.5"/><ellipse cx="150.75" cy="304.5" fill="#ADD1B2" rx="11" ry="11" style="stroke:#A80036;stroke-width:1.0;"/><path d="M153.2188,310.375 Q152.6406,310.6875 152,310.8438 Q151.3594,311 150.6563,311 Q148.1563,311 146.8281,309.3281 Q145.5156,307.6563 145.5156,304.5 Q145.5156,301.3438 146.8281,299.6719 Q148.1563,298 150.6563,298 Q151.3594,298 152,298.1563 Q152.6563,298.3125 153.2188,298.625 L153.2188,301.4219 Q152.5938,300.8594 152,300.5938 Q151.4063,300.3125 150.7813,300.3125 Q149.4375,300.3125 148.75,301.375 Q148.0625,302.4375 148.0625,304.5 Q148.0625,306.5781 148.75,307.6406 Q149.4375,308.6875 150.7813,308.6875 Q151.4063,308.6875 152,308.4219 Q152.5938,308.1563 153.2188,307.5781 L153.2188,310.375 Z " fill="#000000"/><text fill="#000000" font-family="sans-serif" font-size="12" lengthAdjust="spacing" textLength="79" x="171.25" y="308.6543">ColourTheme</text><line style="stroke:#A80036;stroke-width:1.5;" x1="81" x2="308" y1="320.5" y2="320.5"/><ellipse cx="91" cy="331.5" rx="3" ry="3" style="stroke:#038048;stroke-width:1.0;fill:none;"/><text fill="#000000" font-family="sans-serif" font-size="11" lengthAdjust="spacing" textLength="107" x="100" y="334.7104">background : short</text><ellipse cx="91" cy="344.3047" rx="3" ry="3" style="stroke:#038048;stroke-width:1.0;fill:none;"/><text fill="#000000" font-family="sans-serif" font-size="11" lengthAdjust="spacing" textLength="104" x="100" y="347.5151">foreground : short</text><line style="stroke:#A80036;stroke-width:1.0;" x1="81" x2="308" y1="354.1094" y2="354.1094"/><ellipse cx="91" cy="365.1094" rx="3" ry="3" style="stroke:#038048;stroke-width:1.0;fill:none;"/><text fill="#000000" font-family="sans-serif" font-size="11" lengthAdjust="spacing" textLength="138" x="100" y="368.3198">rows.background : short</text><ellipse cx="91" cy="377.9141" rx="3" ry="3" style="stroke:#038048;stroke-width:1.0;fill:none;"/><text fill="#000000" font-family="sans-serif" font-size="11" lengthAdjust="spacing" textLength="135" x="100" y="381.1245">rows.foreground : short</text><ellipse cx="91" cy="390.7188" rx="3" ry="3" style="stroke:#038048;stroke-width:1.0;fill:none;"/><text fill="#000000" font-family="sans-serif" font-size="11" lengthAdjust="spacing" textLength="189" x="100" y="393.9292">rows.selected_focused_bg : short</text><ellipse cx="91" cy="403.5234" rx="3" ry="3" style="stroke:#038048;stroke-width:1.0;fill:none;"/><text fill="#000000" font-family="sans-serif" font-size="11" lengthAdjust="spacing" textLength="186" x="100" y="406.7339">rows.selected_focused_fg : short</text><ellipse cx="91" cy="416.3281" rx="3" ry="3" style="stroke:#038048;stroke-width:1.0;fill:none;"/><text fill="#000000" font-family="sans-serif" font-size="11" lengthAdjust="spacing" textLength="203" x="100" y="419.5386">rows.selected_unfocused_bg : short</text><ellipse cx="91" cy="429.1328" rx="3" ry="3" style="stroke:#038048;stroke-width:1.0;fill:none;"/><text fill="#000000" font-family="sans-serif" font-size="11" lengthAdjust="spacing" textLength="200" x="100" y="432.3433">rows.selected_unfocused_fg : short</text><ellipse cx="91" cy="441.9375" rx="3" ry="3" style="stroke:#038048;stroke-width:1.0;fill:none;"/><text fill="#000000" font-family="sans-serif" font-size="11" lengthAdjust="spacing" textLength="172" x="100" y="445.1479">rows.favourite_local_fg : short</text><ellipse cx="91" cy="454.7422" rx="3" ry="3" style="stroke:#038048;stroke-width:1.0;fill:none;"/><text fill="#000000" font-family="sans-serif" font-size="11" lengthAdjust="spacing" textLength="187" x="100" y="457.9526">rows.favourite_remote_fg : short</text><ellipse cx="91" cy="467.5469" rx="3" ry="3" style="stroke:#038048;stroke-width:1.0;fill:none;"/><text fill="#000000" font-family="sans-serif" font-size="11" lengthAdjust="spacing" textLength="128" x="100" y="470.7573">rows.broken_fg : short</text><line style="stroke:#A80036;stroke-width:1.0;" x1="81" x2="308" y1="477.3516" y2="477.3516"/><ellipse cx="91" cy="488.3516" rx="3" ry="3" style="stroke:#038048;stroke-width:1.0;fill:none;"/><text fill="#000000" font-family="sans-serif" font-size="11" lengthAdjust="spacing" textLength="144" x="100" y="491.562">icons.playback_on : short</text><ellipse cx="91" cy="501.1563" rx="3" ry="3" style="stroke:#038048;stroke-width:1.0;fill:none;"/><text fill="#000000" font-family="sans-serif" font-size="11" lengthAdjust="spacing" textLength="145" x="100" y="504.3667">icons.playback_off : short</text><ellipse cx="91" cy="513.9609" rx="3" ry="3" style="stroke:#038048;stroke-width:1.0;fill:none;"/><text fill="#000000" font-family="sans-serif" font-size="11" lengthAdjust="spacing" textLength="160" x="100" y="517.1714">icons.queued_station : short</text><line style="stroke:#A80036;stroke-width:1.0;" x1="81" x2="308" y1="523.7656" y2="523.7656"/><ellipse cx="91" cy="534.7656" rx="3" ry="3" style="stroke:#038048;stroke-width:1.0;fill:none;"/><text fill="#000000" font-family="sans-serif" font-size="11" lengthAdjust="spacing" textLength="123" x="100" y="537.9761">field.invalid_fg : short</text><line style="stroke:#A80036;stroke-width:1.0;" x1="81" x2="308" y1="544.5703" y2="544.5703"/><ellipse cx="91" cy="555.5703" rx="3" ry="3" style="stroke:#038048;stroke-width:1.0;fill:none;"/><text fill="#000000" font-family="sans-serif" font-size="11" lengthAdjust="spacing" textLength="147" x="100" y="558.7808">button.background : short</text><ellipse cx="91" cy="568.375" rx="3" ry="3" style="stroke:#038048;stroke-width:1.0;fill:none;"/><text fill="#000000" font-family="sans-serif" font-size="11" lengthAdjust="spacing" textLength="144" x="100" y="571.5854">button.foreground : short</text><ellipse cx="91" cy="581.1797" rx="3" ry="3" style="stroke:#038048;stroke-width:1.0;fill:none;"/><text fill="#000000" font-family="sans-serif" font-size="11" lengthAdjust="spacing" textLength="135" x="100" y="584.3901">button.invalid_fg : short</text><ellipse cx="91" cy="593.9844" rx="3" ry="3" style="stroke:#038048;stroke-width:1.0;fill:none;"/><text fill="#000000" font-family="sans-serif" font-size="11" lengthAdjust="spacing" textLength="150" x="100" y="597.1948">button.validated_fg : short</text><line style="stroke:#A80036;stroke-width:1.0;" x1="81" x2="308" y1="603.7891" y2="603.7891"/><line style="stroke:#A80036;stroke-width:1.0;" x1="81" x2="308" y1="605.7891" y2="605.7891"/><ellipse cx="91" cy="614.7891" fill="#84BE84" rx="3" ry="3" style="stroke:#038048;stroke-width:1.0;"/><text fill="#000000" font-family="sans-serif" font-size="11" lengthAdjust="spacing" textLength="185" x="100" y="617.9995">init( void ) : struct ColourTheme;</text><ellipse cx="91" cy="627.5938" fill="#84BE84" rx="3" ry="3" style="stroke:#038048;stroke-width:1.0;"/><text fill="#000000" font-family="sans-serif" font-size="11" lengthAdjust="spacing" textLength="180" x="100" y="630.8042">str( short colour ) : const char *</text><!--MD5=[5f07255ae42e5f8509f01d1041127dd3]
link iTheme to ThemeItem_e--><path codeLine="86" d="M525.5,178.21 C525.5,178.21 525.5,248.43 525.5,248.43 " fill="none" id="iTheme-to-ThemeItem_e" style="stroke:#A80036;stroke-width:1.0;"/><polygon fill="#A80036" points="525.5,253.43,529.5,244.43,525.5,248.43,521.5,244.43,525.5,253.43" style="stroke:#A80036;stroke-width:1.0;"/><!--MD5=[3c09d9bbc3e417d8f757379a718f87dd]
link iTheme to ColourTheme--><path codeLine="90" d="M396.67,131.5 C376.41,131.5 362,131.5 362,131.5 C362,131.5 362,463.5 362,463.5 C362,463.5 314,463.5 314,463.5 " fill="none" id="iTheme-to-ColourTheme" style="stroke:#A80036;stroke-width:1.0;"/><polygon fill="#A80036" points="309,463.5,318,467.5,314,463.5,318,459.5,309,463.5" style="stroke:#A80036;stroke-width:1.0;"/><!--MD5=[76dc08113407383856fa039c8e158ba7]
link UIConfig_t to ColourTheme--><path codeLine="91" d="M194.5,193.84 C194.5,193.84 194.5,283.39 194.5,283.39 " fill="none" id="UIConfig_t-to-ColourTheme" style="stroke:#A80036;stroke-width:1.0;"/><polygon fill="#A80036" points="194.5,288.39,198.5,279.39,194.5,283.39,190.5,279.39,194.5,288.39" style="stroke:#A80036;stroke-width:1.0;"/><!--MD5=[440e9eb20600879d4c9c0086b3bd5772]
@startuml
'https://plantuml.com/class-diagram

skinparam linetype ortho

class UIConfig_t {
    + fav_tab.hide_fav_theming : bool
    + fav_tab.large_rows : bool
    + search_tab.large_rows : bool
    + browse_tab.large_rows : bool
    + theme : struct ColourTheme
    ====
    + copy( const UIConfig_t * from, UIConfig_t * to ) : bool
}

class ColourTheme {
    + background : short
    + foreground : short
    - - - -
    + rows.background : short
    + rows.foreground : short
    + rows.selected_focused_bg : short
    + rows.selected_focused_fg : short
    + rows.selected_unfocused_bg : short
    + rows.selected_unfocused_fg : short
    + rows.favourite_local_fg : short
    + rows.favourite_remote_fg : short
    + rows.broken_fg : short
    - - - -
    + icons.playback_on : short
    + icons.playback_off : short
    + icons.queued_station : short
    - - - -
    + field.invalid_fg : short
    - - - -
    + button.background : short
    + button.foreground : short
    + button.invalid_fg : short
    + button.validated_fg : short
    ====
    + init( void ) : struct ColourTheme;
    + str( short colour ) : const char *
}

package UI #lightgrey {
    package definitions #white {
        enum ThemeItem_e {
            ITEM_TITLE
            ITEM_STATUS_BAR1
            ITEM_STATUS_BAR2
            ITEM_STATUS_BAR3
            ITEM_MSG_LINE
            ITEM_TAB_BG
            ITEM_TAB_CURR
            ITEM_DIALOG_WIN
            ITEM_ROW
            ITEM_ROW_SELECTED_FOCUSED
            ITEM_ROW_SELECTED_UNFOCUSED
            ITEM_TXT_FAV_LOCAL
            ITEM_TXT_SELECTED_FOCUSED_FAV_LOCAL
            ITEM_TXT_SELECTED_UNFOCUSED_FAV_LOCAL
            ITEM_TXT_FAV_REMOTE
            ITEM_TXT_SELECTED_FOCUSED_FAV_REMOTE
            ITEM_TXT_SELECTED_UNFOCUSED_FAV_REMOTE
            ITEM_TXT_HELP_HEADING
            ITEM_SCROLL_INDICATOR
            ITEM_PLAYBACK_ON
            ITEM_PLAYBACK_OFF
            ITEM_QUEUED
            ITEM_QUEUED_INV_FOCUSED
            ITEM_QUEUED_INV_UNFOCUSED
            ITEM_FIELD_DFLT
            ITEM_FIELD_INVALID
            ITEM_BUTTON_DFLT
            ITEM_BUTTON_VALID
            ITEM_BUTTON_INVALID
        }

        interface "Theme interface" as iTheme {
            + init( struct ColourTheme * theme ) : void
            - - - -
            <b>UI global</b>
            - - - -
            + color( ThemeItem_e item ) : int
        }

        iTheme - -> ThemeItem_e
    }
}

iTheme -down-> ColourTheme
UIConfig_t -down-> ColourTheme

@enduml

@startuml

skinparam linetype ortho

class UIConfig_t {
    + fav_tab.hide_fav_theming : bool
    + fav_tab.large_rows : bool
    + search_tab.large_rows : bool
    + browse_tab.large_rows : bool
    + theme : struct ColourTheme
    ====
    + copy( const UIConfig_t * from, UIConfig_t * to ) : bool
}

class ColourTheme {
    + background : short
    + foreground : short
    - - - -
    + rows.background : short
    + rows.foreground : short
    + rows.selected_focused_bg : short
    + rows.selected_focused_fg : short
    + rows.selected_unfocused_bg : short
    + rows.selected_unfocused_fg : short
    + rows.favourite_local_fg : short
    + rows.favourite_remote_fg : short
    + rows.broken_fg : short
    - - - -
    + icons.playback_on : short
    + icons.playback_off : short
    + icons.queued_station : short
    - - - -
    + field.invalid_fg : short
    - - - -
    + button.background : short
    + button.foreground : short
    + button.invalid_fg : short
    + button.validated_fg : short
    ====
    + init( void ) : struct ColourTheme;
    + str( short colour ) : const char *
}

package UI #lightgrey {
    package definitions #white {
        enum ThemeItem_e {
            ITEM_TITLE
            ITEM_STATUS_BAR1
            ITEM_STATUS_BAR2
            ITEM_STATUS_BAR3
            ITEM_MSG_LINE
            ITEM_TAB_BG
            ITEM_TAB_CURR
            ITEM_DIALOG_WIN
            ITEM_ROW
            ITEM_ROW_SELECTED_FOCUSED
            ITEM_ROW_SELECTED_UNFOCUSED
            ITEM_TXT_FAV_LOCAL
            ITEM_TXT_SELECTED_FOCUSED_FAV_LOCAL
            ITEM_TXT_SELECTED_UNFOCUSED_FAV_LOCAL
            ITEM_TXT_FAV_REMOTE
            ITEM_TXT_SELECTED_FOCUSED_FAV_REMOTE
            ITEM_TXT_SELECTED_UNFOCUSED_FAV_REMOTE
            ITEM_TXT_HELP_HEADING
            ITEM_SCROLL_INDICATOR
            ITEM_PLAYBACK_ON
            ITEM_PLAYBACK_OFF
            ITEM_QUEUED
            ITEM_QUEUED_INV_FOCUSED
            ITEM_QUEUED_INV_UNFOCUSED
            ITEM_FIELD_DFLT
            ITEM_FIELD_INVALID
            ITEM_BUTTON_DFLT
            ITEM_BUTTON_VALID
            ITEM_BUTTON_INVALID
        }

        interface "Theme interface" as iTheme {
            + init( struct ColourTheme * theme ) : void
            - - - -
            <b>UI global</b>
            - - - -
            + color( ThemeItem_e item ) : int
        }

        iTheme - -> ThemeItem_e
    }
}

iTheme -down-> ColourTheme
UIConfig_t -down-> ColourTheme

@enduml

PlantUML version 1.2021.7(Sun May 23 14:40:07 CEST 2021)
(GPL source distribution)
Java Runtime: OpenJDK Runtime Environment
JVM: OpenJDK 64-Bit Server VM
Default Encoding: UTF-8
Language: en
Country: GB
--></g></svg>