<?xml version="1.0" encoding="UTF-8" standalone="no"?><svg xmlns="http://www.w3.org/2000/svg" xmlns:xlink="http://www.w3.org/1999/xlink" contentScriptType="application/ecmascript" contentStyleType="text/css" height="216px" preserveAspectRatio="none" style="width:464px;height:216px;background:#FFFFFF;" version="1.1" viewBox="0 0 464 216" width="464px" zoomAndPan="magnify"><defs><filter height="300%" id="f2cs4umt4vnuv" width="300%" x="-1" y="-1"><feGaussianBlur result="blurOut" stdDeviation="2.0"/><feColorMatrix in="blurOut" result="blurOut2" type="matrix" values="0 0 0 0 0 0 0 0 0 0 0 0 0 0 0 0 0 0 .4 0"/><feOffset dx="4.0" dy="4.0" in="blurOut2" result="blurOut3"/><feBlend in="SourceGraphic" in2="blurOut3" mode="normal"/></filter></defs><g><!--MD5=[a6e358cb66527167c36266af760644d0]
cluster widget--><polygon fill="#FFFFFF" filter="url(#f2cs4umt4vnuv)" points="16,6,77,6,84,28.2969,447,28.2969,447,209,16,209,16,6" style="stroke:#000000;stroke-width:1.5;"/><line style="stroke:#000000;stroke-width:1.5;" x1="16" x2="84" y1="28.2969" y2="28.2969"/><text fill="#000000" font-family="sans-serif" font-size="14" font-weight="bold" lengthAdjust="spacing" textLength="55" x="20" y="20.9951">widget</text><!--MD5=[7ef9c71f28e7142fede1c01911911cd9]
entity BorderWin--><rect fill="#FEFECE" filter="url(#f2cs4umt4vnuv)" height="46.2969" style="stroke:#A80036;stroke-width:1.5;" width="116" x="32" y="147"/><rect fill="#FEFECE" height="10" style="stroke:#A80036;stroke-width:1.5;" width="15" x="128" y="152"/><rect fill="#FEFECE" height="2" style="stroke:#A80036;stroke-width:1.5;" width="4" x="126" y="154"/><rect fill="#FEFECE" height="2" style="stroke:#A80036;stroke-width:1.5;" width="4" x="126" y="158"/><text fill="#000000" font-family="sans-serif" font-size="14" lengthAdjust="spacing" textLength="76" x="47" y="179.9951">BorderWin</text><!--MD5=[c0fe58fc51baeeb321a12f9314f344e9]
entity ScrollBar--><rect fill="#FEFECE" filter="url(#f2cs4umt4vnuv)" height="46.2969" style="stroke:#A80036;stroke-width:1.5;" width="105" x="325.5" y="147"/><rect fill="#FEFECE" height="10" style="stroke:#A80036;stroke-width:1.5;" width="15" x="410.5" y="152"/><rect fill="#FEFECE" height="2" style="stroke:#A80036;stroke-width:1.5;" width="4" x="408.5" y="154"/><rect fill="#FEFECE" height="2" style="stroke:#A80036;stroke-width:1.5;" width="4" x="408.5" y="158"/><text fill="#000000" font-family="sans-serif" font-size="14" lengthAdjust="spacing" textLength="65" x="340.5" y="179.9951">ScrollBar</text><!--MD5=[b17b380054658488226b61c31a96155e]
entity SlideMenu--><rect fill="#FEFECE" filter="url(#f2cs4umt4vnuv)" height="46.2969" style="stroke:#A80036;stroke-width:1.5;" width="114" x="317" y="41"/><rect fill="#FEFECE" height="10" style="stroke:#A80036;stroke-width:1.5;" width="15" x="411" y="46"/><rect fill="#FEFECE" height="2" style="stroke:#A80036;stroke-width:1.5;" width="4" x="409" y="48"/><rect fill="#FEFECE" height="2" style="stroke:#A80036;stroke-width:1.5;" width="4" x="409" y="52"/><text fill="#000000" font-family="sans-serif" font-size="14" lengthAdjust="spacing" textLength="74" x="332" y="73.9951">SlideMenu</text><!--MD5=[990ee15e83baa4304cfacc7544d75f46]
entity Dialog--><rect fill="#FEFECE" filter="url(#f2cs4umt4vnuv)" height="46.2969" style="stroke:#A80036;stroke-width:1.5;" width="86" x="194" y="41"/><rect fill="#FEFECE" height="10" style="stroke:#A80036;stroke-width:1.5;" width="15" x="260" y="46"/><rect fill="#FEFECE" height="2" style="stroke:#A80036;stroke-width:1.5;" width="4" x="258" y="48"/><rect fill="#FEFECE" height="2" style="stroke:#A80036;stroke-width:1.5;" width="4" x="258" y="52"/><text fill="#000000" font-family="sans-serif" font-size="14" lengthAdjust="spacing" textLength="46" x="209" y="73.9951">Dialog</text><!--MD5=[477c6e5c6dee203282aba02378dc1801]
entity ScrollWin--><rect fill="#FEFECE" filter="url(#f2cs4umt4vnuv)" height="46.2969" style="stroke:#A80036;stroke-width:1.5;" width="107" x="183.5" y="147"/><rect fill="#FEFECE" height="10" style="stroke:#A80036;stroke-width:1.5;" width="15" x="270.5" y="152"/><rect fill="#FEFECE" height="2" style="stroke:#A80036;stroke-width:1.5;" width="4" x="268.5" y="154"/><rect fill="#FEFECE" height="2" style="stroke:#A80036;stroke-width:1.5;" width="4" x="268.5" y="158"/><text fill="#000000" font-family="sans-serif" font-size="14" lengthAdjust="spacing" textLength="67" x="198.5" y="179.9951">ScrollWin</text><!--MD5=[9a355a3fef76e95978d22f4510d4a7c8]
reverse link Dialog to ScrollWin--><path d="M237,100.44 C237,115.87 237,133.47 237,146.98 " fill="none" id="Dialog-backto-ScrollWin" style="stroke:#A80036;stroke-width:1.0;"/><polygon fill="#A80036" points="237,87.06,233,93.06,237,99.06,241,93.06,237,87.06" style="stroke:#A80036;stroke-width:1.0;"/><!--MD5=[7510c8f5a2dfbcf51882a9f2b1b52027]
reverse link Dialog to ScrollBar--><path d="M277.51,94.88 C300.04,111.49 327.59,131.82 348.14,146.98 " fill="none" id="Dialog-backto-ScrollBar" style="stroke:#A80036;stroke-width:1.0;"/><polygon fill="#A80036" points="266.9,87.06,269.3478,93.843,276.5504,94.1923,274.1026,87.4094,266.9,87.06" style="stroke:#A80036;stroke-width:1.0;"/><!--MD5=[962ab12952c969d9a51b976db908efc8]
reverse link Dialog to BorderWin--><path d="M195.09,94.65 C171.54,111.31 142.66,131.75 121.13,146.98 " fill="none" id="Dialog-backto-BorderWin" style="stroke:#A80036;stroke-width:1.0;"/><polygon fill="#A80036" points="205.83,87.06,198.6217,87.2621,196.0359,93.9936,203.2442,93.7915,205.83,87.06" style="stroke:#A80036;stroke-width:1.0;"/><!--MD5=[6aacb35628e181700db035bb83c5402c]
reverse link SlideMenu to ScrollBar--><path d="M375.36,100.44 C375.96,115.87 376.63,133.47 377.15,146.98 " fill="none" id="SlideMenu-backto-ScrollBar" style="stroke:#A80036;stroke-width:1.0;"/><polygon fill="#A80036" points="374.85,87.06,371.0838,93.2095,375.3117,99.0511,379.0779,92.9017,374.85,87.06" style="stroke:#A80036;stroke-width:1.0;"/><!--MD5=[e273326cc1daba04d83dc75d4483c6d9]
@startuml
'https://plantuml.com/component-diagram

package widget #white {
    component BorderWin
    component ScrollBar
    component SlideMenu
    component Dialog
    component ScrollWin

    Dialog    *- - ScrollWin
    Dialog    *- - ScrollBar
    Dialog    *- - BorderWin
    SlideMenu *- - ScrollBar
}

@enduml

@startuml

package widget #white {
    component BorderWin
    component ScrollBar
    component SlideMenu
    component Dialog
    component ScrollWin

    Dialog    *- - ScrollWin
    Dialog    *- - ScrollBar
    Dialog    *- - BorderWin
    SlideMenu *- - ScrollBar
}

@enduml

PlantUML version 1.2021.7(Sun May 23 14:40:07 CEST 2021)
(GPL source distribution)
Java Runtime: OpenJDK Runtime Environment
JVM: Dynamic Code Evolution 64-Bit Server VM
Default Encoding: UTF-8
Language: en
Country: GB
--></g></svg>