<?xml version="1.0" encoding="UTF-8" standalone="no"?>
<svg
   xmlns:dc="http://purl.org/dc/elements/1.1/"
   xmlns:cc="http://creativecommons.org/ns#"
   xmlns:rdf="http://www.w3.org/1999/02/22-rdf-syntax-ns#"
   xmlns:svg="http://www.w3.org/2000/svg"
   xmlns="http://www.w3.org/2000/svg"
   xml:space="preserve"
   style="enable-background:new 0 0 67.025 67.026;"
   viewBox="0 0 67.025 67.026"
   height="67.026px"
   width="67.025px"
   y="0px"
   x="0px"
   id="Capa_1"
   version="1.1"><metadata
   id="metadata47"><rdf:RDF><cc:Work
       rdf:about=""><dc:format>image/svg+xml</dc:format><dc:type
         rdf:resource="http://purl.org/dc/dcmitype/StillImage" /><dc:title></dc:title></cc:Work></rdf:RDF></metadata><defs
   id="defs45" />
<g
   style="fill:#86bd9f;fill-opacity:1"
   id="g10">
	<g
   style="fill:#86bd9f;fill-opacity:1"
   id="g8">
		<g
   style="fill:#86bd9f;fill-opacity:1"
   id="g6">
			<polygon
   style="fill:#86bd9f;fill-opacity:1"
   id="polygon2"
   points="41.441,29.477 44.576,31.269 50.848,27.685 41.441,22.086    " />
			<path
   style="fill:#86bd9f;fill-opacity:1"
   id="path4"
   d="M60.48,18.052l2.24-4.031c1.791-3.137-3.359-6.721-5.824-8.063c-2.465-1.345-8.063-4.257-9.855-0.896l-3.137,5.376     c-3.137-0.672-6.721-1.12-10.304-1.12C15.008,9.317,0,19.398,0,31.718c0,12.318,15.008,22.398,33.6,22.398c0,0,0,0,0.225,0     c0.224,2.688-2.912,7.168-7.393,9.407c17.698,0,25.761-13.216,25.761-13.216c8.959-4.032,14.783-10.752,14.783-18.592     C67.424,26.565,64.736,21.861,60.48,18.052z M15.455,37.99c-1.792,0-3.136-1.346-3.136-3.138c0-1.792,1.344-3.136,3.136-3.136     s3.136,1.344,3.136,3.136C18.591,36.644,17.025,37.99,15.455,37.99z M23.743,37.99c-1.792,0-3.136-1.346-3.136-3.138     c0-1.792,1.344-3.136,3.136-3.136s3.136,1.344,3.136,3.136C26.879,36.644,25.535,37.99,23.743,37.99z M32.032,37.99     c-1.792,0-3.137-1.346-3.137-3.138c0-1.792,1.345-3.136,3.137-3.136s3.136,1.344,3.136,3.136     C35.168,36.644,33.824,37.99,32.032,37.99z M51.969,28.357l-6.496,3.584l-5.377,2.911v-6.047v-7.392l8.961-15.456     c0.447-0.896,3.584,0,6.943,1.792s5.6,4.031,4.928,4.928L51.969,28.357z" />
		</g>
	</g>
</g>
<g
   id="g12">
</g>
<g
   id="g14">
</g>
<g
   id="g16">
</g>
<g
   id="g18">
</g>
<g
   id="g20">
</g>
<g
   id="g22">
</g>
<g
   id="g24">
</g>
<g
   id="g26">
</g>
<g
   id="g28">
</g>
<g
   id="g30">
</g>
<g
   id="g32">
</g>
<g
   id="g34">
</g>
<g
   id="g36">
</g>
<g
   id="g38">
</g>
<g
   id="g40">
</g>
</svg>