<?xml version="1.0" encoding="UTF-8" standalone="no"?>
<svg
   xmlns:dc="http://purl.org/dc/elements/1.1/"
   xmlns:cc="http://creativecommons.org/ns#"
   xmlns:rdf="http://www.w3.org/1999/02/22-rdf-syntax-ns#"
   xmlns:svg="http://www.w3.org/2000/svg"
   xmlns="http://www.w3.org/2000/svg"
   xml:space="preserve"
   viewBox="0 0 12.705049 21.691407"
   height="21.691406"
   width="12.705049"
   y="0px"
   x="0px"
   id="Capa_1"
   version="1.1"><metadata
   id="metadata41"><rdf:RDF><cc:Work
       rdf:about=""><dc:format>image/svg+xml</dc:format><dc:type
         rdf:resource="http://purl.org/dc/dcmitype/StillImage" /><dc:title></dc:title></cc:Work></rdf:RDF></metadata><defs
   id="defs39">
	
</defs>
<path
   style="fill:#31363b;fill-opacity:1"
   d="M 8.3241896,9.3597446e-7 C 7.5074812,-7.0616403e-4 6.7436344,0.39926914 6.2734084,1.0703134 L 0.44918961,9.4160159 c -0.59891948,0.8591351 -0.59891948,2.0021941 0,2.8613281 l 5.82226559,8.34375 c 0.4681049,0.670337 1.2333658,1.070313 2.0507813,1.070313 H 12.705049 V 9.3597446e-7 Z M 7.2695021,8.3027353 c 1.4021927,0.010607 2.5313848,1.1576466 2.5214848,2.5605467 -0.0099,1.404314 -1.1556942,2.533337 -2.5585941,2.523437 C 5.8287857,13.376112 4.6983483,12.22978 4.7089552,10.826173 4.7195619,9.4225649 5.8658951,8.2921253 7.2695021,8.3027353 Z"
   id="path2" />
<g
   transform="translate(-0.90562209,-1.4809881)"
   id="g6">
</g>
<g
   transform="translate(-0.90562209,-1.4809881)"
   id="g8">
</g>
<g
   transform="translate(-0.90562209,-1.4809881)"
   id="g10">
</g>
<g
   transform="translate(-0.90562209,-1.4809881)"
   id="g12">
</g>
<g
   transform="translate(-0.90562209,-1.4809881)"
   id="g14">
</g>
<g
   transform="translate(-0.90562209,-1.4809881)"
   id="g16">
</g>
<g
   transform="translate(-0.90562209,-1.4809881)"
   id="g18">
</g>
<g
   transform="translate(-0.90562209,-1.4809881)"
   id="g20">
</g>
<g
   transform="translate(-0.90562209,-1.4809881)"
   id="g22">
</g>
<g
   transform="translate(-0.90562209,-1.4809881)"
   id="g24">
</g>
<g
   transform="translate(-0.90562209,-1.4809881)"
   id="g26">
</g>
<g
   transform="translate(-0.90562209,-1.4809881)"
   id="g28">
</g>
<g
   transform="translate(-0.90562209,-1.4809881)"
   id="g30">
</g>
<g
   transform="translate(-0.90562209,-1.4809881)"
   id="g32">
</g>
<g
   transform="translate(-0.90562209,-1.4809881)"
   id="g34">
</g>
</svg>
