<?xml version="1.0" encoding="UTF-8" standalone="no"?>
<svg
   xmlns:dc="http://purl.org/dc/elements/1.1/"
   xmlns:cc="http://creativecommons.org/ns#"
   xmlns:rdf="http://www.w3.org/1999/02/22-rdf-syntax-ns#"
   xmlns:svg="http://www.w3.org/2000/svg"
   xmlns="http://www.w3.org/2000/svg"
   xmlns:sodipodi="http://sodipodi.sourceforge.net/DTD/sodipodi-0.dtd"
   xmlns:inkscape="http://www.inkscape.org/namespaces/inkscape"
   inkscape:version="1.0 (4035a4fb49, 2020-05-01)"
   sodipodi:docname="label.svg"
   xml:space="preserve"
   style="enable-background:new 0 0 320 320;"
   viewBox="0 0 320 320"
   y="0px"
   x="0px"
   id="Capa_1"
   version="1.1"><metadata
   id="metadata39"><rdf:RDF><cc:Work
       rdf:about=""><dc:format>image/svg+xml</dc:format><dc:type
         rdf:resource="http://purl.org/dc/dcmitype/StillImage" /></cc:Work></rdf:RDF></metadata><defs
   id="defs37" /><sodipodi:namedview
   inkscape:current-layer="Capa_1"
   inkscape:window-maximized="1"
   inkscape:window-y="30"
   inkscape:window-x="0"
   inkscape:cy="160"
   inkscape:cx="160"
   inkscape:zoom="2.9154425"
   showgrid="false"
   id="namedview35"
   inkscape:window-height="1141"
   inkscape:window-width="1920"
   inkscape:pageshadow="2"
   inkscape:pageopacity="0"
   guidetolerance="10"
   gridtolerance="10"
   objecttolerance="10"
   borderopacity="1"
   bordercolor="#666666"
   pagecolor="#ffffff" />
<path
   style="fill:#ffffff;fill-opacity:1"
   id="path2"
   d="M 8.66603,8.6641222 C 3.05103,14.276122 -0.06797002,21.907122 0.00202998,29.842122 l 0.845,95.877998 c 0.068,7.755 3.18000002,15.172 8.66400002,20.656 l 164.961,164.96 c 11.549,11.552 30.279,11.552 41.832,0 l 95.02899,-95.031 c 11.555,-11.552 11.555,-30.281 0,-41.834 L 146.37603,9.5101222 c -5.486,-5.483 -12.902,-8.59399998 -20.658,-8.66199998 l -95.877,-0.847 c -7.933,-0.07 -15.566,3.05199998 -21.175,8.66299998 z m 105.101,57.2969998 c 13.207,13.203 13.205,34.607998 0.002,47.810998 -13.199,13.202 -34.604,13.202 -47.811,-0.001 -13.199,-13.203 -13.197,-34.606998 0,-47.809998 13.206,-13.202 34.61,-13.203 47.809,0 z" />
<g
   id="g4">
</g>
<g
   id="g6">
</g>
<g
   id="g8">
</g>
<g
   id="g10">
</g>
<g
   id="g12">
</g>
<g
   id="g14">
</g>
<g
   id="g16">
</g>
<g
   id="g18">
</g>
<g
   id="g20">
</g>
<g
   id="g22">
</g>
<g
   id="g24">
</g>
<g
   id="g26">
</g>
<g
   id="g28">
</g>
<g
   id="g30">
</g>
<g
   id="g32">
</g>
</svg>
