<?xml version="1.0" encoding="UTF-8" standalone="no"?>
<!-- Generator: Adobe Illustrator 19.0.0, SVG Export Plug-In . SVG Version: 6.00 Build 0)  -->

<svg
   xmlns:dc="http://purl.org/dc/elements/1.1/"
   xmlns:cc="http://creativecommons.org/ns#"
   xmlns:rdf="http://www.w3.org/1999/02/22-rdf-syntax-ns#"
   xmlns:svg="http://www.w3.org/2000/svg"
   xmlns="http://www.w3.org/2000/svg"
   xmlns:sodipodi="http://sodipodi.sourceforge.net/DTD/sodipodi-0.dtd"
   xmlns:inkscape="http://www.inkscape.org/namespaces/inkscape"
   version="1.1"
   id="Capa_1"
   x="0px"
   y="0px"
   viewBox="0 0 51.012 51.012"
   style="enable-background:new 0 0 51.012 51.012;"
   xml:space="preserve"
   sodipodi:docname="push-pin.svg"
   inkscape:version="0.92.4 5da689c313, 2019-01-14"><metadata
   id="metadata43"><rdf:RDF><cc:Work
       rdf:about=""><dc:format>image/svg+xml</dc:format><dc:type
         rdf:resource="http://purl.org/dc/dcmitype/StillImage" /></cc:Work></rdf:RDF></metadata><defs
   id="defs41" /><sodipodi:namedview
   pagecolor="#ffffff"
   bordercolor="#666666"
   borderopacity="1"
   objecttolerance="10"
   gridtolerance="10"
   guidetolerance="10"
   inkscape:pageopacity="0"
   inkscape:pageshadow="2"
   inkscape:window-width="1920"
   inkscape:window-height="1143"
   id="namedview39"
   showgrid="false"
   inkscape:zoom="13.085329"
   inkscape:cx="30.232037"
   inkscape:cy="19.178926"
   inkscape:window-x="0"
   inkscape:window-y="28"
   inkscape:window-maximized="1"
   inkscape:current-layer="Capa_1" />
<line
   style="fill:none;stroke:#31363b;stroke-width:2;stroke-linecap:round;stroke-linejoin:round;stroke-miterlimit:10;stroke-opacity:1"
   x1="35.729"
   y1="35.734"
   x2="50.006"
   y2="50.012"
   id="line2" />
<path
   style="fill:#EFCE4A;"
   d="M35,36.463L20.452,51.012c-3.585-9.003,0.535-18.15,0.535-18.15L7.527,17.039  c0,0-4.386,0.704-7.522-1.785L15.26,0c0,0,2.508,3.117,1.768,7.607l15.785,13.43c0,0,8.493-4.385,18.15-0.537L35,36.463z"
   id="path4" />
<path
   style="fill:#EBBA16;"
   d="M20.987,32.861c0,0-0.036,0.084-0.086,0.205L33.037,20.93c-0.133,0.062-0.225,0.107-0.225,0.107  L17.079,7.651l-9.476,9.476L20.987,32.861z"
   id="path6" />
<g
   id="g8">
</g>
<g
   id="g10">
</g>
<g
   id="g12">
</g>
<g
   id="g14">
</g>
<g
   id="g16">
</g>
<g
   id="g18">
</g>
<g
   id="g20">
</g>
<g
   id="g22">
</g>
<g
   id="g24">
</g>
<g
   id="g26">
</g>
<g
   id="g28">
</g>
<g
   id="g30">
</g>
<g
   id="g32">
</g>
<g
   id="g34">
</g>
<g
   id="g36">
</g>
</svg>