<?xml version="1.0" encoding="UTF-8" standalone="no"?>
<!-- Generator: Adobe Illustrator 18.1.1, SVG Export Plug-In . SVG Version: 6.00 Build 0)  -->

<svg
   version="1.1"
   id="Capa_1"
   x="0px"
   y="0px"
   viewBox="0 0 259.731 259.731"
   style="enable-background:new 0 0 259.731 259.731;"
   xml:space="preserve"
   sodipodi:docname="salt-box.svg"
   inkscape:version="1.1 (c4e8f9ed74, 2021-05-24)"
   xmlns:inkscape="http://www.inkscape.org/namespaces/inkscape"
   xmlns:sodipodi="http://sodipodi.sourceforge.net/DTD/sodipodi-0.dtd"
   xmlns="http://www.w3.org/2000/svg"
   xmlns:svg="http://www.w3.org/2000/svg"><defs
   id="defs51" /><sodipodi:namedview
   id="namedview49"
   pagecolor="#ffffff"
   bordercolor="#666666"
   borderopacity="1.0"
   inkscape:pageshadow="2"
   inkscape:pageopacity="0.0"
   inkscape:pagecheckerboard="0"
   showgrid="false"
   inkscape:zoom="2.6527447"
   inkscape:cx="129.86549"
   inkscape:cy="129.86549"
   inkscape:window-width="1920"
   inkscape:window-height="1139"
   inkscape:window-x="0"
   inkscape:window-y="32"
   inkscape:window-maximized="1"
   inkscape:current-layer="Capa_1" />
<g
   id="g16"
   transform="matrix(-1,0,0,1,259.732,0)"
   style="fill:#4e0009;fill-opacity:1">
	<path
   style="fill:#4e0009;fill-opacity:1"
   d="M 183.365,117.719 111.652,4.132 c -3.597,-5.408 -8.238,-5.326 -13.11,-0.814 L 24.374,69.203 c -4.898,4.425 -4.418,9.56 -0.113,13.364 l 103.344,86.164 v 0 c 6.125,4.621 11.692,4.115 16.106,0.264 l 39.473,-36.468 c 4.44,-4.088 4.295,-8.125 0.181,-14.808 z m -15.395,6.642 -31.115,28.753 c -3.49,3.037 -7.874,3.434 -12.715,-0.2 L 42.658,84.96 C 39.256,81.959 38.873,77.906 42.74,74.426 l 58.488,-51.96 c 3.841,-3.557 7.497,-3.629 10.333,0.645 l 56.559,89.566 c 3.236,5.28 3.355,8.461 -0.15,11.684 z"
   id="path2" />
	<path
   style="fill:#4e0009;fill-opacity:1"
   d="m 190.507,135.975 -43.984,40.566 c 22.484,16.637 60.75,-14.967 43.984,-40.566 z m -21.959,42.705 c -1.64,0 -2.97,-1.33 -2.97,-2.969 0,-1.639 1.33,-2.971 2.97,-2.971 1.639,0 2.971,1.332 2.971,2.971 0,1.639 -1.333,2.969 -2.971,2.969 z m 12.786,-8.439 c -1.64,0 -2.97,-1.33 -2.97,-2.97 0,-1.64 1.33,-2.97 2.97,-2.97 1.64,0 2.97,1.33 2.97,2.97 0,1.64 -1.331,2.97 -2.97,2.97 z m 8.244,-12.611 c -1.64,0 -2.97,-1.33 -2.97,-2.969 0,-1.641 1.33,-2.971 2.97,-2.971 1.64,0 2.97,1.33 2.97,2.971 0,1.639 -1.33,2.969 -2.97,2.969 z"
   id="path4" />
	<circle
   style="fill:#4e0009;fill-opacity:1"
   cx="202.854"
   cy="183.338"
   r="6.5479999"
   id="circle6" />
	<circle
   style="fill:#4e0009;fill-opacity:1"
   cx="194.125"
   cy="209.52901"
   r="6.5479999"
   id="circle8" />
	<circle
   style="fill:#4e0009;fill-opacity:1"
   cx="211.582"
   cy="218.263"
   r="6.5479999"
   id="circle10" />
	<circle
   style="fill:#4e0009;fill-opacity:1"
   cx="208.30901"
   cy="240.088"
   r="6.5479999"
   id="circle12" />
	<circle
   style="fill:#4e0009;fill-opacity:1"
   cx="232.319"
   cy="253.183"
   r="6.5479999"
   id="circle14" />
</g>
<g
   id="g18">
</g>
<g
   id="g20">
</g>
<g
   id="g22">
</g>
<g
   id="g24">
</g>
<g
   id="g26">
</g>
<g
   id="g28">
</g>
<g
   id="g30">
</g>
<g
   id="g32">
</g>
<g
   id="g34">
</g>
<g
   id="g36">
</g>
<g
   id="g38">
</g>
<g
   id="g40">
</g>
<g
   id="g42">
</g>
<g
   id="g44">
</g>
<g
   id="g46">
</g>
</svg>
