<?xml version="1.0" encoding="UTF-8" standalone="no"?><svg xmlns="http://www.w3.org/2000/svg" xmlns:xlink="http://www.w3.org/1999/xlink" contentScriptType="application/ecmascript" contentStyleType="text/css" height="643px" preserveAspectRatio="none" style="width:937px;height:643px;background:#FFFFFF;" version="1.1" viewBox="0 0 937 643" width="937px" zoomAndPan="magnify"><defs><filter height="300%" id="fnpf6uuw1u9ym" width="300%" x="-1" y="-1"><feGaussianBlur result="blurOut" stdDeviation="2.0"/><feColorMatrix in="blurOut" result="blurOut2" type="matrix" values="0 0 0 0 0 0 0 0 0 0 0 0 0 0 0 0 0 0 .4 0"/><feOffset dx="4.0" dy="4.0" in="blurOut2" result="blurOut3"/><feBlend in="SourceGraphic" in2="blurOut3" mode="normal"/></filter></defs><g><!--MD5=[09fd8552ab48c65ddc70dbeb1978b198]
cluster network--><polygon fill="#D3D3D3" filter="url(#fnpf6uuw1u9ym)" points="16,117,88,117,95,139.2969,419,139.2969,419,499,16,499,16,117" style="stroke:#000000;stroke-width:1.5;"/><line style="stroke:#000000;stroke-width:1.5;" x1="16" x2="95" y1="139.2969" y2="139.2969"/><text fill="#000000" font-family="sans-serif" font-size="14" font-weight="bold" lengthAdjust="spacing" textLength="66" x="20" y="131.9951">network</text><!--MD5=[72fae8e1779ba7dedab19f6352fd74e8]
cluster parser--><polygon fill="#D3D3D3" filter="url(#fnpf6uuw1u9ym)" points="443,396,500,396,507,418.2969,553,418.2969,553,636,443,636,443,396" style="stroke:#000000;stroke-width:1.5;"/><line style="stroke:#000000;stroke-width:1.5;" x1="443" x2="507" y1="418.2969" y2="418.2969"/><text fill="#000000" font-family="sans-serif" font-size="14" font-weight="bold" lengthAdjust="spacing" textLength="51" x="447" y="410.9951">parser</text><!--MD5=[42603eecb267091c13893a16d8c379fb]
cluster player--><polygon fill="#D3D3D3" filter="url(#fnpf6uuw1u9ym)" points="605,117,661,117,668,139.2969,920,139.2969,920,493,605,493,605,117" style="stroke:#000000;stroke-width:1.5;"/><line style="stroke:#000000;stroke-width:1.5;" x1="605" x2="668" y1="139.2969" y2="139.2969"/><text fill="#000000" font-family="sans-serif" font-size="14" font-weight="bold" lengthAdjust="spacing" textLength="50" x="609" y="131.9951">player</text><!--MD5=[8f1922df71fbb09ba3d52e2bfb881e20]
entity RadioBrowserAPI--><ellipse cx="153" cy="454" fill="#FEFECE" filter="url(#fnpf6uuw1u9ym)" rx="8" ry="8" style="stroke:#A80036;stroke-width:1.5;"/><text fill="#000000" font-family="sans-serif" font-size="14" lengthAdjust="spacing" textLength="162" x="72" y="483.9951">Radio Browser web API</text><!--MD5=[20c02266008734f6b11ee8d2a8d8125e]
entity OpenSSL--><ellipse cx="82" cy="304" fill="#FEFECE" filter="url(#fnpf6uuw1u9ym)" rx="8" ry="8" style="stroke:#A80036;stroke-width:1.5;"/><text fill="#000000" font-family="sans-serif" font-size="14" lengthAdjust="spacing" textLength="85" x="39.5" y="333.9951">OpenSSL lib</text><!--MD5=[51782615dfdad16f2399c2381172b8c9]
entity Sockets--><ellipse cx="213" cy="304" fill="#FEFECE" filter="url(#fnpf6uuw1u9ym)" rx="8" ry="8" style="stroke:#A80036;stroke-width:1.5;"/><text fill="#000000" font-family="sans-serif" font-size="14" lengthAdjust="spacing" textLength="76" x="175" y="333.9951">Sockets lib</text><!--MD5=[ba38d564a2fd195e0495449e7e39a4e4]
entity NetworkUtils--><rect fill="#FEFECE" filter="url(#fnpf6uuw1u9ym)" height="46.2969" style="stroke:#A80036;stroke-width:1.5;" width="128" x="32" y="152"/><rect fill="#FEFECE" height="10" style="stroke:#A80036;stroke-width:1.5;" width="15" x="140" y="157"/><rect fill="#FEFECE" height="2" style="stroke:#A80036;stroke-width:1.5;" width="4" x="138" y="159"/><rect fill="#FEFECE" height="2" style="stroke:#A80036;stroke-width:1.5;" width="4" x="138" y="163"/><text fill="#000000" font-family="sans-serif" font-size="14" lengthAdjust="spacing" textLength="88" x="47" y="184.9951">NetworkUtils</text><!--MD5=[073a9e5508879681648fac7d34324bbc]
entity RadioBrowser--><rect fill="#FEFECE" filter="url(#fnpf6uuw1u9ym)" height="46.2969" style="stroke:#A80036;stroke-width:1.5;" width="139" x="263.5" y="152"/><rect fill="#FEFECE" height="10" style="stroke:#A80036;stroke-width:1.5;" width="15" x="382.5" y="157"/><rect fill="#FEFECE" height="2" style="stroke:#A80036;stroke-width:1.5;" width="4" x="380.5" y="159"/><rect fill="#FEFECE" height="2" style="stroke:#A80036;stroke-width:1.5;" width="4" x="380.5" y="163"/><text fill="#000000" font-family="sans-serif" font-size="14" lengthAdjust="spacing" textLength="99" x="278.5" y="184.9951">RadioBrowser</text><!--MD5=[c470d76c68afda2f5e9525cd4f85a320]
entity JSON--><rect fill="#FEFECE" filter="url(#fnpf6uuw1u9ym)" height="46.2969" style="stroke:#A80036;stroke-width:1.5;" width="74" x="460" y="431"/><rect fill="#FEFECE" height="10" style="stroke:#A80036;stroke-width:1.5;" width="15" x="514" y="436"/><rect fill="#FEFECE" height="2" style="stroke:#A80036;stroke-width:1.5;" width="4" x="512" y="438"/><rect fill="#FEFECE" height="2" style="stroke:#A80036;stroke-width:1.5;" width="4" x="512" y="442"/><text fill="#000000" font-family="sans-serif" font-size="14" lengthAdjust="spacing" textLength="34" x="475" y="463.9951">JSON</text><!--MD5=[0fb6fadc8d75350ee1ddc6f79f12dccb]
entity JSONlib--><ellipse cx="498" cy="591" fill="#FEFECE" filter="url(#fnpf6uuw1u9ym)" rx="8" ry="8" style="stroke:#A80036;stroke-width:1.5;"/><text fill="#000000" font-family="sans-serif" font-size="14" lengthAdjust="spacing" textLength="63" x="466.5" y="620.9951">json-c lib</text><!--MD5=[e8907a2785b2ea9784e1231cc1aa4a14]
entity RadioPlayer--><rect fill="#FEFECE" filter="url(#fnpf6uuw1u9ym)" height="46.2969" style="stroke:#A80036;stroke-width:1.5;" width="125" x="621.5" y="152"/><rect fill="#FEFECE" height="10" style="stroke:#A80036;stroke-width:1.5;" width="15" x="726.5" y="157"/><rect fill="#FEFECE" height="2" style="stroke:#A80036;stroke-width:1.5;" width="4" x="724.5" y="159"/><rect fill="#FEFECE" height="2" style="stroke:#A80036;stroke-width:1.5;" width="4" x="724.5" y="163"/><text fill="#000000" font-family="sans-serif" font-size="14" lengthAdjust="spacing" textLength="85" x="636.5" y="184.9951">RadioPlayer</text><!--MD5=[ea7232234d7e06393d4815c65d0eaa7d]
entity SDL--><rect fill="#FEFECE" filter="url(#fnpf6uuw1u9ym)" height="46.2969" style="stroke:#A80036;stroke-width:1.5;" width="68" x="667" y="431"/><rect fill="#FEFECE" height="10" style="stroke:#A80036;stroke-width:1.5;" width="15" x="715" y="436"/><rect fill="#FEFECE" height="2" style="stroke:#A80036;stroke-width:1.5;" width="4" x="713" y="438"/><rect fill="#FEFECE" height="2" style="stroke:#A80036;stroke-width:1.5;" width="4" x="713" y="442"/><text fill="#000000" font-family="sans-serif" font-size="14" lengthAdjust="spacing" textLength="28" x="682" y="463.9951">SDL</text><!--MD5=[0015618b095ddb59eb88a6c6643322a2]
entity iAudioOut--><ellipse cx="829" cy="304" fill="#FEFECE" filter="url(#fnpf6uuw1u9ym)" rx="8" ry="8" style="stroke:#A80036;stroke-width:1.5;"/><text fill="#000000" font-family="sans-serif" font-size="14" lengthAdjust="spacing" textLength="134" x="762" y="333.9951">AudioOut interface</text><!--MD5=[18ed41bc3c380f16b51f00d3688aa4e9]
entity RadioStream--><ellipse cx="684" cy="38.5" fill="#000000" filter="url(#fnpf6uuw1u9ym)" rx="8" ry="8" style="stroke:#000000;stroke-width:1.5;"/><text fill="#000000" font-family="sans-serif" font-size="14" lengthAdjust="spacing" textLength="97" x="635.5" y="68.4951">Radio Stream</text><!--MD5=[55ead11f279d43a49df83e73bfcb0783]
entity out--><ellipse cx="701" cy="591" fill="#000000" filter="url(#fnpf6uuw1u9ym)" rx="8" ry="8" style="stroke:#000000;stroke-width:1.5;"/><text fill="#000000" font-family="sans-serif" font-size="14" lengthAdjust="spacing" textLength="72" x="665" y="620.9951">Sound out</text><!--MD5=[f855680bc6c989572ebb25245d27968d]
entity Controller--><rect fill="#FFD700" filter="url(#fnpf6uuw1u9ym)" height="62.5938" style="stroke:#000000;stroke-width:1.5;" width="86" x="453" y="7"/><rect fill="#FFD700" height="10" style="stroke:#000000;stroke-width:1.5;" width="15" x="519" y="12"/><rect fill="#FFD700" height="2" style="stroke:#000000;stroke-width:1.5;" width="4" x="517" y="14"/><rect fill="#FFD700" height="2" style="stroke:#000000;stroke-width:1.5;" width="4" x="517" y="18"/><text fill="#000000" font-family="sans-serif" font-size="14" lengthAdjust="spacing" textLength="44" x="468" y="39.9951">Driver</text><text fill="#000000" font-family="sans-serif" font-size="14" lengthAdjust="spacing" textLength="46" x="468" y="56.292">(main)</text><!--MD5=[9e05e4c3119957e39407ec8cf3470092]
link NetworkUtils to OpenSSL--><path d="M93.56,198.12 C90.85,222.68 86.53,261.87 84.01,284.75 " fill="none" id="NetworkUtils-to-OpenSSL" style="stroke:#A80036;stroke-width:1.0;"/><path d="M91.6444,292.6705 A9,9 0 0 0 74.8325 290.8105" style="stroke:#A80036;stroke-width:1.5;fill:none;"/><text fill="#000000" font-family="sans-serif" font-size="13" lengthAdjust="spacing" textLength="30" x="92" y="241.0669">uses</text><!--MD5=[bbe6011ac59770313a482dcf3c0a5a5b]
link NetworkUtils to Sockets--><path d="M116.38,198.12 C139.83,223.58 177.77,264.76 198.44,287.19 " fill="none" id="NetworkUtils-to-Sockets" style="stroke:#A80036;stroke-width:1.0;"/><path d="M209.5882,286.8078 A9,9 0 0 0 197.1427 298.2624" style="stroke:#A80036;stroke-width:1.5;fill:none;"/><text fill="#000000" font-family="sans-serif" font-size="13" lengthAdjust="spacing" textLength="30" x="160" y="241.0669">uses</text><!--MD5=[94d1e51203bc945521d65a1b39d4857c]
link OpenSSL to RadioBrowserAPI--><path d="M86.02,313.38 C97.83,338.01 132.5,410.27 146.76,440 " fill="none" id="OpenSSL-to-RadioBrowserAPI" style="stroke:#A80036;stroke-width:1.0;stroke-dasharray:7.0,7.0;"/><polygon fill="#A80036" points="149.02,444.71,148.7487,434.8649,146.8642,440.1986,141.5305,438.3141,149.02,444.71" style="stroke:#A80036;stroke-width:1.0;"/><text fill="#000000" font-family="sans-serif" font-size="13" lengthAdjust="spacing" textLength="33" x="119" y="376.0669">https</text><!--MD5=[49be97cfc9d0fd8f20eab8cabb02668e]
link Sockets to RadioBrowserAPI--><path d="M209.6,313.38 C199.62,338.01 170.32,410.27 158.27,440 " fill="none" id="Sockets-to-RadioBrowserAPI" style="stroke:#A80036;stroke-width:1.0;stroke-dasharray:7.0,7.0;"/><polygon fill="#A80036" points="156.36,444.71,163.4419,437.8656,158.2342,440.0746,156.0252,434.8668,156.36,444.71" style="stroke:#A80036;stroke-width:1.0;"/><text fill="#000000" font-family="sans-serif" font-size="13" lengthAdjust="spacing" textLength="53" x="190" y="376.0669">http/dns</text><!--MD5=[ad389495de935a78c223c443c6802e65]
reverse link NetworkUtils to RadioBrowser--><path d="M145.19,150.05 C155.53,145.89 166.55,142.21 177.25,140 C207.28,133.81 216.15,134.16 246.25,140 C259.32,142.54 272.92,147.04 285.37,151.99 " fill="none" id="NetworkUtils-backto-RadioBrowser" style="stroke:#A80036;stroke-width:1.0;"/><polygon fill="#A80036" points="140.49,152,150.3358,152.2459,145.1083,150.084,147.2702,144.8566,140.49,152" style="stroke:#A80036;stroke-width:1.0;"/><!--MD5=[ad389495de935a78c223c443c6802e65]
reverse link NetworkUtils to RadioBrowser--><path d="M165.19,191.14 C174.25,192.73 183.44,194.09 192.25,195 C215.45,197.39 240.7,195.28 263.33,191.68 " fill="none" id="NetworkUtils-backto-RadioBrowser-1" style="stroke:#000000;stroke-width:1.0;stroke-dasharray:7.0,7.0;"/><polygon fill="#000000" points="160.17,190.23,168.3206,195.7588,165.0912,191.1144,169.7356,187.885,160.17,190.23" style="stroke:#000000;stroke-width:1.0;"/><text fill="#000000" font-family="sans-serif" font-size="13" lengthAdjust="spacing" textLength="37" x="193.25" y="191.0669">query</text><!--MD5=[3886d9932d035bec6863d22b9ee6cdc9]
link NetworkUtils to RadioBrowser--><path d="M160.14,175 C190.45,175 226.84,175 258.38,175 " fill="none" id="NetworkUtils-to-RadioBrowser" style="stroke:#000000;stroke-width:1.0;stroke-dasharray:7.0,7.0;"/><polygon fill="#000000" points="263.4,175,254.4115,170.9743,258.4,174.9857,254.3886,178.9743,263.4,175" style="stroke:#000000;stroke-width:1.0;"/><text fill="#000000" font-family="sans-serif" font-size="13" lengthAdjust="spacing" textLength="37" x="193.25" y="153.0669">string</text><text fill="#000000" font-family="sans-serif" font-size="13" lengthAdjust="spacing" textLength="67" x="178.25" y="168.1997">(raw data)</text><!--MD5=[04ca7a5c302d22fe3d3e2f4ae06177f0]
link JSON to JSONlib--><path d="M497.17,477.29 C497.36,503.67 497.68,547.09 497.86,571.63 " fill="none" id="JSON-to-JSONlib" style="stroke:#A80036;stroke-width:1.0;"/><path d="M506.3705,578.5694 A9,9 0 0 0 489.4567 578.7144" style="stroke:#A80036;stroke-width:1.5;fill:none;"/><text fill="#000000" font-family="sans-serif" font-size="13" lengthAdjust="spacing" textLength="30" x="498" y="528.0669">uses</text><!--MD5=[c913f57a5a23e448c1f57e842e97dd3f]
link RadioBrowser to JSON--><path d="M329.62,198.16 C324.49,240.98 320.39,334.86 374,380 C389.54,393.08 400.58,379.43 419,388 C439.16,397.38 458.39,413.29 472.71,427.03 " fill="none" id="RadioBrowser-to-JSON" style="stroke:#A80036;stroke-width:1.0;"/><polygon fill="#A80036" points="476.62,430.84,472.9731,421.6912,473.0418,427.3477,467.3854,427.4164,476.62,430.84" style="stroke:#A80036;stroke-width:1.0;"/><!--MD5=[c913f57a5a23e448c1f57e842e97dd3f]
link RadioBrowser to JSON--><path d="M346.14,198.2 C376.01,248.65 448.89,371.75 481.17,426.26 " fill="none" id="RadioBrowser-to-JSON-1" style="stroke:#000000;stroke-width:1.0;stroke-dasharray:7.0,7.0;"/><polygon fill="#000000" points="483.79,430.69,482.6519,420.9071,481.2449,426.3862,475.7658,424.9793,483.79,430.69" style="stroke:#000000;stroke-width:1.0;"/><text fill="#000000" font-family="sans-serif" font-size="13" lengthAdjust="spacing" textLength="37" x="441" y="301.0669">string</text><text fill="#000000" font-family="sans-serif" font-size="13" lengthAdjust="spacing" textLength="67" x="426" y="316.1997">(raw data)</text><!--MD5=[dd01fb20286066b80ec0793f65297027]
reverse link RadioBrowser to JSON--><path d="M406.86,200.15 C441.66,215.67 479.88,239.69 500,275 C528.3,324.68 514.13,395.52 504.1,430.98 " fill="none" id="RadioBrowser-backto-JSON" style="stroke:#000000;stroke-width:1.0;stroke-dasharray:7.0,7.0;"/><polygon fill="#000000" points="402.19,198.11,408.8214,205.3918,406.7678,200.1208,412.0388,198.0672,402.19,198.11" style="stroke:#000000;stroke-width:1.0;"/><text fill="#000000" font-family="sans-serif" font-size="13" lengthAdjust="spacing" textLength="45" x="516" y="308.5669">DTO(s)</text><!--MD5=[77fc73022587df38fd9c9577d98809c4]
link iAudioOut to SDL--><path d="M821.75,313.38 C802.4,335.76 749.01,397.49 720.13,430.88 " fill="none" id="iAudioOut-SDL" style="stroke:#A80036;stroke-width:1.0;"/><!--MD5=[d824fa6e977ef5b8837aacf1ad844209]
link RadioPlayer to iAudioOut--><path d="M709.26,198.12 C738.85,224.04 787.06,266.26 812.33,288.4 " fill="none" id="RadioPlayer-to-iAudioOut" style="stroke:#A80036;stroke-width:1.0;"/><path d="M823.2114,286.6978 A9,9 0 0 0 812.0749 299.4288" style="stroke:#A80036;stroke-width:1.5;fill:none;"/><!--MD5=[eadcacca0db42609150eb313f80da4bc]
link RadioPlayer to SDL--><path d="M681.09,198.36 C678.64,218.4 675.33,248.6 674,275 C672.7,300.75 671.15,307.38 674,333 C677.59,365.3 686.45,401.6 693.05,425.73 " fill="none" id="RadioPlayer-to-SDL" style="stroke:#000000;stroke-width:1.0;stroke-dasharray:7.0,7.0;"/><polygon fill="#000000" points="694.42,430.69,695.8891,420.9513,693.0936,425.8692,688.1757,423.0736,694.42,430.69" style="stroke:#000000;stroke-width:1.0;"/><text fill="#000000" font-family="sans-serif" font-size="13" lengthAdjust="spacing" textLength="61" x="675" y="308.5669">PCM data</text><!--MD5=[cfb6983f70c483fc84e54921e9c5304d]
link Controller to RadioBrowser--><path d="M459.01,70.02 C430.19,93.81 390.64,126.44 363.58,148.76 " fill="none" id="Controller-to-RadioBrowser" style="stroke:#A80036;stroke-width:1.0;"/><polygon fill="#A80036" points="359.69,151.98,369.1764,149.3328,363.5451,148.796,364.082,143.1646,359.69,151.98" style="stroke:#A80036;stroke-width:1.0;"/><!--MD5=[30e46fa21d3c4462bba3a0b10c513127]
link Controller to RadioPlayer--><path d="M538.66,70.02 C572.05,93.9 617.89,126.71 649.11,149.04 " fill="none" id="Controller-to-RadioPlayer" style="stroke:#A80036;stroke-width:1.0;"/><polygon fill="#A80036" points="653.22,151.98,648.2242,143.4923,649.1523,149.0725,643.5721,150.0006,653.22,151.98" style="stroke:#A80036;stroke-width:1.0;"/><!--MD5=[4c48c7a80f4ee758b61d0de0572adb5e]
link RadioBrowser to RadioPlayer--><path d="M402.77,175 C464.8,175 554.93,175 616.32,175 " fill="none" id="RadioBrowser-to-RadioPlayer" style="stroke:#000000;stroke-width:1.0;stroke-dasharray:7.0,7.0;"/><polygon fill="#000000" points="621.43,175,612.43,171,616.43,175,612.43,179,621.43,175" style="stroke:#000000;stroke-width:1.0;"/><text fill="#000000" font-family="sans-serif" font-size="13" lengthAdjust="spacing" textLength="45" x="489.5" y="191.0669">DTO(s)</text><text fill="#000000" font-family="sans-serif" font-size="13" lengthAdjust="spacing" textLength="92" x="466" y="206.1997">(radio station)</text><!--MD5=[a36c77bd0f52f26392d247897d4ec3c6]
link RadioStream to RadioPlayer--><path d="M684,47.51 C684,66.6 684,115.48 684,146.58 " fill="none" id="RadioStream-to-RadioPlayer" style="stroke:#000000;stroke-width:1.0;stroke-dasharray:7.0,7.0;"/><polygon fill="#000000" points="684,151.79,688,142.79,684,146.79,680,142.79,684,151.79" style="stroke:#000000;stroke-width:1.0;"/><!--MD5=[3949feb81c00c211d641f96dd760c895]
link SDL to out--><path d="M701,477.29 C701,505.58 701,553.47 701,576.65 " fill="none" id="SDL-to-out" style="stroke:#000000;stroke-width:1.0;stroke-dasharray:7.0,7.0;"/><polygon fill="#000000" points="701,581.72,705,572.72,701,576.72,697,572.72,701,581.72" style="stroke:#000000;stroke-width:1.0;"/><!--MD5=[597925474c7656681933b7c5063bd73d]
@startuml
'https://plantuml.com/component-diagram

interface "Radio Stream" as RadioStream #back:black;line:black
interface "Sound out" as out #back:black;line:black

component "Driver\n(main)" as Controller #back:gold;line:black

package network #lightgrey {
    interface "Radio Browser API" as RadioBrowserAPI
    interface "Radio Browser web API" as RadioBrowserAPI
    interface "OpenSSL lib"           as OpenSSL
    interface "Sockets lib"           as Sockets
    component NetworkUtils
    component RadioBrowser

    NetworkUtils - -( OpenSSL : "uses"
    NetworkUtils - -( Sockets : "uses"
    OpenSSL      ..> RadioBrowserAPI : https
    Sockets      ..> RadioBrowserAPI : http/dns

    RadioBrowser -left-> NetworkUtils
    NetworkUtils <.[#black]right. RadioBrowser : query
    NetworkUtils .[#black]right.> RadioBrowser : string\n(raw data)
}

package parser #lightgrey {
    component JSON
    interface JSONlib as "json-c lib"

    JSON - -( JSONlib : uses
}

RadioBrowser - ->              JSON
RadioBrowser .[#black]down.>  JSON : string\n(raw data)
JSON         .[#black]up..>   RadioBrowser : DTO(s)

package player #lightgrey {
    component RadioPlayer
    component SDL
    interface "AudioOut interface" as iAudioOut

    iAudioOut - - SDL
    RadioPlayer - -( iAudioOut
    RadioPlayer .[#black]right.> SDL : PCM data
}

Controller -down-> RadioBrowser
Controller -down-> RadioPlayer

RadioBrowser .[#black]right.> RadioPlayer : DTO(s)\n(radio station)

RadioStream .[#black].> RadioPlayer
SDL .[#black].> out

@enduml

@startuml

interface "Radio Stream" as RadioStream #back:black;line:black
interface "Sound out" as out #back:black;line:black

component "Driver\n(main)" as Controller #back:gold;line:black

package network #lightgrey {
    interface "Radio Browser API" as RadioBrowserAPI
    interface "Radio Browser web API" as RadioBrowserAPI
    interface "OpenSSL lib"           as OpenSSL
    interface "Sockets lib"           as Sockets
    component NetworkUtils
    component RadioBrowser

    NetworkUtils - -( OpenSSL : "uses"
    NetworkUtils - -( Sockets : "uses"
    OpenSSL      ..> RadioBrowserAPI : https
    Sockets      ..> RadioBrowserAPI : http/dns

    RadioBrowser -left-> NetworkUtils
    NetworkUtils <.[#black]right. RadioBrowser : query
    NetworkUtils .[#black]right.> RadioBrowser : string\n(raw data)
}

package parser #lightgrey {
    component JSON
    interface JSONlib as "json-c lib"

    JSON - -( JSONlib : uses
}

RadioBrowser - ->              JSON
RadioBrowser .[#black]down.>  JSON : string\n(raw data)
JSON         .[#black]up..>   RadioBrowser : DTO(s)

package player #lightgrey {
    component RadioPlayer
    component SDL
    interface "AudioOut interface" as iAudioOut

    iAudioOut - - SDL
    RadioPlayer - -( iAudioOut
    RadioPlayer .[#black]right.> SDL : PCM data
}

Controller -down-> RadioBrowser
Controller -down-> RadioPlayer

RadioBrowser .[#black]right.> RadioPlayer : DTO(s)\n(radio station)

RadioStream .[#black].> RadioPlayer
SDL .[#black].> out

@enduml

PlantUML version 1.2021.7(Sun May 23 14:40:07 CEST 2021)
(GPL source distribution)
Java Runtime: OpenJDK Runtime Environment
JVM: Dynamic Code Evolution 64-Bit Server VM
Default Encoding: UTF-8
Language: en
Country: GB
--></g></svg>