<?xml version="1.0" encoding="UTF-8" standalone="no"?>
<svg
   xmlns:dc="http://purl.org/dc/elements/1.1/"
   xmlns:cc="http://creativecommons.org/ns#"
   xmlns:rdf="http://www.w3.org/1999/02/22-rdf-syntax-ns#"
   xmlns:svg="http://www.w3.org/2000/svg"
   xmlns="http://www.w3.org/2000/svg"
   xml:space="preserve"
   style="enable-background:new 0 0 413.137 413.137;"
   viewBox="0 0 413.137 413.137"
   y="0px"
   x="0px"
   id="Layer_1"
   version="1.1"><metadata
   id="metadata47"><rdf:RDF><cc:Work
       rdf:about=""><dc:format>image/svg+xml</dc:format><dc:type
         rdf:resource="http://purl.org/dc/dcmitype/StillImage" /><dc:title></dc:title></cc:Work></rdf:RDF></metadata><defs
   id="defs45" />
<g
   id="g10">
	<path
   id="path2"
   d="M311.358,136.395H101.779c-4.662,0-8.441,3.779-8.441,8.441v175.749   c0,4.662,3.779,8.441,8.441,8.441h37.363v59.228c0,13.742,11.14,24.883,24.883,24.883l0,0c13.742,0,24.883-11.14,24.883-24.883   v-59.228h34.803v59.228c0,13.742,11.14,24.883,24.883,24.883l0,0c13.742,0,24.883-11.14,24.883-24.883v-59.228h37.882   c4.662,0,8.441-3.779,8.441-8.441V144.836C319.799,140.174,316.02,136.395,311.358,136.395z"
   style="fill:#AAC148;" />
	<path
   id="path4"
   d="M57.856,136.354L57.856,136.354c-13.742,0-24.883,11.14-24.883,24.883v101.065   c0,13.742,11.14,24.883,24.883,24.883l0,0c13.742,0,24.883-11.14,24.883-24.883V161.237   C82.738,147.495,71.598,136.354,57.856,136.354z"
   style="fill:#AAC148;" />
	<path
   id="path6"
   d="M355.281,136.354L355.281,136.354c-13.742,0-24.883,11.14-24.883,24.883v101.065   c0,13.742,11.14,24.883,24.883,24.883l0,0c13.742,0,24.883-11.14,24.883-24.883V161.237   C380.164,147.495,369.024,136.354,355.281,136.354z"
   style="fill:#AAC148;" />
	<path
   id="path8"
   d="M103.475,124.069h205.692c5.366,0,9.368-4.943,8.266-10.195   c-6.804-32.428-27.45-59.756-55.465-75.543l17.584-31.727c1.19-2.148,0.414-4.855-1.734-6.045   c-2.153-1.193-4.856-0.414-6.046,1.734l-17.717,31.966c-14.511-6.734-30.683-10.495-47.734-10.495   c-17.052,0-33.224,3.761-47.735,10.495L140.869,2.292c-1.191-2.149-3.898-2.924-6.045-1.734c-2.148,1.19-2.924,3.897-1.734,6.045   l17.584,31.727c-28.015,15.788-48.661,43.115-55.465,75.544C94.106,119.126,98.108,124.069,103.475,124.069z M267.697,76.786   c0,5.282-4.282,9.565-9.565,9.565c-5.282,0-9.565-4.282-9.565-9.565c0-5.282,4.282-9.565,9.565-9.565   C263.415,67.221,267.697,71.504,267.697,76.786z M154.508,67.221c5.282,0,9.565,4.282,9.565,9.565c0,5.282-4.282,9.565-9.565,9.565   c-5.282,0-9.565-4.282-9.565-9.565C144.943,71.504,149.225,67.221,154.508,67.221z"
   style="fill:#AAC148;" />
</g>
<g
   id="g12">
</g>
<g
   id="g14">
</g>
<g
   id="g16">
</g>
<g
   id="g18">
</g>
<g
   id="g20">
</g>
<g
   id="g22">
</g>
<g
   id="g24">
</g>
<g
   id="g26">
</g>
<g
   id="g28">
</g>
<g
   id="g30">
</g>
<g
   id="g32">
</g>
<g
   id="g34">
</g>
<g
   id="g36">
</g>
<g
   id="g38">
</g>
<g
   id="g40">
</g>
<rect
   y="124.92741"
   x="181.92647"
   height="15.898087"
   width="49.284069"
   id="rect4563"
   style="fill:#aac148;fill-opacity:0.98557691;stroke:none;stroke-opacity:0.98113236" /><path
   style="fill:#445500"
   d="m 254.5655,115.51282 h -95.995 c -4.418,0 -8,3.582 -8,8 0,4.418 3.582,8 8,8 h 12.998 v 17.497 c 0,19.299 15.701,35 35,35 19.299,0 35,-15.701 35,-35 v -17.497 h 12.998 c 4.418,0 8,-3.582 8,-8 0,-4.418 -3.583,-8 -8.001,-8 z m -28.998,33.497 c 0,10.477 -8.523,19 -19,19 -10.477,0 -19,-8.523 -19,-19 v -17.497 h 11 v 15.999 c 0,4.418 3.582,8 8,8 4.418,0 8,-3.582 8,-8 v -15.999 h 11 z"
   id="path6-3" /></svg>