<?xml version="1.0" encoding="UTF-8" standalone="no"?>
<!-- Created with Inkscape (http://www.inkscape.org/) -->

<svg
   xmlns:dc="http://purl.org/dc/elements/1.1/"
   xmlns:cc="http://creativecommons.org/ns#"
   xmlns:rdf="http://www.w3.org/1999/02/22-rdf-syntax-ns#"
   xmlns:svg="http://www.w3.org/2000/svg"
   xmlns="http://www.w3.org/2000/svg"
   xmlns:sodipodi="http://sodipodi.sourceforge.net/DTD/sodipodi-0.dtd"
   xmlns:inkscape="http://www.inkscape.org/namespaces/inkscape"
   width="53.975006mm"
   height="71.252747mm"
   viewBox="0 0 53.975006 71.252747"
   version="1.1"
   id="svg8"
   inkscape:version="0.92.2 5c3e80d, 2017-08-06"
   sodipodi:docname="avatar.svg">
  <defs
     id="defs2" />
  <sodipodi:namedview
     id="base"
     pagecolor="#ffffff"
     bordercolor="#666666"
     borderopacity="1.0"
     inkscape:pageopacity="0.0"
     inkscape:pageshadow="2"
     inkscape:zoom="1.979899"
     inkscape:cx="234.23703"
     inkscape:cy="93.124213"
     inkscape:document-units="mm"
     inkscape:current-layer="layer1"
     showgrid="false"
     inkscape:window-width="1920"
     inkscape:window-height="1143"
     inkscape:window-x="0"
     inkscape:window-y="28"
     inkscape:window-maximized="1"
     fit-margin-top="0"
     fit-margin-left="0"
     fit-margin-right="0"
     fit-margin-bottom="0" />
  <metadata
     id="metadata5">
    <rdf:RDF>
      <cc:Work
         rdf:about="">
        <dc:format>image/svg+xml</dc:format>
        <dc:type
           rdf:resource="http://purl.org/dc/dcmitype/StillImage" />
        <dc:title></dc:title>
      </cc:Work>
    </rdf:RDF>
  </metadata>
  <g
     inkscape:label="Layer 1"
     inkscape:groupmode="layer"
     id="layer1"
     transform="translate(-73.837643,-108.95473)">
    <path
       style="fill:#31363b;fill-opacity:1;stroke-width:0.26458338"
       d="m 76.132055,180.08491 c -0.09776,-0.0978 -0.177745,-2.53916 -0.177745,-5.42532 v -5.24756 h -1.058333 -1.058334 v -28.02986 -28.02988 l 0.992188,-0.0821 c 0.94076,-0.0779 0.999233,-0.13698 1.128115,-1.14046 0.09408,-0.73254 0.251728,-1.03293 0.512108,-0.97582 0.988053,0.21671 1.568356,-0.20786 1.651159,-1.20804 l 0.08206,-0.99114 h 22.621877 22.62186 l 0.13231,1.05834 c 0.1256,1.00492 0.17901,1.05895 1.05832,1.07061 0.89629,0.0119 0.92866,0.048 1.00741,1.12448 0.0808,1.10471 0.0884,1.1122 1.12448,1.1122 h 1.04312 v 28.04584 28.04583 h -1.05285 -1.05286 l -0.0716,5.35781 -0.0716,5.35782 -24.62694,0.0675 c -13.544821,0.0371 -24.706931,-0.0125 -24.80469,-0.11024 z"
       id="path889"
       inkscape:connector-curvature="0" />
    <path
       style="fill:#ffffff;fill-opacity:1;stroke-width:0.26458338"
       d="m 123.57931,174.70368 v -3.175 H 100.82514 78.070976 v 3.175 3.17502 h 22.754164 22.75417 z"
       id="path887"
       inkscape:connector-curvature="0" />
    <path
       style="fill:#ffffff;fill-opacity:1;stroke-width:0.26458338"
       d="m 125.69597,141.36618 v -28.04583 h -1.05833 -1.05833 v -1.05834 -1.05833 h -22.75417 c -12.514789,0 -22.740064,0.0893 -22.722831,0.19844 0.01723,0.10914 0.01723,0.58539 0,1.05833 -0.02994,0.8216 -0.07847,0.8599 -1.089666,0.8599 H 75.95431 v 28.04583 28.04585 h 24.87083 24.87083 z"
       id="path885"
       inkscape:connector-curvature="0" />
    <path
       style="fill:#31363b;fill-opacity:1;stroke-width:0.26458338"
       d="m 80.452226,161.7391 v -1.05832 h 2.116667 2.116667 v 1.05832 1.05833 h -2.116667 -2.116667 z"
       id="path883"
       inkscape:connector-curvature="0" />
    <path
       style="fill:#31363b;fill-opacity:1;stroke-width:0.26458338"
       d="m 106.11681,159.62243 v -1.05833 h 6.48229 6.48229 v 1.05833 1.05835 h -6.48229 -6.48229 z"
       id="path881"
       inkscape:connector-curvature="0" />
    <path
       style="fill:#31363b;fill-opacity:1;stroke-width:0.26458338"
       d="m 82.568893,148.77453 v -1.05835 H 81.51056 80.452226 v -15.08125 -15.08125 h 1.058334 1.058333 v -1.05833 -1.05833 h 18.256247 18.25625 v 1.05833 1.05833 h 1.05833 1.05834 v 15.08125 15.08125 h -1.05834 -1.05833 v 1.05835 1.05832 H 100.82514 82.568893 Z"
       id="path879"
       inkscape:connector-curvature="0" />
    <path
       style="fill:#000000;fill-opacity:1;stroke-width:0.26458338"
       d="M 119.08139,132.63493 V 117.55368 H 100.82514 82.568893 v 15.08125 15.08125 h 18.256247 18.25625 z"
       id="path877"
       inkscape:connector-curvature="0" />
    <path
       style="fill:#37e04c;fill-opacity:1;stroke-width:0.26458338"
       d="m 95.533481,142.42453 v -1.05835 h -1.05834 -1.058332 v -1.05833 -1.05833 h 1.058332 1.05834 v 1.05833 1.05833 h 4.23333 4.233329 v -1.05833 -1.05833 h 1.05834 1.05833 v 1.05833 1.05833 h -1.05833 -1.05834 v 1.05835 1.05832 h -4.233329 -4.23333 z"
       id="path875"
       inkscape:connector-curvature="0" />
    <path
       style="fill:#37e04c;fill-opacity:1;stroke-width:0.26458338"
       d="m 97.650141,135.80993 c 0,-1.05741 8e-4,-1.05833 1.05286,-1.05833 h 1.05285 l 0.0716,-5.35781 0.0716,-5.35782 h 0.926039 0.92605 l 0.0709,6.41615 0.0708,6.41615 h -2.121369 -2.12137 z"
       id="path873"
       inkscape:connector-curvature="0" />
    <path
       style="fill:#37e04c;fill-opacity:1;stroke-width:0.26458338"
       d="m 91.224541,128.2378 c -0.2637,-0.2637 -0.229532,-3.59592 0.04125,-4.02302 0.13359,-0.2107 0.580186,-0.31616 1.120425,-0.26458 l 0.898298,0.0858 v 2.11667 2.11667 l -0.935498,0.0787 c -0.514525,0.0433 -1.02054,-0.006 -1.124479,-0.11024 z"
       id="path871"
       inkscape:connector-curvature="0" />
    <path
       style="fill:#37e04c;fill-opacity:1;stroke-width:0.26458338"
       d="m 106.2278,128.04462 c -0.0753,-0.19634 -0.10137,-1.1786 -0.0578,-2.18281 l 0.0791,-1.82584 h 0.92604 0.92604 l 0.0769,2.18282 0.0768,2.18281 h -0.94504 c -0.54903,0 -1.00245,-0.14959 -1.08203,-0.35698 z"
       id="path826"
       inkscape:connector-curvature="0" />
  </g>
</svg>
