<?xml version="1.0" encoding="UTF-8" standalone="no"?>
<svg
   xmlns:dc="http://purl.org/dc/elements/1.1/"
   xmlns:cc="http://creativecommons.org/ns#"
   xmlns:rdf="http://www.w3.org/1999/02/22-rdf-syntax-ns#"
   xmlns:svg="http://www.w3.org/2000/svg"
   xmlns="http://www.w3.org/2000/svg"
   xmlns:sodipodi="http://sodipodi.sourceforge.net/DTD/sodipodi-0.dtd"
   xmlns:inkscape="http://www.inkscape.org/namespaces/inkscape"
   id="svg8"
   version="1.1"
   viewBox="0 0 146.53369 10.242269"
   height="10.242269mm"
   width="146.53369mm"
   sodipodi:docname="ema0.svg"
   inkscape:version="0.92.4 5da689c313, 2019-01-14">
  <sodipodi:namedview
     pagecolor="#ffffff"
     bordercolor="#666666"
     borderopacity="1"
     objecttolerance="10"
     gridtolerance="10"
     guidetolerance="10"
     inkscape:pageopacity="0"
     inkscape:pageshadow="2"
     inkscape:window-width="1920"
     inkscape:window-height="1143"
     id="namedview8"
     showgrid="false"
     inkscape:zoom="0.66085485"
     inkscape:cx="276.91406"
     inkscape:cy="19.355468"
     inkscape:window-x="0"
     inkscape:window-y="28"
     inkscape:window-maximized="1"
     inkscape:current-layer="svg8" />
  <defs
     id="defs2" />
  <metadata
     id="metadata5">
    <rdf:RDF>
      <cc:Work
         rdf:about="">
        <dc:format>image/svg+xml</dc:format>
        <dc:type
           rdf:resource="http://purl.org/dc/dcmitype/StillImage" />
        <dc:title></dc:title>
      </cc:Work>
    </rdf:RDF>
  </metadata>
  <g
     transform="translate(-41.783349,-69.354976)"
     id="layer1">
    <g
       aria-label="eadavison@protonmail.com"
       style="font-style:normal;font-weight:normal;font-size:10.58333302px;line-height:6.61458302px;font-family:sans-serif;letter-spacing:0px;word-spacing:0px;fill:#31363b;fill-opacity:1;stroke:none;stroke-width:0.26458332"
       id="text12">
      <path
         d="m 47.147363,74.264237 v 0.465087 h -4.371826 q 0.06201,0.981853 0.589111,1.498617 0.532267,0.511597 1.477946,0.511597 0.54777,0 1.059367,-0.134359 0.516764,-0.134359 1.023193,-0.403076 v 0.89917 q -0.511596,0.217041 -1.049031,0.330729 -0.537435,0.113688 -1.090373,0.113688 -1.384928,0 -2.196248,-0.806152 -0.806153,-0.806153 -0.806153,-2.180746 0,-1.421102 0.764812,-2.253092 0.769978,-0.837158 2.072224,-0.837158 1.167888,0 1.844849,0.754476 0.682129,0.749308 0.682129,2.041219 z m -0.950846,-0.279053 q -0.01034,-0.780314 -0.43925,-1.245402 -0.423747,-0.465088 -1.126546,-0.465088 -0.795817,0 -1.276408,0.449585 -0.475423,0.449585 -0.54777,1.266072 z"
         style="fill:#31363b;fill-opacity:1;stroke-width:0.26458332"
         id="path815" />
      <path
         d="m 51.338322,74.486445 q -1.152385,0 -1.596802,0.26355 -0.444417,0.26355 -0.444417,0.89917 0,0.506429 0.330729,0.806152 0.335897,0.294556 0.909505,0.294556 0.790649,0 1.266072,-0.558106 Q 52.284,75.628494 52.284,74.698319 v -0.211874 z m 1.896525,-0.392741 v 3.302124 H 52.284 v -0.878499 q -0.325561,0.5271 -0.81132,0.780314 -0.485758,0.248047 -1.188558,0.248047 -0.888834,0 -1.415934,-0.496094 -0.521932,-0.501261 -0.521932,-1.338419 0,-0.976685 0.651123,-1.472779 0.656291,-0.496093 1.953369,-0.496093 H 52.284 v -0.09302 q 0,-0.656291 -0.434082,-1.012858 -0.428914,-0.361735 -1.209228,-0.361735 -0.496094,0 -0.966349,0.118856 -0.470256,0.118856 -0.904338,0.356567 v -0.878499 q 0.521932,-0.201538 1.012858,-0.299723 0.490926,-0.103353 0.956014,-0.103353 1.255737,0 1.875854,0.651123 0.620118,0.651123 0.620118,1.974039 z"
         style="fill:#31363b;fill-opacity:1;stroke-width:0.26458332"
         id="path817" />
      <path
         d="m 59.001936,72.486567 v -3.131591 h 0.950846 v 8.040852 h -0.950846 v -0.868164 q -0.299723,0.516765 -0.759644,0.769979 -0.454752,0.248047 -1.09554,0.248047 -1.049032,0 -1.71049,-0.837158 -0.656291,-0.837158 -0.656291,-2.201416 0,-1.364258 0.656291,-2.201416 0.661458,-0.837158 1.71049,-0.837158 0.640788,0 1.09554,0.253214 0.459921,0.248047 0.759644,0.764811 z m -3.240112,2.020549 q 0,1.049031 0.428914,1.648478 0.434082,0.594279 1.188558,0.594279 0.754476,0 1.188558,-0.594279 0.434082,-0.599447 0.434082,-1.648478 0,-1.049032 -0.434082,-1.643311 -0.434082,-0.599446 -1.188558,-0.599446 -0.754476,0 -1.188558,0.599446 -0.428914,0.594279 -0.428914,1.643311 z"
         style="fill:#31363b;fill-opacity:1;stroke-width:0.26458332"
         id="path819" />
      <path
         d="m 64.541649,74.486445 q -1.152385,0 -1.596802,0.26355 -0.444417,0.26355 -0.444417,0.89917 0,0.506429 0.330729,0.806152 0.335897,0.294556 0.909505,0.294556 0.790649,0 1.266073,-0.558106 0.48059,-0.563273 0.48059,-1.493448 v -0.211874 z m 1.896525,-0.392741 v 3.302124 h -0.950847 v -0.878499 q -0.325561,0.5271 -0.81132,0.780314 -0.485758,0.248047 -1.188557,0.248047 -0.888835,0 -1.415935,-0.496094 -0.521932,-0.501261 -0.521932,-1.338419 0,-0.976685 0.651123,-1.472779 0.656291,-0.496093 1.95337,-0.496093 h 1.333251 v -0.09302 q 0,-0.656291 -0.434082,-1.012858 -0.428914,-0.361735 -1.209228,-0.361735 -0.496094,0 -0.966349,0.118856 -0.470256,0.118856 -0.904338,0.356567 v -0.878499 q 0.521932,-0.201538 1.012858,-0.299723 0.490926,-0.103353 0.956014,-0.103353 1.255737,0 1.875855,0.651123 0.620117,0.651123 0.620117,1.974039 z"
         style="fill:#31363b;fill-opacity:1;stroke-width:0.26458332"
         id="path821" />
      <path
         d="m 67.714583,71.608068 h 1.00769 l 1.808676,4.857584 1.808675,-4.857584 h 1.00769 l -2.17041,5.78776 h -1.291911 z"
         style="fill:#31363b;fill-opacity:1;stroke-width:0.26458332"
         id="path823" />
      <path
         d="m 74.659896,71.608068 h 0.950846 v 5.78776 h -0.950846 z m 0,-2.253092 h 0.950846 v 1.20406 h -0.950846 z"
         style="fill:#31363b;fill-opacity:1;stroke-width:0.26458332"
         id="path825" />
      <path
         d="m 81.28998,71.7786 v 0.89917 q -0.403076,-0.206706 -0.837158,-0.310058 -0.434082,-0.103353 -0.89917,-0.103353 -0.707967,0 -1.064534,0.217041 -0.3514,0.217041 -0.3514,0.651123 0,0.330729 0.253215,0.521932 0.253214,0.186035 1.018025,0.356567 l 0.325562,0.07235 q 1.012858,0.217041 1.436605,0.61495 0.428914,0.39274 0.428914,1.100708 0,0.806152 -0.640788,1.276407 -0.63562,0.470256 -1.751831,0.470256 -0.465088,0 -0.971517,-0.09302 -0.501261,-0.08785 -1.059366,-0.268717 v -0.981852 q 0.527099,0.273885 1.038696,0.413411 0.511596,0.134359 1.012858,0.134359 0.671793,0 1.033528,-0.227376 0.361735,-0.232544 0.361735,-0.651123 0,-0.387574 -0.263549,-0.594279 -0.258382,-0.206706 -1.142049,-0.397909 l -0.33073,-0.07752 q -0.883667,-0.186035 -1.276407,-0.56844 -0.392741,-0.387574 -0.392741,-1.059367 0,-0.816488 0.578776,-1.260905 0.578776,-0.444417 1.64331,-0.444417 0.5271,0 0.992188,0.07751 0.465088,0.07752 0.857828,0.232544 z"
         style="fill:#31363b;fill-opacity:1;stroke-width:0.26458332"
         id="path827" />
      <path
         d="m 85.356914,72.274694 q -0.764811,0 -1.209228,0.599447 -0.444417,0.594279 -0.444417,1.632975 0,1.038696 0.439249,1.638143 0.444418,0.594279 1.214396,0.594279 0.759644,0 1.204061,-0.599447 0.444418,-0.599447 0.444418,-1.632975 0,-1.028361 -0.444418,-1.627808 -0.444417,-0.604614 -1.204061,-0.604614 z m 0,-0.806152 q 1.240235,0 1.948202,0.806152 0.707967,0.806152 0.707967,2.232422 0,1.421102 -0.707967,2.232422 -0.707967,0.806152 -1.948202,0.806152 -1.245402,0 -1.953369,-0.806152 -0.702799,-0.81132 -0.702799,-2.232422 0,-1.42627 0.702799,-2.232422 0.707967,-0.806152 1.953369,-0.806152 z"
         style="fill:#31363b;fill-opacity:1;stroke-width:0.26458332"
         id="path829" />
      <path
         d="m 94.400293,73.902502 v 3.493326 h -0.950847 v -3.462321 q 0,-0.821655 -0.320394,-1.229899 -0.320394,-0.408243 -0.961181,-0.408243 -0.769979,0 -1.214396,0.490926 -0.444418,0.490926 -0.444418,1.338419 v 3.271118 h -0.956014 v -5.78776 h 0.956014 v 0.89917 q 0.341065,-0.521932 0.800985,-0.780314 0.465088,-0.258382 1.069702,-0.258382 0.997355,0 1.508952,0.620117 0.511597,0.614949 0.511597,1.813843 z"
         style="fill:#31363b;fill-opacity:1;stroke-width:0.26458332"
         id="path831" />
      <path
         d="m 99.237205,74.620804 q 0,0.738973 0.366903,1.16272 0.366903,0.418579 1.007692,0.418579 0.63562,0 0.99735,-0.423747 0.36691,-0.423747 0.36691,-1.157552 0,-0.72347 -0.37207,-1.147217 -0.37207,-0.428914 -1.00253,-0.428914 -0.625282,0 -0.997352,0.423747 -0.366903,0.423746 -0.366903,1.152384 z m 2.816365,1.545125 q -0.31006,0.397909 -0.71313,0.589112 -0.39791,0.186035 -0.93018,0.186035 -0.888834,0 -1.44694,-0.640788 -0.552938,-0.645955 -0.552938,-1.679484 0,-1.033529 0.558106,-1.679484 0.558105,-0.645955 1.441772,-0.645955 0.53227,0 0.93534,0.19637 0.40308,0.191203 0.70797,0.583944 v -0.676962 h 0.73897 v 3.803386 q 0.75448,-0.113688 1.17823,-0.687297 0.42891,-0.578776 0.42891,-1.493449 0,-0.552937 -0.16536,-1.038696 -0.1602,-0.485758 -0.49093,-0.89917 -0.53743,-0.676961 -1.31258,-1.033528 -0.76998,-0.361735 -1.67949,-0.361735 -0.63562,0 -1.219559,0.170532 -0.583944,0.165364 -1.080037,0.496093 -0.81132,0.5271 -1.271241,1.384929 -0.454752,0.852661 -0.454752,1.850016 0,0.821655 0.294556,1.539958 0.299723,0.718302 0.862996,1.266072 0.542602,0.537435 1.255737,0.816488 0.713135,0.28422 1.52445,0.28422 0.66663,0 1.30742,-0.227376 0.64595,-0.222209 1.18339,-0.640788 l 0.46509,0.573609 q -0.64596,0.501261 -1.41077,0.764811 -0.75964,0.268717 -1.54513,0.268717 -0.956009,0 -1.803503,-0.341064 -0.847493,-0.335897 -1.508951,-0.981852 -0.661459,-0.645956 -1.007691,-1.493449 -0.346232,-0.852661 -0.346232,-1.829346 0,-0.940511 0.3514,-1.793172 0.3514,-0.852661 1.002523,-1.498617 0.666626,-0.65629 1.539957,-1.002522 0.873332,-0.3514 1.850017,-0.3514 1.09554,0 2.03088,0.449585 0.94051,0.449585 1.57613,1.276408 0.38758,0.506429 0.58912,1.100708 0.2067,0.594279 0.2067,1.229899 0,1.35909 -0.82165,2.144572 -0.82166,0.785481 -2.2686,0.816487 z"
         style="fill:#31363b;fill-opacity:1;stroke-width:0.26458332"
         id="path833" />
      <path
         d="m 107.79999,76.527664 v 3.06958 h -0.95601 v -7.989176 h 0.95601 v 0.878499 q 0.29972,-0.516764 0.75447,-0.764811 0.45993,-0.253214 1.09555,-0.253214 1.05419,0 1.71049,0.837158 0.66145,0.837158 0.66145,2.201416 0,1.364258 -0.66145,2.201416 -0.6563,0.837158 -1.71049,0.837158 -0.63562,0 -1.09555,-0.248047 -0.45475,-0.253214 -0.75447,-0.769979 z m 3.23494,-2.020548 q 0,-1.049032 -0.43408,-1.643311 -0.42891,-0.599446 -1.18339,-0.599446 -0.75447,0 -1.18856,0.599446 -0.42891,0.594279 -0.42891,1.643311 0,1.049031 0.42891,1.648478 0.43409,0.594279 1.18856,0.594279 0.75448,0 1.18339,-0.594279 0.43408,-0.599447 0.43408,-1.648478 z"
         style="fill:#31363b;fill-opacity:1;stroke-width:0.26458332"
         id="path835" />
      <path
         d="m 116.95188,72.496903 q -0.16019,-0.09302 -0.3514,-0.134359 -0.18603,-0.04651 -0.41341,-0.04651 -0.80615,0 -1.24023,0.5271 -0.42892,0.521932 -0.42892,1.503784 v 3.048909 h -0.95601 v -5.78776 h 0.95601 v 0.89917 q 0.29973,-0.5271 0.78032,-0.780314 0.48059,-0.258382 1.16788,-0.258382 0.0982,0 0.21705,0.0155 0.11885,0.01034 0.26354,0.03617 z"
         style="fill:#31363b;fill-opacity:1;stroke-width:0.26458332"
         id="path837" />
      <path
         d="m 120.19109,72.274694 q -0.76481,0 -1.20923,0.599447 -0.44442,0.594279 -0.44442,1.632975 0,1.038696 0.43925,1.638143 0.44442,0.594279 1.2144,0.594279 0.75964,0 1.20406,-0.599447 0.44442,-0.599447 0.44442,-1.632975 0,-1.028361 -0.44442,-1.627808 -0.44442,-0.604614 -1.20406,-0.604614 z m 0,-0.806152 q 1.24023,0 1.9482,0.806152 0.70797,0.806152 0.70797,2.232422 0,1.421102 -0.70797,2.232422 -0.70797,0.806152 -1.9482,0.806152 -1.2454,0 -1.95337,-0.806152 -0.7028,-0.81132 -0.7028,-2.232422 0,-1.42627 0.7028,-2.232422 0.70797,-0.806152 1.95337,-0.806152 z"
         style="fill:#31363b;fill-opacity:1;stroke-width:0.26458332"
         id="path839" />
      <path
         d="m 125.3639,69.964758 v 1.64331 h 1.95854 v 0.738973 h -1.95854 v 3.141927 q 0,0.707967 0.19121,0.909505 0.19637,0.201538 0.79065,0.201538 h 0.97668 v 0.795817 h -0.97668 q -1.10071,0 -1.51929,-0.408244 -0.41858,-0.413411 -0.41858,-1.498616 v -3.141927 h -0.69763 v -0.738973 h 0.69763 v -1.64331 z"
         style="fill:#31363b;fill-opacity:1;stroke-width:0.26458332"
         id="path841" />
      <path
         d="m 130.81576,72.274694 q -0.76481,0 -1.20923,0.599447 -0.44441,0.594279 -0.44441,1.632975 0,1.038696 0.43925,1.638143 0.44441,0.594279 1.21439,0.594279 0.75965,0 1.20406,-0.599447 0.44442,-0.599447 0.44442,-1.632975 0,-1.028361 -0.44442,-1.627808 -0.44441,-0.604614 -1.20406,-0.604614 z m 0,-0.806152 q 1.24024,0 1.9482,0.806152 0.70797,0.806152 0.70797,2.232422 0,1.421102 -0.70797,2.232422 -0.70796,0.806152 -1.9482,0.806152 -1.2454,0 -1.95337,-0.806152 -0.7028,-0.81132 -0.7028,-2.232422 0,-1.42627 0.7028,-2.232422 0.70797,-0.806152 1.95337,-0.806152 z"
         style="fill:#31363b;fill-opacity:1;stroke-width:0.26458332"
         id="path843" />
      <path
         d="m 139.85914,73.902502 v 3.493326 h -0.95085 v -3.462321 q 0,-0.821655 -0.32039,-1.229899 -0.32039,-0.408243 -0.96118,-0.408243 -0.76998,0 -1.2144,0.490926 -0.44442,0.490926 -0.44442,1.338419 v 3.271118 h -0.95601 v -5.78776 h 0.95601 v 0.89917 q 0.34107,-0.521932 0.80099,-0.780314 0.46509,-0.258382 1.0697,-0.258382 0.99736,0 1.50895,0.620117 0.5116,0.614949 0.5116,1.813843 z"
         style="fill:#31363b;fill-opacity:1;stroke-width:0.26458332"
         id="path845" />
      <path
         d="m 146.26184,72.719111 q 0.35657,-0.640787 0.85267,-0.945678 0.49609,-0.304891 1.16788,-0.304891 0.90434,0 1.39527,0.63562 0.49092,0.630452 0.49092,1.79834 v 3.493326 h -0.95601 v -3.462321 q 0,-0.83199 -0.29456,-1.235066 -0.29455,-0.403076 -0.89917,-0.403076 -0.73897,0 -1.16788,0.490926 -0.42892,0.490926 -0.42892,1.338419 v 3.271118 h -0.95601 v -3.462321 q 0,-0.837158 -0.29456,-1.235066 -0.29455,-0.403076 -0.9095,-0.403076 -0.72864,0 -1.15756,0.496093 -0.42891,0.490926 -0.42891,1.333252 v 3.271118 h -0.95601 v -5.78776 h 0.95601 v 0.89917 q 0.32556,-0.532267 0.78031,-0.785482 0.45476,-0.253214 1.08004,-0.253214 0.63045,0 1.0697,0.320394 0.44442,0.320393 0.65629,0.930175 z"
         style="fill:#31363b;fill-opacity:1;stroke-width:0.26458332"
         id="path847" />
      <path
         d="m 154.69544,74.486445 q -1.15239,0 -1.5968,0.26355 -0.44442,0.26355 -0.44442,0.89917 0,0.506429 0.33073,0.806152 0.3359,0.294556 0.9095,0.294556 0.79065,0 1.26608,-0.558106 0.48059,-0.563273 0.48059,-1.493448 v -0.211874 z m 1.89652,-0.392741 v 3.302124 h -0.95084 v -0.878499 q -0.32556,0.5271 -0.81132,0.780314 -0.48576,0.248047 -1.18856,0.248047 -0.88884,0 -1.41594,-0.496094 -0.52193,-0.501261 -0.52193,-1.338419 0,-0.976685 0.65113,-1.472779 0.65629,-0.496093 1.95337,-0.496093 h 1.33325 v -0.09302 q 0,-0.656291 -0.43409,-1.012858 -0.42891,-0.361735 -1.20922,-0.361735 -0.4961,0 -0.96635,0.118856 -0.47026,0.118856 -0.90434,0.356567 v -0.878499 q 0.52193,-0.201538 1.01286,-0.299723 0.49092,-0.103353 0.95601,-0.103353 1.25574,0 1.87586,0.651123 0.62011,0.651123 0.62011,1.974039 z"
         style="fill:#31363b;fill-opacity:1;stroke-width:0.26458332"
         id="path849" />
      <path
         d="m 158.55051,71.608068 h 0.95084 v 5.78776 h -0.95084 z m 0,-2.253092 h 0.95084 v 1.20406 h -0.95084 z"
         style="fill:#31363b;fill-opacity:1;stroke-width:0.26458332"
         id="path851" />
      <path
         d="m 161.49089,69.354976 h 0.95085 v 8.040852 h -0.95085 z"
         style="fill:#31363b;fill-opacity:1;stroke-width:0.26458332"
         id="path853" />
      <path
         d="m 164.56564,76.083247 h 1.09037 v 1.312581 h -1.09037 z"
         style="fill:#31363b;fill-opacity:1;stroke-width:0.26458332"
         id="path855" />
      <path
         d="m 171.96054,71.830277 v 0.888834 q -0.40308,-0.222208 -0.81132,-0.330729 -0.40308,-0.113688 -0.81649,-0.113688 -0.92501,0 -1.43661,0.589111 -0.51159,0.583944 -0.51159,1.643311 0,1.059367 0.51159,1.648478 0.5116,0.583944 1.43661,0.583944 0.41341,0 0.81649,-0.108521 0.40824,-0.113688 0.81132,-0.335897 v 0.8785 q -0.39791,0.186035 -0.82683,0.279052 -0.42374,0.09302 -0.90433,0.09302 -1.30742,0 -2.0774,-0.821655 -0.76997,-0.821656 -0.76997,-2.216919 0,-1.415934 0.77514,-2.227254 0.78032,-0.81132 2.13424,-0.81132 0.43925,0 0.85783,0.09302 0.41858,0.08785 0.81132,0.268718 z"
         style="fill:#31363b;fill-opacity:1;stroke-width:0.26458332"
         id="path857" />
      <path
         d="m 175.85694,72.274694 q -0.76481,0 -1.20923,0.599447 -0.44442,0.594279 -0.44442,1.632975 0,1.038696 0.43925,1.638143 0.44442,0.594279 1.2144,0.594279 0.75964,0 1.20406,-0.599447 0.44442,-0.599447 0.44442,-1.632975 0,-1.028361 -0.44442,-1.627808 -0.44442,-0.604614 -1.20406,-0.604614 z m 0,-0.806152 q 1.24023,0 1.9482,0.806152 0.70797,0.806152 0.70797,2.232422 0,1.421102 -0.70797,2.232422 -0.70797,0.806152 -1.9482,0.806152 -1.2454,0 -1.95337,-0.806152 -0.7028,-0.81132 -0.7028,-2.232422 0,-1.42627 0.7028,-2.232422 0.70797,-0.806152 1.95337,-0.806152 z"
         style="fill:#31363b;fill-opacity:1;stroke-width:0.26458332"
         id="path859" />
      <path
         d="m 184.59543,72.719111 q 0.35657,-0.640787 0.85266,-0.945678 0.4961,-0.304891 1.16789,-0.304891 0.90434,0 1.39526,0.63562 0.49093,0.630452 0.49093,1.79834 v 3.493326 h -0.95601 v -3.462321 q 0,-0.83199 -0.29456,-1.235066 -0.29455,-0.403076 -0.89917,-0.403076 -0.73897,0 -1.16789,0.490926 -0.42891,0.490926 -0.42891,1.338419 v 3.271118 h -0.95601 v -3.462321 q 0,-0.837158 -0.29456,-1.235066 -0.29456,-0.403076 -0.90951,-0.403076 -0.72863,0 -1.15755,0.496093 -0.42891,0.490926 -0.42891,1.333252 v 3.271118 h -0.95602 v -5.78776 h 0.95602 v 0.89917 q 0.32556,-0.532267 0.78031,-0.785482 0.45475,-0.253214 1.08004,-0.253214 0.63045,0 1.0697,0.320394 0.44442,0.320393 0.65629,0.930175 z"
         style="fill:#31363b;fill-opacity:1;stroke-width:0.26458332"
         id="path861" />
    </g>
  </g>
</svg>
